<svg xmlns="http://www.w3.org/2000/svg" width="512" height="512" viewBox="0 0 512 512"><clipPath id="a"><path d="M0 0h512v512H0z"/></clipPath><g clip-path="url(#a)"><defs><linearGradient id="b" x1="999.957" x2="1464.461" y1="744.906" y2="831.857" gradientUnits="userSpaceOnUse"><stop offset="0" stop-color="#de9e44"/><stop offset="1" stop-color="#ffd67c"/></linearGradient></defs><path fill="url(#b)" d="M1517.1 368.4c2.19-2.467 2.89-3.929 4.28-6.829l1.32 1.019c.7 13.378-1.4 36.719.35 48.568-3.1 68.347-14.21 146.964-45.42 209-9.28 18.437-23.84 38.43-36.5 54.867 33.79-13.362 38.75-18.966 66-41.796-35.58 71.755-89.44 145.539-149.68 198.296 15.97-2.789 32.73-6.262 46.48-15.465l4.21-.692c.59 2.096-.6 3.085-1.93 5.706-56.06 66.237-127.38 103.731-210.74 125.668-30.43 8.01-71.58 15.502-100.17 27.779 39.53-.942 72.6.437 111.26 10.6-42.35 7.332-98.74 17.839-137.1 38.169-9.51 4.85-15 7.24-22.44 15.05 10.97-3.45 21.81-7.15 33.1-9.39 21.58-2.69 42.64-6.51 63.7.04-46.55 9.56-81.38 22.9-122.79 46.54-14.68 8.57-33.242 18.97-45.075 30.93 16.637-8.45 31.945-16.36 49.325-23.18 16.85-6.14 23.64-7.3 41.03-10.1-36.18 20.96-116.03 72.58-122.5 115.6-11.891 58.15-11.524 132.55 13.082 187.23-2.283 3.07-.847 2.22-4.165 3.09-38.379-60.19-47.338-125.39-54.198-193.8-.352-3.51-8.709-16.49-10.745-21.65-12.167-30.83-16.621-57.2-14.51-90.18 1.47 1.89 1.294 1.77 2.054 4.11 6.606 20.33 12.217 35.39 26.506 51.43-12.73-30.62-16.546-40.98-22.869-74.13a371.6 371.6 0 0 1 5.276-116.943c2.896 15.442 3.2 30.168 6.883 46.571 4.68 27.042 17.39 60.322 32.5 83.252-5.708-22.5-10.852-39.48-14.576-62.88-3.685-23.152-4.243-40.472-5.905-63.394.552-4.538.373-11.352.404-16.035.38-57.361 13.467-109.077 39.062-160.379 2.844 2.947 1.942 2.252 2.595 7.29-17.853 62.128-26.043 148.344-18.727 212.606 1.503 13.199 3.154 30.072 8.643 42.102 31.907-80.134 63.451-131.206 123.22-193.866-2.61-2.062-6.59-4.965-8.77-7.27l1.18-.331c-.83-2.486-.58-1.204.1-4.151 2.07-2.651 1.85-2.554 5.06-3.512 12.6 1.215 31.25-24.109 37.61-32.882l1.98 1.917c.39 2.294.33 2.879.19 5.179l1 .898c6.31-2.353 10.07-7.041 16.83-9.643l9.52 5.998c-1.85 2.284-2.62 2.315-5.32 3.494-1.75 2.462-2.19 2.051-2.14 4.141l-.65.9c-5.25 7.215-31.02 36.163-32.64 40.747 1.77 1.594 2.22 1.947 4.22 3.233 3.23 2.27 4.07.601 8.04 3.638l1.38-.013c9.17 3.066 11.24 6.703 19.17 2.801 4.98 5.82-2.53 3.474 4.93 6.621 7.08-.028 9.27-4.988 14.59-4.445 4.54 5.086-1.45 1.197 2.08 6.617 6.97 1.162 8.55 1.148 15.06-1.525l6.8 1.766c7.99 1.204 11.52 1.605 17.92-2.758 3.32 1.502 3.44 2.279 6.32 1.683 8.33-.856 11.96-1.475 16.57-8.379 1.84 1.182 2.66 1.891 4.11 3.537l2.54-.757c7.49-2.957 8.86-2.222 11.15-10.398 3.71-.038 3.18-.557 6.04 2.373 7.9-1.505 17.28-7.901 17.55-16.763l5.43 1.94c5.22-1.284 9.39-6.074 13.32-9.847-3.2-14.92-6.09-19.09-15.43-30.812 1.82-2.215 1.52-1.607 4.26-3.121 9.34 9.634 12.36 15.666 16.88 28.02 2.63-2.614 9.78-9.99 12.43-11.985l1.09-.593c.41-2.922.12-3.264 1.98-5.404 4.67-3.881 8.07-9.882 11.05-15.08l.88-.294c1.34-5.381 3.02-6.053 4.07-9.287 2.54-5.761 3.54-7.943 7-13.3l.86-.373c1.29-2.668.79-1.975-.52-5.781l1.02-1.434c2.92-6.118 3.74-7.647 1.68-13.875l.53-1.645c1.98-.709 1.75-.482 3.54-1.983l2.5-13.609c-2.16-3.107-4.89-6.298-7.3-9.258 2.64-3.023 1.07-1.999 4.91-3.175l2.49.716c3.1-4.993 1.02-14.339.26-20.434-1.08-5.696 1.09-6.393.01-10.065-3.27-14.606-.58-21.199-17.12-24.16l-2.83-2.241.13-1.147c3.5-.509 6.09-.586 9.64-.725l1.45.108 1.17-1.091c-.14-3.573-3.55-10.289-4.98-14.83-1.79-7.404-1.16-7.575-6.54-11.46-1.44-1.931-4.05-6.421-5.45-8.643-1.65-1.324-1.52-1.244-3.43-2.219l-.62-4.17c-3.24-3.505-7.43-8.784-10.6-12.542-1.08-1.33-4.51-5.577-5.48-5.977-3.42-2.78-3.92-3.49-8-4.787-3.49.217-3.6.596-6.52 2.415-4.13.847-3.95.963-7.96-.11l-1.51.782c-3.76 1.273-8.17 2.628-11.73 4.259-1.03 12.476-.7 13.932 3.66 25.743 2.91 5.568 1.96 6.697 1.76 12.779l-3.11 12.295-1.46 2.391a72 72 0 0 1-6.53 9.516 48.32 48.32 0 0 1-33.28 18.322 45.38 45.38 0 0 1-34.05-11.045c-12.16-10.758-14.46-22.196-15.36-37.22a3301 3301 0 0 1-31.01 16.17c-3.27-1.335-2.58-1.565-5-5.116 55.4-30.161 101.16-44.278 160.88-64.077 6.48-1.73 13.19-4.16 19.64-6.263 87.71-28.603 177.31-75.446 216.08-164.554 4.27-9.813 7.63-19.425 11.56-29.244m-143.25 210.107c.06 4.466.82 7.733-1.64 10.81l-1.5-.194-.28-1.155c-3.91-15.402-9.29-27.123-23.47-35.583-11.63 3.937-58.17 22.703-66.96 21.715l-2.36 2.194c.76 5.822 5.99 8.972 9.69 13.354 85.78 101.752 19.68 261.178-110.46 278.613-39.99 5.357-68.38-4.248-103.6-22.163-43.56 56.086-72.36 101.066-105.016 163.692 25.114 2.82 53.706-15.181 75.116-25.721a386 386 0 0 1 35.02-14.906c52.02-18.965 108.4-26.38 160.37-46.208 50.61-19.31 95.93-45.609 134.22-84.165-15.93 2.261-29.69 1.485-45.62-.235 8.6-4.522 18.25-12.714 25.85-19.027 46.81-38.9 90.98-99.374 121.55-151.868-26.75 14.186-49.54 23.596-77.92 34.488 19.68-18.249 35.28-33.47 51.59-55.175 48.77-64.87 57.28-154.282 63.51-233.388-10.5 13.787-19.56 30.835-31.34 45.561-37.26 46.602-74.65 64.57-124.74 90.262 8.59 7.921 15.69 17.423 17.99 29.099M992.399 1021.76c-9.469 4.35-17.625 8.29-26.525 13.77-3.809 8.03-7.7 15.94-10.893 24.24 11.016-10.51 24.134-23.94 37.546-31.1 14.083-8.13 28.803-13.41 43.153-21.99-12.68 2.96-31.19 10.05-43.281 15.08m21.731 17.64c-24.459 13.19-46.398 26.16-63.659 48.22-4.475 8.49-7.721 14-9.746 23.49 2.445-3.07 6.325-8.27 8.965-10.91 9.698-14.43 23.166-28.53 36.829-39.28 8.632-6.78 18.621-13.18 26.621-20.59z" transform="matrix(.3214 0 0 .36624 -70.066 -125.619)"/><path fill="#f2b858" fill-opacity=".937" d="M371.497 86.252c5.04 15.447-3.063 36.652-12.756 47.54 8.382-14.7 14.27-25.662 11.747-43.652l.482.07c.79-1.126.547-2.323.527-3.958"/><path fill="#0d011e" fill-opacity=".094" d="M235.42 272.708c5.548-8.08 12.6-12.83 20.461-17.66l-.318.34c-2.571 2.714-5.782 5.058-8.556 7.541-4.392 3.937-8.72 9.101-11.837 14.386-.849.967-2.096 2.871-2.882 3.996.651-3.476 1.694-5.494 3.133-8.603"/><path fill="#cd8329" d="M232.894 154.579c.914 1.079.624.824.834 2.67-5.738 22.753-8.37 54.329-6.02 77.864.484 4.834 1.015 11.013 2.779 15.419 10.255-29.348 20.393-48.052 39.603-71-.838-.756-2.118-1.82-2.818-2.663l.379-.122q2.262.289 4.519.654c4.152-4.463 9.414-8.352 13.92-12.47-5.705 8.592-13.448 16.818-19.586 25.155-18.597 25.246-32.561 54.755-38.488 87.167-1.197 6.544-3.846 23.761-3.182 29.826.656-1.077 1.361-7.164 1.576-8.71.075.89.13 1.623.278 2.51.634.468.659.487 1.354.033 1.176 2.516-.842 3.783-1.638 5.684-.63 1.501 1.944 4.893 1.615 6.863-.006 1.692.603 4.047 1.817 5.274l.606-.08c1.914-2.817.812-7.395 2.838-8.897-3.822 21.297-3.704 48.545 4.204 68.57-.733 1.125-.272.814-1.338 1.132-12.335-22.043-15.215-45.922-17.42-70.976-.113-1.286-2.799-6.04-3.453-7.93-3.91-11.29-5.342-20.948-4.664-33.027.473.693.416.649.66 1.506 2.123 7.445 3.927 12.96 8.52 18.835-4.092-11.214-5.319-15.008-7.35-27.149a154.7 154.7 0 0 1 1.695-42.829c.93 5.656 1.028 11.049 2.212 17.056 1.504 9.904 5.59 22.092 10.446 30.49-1.835-8.24-3.488-14.459-4.685-23.029-1.184-8.479-1.364-14.822-1.898-23.217.178-1.662.12-4.158.13-5.873.122-21.007 4.328-39.948 12.555-58.736"/><path fill="#f8c76d" d="M286.354 106.04c17.805-11.046 32.513-16.216 51.707-23.468l1.151.321.16.35-.186.17c1.398 1.482.99.421 2.147 1.225l-.758.803c.244 2.132 1.925 3.286 3.114 4.89 27.57 37.266 6.325 95.654-35.502 102.04-12.853 1.961-21.978-1.556-33.298-8.118-14 20.541-23.257 37.015-33.753 59.95-3.652 4.18-9.165 23.795-10.289 29.787-.712 3.365-1.54 6.973-2.14 10.346-.608 2.08-2.227 11.789-2.297 14.034-.215 1.545-.92 7.632-1.576 8.709-.664-6.065 1.985-23.282 3.182-29.826 5.927-32.412 19.891-61.921 38.488-87.167 6.138-8.337 13.881-16.563 19.586-25.155-4.506 4.118-9.768 8.007-13.92 12.47q-2.257-.364-4.519-.654c-.267-.91-.186-.44.032-1.52.665-.97.595-.935 1.626-1.286 4.05.445 10.044-8.83 12.088-12.043l.637.702c.125.84.106 1.055.06 1.897l.322.329c2.028-.862 3.237-2.579 5.41-3.532l3.06 2.197c-.595.837-.843.848-1.71 1.28-.563.901-.704.75-.688 1.516l-.21.33c-1.687 2.642-9.97 13.244-10.49 14.923.569.584.714.713 1.356 1.184 1.039.831 1.309.22 2.585 1.332l.443-.004c2.947 1.122 3.613 2.454 6.161 1.025 1.601 2.132-.813 1.273 1.585 2.425 2.276-.01 2.98-1.827 4.69-1.628 1.458 1.863-.467.439.668 2.424 2.24.425 2.748.42 4.84-.559l2.186.647c2.568.441 3.702.588 5.76-1.01 1.066.55 1.105.835 2.03.616 2.678-.313 3.845-.54 5.326-3.068.592.432.855.692 1.321 1.295l.817-.277c2.407-1.083 2.847-.814 3.583-3.808 1.193-.014 1.022-.204 1.942.869 2.539-.551 5.554-2.894 5.64-6.14l1.746.711c1.677-.47 3.018-2.225 4.28-3.606-1.028-5.465-1.957-6.992-4.959-11.285.585-.811.489-.588 1.37-1.143 3.001 3.528 3.972 5.738 5.425 10.262.845-.957 3.143-3.659 3.995-4.39l.35-.216c.132-1.07.039-1.196.637-1.98 1.5-1.421 2.593-3.619 3.551-5.522l.283-.108c.43-1.97.97-2.217 1.308-3.401.817-2.11 1.138-2.91 2.25-4.871l.276-.137c.415-.977.254-.723-.167-2.117l.328-.525c.939-2.241 1.202-2.8.54-5.082l.17-.602c.637-.26.563-.177 1.138-.727l.804-4.984c-.694-1.138-1.572-2.306-2.347-3.39.849-1.107.344-.732 1.579-1.163l.8.262c.996-1.829.328-5.251.083-7.484-.347-2.086.35-2.34.004-3.686-1.051-5.349-.187-7.764-5.503-8.848l-.91-.82.042-.42c1.125-.187 1.958-.215 3.099-.266l.466.04.376-.4c-.045-1.309-1.141-3.769-1.6-5.432-.576-2.711-.374-2.774-2.103-4.197-.463-.707-1.301-2.351-1.751-3.165-.53-.485-.489-.456-1.103-.813l-.2-1.527c-1.04-1.284-2.387-3.217-3.406-4.593-.347-.487-1.45-2.043-1.761-2.19-1.1-1.018-1.26-1.278-2.572-1.753-1.121.08-1.157.219-2.095.885-1.328.31-1.27.353-2.559-.04l-.485.286c-1.208.466-2.626.962-3.77 1.56-.331 4.569-.225 5.102 1.176 9.428.936 2.04.63 2.453.566 4.68l-1 4.503-.469.876a27 27 0 0 1-2.099 3.485c-2.613 3.807-6.476 6.232-10.696 6.71-3.979.417-7.935-1.045-10.944-4.045-3.908-3.94-4.647-8.13-4.937-13.632a1022 1022 0 0 1-9.966 5.922c-1.051-.488-.83-.573-1.607-1.873"/><path fill="#cd8329" d="M230.847 273.99c.566 1.16.244.857 1.125 1.523l.766-.242c1.029-1.263 1.367-1.758 2.683-2.563-1.439 3.109-2.482 5.127-3.133 8.603.786-1.125 2.033-3.03 2.882-3.996-.4 3.226-3.69 5.797-6.108 7.186l-.355-.165c.6-3.373 1.428-6.98 2.14-10.346"/><path fill="#0d011e" fill-opacity=".035" d="m248.897 248.587.04 2.531c-4.31 2.622-8.526 7.54-12.067 11.39 1.026-3.04 2.277-5.937 3.501-8.878 2.86-2.007 5.482-3.45 8.526-5.043"/><path fill="#0d011e" fill-opacity=".235" d="M248.897 248.587c3.886-1.842 9.835-4.438 13.91-5.523-4.612 3.143-9.343 5.077-13.87 8.054z"/><defs><linearGradient id="c" x1="402.436" x2="814.839" y1="1265.845" y2="1430.392" gradientUnits="userSpaceOnUse"><stop offset="0" stop-color="#bc6e19"/><stop offset="1" stop-color="#e7aa4d"/></linearGradient></defs><path fill="url(#c)" d="M612.031 1143.5q7.401 6.39 14.912 12.66a6023 6023 0 0 0-154.821 115.59c102.937 16.64 260.477 97.89 348.871 154.48-3.031 2.46-4.338 3.03-5.438 6.77.228 4.02.968 4.96 2.726 8.72-29.617-14.5-58.927-29.77-88.953-43.37a1768 1768 0 0 0-190.815-73.29l-58.728 44.79c-15.391 11.85-36.458 28.68-52.84 39.33 92.811 4.47 205.435 29.26 294.188 57.95l-4.941.02c-1.638 4.58 1.958 8.49-.596 12.94-.069.11-.619 2.52-.643 2.63a1933 1933 0 0 0-388.596-38.9c15.482-12.26 42.352-29.51 59.503-41.27l124.373-84.44c-30.741-9.49-94.304-19.63-126.309-22.45 9.662-6.99 20.385-14.28 30.423-20.78 66.182-42.84 130.73-89.88 197.684-131.38" transform="matrix(.3214 0 0 .36624 -70.066 -125.619)"/><defs><linearGradient id="d" x1="1271.802" x2="1636.706" y1="1461.273" y2="1260.559" gradientUnits="userSpaceOnUse"><stop offset="0" stop-color="#e0a144"/><stop offset="1" stop-color="#ffd37a"/></linearGradient></defs><path fill="url(#d)" d="m1437.41 1144.1 128.26 84.73c32.55 21.94 65.89 45.67 98.76 66.69-31.65 3.14-95.01 13.08-125.47 22.44 58.29 42.97 123.69 83.99 183.44 125.36-89.88 2.26-179.68 6.63-268.86 18.8-29.98 4.17-59.87 9.05-89.62 14.63-7.67 1.46-39.93 9.02-45.76 9.17-5.26.12-13.99-1.01-16.89-5.82l1.61-5.46c89.46-28.88 224.59-63.02 318.45-64.81-12.35-11.79-30.39-24.45-44.31-34.82l-67.02-50.05c-24.59 10.13-59.42 20.56-86.12 30.72a1910 1910 0 0 0-168.78 74.12c-3.84-1.73-7.65-9.93-10.12-14.22 94.33-58.89 222.74-122.7 332.13-143.37-13.8-12.39-30.31-24.14-45.03-35.63-35.64-27.82-73.71-53.74-109.41-81.28 4.84-3.82 9.64-7.74 14.74-11.2" transform="matrix(.3214 0 0 .36624 -70.066 -125.619)"/><defs><linearGradient id="e" x1="300.852" x2="647.774" y1="1507.029" y2="1639.21" gradientUnits="userSpaceOnUse"><stop offset="0" stop-color="#b2600c"/><stop offset="1" stop-color="#e1a64b"/></linearGradient></defs><path fill="url(#e)" d="m431.298 1470.67 33.543-3.4a929 929 0 0 1-49.336 39.5c-11.202 8.52-24.825 18.26-35.266 27.43 28.378-1.43 57.681-4.64 86.323-6.24a1325 1325 0 0 1 178.35 1.63c19.508 1.53 45.11 3.78 64.326 7.38 15.807 1.29 77.632 11.28 94.22 16.07-1.939-.01-8.555-.35-9.935.32l1.606 3.51c-2.568 4.38-4.769 6.46-4.864 10.96-18.11-1.64-63.872-6.84-80.686-5.75l-2.416-1.02c-57.519-1.48-114.126-3.69-171.772-.98-8.297.39-42.307 1.23-49.041 2.7l-5.696.31c-22.323.81-49.544 2.4-71.611 4.99-9.029-.51-31.245 1.57-41.628 2.13-4.922.24-21.267.22-24.191 3.06 4.923 1.56 28.88.05 34.925-1.07 10.051.04 30.791-.77 40.381-2.11 26.335.07 52.659-1.78 78.98-1.76 55.138.03 110.452.81 165.569 2.61 10.721.35 24.564.46 34.952 1.97-7.696.93-16.773.63-24.647.58-7.986 21.09-18.242 32.66 11.439 29 4.156-.51 15.195-.07 19.401.66-14.099 1.24-34.739.88-49.49 1.07-26.689.32-53.376.82-80.059 1.48-105.918 2.38-218.972 3.61-324.308 9.06 38.571-32.62 80.617-62.41 119.429-94.98 19.989-16.78 41.342-32.33 61.502-49.11" transform="matrix(.3214 0 0 .36624 -70.066 -125.619)"/><path fill="#f2b858" d="M148.421 444.799c3.02-9.71 1.44-6.746 9.466-7.523 5.08.473 24.951 4.131 30.283 5.886-.623-.004-2.75-.128-3.193.117l.516 1.285c-.826 1.605-1.533 2.366-1.563 4.014-5.821-.6-20.53-2.505-25.933-2.106l-.777-.373-.122-.546c-.976-.974-6.966-.74-8.677-.754"/><defs><linearGradient id="f" x1="1461.617" x2="1661.724" y1="1670.535" y2="1479.096" gradientUnits="userSpaceOnUse"><stop offset="0" stop-color="#db9b40"/><stop offset="1" stop-color="#ffd37a"/></linearGradient></defs><path fill="url(#f)" d="M1583.37 1466.96c10.94 1.12 23.32 2.46 34.18 4.25l179.33 142.59c-22.58-.14-45.02-1.26-67.6-1.73l-221.71-5.79c-41.79-1.15-83.57-2.2-125.38-2.51-5.15-.04-10.35-.06-15.47-.62 7.44-1.11 21.91-.67 29.91-.66-4.6-4.36-19.65-20.09-23.62-25.14l1.39-1.1c6.41-.39 6.58.43 10.1-4.89 66.95-4.34 128.26-1.93 194.23-2.26 7.16.89 42.01 2.55 49.01 2.02 10.46 1.09 24.14 1.2 34.79 1.05 5.08.51 9.2.96 14.34.92 9.07 1.65 21.82 1.08 31 .48-5.92-1.11-11.92-1.7-17.9-2.38-6.79-.94-9.87-1.51-16.73-1.15-6.18-.61-10.99-1.15-17.21-1.07-8.24-1.38-28.36-2.54-37.14-2.98-88.11-7.37-176.61-9.08-264.95-5.13-1.68-6.95-11.45-15.09-16.95-20.5-6.28.22-9.2.12-15.39-.39 18.42-4.08 51.49-7.15 70.71-8.89 52.73-4.67 105.69-6.29 158.61-4.84 40.05 1.42 78.78 5.15 118.62 8.75-10.19-9.59-24.09-19.95-35.26-28.62z" transform="matrix(.3214 0 0 .36624 -70.066 -125.619)"/><defs><linearGradient id="g" x1="587.073" x2="1053.73" y1="1071.264" y2="1317.896" gradientUnits="userSpaceOnUse"><stop offset="0" stop-color="#c37822"/><stop offset="1" stop-color="#eaae4f"/></linearGradient></defs><path fill="url(#g)" d="m568.881 1096.8 136.959-95.74c21.256-15.048 47.675-35.327 68.978-48.911l.972 1.985c-1.671 2.431-3.017 3.941-3.651 6.824-7.542 9.093-27.425 27.229-36.565 36a2278 2278 0 0 0-57.933 57.092c-10.782 10.81-24.969 24.4-34.603 35.77 108.729 91.43 196.269 190.48 274.249 309.34 15.727 23.97 33.552 48.69 47.344 73.77-.076 2.88 4.842 12.26 6.388 15.95-6.557-7.36-21.125-27.12-28.668-30.96-9.485-9.66-23.567-27.31-32.822-38.05a3419 3419 0 0 0-63.396-70.93 2068 2068 0 0 0-277.252-252.14" transform="matrix(.3214 0 0 .36624 -70.066 -125.619)"/><defs><linearGradient id="h" x1="1076.645" x2="1390.133" y1="1302.225" y2="1008.544" gradientUnits="userSpaceOnUse"><stop offset="0" stop-color="#d7953d"/><stop offset="1" stop-color="#fbcb72"/></linearGradient></defs><path fill="url(#h)" d="M1260.34 943.901c72.08 47.256 147.8 103.249 218.97 153.019l-.62.55c-9.01 8.02-27.84 21.08-38.16 28.96a1498 1498 0 0 0-61.94 50.49c-78.94 68.61-147.11 139.41-216.73 217.09-4.85-4.76-6.32-7.64-8.48-13.59.06.15-4.73-1.07-7.2-3.68a1424 1424 0 0 1 186.69-221.84c24.29-23.26 48.26-43.47 73.51-65.3-5.32-7.71-24.02-25.06-31.71-32.79a7123 7123 0 0 0-71.12-70.427c-12.4-12.02-32.84-30.449-43.21-42.482" transform="matrix(.3214 0 0 .36624 -70.066 -125.619)"/><path fill="#cd8329" d="M213.002 449.274c17.518 5.234 30.158 8.75 46.222 18.499 7.517-4.534 17.735-9.658 25.905-12.478l.662.454c-1.067.81-1.253 1.044-1.983 2.253l-.051.545c.822.641.752.44 1.86.568.91-.59 1.08-.743 1.865-1.461l.128.696c.714.922.588 1.175 1.656 1.128 1.51-.063 3.551-.572 5.075-.88l.944.85c3.388.755 21.323-.853 23.386 1.176q-15.26.248-30.514-.256l-.142 16.392c-18.61.407-39.653.213-58.3-.058.035-2.516.326-14.265-.192-16.027.212-1.197.28-1.267.131-2.516-1.006-1.44-14.026-4.3-16.503-4.922.406-.978.002-2.798-.15-3.963"/><path fill="#f2b858" fill-opacity=".965" d="m342.979 95.831.2 1.527c.613.357.571.328 1.102.813-4.021 1.65-10.256 10.088-12.796 14.119 2.485-2.188 4.458-3.917 7.158-5.615 1.704-1.072 7.601-2.37 8.087-3-.245-1.055-.29-1.317-.698-2.339 1.73 1.423 1.527 1.486 2.102 4.197-4.123 1.477-6.219 1.391-9.992 4.084-3.921 2.835-5.5 3.36-7.264 8.223 4.32-3.545 5.187-5.194 10.58-6.884 2.717-.16 4.796-.452 7.435.369-1.141.05-1.974.079-3.099.265l-.041.42.91.821c-5.24-.302-7.981.528-12.108 4.669-.858.86-1.167 1.315-1.434 2.614.344 1.256.036.786.833 1.554 1.192-.567 1.976-1.276 3.265-1.845 4.426-1.955 7.685-.785 11.905.913 1.569.63 1.768 1.366 3.04.943.348 1.345-.35 1.6-.003 3.686-6.164-5.197-11.271-6.089-17.995-1.451.196 1.446.376 2.868.627 4.304 5.663-1.325 12.441-1.203 16.485 4.369-1.235.43-.73.056-1.579 1.163-2.873-2.547-6.608-4.77-10.33-4.48-1.513.119-4.737.903-4.763 3.086.421.671.794 1.285 1.53 1.383 7.061.939 9.787.919 14.383 7.634.299.435.241.341.723.751-.575.55-.501.467-1.138.727l-.17.602-.24-.219c-4.263-5.046-6.02-7.512-12.488-7.319q-1.176.041-2.35.126-.267 2.063-.562 4.12c6.605.958 10.395 2.798 15.1 8.374l-.328.525c.421 1.394.582 1.14.167 2.117l-.276.137c-2.96-5.87-9.504-8.355-15.026-9.262l-1.497 4.381c4.663 1.032 7.398 2.401 10.985 6.128 1.06 1.104 2.298 3.282 3.288 3.624-.337 1.184-.877 1.43-1.308 3.4l-.283.109c-.81-6.734-8.388-9.979-13.348-11.39l-2.352 4.48c5.637 2.043 8.633 4.56 11.374 10.648q.402.885.775 1.784c-.598.784-.505.91-.637 1.98l-.35.217c-2.51-6.943-5.776-10.51-11.934-13.183l-2.587 3.096c2.066 1.475 3.34 2.288 5.1 4.214-.88.555-.784.332-1.369 1.143-1.594-1.405-3.101-2.797-4.82-3.997l-2.858 2.192c4.95 4.53 8.726 8.826 8.357 16.696l-1.746-.71c-.347-4.763-1.931-9.173-5.255-12.286a14.5 14.5 0 0 0-3.143-2.278l-3.275 1.817c7.02 7.173 6.219 9.239 6.033 18.886-.92-1.073-.75-.883-1.942-.87.794-4.114.688-8.268-1.456-11.772-1.918-3.14-3.497-5.56-6.923-4.218-.025 2.226 4.182 6.701 5.005 9.872.883 3.406-.98 8.386-.21 9.927l-.816.277c-.466-.603-.73-.863-1.32-1.295 1.111-5.613 1.285-7.11-1.21-12.404-1.368-2.903-5.74-7.215-8.417-4.12.505.773.306.426.977.98 2.102 1.736 3.574 5.19 4.05 8.024.63 3.783.1 6.987-.726 10.588-.926.219-.965-.066-2.032-.616 2.08-6.833 1.726-14.324-4.496-19.102-.582-.448-1.138-.164-1.707.098.064 1.807.759 2.942 1.546 4.551 2.433 4.97.7 10.615-1.102 15.463l-2.186-.647c2.462-4.666 3.905-9.54 1.71-14.703-.842-1.974-1.27-3.63-2.574-5.313-.949-.553-.881-.509-1.951-.446-1.543 1.524 1.385 7.545 1.343 10.654-.058 4.26-3.05 7.66-3.368 10.367-1.135-1.985.79-.561-.669-2.424-1.71-.199-2.413 1.618-4.689 1.628-2.398-1.152.016-.293-1.585-2.425.338-1.46 3.867-5.786 4.407-7.947 1.073-4.293-.569-9.318-2.086-13.11-.129 16.522-7.7 16.245-8.482 20.032l-.443.004c-1.276-1.112-1.546-.5-2.585-1.332 4.895-1.274 10.398-10.517 9.344-16.437-.016-.765.125-.615.688-1.516.867-.432 1.115-.443 1.71-1.28 3.798.834 6.582 3.009 11.236 3.138 14.723.412 27.374-9.59 31.076-26.064 2.546-11.319.058-18.183-4.82-27.838q.26-.24.517-.478c5.107-6.238 8.064-11.104 14.084-16.418"/><defs><linearGradient id="i" x1="679.441" x2="890.271" y1="1556.418" y2="1639.469" gradientUnits="userSpaceOnUse"><stop offset="0" stop-color="#e2a64a"/><stop offset="1" stop-color="#fed074"/></linearGradient></defs><path fill="url(#i)" d="M698.031 1572.91c11.732.27 23.149 1.64 34.601 2.02 28.888 2.44 57.67 4.7 86.417 8.52 5.177.68 10.402 1.24 15.611 1.61 21.371 3.01 54.363 5.86 74.394 10.18-4.467 5.25-10.469 1.49-13.739 4.59a8068 8068 0 0 1-137.387 2.55c-13.555.18-41.999 2.04-53.704.77-4.206-.73-15.245-1.17-19.401-.66-29.681 3.66-19.425-7.91-11.439-29 7.874.05 16.951.35 24.647-.58" transform="matrix(.3214 0 0 .36624 -70.066 -125.619)"/><defs><linearGradient id="j" x1="1197.617" x2="1332.506" y1="1662.19" y2="1534.694" gradientUnits="userSpaceOnUse"><stop offset="0" stop-color="#c3771a"/><stop offset="1" stop-color="#db9b3f"/></linearGradient></defs><path fill="url(#j)" d="M1384.5 1571.36c-3.52 5.32-3.69 4.5-10.1 4.89l-1.39 1.1c3.97 5.05 19.02 20.78 23.62 25.14-8-.01-22.47-.45-29.91.66-3.97.49-10.18.16-14.25.06-47.66-1.16-95.32-1.23-142.98-2.49-6.42-5.54-62.22-1.15-72.76-3.21-.98-.77-1.96-1.55-2.94-2.32 13.02-2.69 36.64-3.9 51.35-6.14 5.95-.02 24.87-2.44 31.31-3.16 58.81-7.06 108.36-12.52 168.05-14.53" transform="matrix(.3214 0 0 .36624 -70.066 -125.619)"/><path fill="#0c0114" fill-opacity=".012" d="M365.098 446.026a584 584 0 0 1 85.157 1.878l.417.967c-4.297.433-9.128-.432-13.325.172-21.203.121-40.909-.761-62.427.828-19.185.736-35.11 2.736-54.012 5.322l.466-.89c1.424-.788 2.15-1.568 3.355-2.736l-.17-.352c-2.738.224-4.78.238-7.492-.025 4.436-1.121 12.281-2.055 16.8-2.564a599 599 0 0 1 31.231-2.6m-22.331 4.699.823.197.485-.538-.007-.681c-1.45-1.15-7.736-.517-10.053-.513 2.018 3.523 4.545 3 7.83 2.38zm19.847-1.682c.668-.798.845-.908 1.732-1.347-.906-.47-7.463.007-9.115.029 1.26 3.278 6.473.791 7.383 1.318m12.72-.769.293-.659c-.739-.524-8.88-.619-10.214-.579l-.395 1.25.37.468c2.5-.718 7.23-.509 9.947-.48m-21.591 1.62c-1.771-2.06-4.561-1.491-7.155-1.352 2.022 2.22 4.455 2.475 7.155 1.351"/><defs><linearGradient id="k" x1="1153.685" x2="1301.047" y1="1645.419" y2="1502.841" gradientUnits="userSpaceOnUse"><stop offset="0" stop-color="#c07215"/><stop offset="1" stop-color="#db9c40"/></linearGradient></defs><path fill="url(#k)" d="M1213.31 1559.15c24-5.07 48.07-9.75 72.22-14.03 9.71-1.67 26.48-4.74 36.07-5.15 6.19.51 9.11.61 15.39.39 5.5 5.41 15.27 13.55 16.95 20.5a2118 2118 0 0 0-97.17 7.1c-14.06 1.39-38.47 3.94-52.27 7-18.83 2.39-36.95 6.67-55.53 9.86-7.36 1.5-32.99 5.52-36.12 9.69l-.4-1.9c-2.44 1.96-2.97 2.38-5.8 3.99-3.45-.35-3.23.2-5.79-1.55l.16-1.49c2.27-3.3 2.85-3.94 6.17-6.15l-2.06-1.24c27.74-9.3 70.48-18.72 99-25.24z" transform="matrix(.3214 0 0 .36624 -70.066 -125.619)"/><defs><linearGradient id="l" x1="965.059" x2="1083.046" y1="737.392" y2="737.521" gradientUnits="userSpaceOnUse"><stop offset="0" stop-color="#cf862b" stop-opacity=".929"/><stop offset="1" stop-color="#d0872b"/></linearGradient></defs><path fill="url(#l)" d="M965.019 790.728c22.929-46.118 45.451-81.315 85.151-114.736 10.18-8.565 17.92-16.467 29.72-23.573l7.05 1.665c-3.83 3.886-4.75 5.902-7.39 10.614l-2.5-.989c-2.17.985-14.67 7.824-15.7 9.122l-.72 6.383-7.38 4.785.17.767c8.44 1.469 13.59-1.121 21.01-6.331l-2.41 12.239-3.11.79c-11.61 2.182-16.84 3.208-28.59 2.775-3.16 2.863-5.61 5.032-8.46 8.226-2.93 1.141-2.61 3.106-5.9 5.554-2.29 2.733-5.2 5.564-5.9 8.902 2.14 3.197 5.9 3.24 9.59 3.72-7.34 1.1-9.38.706-16.7-.104l1.25 1.623c-2.58 3.347-2.64 4.148-2.06 8.91.26 2.014.54 4.024.86 6.03 15.82 4.302 16.22 2.428 29.17 4.567-2.48 1.987-5.16 1.731-8.26 1.972 6.51.11 9.62 2.124 15.4 2.624-14.73 3.057-21.94 1.161-36.59-1.706 1.46 4.741 3.33 13.615 8.14 15.529 14.01 5.576 32.84-.297 45.18-6.977l7.01 1.494c-17.12 13.524-28.79 15.942-49.86 13.456-.91-.109-1.83-.225-2.74-.346 5.87 12.17 5 14.156 18.94 14.707-3.94 1.111-4.19.492-6.54 3.014.44 2.256-.04 1.457.96 2.641l-.78.243-.52 1.659c2.26 4.931 4.42 6.963 7.94 11.033 21.18-4.039 31.03-14.834 46.33-28.977 1.91 1.984 2.09 1.86 2.87 4.438-10.59 14.912-27.6 25.472-44.86 30.963 3.65 3.476 7.39 7.154 11.12 10.506-3.21.958-2.99.861-5.06 3.512-.68 2.947-.93 1.665-.1 4.151l-1.18.331c-.33-.201-.99-.58-1.35-.881-28.5-24.017-40.54-52.929-45.8-87.861-12.676 15.777-26.005 36.841-35.085 54.758z" transform="matrix(.3214 0 0 .36624 -70.066 -125.619)"/><defs><linearGradient id="m" x1="1121.03" x2="1090.509" y1="1496.398" y2="1398.257" gradientUnits="userSpaceOnUse"><stop offset="0" stop-color="#d0872b" stop-opacity=".969"/><stop offset="1" stop-color="#d0872b"/></linearGradient></defs><path fill="url(#m)" d="M1053.97 1523.19c6.78-15.73 26.92-47.28 37.13-63.04 17.18-26.55 36.54-58.06 55.08-83.41 2.47 2.61 7.26 3.83 7.2 3.68 2.16 5.95 3.63 8.83 8.48 13.59a4015 4015 0 0 0-72.92 86.59c-11.28 13.69-23.36 29.65-34.97 42.59" transform="matrix(.3214 0 0 .36624 -70.066 -125.619)"/><defs><linearGradient id="n" x1="1177.839" x2="1163.27" y1="1487.762" y2="1452.938" gradientUnits="userSpaceOnUse"><stop offset="0" stop-color="#d0872b" stop-opacity=".949"/><stop offset="1" stop-color="#d0872b"/></linearGradient></defs><path fill="url(#n)" d="M1244.98 1415.58c2.47 4.29 6.28 12.49 10.12 14.22-18.15 10.48-38.3 20.09-56.82 30.39-31 17.18-61.18 35.78-90.45 55.75l-4.98 3.58c-9.15 5.91-17.27 10.99-26.73 16.44 11.85-11.83 44.54-34.93 58.62-45.05 35.4-25.44 73.06-52.94 110.24-75.33" transform="matrix(.3214 0 0 .36624 -70.066 -125.619)"/><defs><linearGradient id="o" x1="803.777" x2="807.237" y1="1518.761" y2="1477.075" gradientUnits="userSpaceOnUse"><stop offset="0" stop-color="#f7be5d" stop-opacity=".957"/><stop offset="1" stop-color="#f8bf5d"/></linearGradient></defs><path fill="url(#o)" d="M721.133 1467.13a1951 1951 0 0 1 140.056 46.21c11.714 4.37 36.743 13.37 47.129 19.19-22.641-6.24-44.751-13.77-67.291-20.02a2095 2095 0 0 0-126.074-29.79c.024-.11.574-2.52.643-2.63 2.554-4.45-1.042-8.36.596-12.94z" transform="matrix(.3214 0 0 .36624 -70.066 -125.619)"/><defs><linearGradient id="p" x1="880.971" x2="895.72" y1="1497.582" y2="1455.606" gradientUnits="userSpaceOnUse"><stop offset="0" stop-color="#f6bd5d" stop-opacity=".91"/><stop offset="1" stop-color="#f8bf5d"/></linearGradient></defs><path fill="url(#p)" d="M820.993 1426.23c32.012 20.28 62.225 41.54 92.716 63.94 18.153 13.34 38.871 27.12 55.705 42.08-42.056-22.88-82.442-55.6-126.358-76.6-7.456-3.57-17.775-9.39-24.775-13.93-1.758-3.76-2.498-4.7-2.726-8.72 1.1-3.74 2.407-4.31 5.438-6.77" transform="matrix(.3214 0 0 .36624 -70.066 -125.619)"/><path fill="#f8c76d" d="M188.17 443.162c8.322 1.553 16.62 3.896 24.832 6.112.151 1.165.555 2.985.15 3.963-1.485-.253-3.301-.696-4.802-1.015-7.341-1.395-17.128-3.076-24.42-3.644.03-1.648.737-2.41 1.563-4.014l-.516-1.285c.443-.245 2.57-.121 3.193-.117"/><path fill="#cd8329" d="M307.599 430.589c13.19-5.798 27.647-11.178 41.088-16.14l-.517 2c.932 1.761 3.738 2.175 5.428 2.13-14.611 3.88-27.863 7.494-42.387 12.277l-2.687.864c-.887-.494-.6-.113-.925-1.131"/><path fill="#0d011e" fill-opacity=".012" d="M86.25 446.729c2.164-.539 13.095-.846 15.761-.989 18.528-.992 36.722-.183 55.209.359l.777.373c-10.104.806-22.267-.498-32.276.195.722.146 2.472.263 2.766.578.894.967 1.324 1.059 2.518 1.256l-38.579-.274c-2.391-.626-5.566-.454-8.092-.484 1.38-.197.744.074 1.915-1.014"/><path fill="#f2b858" fill-opacity=".976" d="M264.893 146.007c3.086-.888 7.203-1.79 9.311-4.654l.196-1.328.306.069c2.774 9.787 5.457 15.034 13.12 21.2-2.173.953-3.382 2.67-5.41 3.532l-.321-.329c.045-.842.064-1.056-.061-1.897l-.637-.702c.592-1.883 1.215-.96 1.264-3.16-.592-1.066-.196-.67-1.28-1.162-1.038.414-.626.055-1.227 1.177-.251-.944-.309-.898-.923-1.625.633-1.518.489-.734.396-2.456l-.528-.304c-7.315 5.484-6.756 8.782-16.893 8.635-.321-.433-.167-.14-.308-.967.755-.924.835-.697 2.102-1.104 3.532-.725 6.772-1.905 9.648-4.406 1.399-1.214 4.928-4.511 3.243-6.638-1.147-.11-.855-.009-2.073.857l-2.253-.548c1.296-1.042 1.8-1.37 2.838-2.689.338-1.41.363-.725-.125-2.12-1.983-1.22-5.03 1.324-8.09 2.302-1.858-.183-2.857-.92-4.95-.96.997-.09 1.858.005 2.655-.723"/><path fill="#270249" fill-opacity=".012" d="M320.323 162.3a14.5 14.5 0 0 1 3.143 2.278c3.324 3.113 4.908 7.523 5.255 12.285-.086 3.246-3.101 5.589-5.64 6.14.186-9.647.986-11.713-6.033-18.886z"/><path fill="#0c0114" fill-opacity=".031" d="M220.21 219.188c.533 8.395.713 14.738 1.897 23.217 1.197 8.57 2.85 14.789 4.685 23.03-4.857-8.399-8.942-20.587-10.446-30.49 1.308.349.897.808 1.999 1.383l.298-.163c.12-.835.099-.54.134-1.309l.019-.501c.082.086.745.787.824.864l.417-.293c-.057-4.788-.314-11.06.172-15.738"/><path fill="#270249" fill-opacity=".008" d="M310.093 187.992c.826-3.6 1.356-6.805.726-10.588-.476-2.835-1.948-6.288-4.05-8.024-.671-.554-.472-.207-.977-.98 2.678-3.095 7.049 1.217 8.418 4.12 2.494 5.294 2.32 6.791 1.208 12.404-1.481 2.528-2.648 2.755-5.325 3.068"/><path fill="#270249" fill-opacity=".012" d="M302.302 188.386c1.803-4.848 3.535-10.492 1.102-15.463-.787-1.61-1.482-2.744-1.546-4.551.57-.262 1.125-.546 1.707-.098 6.222 4.778 6.576 12.27 4.496 19.102-2.057 1.598-3.191 1.451-5.76 1.01"/><path fill="#270249" fill-opacity=".008" d="m326.057 157.326 2.587-3.096c6.158 2.674 9.424 6.24 11.934 13.183-.852.73-3.15 3.432-3.995 4.39-1.453-4.525-2.424-6.735-5.425-10.263-1.762-1.926-3.035-2.74-5.101-4.214"/><path fill="#270249" fill-opacity=".012" d="M295.276 188.298c.318-2.707 3.31-6.107 3.368-10.367.042-3.109-2.886-9.13-1.343-10.654 1.07-.063 1.002-.107 1.95.446 1.306 1.683 1.733 3.339 2.575 5.313 2.195 5.163.752 10.037-1.71 14.703-2.092.98-2.6.984-4.84.559"/><path fill="#270249" fill-opacity=".008" d="M351.242 142.124c-.482-.41-.424-.316-.723-.751-4.596-6.715-7.322-6.695-14.383-7.634-.736-.098-1.109-.712-1.53-1.383.026-2.183 3.25-2.967 4.763-3.086 3.722-.29 7.457 1.933 10.33 4.48.775 1.084 1.653 2.252 2.347 3.39z"/><path fill="#0c0114" fill-opacity=".247" d="M61.402 448.67c7.093-.949 15.842-1.531 23.017-1.828-2.143.84-3.97.517-5.946 1.3 3.164.4 10.376.092 13.953.085l38.58.274c6.226.304 29.775.704 34.4 2.678-3.68-.14-7.35-.641-11.121-.74-3.339-.553-7.788-.593-11.234-.722-17.715-.659-35.493-.945-53.215-.956-8.46-.007-16.92.67-25.384.645a58 58 0 0 0-3.081-.242z"/><path fill="#270249" fill-opacity=".008" d="M280.154 158.753c.6-1.122.19-.763 1.227-1.177 1.084.493.688.096 1.28 1.162-.049 2.2-.672 1.277-1.264 3.16-2.044 3.213-8.038 12.488-12.088 12.043-1.198-1.228-2.4-2.575-3.574-3.848 5.548-2.01 11.015-5.878 14.419-11.34"/><path fill="#0c0114" fill-opacity=".012" d="M208.35 452.222c1.5.319 3.317.762 4.801 1.015 2.477.622 15.497 3.483 16.503 4.922.149 1.249.08 1.319-.131 2.516l-.482-.45c-1.465-1.216-5.077-1.4-6.932-1.608-6.438-1.582-17.042-2.626-23.91-3.728 1.825-.235 10.241.055 10.63-.085l-.03-.432-.773.008-.24-.337c.512-.817.449-.806.564-1.82"/><path fill="#270249" fill-opacity=".008" d="m322.11 160.878 2.857-2.192c1.72 1.2 3.227 2.592 4.821 3.997 3.002 4.293 3.931 5.82 4.96 11.285-1.263 1.381-2.604 3.136-4.281 3.606.37-7.87-3.407-12.165-8.357-16.696"/><path fill="#270249" fill-opacity=".008" d="M317.556 185.942c-.772-1.541 1.092-6.521.209-9.927-.823-3.171-5.03-7.646-5.005-9.872 3.426-1.342 5.005 1.079 6.923 4.218 2.144 3.504 2.25 7.658 1.456 11.773-.736 2.994-1.176 2.725-3.583 3.808"/><path fill="#cd8329" fill-opacity=".976" d="m273.488 127.62 1-.289c-.255 3.42.044 9.104-.261 11.39-3.201-1.08-10.208 5.977-18.323.142l-.402-.595c2.352.297 3.008.441 5.367.038q.898.172 1.807.28c2.87.374 7.897-.416 10.182-2.484.353-1.195.392-1.115.119-2.32-1.299-.619-4.998.983-7.023.948-2.546-.043-3.388-.078-5.872-.909l-.399-.137c1.058-.897.955-1.616 1.897-2.034 2.471 1.698 9.047 1.191 11.175-1.092.794-.855.656-1.821.733-2.937"/><path fill="#270249" fill-opacity=".031" d="M262.206 163.003c10.137.147 9.578-3.15 16.893-8.635l.528.304c.093 1.722.237.938-.396 2.456-4.917 5.18-8.083 9.133-14.89 10.612-1.132-1.49-1.826-2.234-2.552-4.04l.167-.608z"/><path fill="#270249" fill-opacity=".008" d="M333.144 88.18c.938-.666.974-.805 2.095-.885 1.312.475 1.472.735 2.572 1.754-.457 1.467-9.855 18.764-10.739 19.548l1-4.503z"/><path fill="#f2b858" fill-opacity=".976" d="M337.81 89.049c.312.146 1.415 1.702 1.762 2.189-2.85 2.08-9.649 16.96-11.153 20.962-.681-.397-1.324-1.86-1.816-2.727l.47-.876c.883-.784 10.281-18.081 10.738-19.548"/><path fill="#0d011e" fill-opacity=".063" d="M212.438 260.717c2.032 12.14 3.259 15.935 7.35 27.15-4.592-5.875-6.396-11.39-8.519-18.836-.244-.857-.187-.813-.66-1.506l-.169-.516.233-.524 1.442.019c.292-.77.247-4.509.323-5.787"/><path fill="#0d011e" fill-opacity=".016" d="M287.61 458.35c1.006-1.528 9.244-3 11.61-3.55l.247 1.704c3.394-.242 8.022-.59 11.378-.154-4.728.82-12.32 1.263-16.504 2.249-1.524.307-3.565.816-5.075.879-1.068.047-.942-.206-1.656-1.128"/><path fill="#cd8329" fill-opacity=".906" d="M232.81 408.325c2.425 1.407 7.107 8.643 9.215 11.339-.497-1.351-2.078-4.787-2.053-5.842 1.141.748 8.194 14.844 9.069 16.935-4.94-6.544-11.936-15.594-16.23-22.432"/><path fill="#0d011e" fill-opacity=".082" d="M243.611 279.608c3.804-4.38 9.77-8.19 14.488-11.328-.077 1.223-.222 1.48.112 2.578l1.254.26c-5.586 2.498-10.506 5.395-15.854 8.49"/><path fill="#cd8329" fill-opacity=".965" d="M275.262 122.849c-2.385 1.908-4.04 2.857-6.753 2.319l-.055-.281 2.372-1.753.232-2.337c.33-.476 4.348-2.98 5.046-3.341l.803.362z"/><path fill="#f2b858" fill-opacity=".98" d="M420.087-4.068c.19 4.705.19 24.821-.636 29.03-.562-4.34.113-12.888-.112-17.787l-.425-.373c-.446 1.062-.671 1.597-1.375 2.5.543-3.909 1.523-9.554 2.548-13.37"/><path fill="#f2b858" fill-opacity=".976" d="m330.1 88.426.485-.286c1.29.393 1.231.35 2.559.04l-5.072 15.914c.064-2.227.37-2.64-.566-4.68 1.247-1.407 2.478-7.302 3.04-9.425.223-.828-.054-.954-.446-1.563"/><path fill="#f2b858" fill-opacity=".988" d="M286.354 106.04c.777 1.3.556 1.385 1.607 1.873l-8.678 6.018-2.266-.61c2.26-2.192 6.679-5.297 9.337-7.281"/><path fill="#0d011e" fill-opacity=".145" d="M450.255 447.904c2.822.162 9.288.586 11.937 1.092l.086.524c-3.047.366-6.367-.227-9.179.263-2.25.194-13.45-.414-15.752-.74 4.197-.604 9.028.26 13.325-.172z"/><path fill="#270249" fill-opacity=".149" d="M330.878 117.84c1.764-4.862 3.343-5.388 7.264-8.223 1.118 1.668 1.475 1.278 3.317 1.339-5.394 1.69-6.261 3.34-10.581 6.884"/><defs><linearGradient id="q" x1="1232.717" x2="1232.332" y1="1523.595" y2="1530.519" gradientUnits="userSpaceOnUse"><stop offset="0" stop-color="#28024a" stop-opacity="0"/><stop offset="1" stop-color="#28024a" stop-opacity=".039"/></linearGradient></defs><path fill="url(#q)" d="M1210.24 1531.54c6.04-2.95 10.21-2.83 18.19-6.49l-1.21-.18c6.92-1.85 11.34-2.03 18.4-.58l-.39 1.11c-1.66.69-2.94 1.78-4.03 2.21-4 1.57-24.03 4.23-25.91 5.93-2.19-1.66-2.3-1.45-5.05-2" transform="matrix(.3214 0 0 .36624 -70.066 -125.619)"/><path fill="#270249" fill-opacity=".604" d="M291.56 436.445c2.893-.963 6.904-2.81 9.659-3.377-.913.495-1.527.802-2.379 1.443l.145.396c-.874.783-3.102 1.34-4.278 1.717-1.311.48-2.632.949-3.924 1.487-1.81.575-2.848 1.235-4.815 1.48.222-.722 1.073-1.088 1.81-1.615 1.195-.355 2.61-1.022 3.782-1.531"/><path fill="#0d011e" fill-opacity=".09" d="M266.452 254.66c2.391-2.86 4.156-3.736 7.212-5.512l.09 1.695c1.045.649 2.096.165 3.337.378-3.629.82-7.113 2.175-10.639 3.439"/><path fill="#442212" fill-opacity=".529" d="M48.023 449.45c3.337-.205 10.477-.967 13.38-.78l-.032.494a58 58 0 0 1 3.08.242c-3.082.49-9.748.787-12.978.773l-3.264-.286z"/><path fill="#f2b858" fill-opacity=".988" d="M222.109 458.617c1.855.209 5.467.392 6.932 1.608-2.912.337-8.391.183-11.348.073 1.051-1.135 2.98.242 4.416-1.681"/><path fill="#cd8329" fill-opacity=".867" d="m237.484 378.327 4.84 11.056c-2.618-3.398-4.147-6.031-6.178-9.925 1.066-.318.605-.007 1.338-1.131"/><path fill="#cd8329" fill-opacity=".882" d="M301.219 433.068c.996-.252 5.11-1.992 6.38-2.48.324 1.019.038.638.925 1.132l-5.599 1.945-3.94 1.242-.145-.396c.852-.64 1.466-.948 2.379-1.443"/><path fill="#0d011e" fill-opacity=".259" d="M462.192 448.996c1.999-.03 3.545.168 5.531.392l.074.505a49 49 0 0 1-3.516.275c-3.423.055-7.82.014-11.182-.385 2.812-.49 6.132.103 9.18-.263z"/><path fill="#0c0114" fill-opacity=".059" d="m84.419 446.842 1.83-.113c-1.171 1.088-.534.817-1.915 1.014 2.526.03 5.7-.142 8.092.484-3.577.007-10.789.315-13.953-.084 1.975-.784 3.803-.462 5.946-1.3"/><path fill="#6a3c17" fill-opacity=".71" d="M51.473 450.179c-1.943.41-9.643.963-11.225.392.94-1.04 6.193-1.033 7.775-1.121l.186.443z"/><path fill="#270249" fill-opacity=".286" d="M318.912 435.288c.884.201.92.124 1.623.732-1.996.443-3.674 1.183-5.592 1.905l-.193-.033c-.643.31-1.723.79-2.311.23 2.018-1.245 3.577-1.483 5.522-2.468l.456-.238z"/><path fill="#cd8329" fill-opacity=".933" d="m182.185 220.317.14.683c-.347.632-.744 1.28-1.004 1.953-1.107 1.233-2.006 2.244-3.217 3.366.203-1.055.636-1.609 1.173-2.499l-.312-.727c.68-.901 2.292-2.042 3.22-2.776"/><path fill="#ac6e2a" fill-opacity=".769" d="M187.915 215.633c-1.413 2.05-4.724 5.723-6.594 7.32.26-.672.657-1.321 1.004-1.953l-.14-.683c1.49-1.564 3.98-3.344 5.73-4.684"/><path fill="#cd8329" fill-opacity=".867" d="m235.66 148.49-1.932 8.759c-.21-1.846.08-1.591-.834-2.67.565-2.052 1.771-4.227 2.767-6.089"/><path fill="#6a3c17" fill-opacity=".569" d="M467.723 449.388c2.205-.132 3.195.077 5.377.42l.032.48c-1.552.173-2.831.085-4.242.217-1.652.014-2.977-.15-4.61-.337a49 49 0 0 0 3.517-.275z"/><path fill="#f8c76d" fill-opacity=".71" d="M381.165 173.252a205 205 0 0 1 5.599-4.341c-1.44 1.932-3.265 4.537-4.866 6.178.427-.96.81-1.322.62-2.09z"/><path fill="#ac6e2a" fill-opacity=".655" d="M473.1 449.809c1.922.249 3.85.465 5.753.872-2.95.22-7.048.428-9.963-.176 1.41-.132 2.69-.044 4.242-.216z"/><path fill="#ac6e2a" fill-opacity=".635" d="m240.096 163.975.745.447a114 114 0 0 1-2.14 4.988l-.535-.12.456.26-.51-.004.149.51-.203-.2c.528-2.419 1.098-3.635 2.038-5.881"/></g></svg>