<svg xmlns="http://www.w3.org/2000/svg" width="1024" height="1024" viewBox="0 0 1024 1024"><path fill="#1b191a" d="M512.539 107.43c4.997 17.693 26.479 37.449 40.552 49.298 4.695-2.263 11.159-5.854 15.818-7.341 5.41 6.083 11.09 12.211 16.423 18.31-9.459 7.259-10.386 10.533-18.973-.788-4.209 1.301-6.594 2.239-10.458 4.535.069 3.514.058 6.782.541 10.269 15.266 14.419 22.225 20.608 28.86 40.793 8.677 2.756 17.954 5.243 26.864 8.044-3.955-9.356-11.153-16.685-17.254-24.538l9.783.037c-6.887-6.138-18.775-16.523-24.813-23.29l14.288-.831c-1.494-3.883-5.067-9.74-7.439-13.285a304 304 0 0 1 25.415-.841c-8.832-15.557-21.881-27.705-36.19-38.106 11.156 2.228 21.181 3.638 32.22 6.984 29.617 8.977 59.263 24.828 83.52 43.976 20.086 15.856 44.595 60.071 39.442 85.938a34.47 34.47 0 0 1-7.25 15.432l7.596 7.79c5.989.71 11.328 1.979 17.164 3.472-2.753-18.704-6.374-53.619-5.13-72.586 5.299 3.62 8.628 5.799 12.277 11.163 3.134 4.17 2.993 12.751 7.216 15.947 6.366 4.817 13.563 7.692 20.062 12.681 22.342 17.149 42.229 47.371 47.33 75.189 21.216 16.779 31.614 37.644 39.616 62.656.244.553.822 2.502 1.214 2.701.416-.376.428-2.903.478-3.515.918-33.979-12.564-65.954-31.134-93.772-2.344-3.763-4.619-7.292-.683-10.933 8.347-7.722 17.346 10.782 20.789 16.651 20.551 35.028 35.04 82.992 18.845 122.226-4.006 9.706-9.122 11.784-9.406 23.502 3.303-.103 6.88-.283 10.16-.285 1.292 8.266 3.299 28.995 5.099 35.707 12.32 11.516 15.362 14.254 31.044 21.808-11.457 4.173-23.57 12.664-31.256 22.099-3.694 21.542-4.546 36.403-13.489 57.463 9.454 1.346 25.493-.701 34.688-3.323-11.204 11.548-18.711 24.34-25.973 38.591-29.057 57.023-42.74 111.402-115.1 124.582-5.023 6.871-5.02 7.114-6.567 15.596 6.839-.631 9.193-1.315 16.463-3.333 7.555-2.097 16.279-7.381 23.926-8.627l1.664.629c3.862 4.204-1.146 9.059-4.195 11.716-11.184 9.745-23.071 11.919-37.227 14.16-9.832 9.448-17.182 19.99-26.689 28.987-9.128 8.637-22.356 17.238-33.175 23.6-11.694 6.876-21.255 14.954-32.488 22.43-22.684 15.094-56.605 30.495-83.502 33.364-1.243-.424-1.785-.624-2.998-1.203 15.258-10.958 23.108-20.34 31.968-36.271-9.594.271-17.438 1.29-26.622-2.672-2.591-1.118-5.027-2.658-7.43-3.665l-.861-.354c7.882-7.184 17.316-16.036 24.436-24.001-3.381.39-7.619.413-11.092.514 10.126-10.61 15.09-15.95 21.895-29.512-8.718 3.083-15.632 5.118-24.591 7.344-1.453 10.04-12.414 21.79-19.332 28.775-3.95 3.989-8.931 8.008-12.221 12.488l-1.019 8.556c3.202 1.467 6.788 2.896 10.059 4.275 8.414-6.42 11.416-10.993 17.939 1.327-4.723 5.06-9.966 11.031-14.108 16.526-5.043-1.581-10.644-5.111-15.96-7.3-17.307 17.752-31.446 25.371-40.982 49.901-5.73-18.122-26.8-37.38-41.118-49.825-5.466 2.199-10.251 5.678-15.634 7.667-4.892-5.969-9.682-11.08-14.745-16.858 1.231-2.72 1.479-3.338 3.367-5.613-.865-1.162-1.077-1.012-2.518-1.365-10.522 5.293-17.905 4.338-29.533 3.287 6.428 13.936 19.331 27.453 31.769 36.435l-1.769 1.796c-29.166-4.244-58.123-16.954-82.904-32.71-8.533-5.289-16.317-12.009-24.683-17.476-16.809-11.22-37.082-21.751-50.334-37.326-6.842-8.042-10.924-13.344-18.897-20.888-13.314-1.3-28.157-6.679-38.121-15.916-2.311-1.771-6.349-7.964-2.738-10.325 3.502-2.29 12.602 2.771 16.097 4.265 8.968 3.832 16.064 6.206 25.678 7.406-1.407-7.997-1.486-9.054-5.95-15.6-68.726-12.803-85.066-61.06-112.234-117.336-7.687-15.921-16.714-33.487-29.303-45.958 12.813 2.977 22.077 4.151 35.242 3.616-9.111-23.067-10.727-33.507-13.908-57.894-7.213-8.914-20.715-18.786-31.731-22.244 13.173-4.612 22.282-12.061 31.374-22.349 2.13-9.922 2.649-23.407 4.679-34.487 3.423-.379 6.916-.508 10.358-.687.051-9.35-3.801-12.37-7.765-20.402-3.313-6.715-5.882-14.103-6.914-21.534-5.784-41.676 9.828-83.163 33.257-117.037 2.74-3.964 7.113-6.644 11.41-3.06a8.3 8.3 0 0 1 1.649 1.887c2.501 3.919-.294 7.654-2.662 11.137-18.692 27.493-32.558 62.523-30.08 96.237.035.289-.027 1.172.377 1.413l.119-.042c.422-.61.417-.999.535-1.754 4.323-20.723 13.903-38.232 27.343-54.466 2.849-3.441 9.562-8.691 11.322-11.846 1.682-3.014 3.808-11.297 5.324-15.115 6.729-16.94 15.329-32.026 27.709-45.518 6.62-7.215 13.429-13.361 21.728-18.616 4.696-2.974 10.682-4.956 14.645-8.786 4.059-3.922 3.59-8.948 5.844-13.631 2.749-5.71 9.102-9.875 14.185-13.413-.688 9.094-.771 18.304-1.397 27.378a474 474 0 0 1-5.39 45.833c5.522-1.457 11.954-2.758 17.589-4.023 2.684-2.982 4.171-4.763 7.334-7.178-2.889-4.923-6.917-11.185-7.616-17.079-3.024-25.483 19.089-67.549 38.264-82.979 29.383-23.646 68.654-44.013 106.121-50.099.032.504-.009.345.076.564 1.269.603 4.941-1.773 7.503-.394-11.272 8.88-26.54 23.187-32.893 35.837 8.69-.126 17.382.018 26.063.433 6.566-6.729 11.304-12.387 17.297-19.659 5.356 2.608 10.409 5.677 15.62 8.236 15.206-12.059 34.369-31.48 40.912-49.599m-78.701 715.016c-3.285.086-6.663.086-9.958.126 5.597 7.071 15.815 16.001 22.289 23.042 1.027 1.202 1.116 1.432 2.439 2.228 3.449.656 7.596 4.475 10.436 6.765a476 476 0 0 1 10.65-3.654c-.278-2.286-.895-8.235-2.125-9.754-11.368-14.036-25.394-21.434-30.557-40.328-8.496-1.93-16.544-5.882-24.567-7.843 4.015 11.606 12.647 21.212 21.393 29.418m50.181-657.288c-.03 11.088 1.098 20.925-7.511 29.309-14.772 14.386-21.184 18.684-22.934 39.483-70.331 15.469-128.585 65.282-169.861 122.57 3.636-1.938 6.744-3.594 10.509-5.24-8.809 12.912-14.297 19.318-24.25 31.174 2.878-.596 5.36-.941 8.266-1.338-5.519 4.654-10.959 9.296-16.93 13.378.403 4.11 1.184 10.216 1.125 14.195-21.982.973-30.445 10.393-46.566 23.818-20.064 16.71-30.632 33.671-58.491 36.681l-1.445 15.365 8.174-.099c-7.955 9.095-16.538 20.91-26.789 27.803 5.445 4.163 9.33 7.583 13.967 12.636 3.685 4.015 8.061 9.912 11.823 13.559l-6.48.418c-.065 3.664.122 5.829.495 9.487 5.361.902 9.878 1.738 15.025 3.645 12.201 4.523 29.354 16.578 36.858 27.036q.42.585.829 1.178c.519-1.642 1.056-3.5 1.655-5.096 11.771 11.677 17.198 27.335 23.006 42.502 1.55-8.094 2.542-14.287 2.01-22.703 6.318 8.581 8.54 13.85 13.599 22.687 2.176-2.415 7.677-8.831 9.851-10.693-12.9 20.859-25.799 66.629-20.189 91.24.493 2.161 1.971 7.355 4.051 8.209 9.301 3.155 20.731-2.734 29.918-4.538 4.407-.866 8.799-2.229 13.018-2.568 32.421-2.607 65.11-1.802 96.055-13.613 18.352-7.005 34.27-17.638 42.137-36.408 7.441-17.351 5.61-37.33-1.106-54.657-3.411-8.799-10.058-13.787-16.204-20.739a175 175 0 0 1-13.036-16.76 107.4 107.4 0 0 1-10.178-19.458c-1.466-3.649-2.938-8.137-4.621-11.571-9.427 13.197-12.684 23.171-14.462 39.089 51.874 14.487 68.866 77.039 17.929 105.123-30.491 16.811-60.491 12.548-93.516 14.98-13.684 1.033-20.09 3.57-32.738 6.748-3.735-1.723-4.681-2.161-7.105-5.546.041-5.25.293-9.698 1.035-14.9 7.54-52.837 41.422-107.184 100.355-108.409 1.606-26.286 15.227-49.03 34.758-66.189a51 51 0 0 1 3.903-3.155c1.771 12.701 4.631 30.96 9.366 42.873 10.463-3.1 15.656-7.209 27.438-9.593 2.651 3.468 6.002 8.12 8.931 11.212-5.852-13.118-19.01-24.262-30.372-32.899 6.092-10.827 12.696-28.229 9.864-41.037-.595-2.686-5.986-16.003-7.199-19.174l-12.567-33.044c-2.048-5.251-4.287-10.563-6.142-15.729-1.048-2.917 1.864-7.804 4.421-7.628 6.191.427 14.43 6.186 20.413 8.374 4.814-41.843 25.672-71.613 67.206-84.002 6.374-12.064 15.383-26.379 29.329-30.726l1.629-.498c15.369 3.892 24.973 17.921 31.204 31.615 18.161 2.859 38.313 18.712 48.922 33.404a86.5 86.5 0 0 1 14.784 34.036c1.016 5.407 1.484 10.903 2.541 16.565 4.658-2.363 17.536-9.963 22.006-8.366a5.26 5.26 0 0 1 3.019 2.754c.76 1.638.787 3.749.377 5.482-1.116 4.709-3.543 9.482-5.329 13.997-4.3 10.876-20.342 49.222-20.662 57.571-.502 13.062 4.434 25.17 9.397 36.929-12.394 5.55-24.375 14.979-31.004 27.018-1.2 2.18-4.871 10.241-5.851 11.256-10.253 10.616-32.192 24.704-45.452 30.823.509-2.465.946-4.947 1.193-7.453 1.864-18.9 4.552-37.704 6.6-56.583 30.259-9.827 47.883-32.486 47.242-64.778-26.714-13.29-58.023 7.284-77.356 24.95a2116 2116 0 0 0-37.159-29.841c-5.431-4.206-11.2-8.941-17.162-12.38-2.38-1.373-6.854-.89-9.572-1.456-9.402-1.621-17.904-4.982-26.44-9.145-4.024-1.964-8.469-4.436-12.65-6a1250 1250 0 0 0 10.331 27.345c2.199 5.593 6.69 16.256 7.921 21.657 2.718 11.925-.478 28.515-5.499 39.476q-.24.536-.505 1.059c18.907 13.415 29.45 29.62 31.271 53.037 7.368 9.137 34.531 25.301 45.872 29.819l-7.011-54.816c-.856-6.854-2.178-21.115-3.42-27.178-15.71-2.676-26.613-8.127-36.05-21.591a51.94 51.94 0 0 1-9.514-28.357c7.833-.192 15.178.405 22.687 2.77 14.725 4.638 26.191 13.156 37.816 22.958 1.963 1.655 6.152 5.93 8.923 5.849 6.827-.198 31.649-33.69 67.283-31.695-3.348 28.618-18.086 43.093-45.417 50.562-1.932 27.498-8.699 58.483-10.514 86.87 28.519-11.234 40.353-20.821 64.113-39.227 3.961-10.286 6.991-14.761 11.906-24.168 8.946 3.063 15.527 5.514 23.956 9.814 7.836-16.468 8.962-25.772 11.614-43.261 16.644 14.318 32.168 38.886 36.442 60.172.645 3.213 1.207 6.968 2.106 10.032 28.957 3.319 50.956 15.785 69.67 38.463 16.161 19.584 30.377 59.997 29.587 85.433-2.77 2.027-4.119 3.034-7.169 4.64a214 214 0 0 0-40.305-7.778c-14.331-1.346-29.659-1.231-43.882-2.952-25.503-3.086-54.289-14.201-67.167-37.998a51.72 51.72 0 0 1-3.618-39.818c4.722-15.41 12.784-19.646 21.521-31.83 8.711-12.149 12.797-23.13 17.834-36.783-2.38-3.512-3.778-5.338-6.551-8.549-6.759 19.086-17.797 37.082-31.57 52.002-31.524 34.147-22.479 78.065 16.766 101.367 38.579 22.907 84.434 12.071 126.107 23.781 7.139 1.975 15.24 4.405 22.421 5.777 8.46-9.058 8.089-16.501 7.726-28.673-.636-21.324-5.297-38.725-12.262-58.65 5.518-8.41 6.342-16.615 14.035-26.416.452 7.444.93 14.447 2.878 21.707 4.491-13.814 12.063-32.006 22.297-42.187.572 1.553 1.237 3.24 1.753 4.796 16.702-18.177 28.911-26.7 52.732-31.167.547-3.394 1.051-6.532 1.409-9.951l-6.279-.826c7.225-8.749 15.701-18.825 24.912-25.557-4.153-3.877-9.101-7.956-12.875-11.991-4.911-5.252-9.358-11.045-14.39-16.264 3.503.491 5.433.474 8.961.465a676 676 0 0 0-1.912-15.082c-9.42-1.972-20.751-5.123-28.37-11.061-11.568-9.016-22.615-20.363-34.089-29.718-15.041-12.265-21.797-19.342-42.097-19.782-.006-4.228.03-10.234.635-14.438-4.655-3.566-10.024-7.354-14.446-11.078.852-.396 4.011-1.483 4.441-1.425.166.023.76-1.574-.91-.886-1.01-3.038-18.367-24.06-21.972-29.584 2.252.939 4.604 2.203 6.954 2.16l.622-.568c-.595-2.74-8.974-11.735-11.293-14.589-22.663-27.889-44.995-50.541-75.456-70.263-27.298-17.675-48.897-26.185-79.815-34.39-2.454-17.905-7.501-25.567-21.478-37.327-10.592-8.912-9.769-18.935-9.263-31.737-9.832-6.442-20.803-18.634-28.613-27.246-10.538 11.435-16.908 17.737-28.694 27.686m346.107 470.125c6.304-8.1 8.458-10.69 18.559-13.432-5.008 3.899-7.398 7.564-5.563 14.12l2.149 4.657c-11.948 6.277-17.304 12.291-25.886 22.564-1.619 1.938-4.419 5.054-5.352 7.163.759.857 1.212 1.439 2.659 1.392 8.969-.292 22.18-3.728 28.475-10.224 8.497-8.768 12.172-24.494 19.186-34.16-6.803 1.841-8.718 2.757-14.812 6.394 5.265-11.408 13.226-18.508 23.246-25.875-7.858-1.524-19.383-2.565-27.374-1.691-1.841.238-3.883.453-5.692.778-6.375 5.099-13.018 14.733-18.116 21.484.133-5.158.163-10.83.498-15.94-13.697 9.982-17.508 11.745-26.353 26.036 1.823 8.935 3.315 16.181 4.289 25.281 9.384-11.336 17.314-25.925 26.316-35.245 1.298 2.634 2.053 4.262 3.771 6.698M191.869 378.628c-2.094-4.049-3.716-7.825-5.522-11.994-14.164 22.878-18.4 37.907-17.719 65.607.155 6.304.266 12.412 1.036 18.76 5.144-1.957 8.946-3.73 12.929-7.729l1.361-7.155c1.566-4.798 3.591-7.122 7.133-10.65-.101-5.452-1.426-14.73-2.303-20.32-1.591 2.549-3.341 4.183-5.41 6.346.249-13.61 5.964-17.812 14.918-27.093 4.658-4.829 9.515-9.698 14.371-14.322 2.587-11.74 4.272-15.587 10.565-25.771 1.135 4.551 1.362 7.79 3.905 11.779 21.909-10.896 15.122-14.239 26.552-29.291 1.856 5.177 2.031 7.833 2.391 13.354 11.759-7.158 22.243-14.474 28.867-27.138.627 4.188.978 9.629 1.713 13.404 11.284-6.754 18.086-11.58 25.734-22.914-3.307.003-6.906-.068-10.176.175-17.629 1.199-41.877 10.498-53.511 23.73a43 43 0 0 0-1.486 1.77l1.392-10.068c-15.393 10.061-20.702 14.443-33.031 28.245-.786-3.685-1.302-6.495-1.803-10.224-9.368 12.204-18.162 26.438-21.906 41.499m19.453 292.391c-6.596-11.039-19.547-26.397-32.056-30.509 6.704-6.704 4.22-12.588-1.501-18.707 9.421 2.462 11.677 6.313 18.31 13.322l3.161-5.891c8.482 9.027 16.828 25.188 24.628 35.372 1.723-10.142 2.552-16.675 6.102-26.488-7.34-11.338-14.795-17.339-26.086-24.7.238 3.274 1.275 11.823-.021 14.381-.561-.313-14.559-17.464-18.011-20.291-8.068-1.399-15.882-1.235-24.035-.814q-4.566.515-9.143.92c9.801 8.278 17.833 14.415 23.573 26.216a288 288 0 0 0-14.613-6.965c14.184 24.914 14.76 44.798 49.692 44.154m392.55-260.301c-1.74-.739-3.88-1.629-5.564-2.45-4.797-2.42-3.198-10.811-3.754-15.632-3.089-26.797-14.838-45.305-38.445-58.984-.661-.291-2.457-1.312-3.125-.836.108.469 2.019 1.765 2.539 2.158 21.824 15.42 39.812 55.047 22.357 79.483 9.916 1.885 16.71-.768 25.992-3.739M419.139 220.253c-2.807 4.051-4.325 6.505-6.681 10.772 8.671-3.166 20.282-6.237 27.864-9.227 2.782-15.322 16.804-30.291 28.522-39.654q.394-5.429.716-10.862c-3.037-1.402-7.468-3.597-10.523-4.488-6.857 10.076-11.392 9.293-19.448 1.01-3.392 4.82-5.958 8.852-9.024 13.875 4.571.732 9.763.778 13.69 1.563-8.056 7.759-15.509 15.654-23.729 23.374 3.56-.603 6.875-.36 10.479-.252-4.838 4.631-7.808 8.553-11.866 13.889m-.479 467.601c12.858 29.519 37.202 51.18 67.042 62.793a118.7 118.7 0 0 0 21.476 6.088c2.773.473 6.089.834 8.901 1.159-1.642-.782-3.23-1.61-4.985-2.113-6.569-3.17-13.508-6.397-19.865-9.921-28.009-15.524-48.433-38.305-59.13-68.861q-.468-1.338-.903-2.685c-3.723 4.243-8.452 9.772-12.536 13.54m-142.898 59.331c3.661 10.05 5.607 18.507 7.93 28.418 1.481 6.319 14.478 20.841 19.455 25.267l5.242 4.14c-13.835-24.453-19.821-50.192-2.773-74.629-2.658-1.58-10.071-6.241-12.497-7.316-6.734 7.813-13.503 14.277-17.357 24.12m560.514-341.196c-.61 6.573-1.116 11.245-2.332 17.782 2.284 3.138 6.039 7.765 7.461 11.23 1.214 2.956 1.252 6.577 2.997 9.517 3.796 2.791 6.507 4.156 10.85 6.077 3.053-20.941 2.08-49.497-7.413-68.442-3.505-6.995-5.384-9.155-9.09-15.218-1.592 3.968-2.736 7.077-5.024 10.724-5.567-11.323-9.258-23.229-17.032-33.457-1.581-2.08-3.524-4.746-4.874-6.911-.806 3.561-1.376 6.736-1.977 10.341-8.184-10.107-21.068-22.858-33.087-28.155.831 3.778 1.124 6.325 1.529 10.198-8.384-12.065-29.949-21.652-44.061-24.255-5.145-.95-15.405-1.87-20.804-2.019 7.875 11.409 12.804 16.621 25.528 22.763q.235-6.31.736-12.604c11.053 13.351 14.006 18.198 30.694 26.598-.112-3.321-.805-9.2 1.253-11.635 4.091.297 8.518 15.126 12.375 18.401 4.975 4.225 9.716 6.431 15.581 9.361 1.55-4.141 1.91-7.631 2.469-11.999 6.118 8.678 8.905 15.689 10.575 26.267 8.744 9.318 24.065 21.437 28.738 33.385.802 2.049.824 6.091.892 8.476-2.141-2.965-2.957-4.109-5.984-6.425m-116.433 324.41c17.286 25.007 10.899 49.744-2.934 74.959l4.616-4.187c5.472-5.205 18.078-18.436 20.217-25.241 2.921-9.294 2.276-18.479 7.219-28.686-3.561-7.925-10.686-18.658-17.216-24.191-4.007 2.387-7.901 5.072-11.902 7.346m27.106-76.361c2.204-30.047-16.619-53.313-42.339-66.968-16.448-8.732-32.612-11.565-50.626-5.877q.189.748.387 1.494c14.391-.884 33.631 3.801 46.188 10.738 26.714 14.758 37.94 32.589 46.39 60.613m-59.717-385.714c-2.235-6.808-7.967-26.239-14.167-28.987-6.912-3.063-24.727-4.623-32.503-4.882 14.67 17.646 24.897 26.231 46.67 33.869m-349.097-.503c12.141-1.811 38.777-19.919 46.255-32.501l.055-.562c-10.372.409-24.707 2.421-34.675 5.411-2.537 3.911-11.861 23.928-11.635 27.652m441.471 119.013c8.562 7.528 17.522 14.238 27.023 20.563 4.501 3.112 9.448 6.743 14.028 9.525 1.237-6.651 1.346-7.607 1.581-14.467-2.908-5.443-12.388-17.64-17.729-20.371-9.313 2.721-15.348 3.605-24.903 4.75M558.544 615.841c3.285-3.776 6.073-7.481 9.093-11.453-15.654 12.561-35.04 22.788-55.701 20.23-23.437-2.902-41.346-17.289-56.197-34.802-1.886-2.224-10.558-13.337-12.202-14.508 4.011 20.764 21.573 48.07 39.219 59.641 10.894 7.144 22.254 10.211 35.192 7.865 13.754-2.494 32.338-16.285 40.596-26.973M429.482 404.658c6.943 3.41 10.605 5.236 18.155 7.457 5.572 1.64 15.614.946 18.695 3.319 15.764 11.586 31.903 25.953 47.614 36.935.681-38.457.217-79.882-.123-118.392l-.151-24.998c-.009-1.835.039-10.44-.255-11.772-10.01 5.939-16.626 15.83-20.568 26.611-40.108 14.027-64.622 35.824-63.367 80.84m346.737-120.487c7.629 12.217 8.844 22.595 22.781 29.129 3.034 1.423 6.643 4.419 9.9 5.983-4.6-19.469-24.519-41.376-41.423-51.809q-2.984-1.846-6.075-3.506c.783 5.958 1.279 12.828 6.444 16.577 2.836 2.058 5.316 2.369 8.373 3.626m87.854 279.877c-16.334 3.619-29.571 16.938-38.851 30.275a2.4 2.4 0 0 0-.394.887c.087.136.387.204.579.259 12.449-3.774 13.649-5.034 26.965-5.47 6.709-6.862 10.239-15.846 12.533-25.033.237-.951.014-.866-.832-.918M203.557 401.562c.09 5.25.494 10.399 1.408 15.566 4.899-3.407 9.398-6.77 14.202-10.162 8.863-6.751 16.638-12.09 25.163-19.585l.435-.388c-1.389-.22-2.612-.413-4.013-.603a155 155 0 0 1-9.249-1.478c-3.768-.717-7.294-1.838-10.94-2.625-6.154 5.775-12.859 12.008-17.006 19.275m162.414 393.476c7.906 3.918 14.706 5.286 23.445 6.042-5.096-16.215-17.033-25.883-31.439-33.68a50.87 50.87 0 0 0 7.994 27.638m-100.013-68.317c2.127-3.676 3.584-5.524 6.243-8.894-14.194 4.242-27.273 6.067-41.506 1.682-3.756-1.157-11.66-3.57-15.241-4.131 8.555 10.73 30.564 19.556 43.92 21.086q1.056.12 2.115.219c1.346-3.126 2.906-7.025 4.469-9.962m488.665-380.965c2.914 7.086 5.456 14.079 11.318 19.317l.414.376a97 97 0 0 1-8.626-.061c6.878 6.832 8.449 10.352 19.021 10.068 2.539-.068 4.854-.401 7.343-.85 4.398-.902 6.082-1.38 10.283-2.501-11.926-10.892-25.5-19.024-39.753-26.349M329.075 213.914c2.31 5.039 5.501 10.362 8.155 15.307l1.263 2.043.415-.06c9.788-19.738 17.587-32.338 34.462-46.646.333 3.489.62 7.484 1.206 10.888a338 338 0 0 1 6.039.09c-7.711 8.082-18.318 18.916-23.259 29.019 7.356-.95 14.697-2.33 22.119-3.32 4.259-.568 14.705-1.22 18.079-2.086.081-1.506.244-.977-.335-2.239l-2.76-.455c-1.096-2.468 14.295-26.434 16.881-30.229-7.423.131-15.783.91-22.821 3.405 1.818-8.603 3.608-14.566 7.527-22.492.822-1.661 3.787-7.202 3.668-8.383l-.111-.097c-38.13 15.463-69.867 38.045-86.298 77.349-3.228 7.722-7.594 21.889-4.507 30.235 1.831 4.948 5.787 7.009 10.055 9.344 2.49-5.461 4.051-11.015 6.181-16.604 1.823-4.781 4.202-9.509 6.482-14.103-6.993-11.53-8.851-18.172-2.441-30.966M231.306 371.83c3.704 1.083 6.599 1.626 10.317 2.373 14.371 2.276 16.607 2.513 25.844-9.291l-.904.231c-2.734.738-4.674.824-7.439 1.039 1.648-2.692 3.822-5.503 5.207-8.261.647-1.288 6.414-10.992 5.452-11.333-14.871 6.005-26.258 15.024-38.477 25.242m174.066 462.59c1.36.238 2.96.796 3.97.342-2.904-6.991-5.927-11.629-8.44-19.092-9.168-1.469-18.967-2.09-27.798-4.446 3.304 8.271 5.117 10.843 8.89 18.284-3.063 1.492-5.471 2.415-8.666 3.619-9.286-7.416-12.367-18.108-18.181-27.762-2.261 5.571-4.999 12.1-6.753 17.816-9.289-10.234-7.262-21.455-.98-32.746-1.97-7.091-4.328-12.99-9.704-18.402-15.404 16.287-17.85 25.046-3.587 43.495 16.452 21.28 40.869 37.384 65.765 47.191-6.418-12.705-9.084-20.637-11.949-34.783 5.563 2.39 11.556 5.128 17.433 6.484m231.077-33.219c6.736-.612 18.654-2.631 23.633-7.906 2.323-2.462 9.056-24.329 5.789-25.361-12.956 7.71-24.275 16.409-29.821 31.074-.485 1.285-.992 1.752.399 2.193m-14.763 32.533c5.672-2.127 9.943-3.801 15.444-6.444-3.188 16.191-4.535 19.941-11.55 35.204 22.198-8.683 42.62-21.085 58.625-38.959 17.257-19.274 24.052-32.041 2.683-51.627-4.405 5.414-7.884 11.118-9.366 18.038 5.384 12.517 9.555 21.436.483 33.582-2.348-5.453-5.452-13.221-8.078-18.358-3.003 5.85-11.97 24.281-18.239 27.582-1.545.813-6.693-2.336-8.393-3.406 2.675-6.028 5.526-12.124 8.14-18.144-10.062 2.116-16.77 3.678-27.181 3.892-2.727 7.998-5.142 12.98-8.93 20.51zM172.223 589.957c12.064.767 15.683 2.216 26.917 4.92-.726-2.742-2.295-4.673-4.047-6.922-9.767-12.532-19.389-20.404-35.162-24.23 2.001 8.408 7.246 19.265 12.292 26.232m459.238-373.662c-1.922.507-2.693.361-3.922 1.552l.422 1.123c4.509 1.373 14.634 1.545 19.824 2.184 6.482.798 11.667 1.777 18.077 3.178-2.843-5.725-4.778-7.803-8.392-12.694-2.128-2.88-11.834-13.329-12.471-15.379a60 60 0 0 0 3.749-.759c1.198-2.013 1.649-9.059 1.911-11.662 9.656 6.155 23.216 24.281 28.477 34.596 1.059 2.076 6.305 12.074 7.305 12.917.833-.943.839-.945 1.401-2.068 2.599-4.51 5.18-9.187 8.12-13.468 6.86 10.941 4.333 20.437-1.708 30.866 2.621 7.341 7.908 22.388 11.785 28.801 4.36-2.313 8.334-4.708 9.631-9.955 3.236-13.096-4.53-32.68-10.674-43.598-13.326-23.681-34.032-41.064-57.965-53.222-7.675-3.898-13.568-7.451-22.132-9.815 4.895 10.139 9.96 18.273 11.446 29.997-8.255-1.552-14.327-2.257-22.805-2.815 4.207 6.662 14.827 23.331 17.921 30.221m175.047 466.664c-2.594 3.223-7.418 8.999-9.265 12.867-.199.417 2.876 1.494 3.184 1.62 16.693 3.075 27.246-.72 35.975-15.576.168-.286.346-.463.272-.804-.389-.369-1.075-.053-1.501.049-7.894 1.429-12.034 2.713-20.415 2.161l-2.257-.151c-1.979-.137-4.004-.13-5.993-.166M228.38 696.576c1.639-1.593-8.173-12.522-9.809-14.213l-8.073.81c-8.128.788-14.643-.66-22.287-3.125 8.42 16.632 22.411 22.159 40.169 16.528m525.439 22.077c2.222 2.846 4.994 6.241 6.645 9.433 1.235 2.771 2.606 5.675 3.653 8.507 14.671-1.432 33.444-8.691 44.031-19.767.628-.657.441-.467.541-1.489l-.19-.221c-22.112 7.233-31.502 9.28-54.68 3.537M263.562 264.661c-22.313 11.588-37.563 29.46-47.052 53.282-.334.836-.236.729-.17 1.669l.159.084c7.103-4.871 13.511-9.124 20.738-13.717 1.638-3.132 9.049-18.143 10.651-19.544 11.747-10.277 13.306-3.211 16.003-21.379zm46.205 493.89c.224 3.734.648 7.008 1.297 10.696l.456 2.5c.888 5.103 1.697 7.227 3.742 11.956.971-3.017 2.053-4.795 3.8-7.498 7.115-11.084 12.313-14.819 22.868-21.985-3.005-2.079-11.942-7.791-15.285-8.849-8.096 4.593-10.956 5.124-16.878 13.18m84.319-56.477c3.989 14.721 12.17 23.952 23.124 33.823 3.037 2.466 4.519 3.54 7.775 5.488-.563-1.277-5.083-11.83-5.528-12.431-2.63-3.549-10.24-33.193-10.512-33.394-5.421 2.111-9.639 3.887-14.859 6.514m289.533 51.699c11.412 9.241 15.264 10.551 23.326 24.271 1.2 1.968 2.079 3.448 3.125 5.516l.314.607c2.051-6.174 6.936-20.761 3.487-26.859-1.218-2.152-13.902-10.559-16.278-11.299-4.735 2.868-9.183 5.081-13.974 7.764M385.963 764.94a253 253 0 0 0 44.739 19.273c6.562 2.084 13.236 3.522 19.573 5.488 1.706 17.356 10.264 24.694 22.838 35.961 11.361 10.18 10.858 17.314 10.817 31.685 10.992 9.969 19.158 16.818 28.543 28.559 11.22-13.642 16.819-17.356 29.526-28.676-3.243-29.712 10.279-27.89 26.224-48.566 4.473-5.8 6.167-11.707 7.173-18.867 7.31-2.561 15.057-4.075 22.248-6.577 31.683-11.024 61.42-27.128 86.227-49.917 5.856-5.38 17.346-15.478 22.225-21.74-4.499-.613-15.61-1.285-18.832-2.024-51.454 48.513-110.079 74.637-181.762 72.857-65.536-1.628-119.521-27.618-166.568-72.294-6.819.771-13.151 1.115-20.005 1.494 17.685 20.592 43.459 39.988 67.034 53.344m80.614-92.007-.36-1.44c.544.121 9.09 6.328 11.221 7.616 34.018 20.564 73.185 1.052 91.7-32.488-5.187 4.338-9.969 8.379-15.667 11.99-39.954 25.315-86.499-5.617-105.901-42.129-.924-1.74-3.654-6.454-4.842-7.688 4.528 21.563 2.517 38.108-6.663 57.768 13.599 24.609 40.543 47.185 67.796 55.116a105.7 105.7 0 0 0 41.713 3.917c-28.384-7.116-58.151-16.839-74.045-43.354a108 108 0 0 1-4.952-9.308m-147.722-2.945c24.311-.72 53.261-4.409 70.806-22.726 16.478-17.203 11.085-40.622-5.403-55.5-10.231-9.232-25.566-15.808-39.484-13.573-23.061 2.63-38.894 13.444-53.333 31.367-13.391 16.622-24.054 43.103-25.543 64.371 21.684-3.434 30.588-3.878 52.957-3.939"/><path fill="#fefefe" d="M441.938 849.096c.546-.929 2.488-2.07 3.449-2.843l.782-.639c1.027 1.202 1.116 1.432 2.439 2.228-1.06.889-2.827 2.201-4.152 2.619-.865-1.162-1.077-1.012-2.518-1.365"/><path fill="#252223" d="M501.616 241.704c25.544-1.571 55.984 2.816 80.447 10.423a251.5 251.5 0 0 1 147.52 123.209c34.362 65.595 39.816 138.766 17.9 209.171-3.843-2.432-8.273-6.223-11.886-9.142 5.464-19.517 9.47-37.173 10.689-57.574a251.9 251.9 0 0 0-61.379-182.826c-40.595-45.687-96.356-75.308-157.783-78.924-26.825-1.358-49.636.348-75.551 8.004a237.56 237.56 0 0 0-141.725 114.879 261.02 261.02 0 0 0-19.921 196.254c-3.305 2.611-8.348 5.909-11.906 8.399-7.412-24.466-10.958-42.184-12.378-67.649a265.7 265.7 0 0 1 66.267-192.264 244.04 244.04 0 0 1 169.706-81.96"/><path fill="#252223" d="M190.952 498.286c-4.773-.365-11.304-.138-15.537-2.305-1.487-.762-2.663-1.914-3.116-3.565-.466-1.696-.208-3.207.778-4.658 3.999-5.884 42.721-35.213 49.943-39.604 4.763-2.896 9.937-5.501 15.425-6.673 3.043-.649 6.711-1.015 9.389.927 1.503 1.091 2.57 3 2.859 4.821.384 2.419-.626 5.012-2.669 6.41-3.469 2.372-9.511 2.226-13.503 3.947-6.955 2.998-33.232 22.461-37.823 28.764.334 1.521 2.073 1.606 3.98 2.815 3.434 2.176 6.636 7.805 9.959 9.731 4.291 2.355 11.73 3.37 13.903 8.487 2.877 6.777-12.029 8.776-14.415 11.13-4.94 4.872-6.775 10.112-14.031 12.11 10.741 9.973 25.982 21.068 38.208 29.089 9.008 5.911 21.691-1.575 20.681 15.302.105 1.119.167 2.077.38 3.186-1.435.265-3.403.551-4.866.66l.042-.293c-6.051-.758-15.741-2.391-21.174-5.673-19.774-11.945-37.729-28.332-55.697-42.871-1.33-1.076-2.038-2.143-2.091-3.808-.276-8.678 12.838-6.391 18.846-6.232 3.039-3.799 5.844-7.331 9.126-10.941-2.602-3.517-5.821-7.32-8.597-10.756"/><path fill="#fefefe" d="M254.983 575.014c.105 1.119.167 2.077.38 3.186-1.435.265-3.403.551-4.866.66l.042-.293c1.204-1.174 2.491-1.693 3.766-2.918z"/><path fill="#252223" d="M780.251 441.151c6.34.374 11.638 1.55 17.413 4.225 8.266 3.827 45.092 32.363 51.98 39.161 1.802 1.779 3.398 3.617 4.277 6.019-1.133 8.748-8.665 7.064-15.125 7.336-4.812.203-9.83 7.82-12.749 11.414 3.685 3.451 5.475 6.485 8.301 10.658 6.426.11 15.946-2.398 19.818 3.593.173 1.245.079 2.071-.429 3.204-3.056 6.806-42.081 36.418-50.447 41.867-4.645 3.025-9.394 5.64-14.641 7.451-4.572 1.408-7.714 1.829-12.459 2.485-2.507-1.702-6.431-4.419-5.886-8.006 1.158-9.455 13.469-6.273 18.143-8.988 13.629-7.914 28.83-20.614 40.755-30.752-7.513-4.27-8.717-8.382-14.927-13.111-3.41-2.596-10.099-1.282-12.743-7.354-.323-7.622 12.093-9.518 16.347-13.231 5.451-4.758 4.648-8.183 12.794-9.812-9.083-9.254-27.217-23.029-38.971-29.82-3.623-1.878-9.734-1.693-13.202-3.427-5.719-2.86-4.572-11.212 1.751-12.912"/><path fill="#252223" d="M512.217 164.455c1.573.374 9.165 5.123 9.906 6.369 5.103 8.582 6.613 18.821 12.317 27.39 4.806 7.22 11.327 11.895 16.624 18.603 3.066 3.881 1.882 8.053-2.273 10.454-5.034 2.763-9.885-2.762-13.179-5.905-10.551-10.068-16.934-22.013-23.001-35.024l-.215-.096c-.854.78-3.763 7.989-4.959 10.278-5.616 10.635-13.371 20.977-22.473 28.888-6.242 5.152-15.412.508-11.491-7.503 1.698-3.469 7.461-8.454 10.269-11.584 9.784-10.902 13.65-22.119 18.216-35.703a421 421 0 0 0 10.259-6.167"/><path fill="#252223" d="M244.114 468.393c1.838.809 5.777 7.927 6.874 10.081-2.285 3.281-4.063 5.239-7.349 7.586 3.75 2.797 7.159 5.833 10.937 8.54-1.632 1.779-3.239 3.744-4.808 5.576-4.042 4.718-3.469 5.135-8.761 2.233-1.934-1.406-3.924-2.656-5.852-4.082-1.291-.786-4.237-3.882-5.422-4.311-4.457-1.615-9.237-2.71-8.342-8.774.665-4.51 6.019-5.204 9.296-7.443 4.451-3.04 8.908-6.352 13.427-9.406"/><path fill="#252223" d="M239.143 516.53c6.129-.134 9.143 2.924 8.406 9.234-.291 2.499-2.156 3.676-3.673 5.196 4.089 2.771 9.722 6.797 13.554 9.933a153 153 0 0 0-6.017 7.555c-2.308 3.111-1.988 3.853-5.16 1.796-4.908-3.454-9.802-6.926-14.895-10.063-4.123-2.715-10.665-3.637-9.263-9.925 1.404-6.288 5.64-4.502 9.147-7.014 2.514-1.8 4.633-4.517 7.901-6.712"/><path fill="#252223" d="m783.5 516.534.429.042.863.07c4.683.425 6.828 4.854 9.961 7.384 1.923 1.345 4.813 2.166 6.157 4.265 4.2 6.719-2.948 9.195-7.409 12.253-4.316 2.959-9.209 6.372-13.2 9.643-1.34.905-2.458 1.819-3.705 2.826-3.037-5.91-4.228-7.007-8.262-11.797a299 299 0 0 1 12.749-10.51c-4.157-5.807-5.812-10.809 2.417-14.176"/><path fill="#252223" d="M780.981 469.037c6.687 2.873 13.885 8.445 19.77 12.965.895.687 2.416 3.579 2.165 4.989-.849 4.769-3.877 4.881-7.19 7.403-2.123 1.617-3.889 3.3-5.859 4.812a217 217 0 0 1-5.619 4.168c-1.139.767-1.923 1.299-3.028 2.138l-.625-.721a77 77 0 0 1-3.606-4.292c-1.536-1.94-2.933-3.583-4.452-5.59 2.595-2.789 6.717-6.401 9.833-8.574-4.513-4.83-2.969-3.444-8.231-7.107 2.253-4.051 3.763-6.654 6.842-10.191"/><path fill="#252223" d="M255.363 578.2c3.748 2.257 6.844 7.665 4.237 11.798a7.6 7.6 0 0 1-4.867 3.351c-4.156.858-7.987-2.524-8.426-6.601a7.28 7.28 0 0 1 1.683-5.499c.783-.928 1.587-1.614 2.507-2.389 1.463-.109 3.431-.395 4.866-.66"/><path fill="#252223" d="M770.207 579.332a7.21 7.21 0 1 1 4.672 13.644 7.21 7.21 0 0 1-4.672-13.644"/><path fill="#252223" d="m511.454 221.65.885.034c2.73.079 5.138.799 6.595 3.314a7.42 7.42 0 0 1 .589 6.006c-.853 2.596-2.54 3.557-4.749 4.76-4.036-.103-7.467-.601-8.601-5.051-1.331-5.223.666-7.769 5.281-9.063"/><path fill="#252223" d="M247.758 424.468a6.91 6.91 0 1 1 4.765 12.972 6.91 6.91 0 0 1-4.765-12.972"/><path fill="#252223" d="M773.878 424.75a6.773 6.773 0 0 1 8.824 7.947 6.771 6.771 0 1 1-8.824-7.947"/><path fill="#252223" d="M171.662 503.223a5.91 5.91 0 1 1-5.312 6.422 5.91 5.91 0 0 1 5.312-6.422"/><path fill="#252223" d="M852.672 503.275a5.83 5.83 0 1 1 1.46 11.568 5.83 5.83 0 0 1-1.46-11.568"/><path fill="#252223" d="M545.731 794.573c5.169.792 8.825 4.645 5.714 9.844-2.483 4.148-7.758 8.632-11.087 12.531-8.863 10.376-12.794 22.826-17.063 35.503-10.718 7.333-10.772 7.063-21.336-.109-5.493-16.519-8.595-26.179-20.601-39.394-2.173-2.673-7.798-6.637-8.63-9.515-1.684-6.589 4.333-10.205 10.038-7.431 5.866 2.852 10.045 8.256 13.996 13.268 6.928 8.786 11.623 18.674 15.823 28.963 5.288-12.376 18.784-40.386 33.146-43.66"/><path fill="#252223" d="M511.719 791.269a6.625 6.625 0 1 1 2.398 13.031 6.625 6.625 0 0 1-2.398-13.031m2.023 6.544c.15-.168.452-.47.486-.662-.179-.074-.053-.042-.435-.054-.274.273-.517.51-.73.814z"/><path fill="#252223" fill-opacity=".925" d="M513.793 797.097c.382.012.256-.02.435.054-.034.192-.336.494-.486.662l-.679.098c.213-.304.456-.541.73-.814"/><path fill="#1b191a" d="M461.25 354.462c.172.998-4.577 15.887-5.163 18.795a116 116 0 0 0-1.054 5.995c-.797 5.376-1.306 10.834-1.033 16.28.303 6.059-2.896 9.241-8.608 6.251-2.017-3.313-1.96-5.197-1.851-9.283.407-15.137 6.964-27.759 17.709-38.038"/><path fill="#fefefe" fill-opacity=".008" d="M442.728 608.794c1.188 1.234 3.918 5.948 4.842 7.688 19.402 36.512 65.947 67.444 105.901 42.129 5.698-3.611 10.48-7.652 15.667-11.99-18.515 33.54-57.682 53.052-91.7 32.488-2.131-1.288-10.677-7.495-11.221-7.616l.36 1.44a108 108 0 0 0 4.952 9.308c15.894 26.515 45.661 36.238 74.045 43.354a105.7 105.7 0 0 1-41.713-3.917c-27.253-7.931-54.197-30.507-67.796-55.116 9.18-19.66 11.191-36.205 6.663-57.768"/><path fill="#252223" fill-opacity=".984" d="M753.027 381.016c1.67-.688 1.076.909.91.886-.43-.058-3.589 1.029-4.441 1.425-.484-.461-1.262-1.13-1.535-1.379-.355-.324-.302-.751-.155-.724 1.694.308 3.444.301 5.221-.208"/><path fill="#fefefe" d="M647.806 583.828c2.202-1.201 3.538-2.249 6.178-2.635q.189.748.387 1.494c-1.409.37-4.923.852-6.565 1.141"/><path fill="#fefefe" fill-opacity=".043" d="M511.094 755.781c1.755.503 3.343 1.331 4.985 2.113-2.812-.325-6.128-.686-8.901-1.159 2.15.018 2.189.254 3.916-.954"/><path fill="#fefefe" fill-opacity=".094" d="M555.523 334.974c-.52-.393-2.431-1.689-2.539-2.158.668-.476 2.464.545 3.125.836z"/><path fill="#252223" d="M770.363 810.578c.508.078.851.115 1.328.236 1.837.462 4.091 1.912 4.858 3.707.849 1.992.159 4.226-.788 6.043-6.494 12.457-56.221 45.144-70.821 49.63-5.918-1.258-9.138-5.702-5.722-11.693.812-1.425 5.845-3.704 7.646-4.555 14.567-6.705 27.145-16.011 39.96-25.435 6.034-4.437 17.327-16.736 23.539-17.933"/><path fill="#252223" d="M254.035 810.514c5.676.212 9.522 4.754 13.561 8.518 16.732 15.594 36.095 27.384 56.317 37.843 6.694 3.463 4.887 10.124-1.248 12.825-1.269-.029-2.602-.046-3.84-.353-12.437-3.077-64.022-38.166-69.645-48.967-.772-1.483-1.003-3.319-.456-4.915.886-2.582 2.962-3.86 5.311-4.951"/><path fill="#252223" d="M872.921 677.492c7.098-.224 10.715 4.078 8.016 10.869-9.354 23.531-22.066 45.724-38.252 65.236-1.803 2.174-2.768 3.377-5.343 4.72-4.949.145-10.135-2.133-9.059-8.163.748-3.048 3.336-5.933 5.329-8.242C844.795 729.03 853.127 713.69 861 698.64c3.728-7.127 5.075-16.928 11.921-21.148"/><path fill="#252223" d="M148.708 677.014c5.36-.084 6.89 2.094 8.951 6.777 8.963 20.383 18.818 40.489 33.463 57.468 4.715 5.466 10.581 12.386 1.08 16.836-.64.027-2.433.061-2.963.009-3.84-.374-9.789-8.797-12.218-11.938a216 216 0 0 1-10.384-14.541c-5.082-7.913-24.686-41.014-23.046-49.14.585-2.897 2.802-4.036 5.117-5.471"/><path fill="#252223" d="M273.482 198.201c4.716-.228 17.216-.179 19.484 4.662-1.423 7.628-26.943 9.425-33.215 14.375-4.419 3.488-5.963 6.397-8.704 11.16q-.555 1.091-1.129 2.174c-1.596 3-3.185 5.519-6.618 6.554-3.238.975-5.253-2.203-5.468-4.967-.54-6.907 2.331-14.111 6.51-19.494 7.148-9.207 17.947-13.006 29.14-14.464"/><path fill="#252223" d="M743.987 198.672a47.7 47.7 0 0 1 22.339 3.127c23.781 9.619 27.293 41.619 12.441 34.01-4.382-5.128-4.883-11.875-10.312-16.701-7.24-6.436-28.93-7.71-34.317-14.51-1.02-4.791 6.369-5.333 9.849-5.926"/><path fill="#252223" d="M804.912 780.187a8.426 8.426 0 0 1 9.323 7.211 8.426 8.426 0 1 1-9.323-7.211"/><path fill="#252223" d="M698.647 152.835a8.094 8.094 0 1 1 1.598 16.108 8.094 8.094 0 0 1-1.598-16.108"/><path fill="#252223" d="M814.613 254.257a8.049 8.049 0 1 1-3.833 13.559 8.049 8.049 0 0 1 3.833-13.559"/><path fill="#252223" d="m217.11 780.035.198.018c10.098.825 12.947 12.282 4.599 15.705l-.797.341c-4.646-.066-7.25-.518-9.269-5.047-2.564-5.753.298-8.934 5.269-11.017"/><path fill="#252223" d="M670.306 869.604a7.712 7.712 0 0 1 9.977 9.02 7.714 7.714 0 1 1-9.977-9.02"/><path fill="#252223" d="M348.313 868.808a7.696 7.696 0 0 1 10.078 8.817 7.697 7.697 0 0 1-14.835.904 7.7 7.7 0 0 1 4.757-9.721"/><path fill="#252223" d="M322.469 154.119a7.6 7.6 0 1 1 5.917 14.003 7.6 7.6 0 0 1-5.917-14.003"/><path fill="#252223" d="M206.391 255.856a7.333 7.333 0 1 1 4.69 13.895 7.333 7.333 0 0 1-4.69-13.895"/><path fill="#252223" fill-opacity=".98" d="M437.961 132.012c1.323-.371 8.521-1.947 9.37-1.356l.03.097c-.132.198-1.17.932-1.338 1.058l-.483.371c-2.562-1.379-6.234.997-7.503.394-.085-.219-.044-.06-.076-.564"/><path fill="#252223" fill-opacity=".973" d="M580.507 889.159c1.213.579 1.755.779 2.998 1.203l-3.75.646c-.478.086-1.423.384-1.885.096-.063-.743 2.01-1.65 2.637-1.945"/><path fill="#252223" fill-opacity=".969" d="M444.174 888.818c4.386 2.912 2.984 2.255-1.769 1.796z"/><path fill="#fefefe" fill-opacity=".024" d="M871.711 397.524c-.05.612-.062 3.139-.478 3.515-.392-.199-.97-2.148-1.214-2.701z"/><path fill="#9e979d" fill-opacity=".267" d="M154.956 401.55c-.118.755-.113 1.144-.535 1.754l-.119.042c-.404-.241-.342-1.124-.377-1.413z"/></svg>