<svg xmlns="http://www.w3.org/2000/svg" width="896" height="1216" viewBox="0 0 896 1216"><path fill="#030303" d="M370.885 393.909c1.523-5.384 6.258-15.098 8.701-20.425l14.569-32.102c6.042-13.479 13.565-32.567 20.225-44.782 6.739-12.359 34.831-23.183 48.51-26.533 8.998 3.127 29.186 15.078 37.929 20.264l-10.141.619c-4.033.897-5.569 1.313-9.276 3.186 4.554 16.991 16.646 55.678 24.943 70.851 4.333 7.924 16.912 15.851 23.936 31.228-.858 2.351-1.74 5.002-2.799 7.243 16.752 11.982 25.275 16.268 43.923 25.282-1.397 1.291-2.89 2.734-4.312 3.971 7.551 8.31 15.212 15.045 22.509 23.693l.409 1.541c-4.226 2.376-14.653-2.875-18.536 2.707-.278 1.992-.229 2.382-.061 4.413 1.085 6.507 1.576 13.433 2.361 20.02 7.601 63.74 19.737 126.975 27.97 190.593.636 4.913.962 11.192.942 16.168l.045 3.281c-.359 4.063.59 15.693-.847 17.846-2.17-6.101-3.857-10.873-6.608-16.702-3.503 19.264-3.09 47.646-3.941 68.109-1.267 3.998-.105 6.902-1.408 9.146-1.639-6.147-3.143-11.193-5.487-17.145-1.835 14.875-2.123 42.323-1.803 57.415-1.088-4.497-1.944-7.319-3.437-11.675-3.16 20.123-4.191 43.016-5.868 63.467-3.582-29.103-5.713-59.889-9.706-88.494-.614 2.702-4.69 23.303-4.84 23.476.053-3.085-.012-3.876-.54-6.918-1.633-13.24-2.859-21.397-5.928-34.453-2.029 7.128-6.676 22.445-6.481 29.132.349 11.984 3.467 27.573 5.504 39.692 4.29 25.53 8.191 55.228 14.973 79.965l.423 1.942-.455.488c2.617 4.81 4.947 17.861 7.948 22.563 3.417 14.073 9.551 23.08 14.336 35.128 3.161 6.193 9.03 18.565 13.548 23.076 3.422 4.744 5.948 8.387 9.977 12.635 7.392 7.52 12.742 11.81 22.696 16.14 2.473-.98 4.758-1.69 6.768-3.43 18.944-9.85 23.853.46 38.936 10.37 10.979 4.12 15.168-3.74 25.661-3.3 5.551.24 11.605 5.09 16.619 7.12 8.585 3.48 19.784.57 28.479 1.32 6.148.53 14.015 2.04 20.14 3.06l-1.886 1.61c-15.951.84-31.916 1.39-47.887 1.64-23.038.27-42.173-.36-65.43 3.14 16.221 4.33 26.778 7.13 43.376 5.03 4.007-.5 19.385 7.77 24.942 7.42 3.89.58 20.513 2.13 22.823 2.92-18.805.18-36.887-.74-55.639-1.73-5.569-.29-12.42 4.35-18.302 3.71-5.163-.47-12.659-2.25-17.922-3.28-25.354-4.96-33.194-3.33-58.22 2.79 19.859 9.5 21.544 6.23 42.605 6.19 5.755-.01 18.971 3.71 24.941 5.44l-1.102 1.79c-8.322-.39-24.208-3.09-31.099-2.23-10.626 1.32-9.47 5.45-23.069 5.16-10.131-1.22-16.362-4-25.955-5.94-6.332-1.28-16.55 1.99-23.578 1.29-8.16-.83-14.878-3.42-23.125-3.84l-.728.06c-9.772.83-16.751 7.15-26.99 7.04-19.739-.2-39.532-8.73-58.218-11.73-8.621-1.39-27.986 10.5-37.253 11.19-15.083 3.01-27.139-2.44-39.5-2.63-11.423-.17-20.641 6.21-36.236 2.4l-.021-.88.842-.47c7.427-.74 9.073-.71 15.761-4.22-17.364-13.54-30.216-1.04-48.597 3.13-8.237 1.87-15.422-1.72-23.471-1.3-7.703.77-16.044 5.86-24.534 6.43-16.276 1.08-21.505-6.9-37.938-3.8l-2.499-1.14c16.828-9.3 31.605 6 38.362-11.3-16.605-3.97-31.653 1.71-48.433 2-12.636.22-25.126-.54-37.753-.8-2.665-1.79-9.38.57-12.779-1.33 9.538-1.3 19.371-2.34 28.836-4.02 8.681-1.54 17.206-4.27 25.97-5.56 7.014-1.04 13.736-.34 20.777-.7 8.794-.57 19.654-4 27.988-6.94-12.726-2.4-34.967-2.74-48.176-3.23-25.073-.93-51.204-.58-76.168-3.2 15.849-.86 32.608-1.52 48.409-3.07 5.321-.52 15.183-5.42 21.102-5.51 7.631-.12 13.72.81 21.571.47 21.052-2.47 23.325-7.43 25.34-25.81 1.222-11.14 17.466-13.843 25.185-17.293 5.529-2.471 7.127-9.556 8.458-15.353.589-3.845 5.478-8.984 7.721-13.691-2.663-9.486-9.511-15.11-7.116-25.148 2.488-10.43 9.97-16.842 18.452-22.39-1.303-9.597-1.793-25.898-2.472-36.039l-5.007-70.434c-.919-13.117-1.615-29.928-3.262-42.771.038-3.263-.311-7.56-.485-10.892l-.526-6.7a395 395 0 0 1-2.037-31.834c-1.094-4.248-2.255-25.602-2.799-31.449-1.079-19.26-6.719-32.605-11.064-50.955-2.448-10.336 1.421-22.112 1.048-32.573-.316-8.875-2.534-16.474-1.905-25.575 2.912-9.173-.711-42.594-1.892-53.634l-.589-17.12a635 635 0 0 0 11.781-3.44c2.824 3.667 3.438 5.557 7.67 6.508 1.386-.485 2.056-.672 3.49-1.007l1.24-.53c9.897 16.274 17.707 20.352 33.159 30.206l11.367-6.572c-2.095-2.788-3.499-4.761-5.312-7.729 3.961-7.077 9.585-11.211 11.712-18.934 1.36-6.244 2.379-11.504 3.339-17.815-4.007.665-9.008 2.618-12.934 3.993l3.177-5.267c2.543-4.531 6.223-10.099 9.027-14.576-4.691.889-9.634 1.656-14.36 2.461 9.961-8.085 16.18-18.275 24.823-27.362 5.14-5.404 14.555-12.18 20.725-16.909 1.465-1.358 3.449-2.913 5.018-4.219-5.45-7.503-11.685-14.786-17.275-22.338m-21.029 275.866-.808-1.907c-.776 1.001-.509 1.534-.584 3.098-1.101 10.236-1.247 21.574-1.708 31.967-.485.998-1.026 2.235-1.613 3.145l-3.97-15.079c-1.47 12.501-1.467 22.848-1.591 35.362l-2.785 1.291-.672-.317c-1.233 5.856-1.801 15.863-2.212 22.047a1947 1947 0 0 0-2.071 40.194c-.381 2.17-.631 3.156-.511 5.415l-.562-.197c-1.912-24.834-4.638-49.534-6.753-74.331-1.576 5.774-2.121 10.631-2.822 16.511-3.886-24.57-6.063-50.307-10.526-74.894-8.251 29.628-3.801 58.935-2.594 89.613q.684 8.57 1.228 17.15c.958 27.195 3.51 55.226 5.371 82.43 1.009 14.742 1.111 33.988 3.272 47.973 10.427-8.807 13.229-16.665 7.898-29.218l-4.726-7.906c2.123 2.122 3.664 3.765 5.611 6.048 13.247 16.267 5.981 31.9-8.148 44.378l2.131 39.467c.424 7.629.764 21.189 2.622 28.057 27.105-40.615 30.79-97.981 35.809-145.664a9028 9028 0 0 0 11.117-113.142c2.585-27.816 6.428-55.736 8.078-83.584.294-4.96-2.394-13.618-3.71-18.568-.443-1.817-.797-2.888-1.446-4.645l-.639.188-.82 3.295c-5.621 23.456-6.602 44.573-7.074 68.553l-1.966-.47c-2.735-8.526-5.319-16.715-8.53-25.086-.715 4.513-1.167 7.451-1.372 12.061l-2.264-1.635zM271.98 1021.21c18.994-8.43 24.302-11.71 39.388-26.183-1.366-12.618-2.225-25.824-3.207-38.524-9.132 6.734-13.494 13.564-15.125 24.919l-.092.687c-.641 4.988-.705 7.685-3.701 11.844-6.996 9.717-23.595 11.917-17.263 27.257m74.937-313.017c.341 1.045.235 1.572.203 2.675-1.262-1.008-1.361-2.215-1.809-3.823z"/><path fill="#7a5da0" d="m325.843 870.028.885-1.858c13.247 16.267 5.981 31.9-8.148 44.378-.099-4.68-.217-8.616-.635-13.302 10.427-8.807 13.229-16.665 7.898-29.218"/><defs><linearGradient id="a" x1="371.331" x2="374.816" y1="619.718" y2="617.223" gradientUnits="userSpaceOnUse"><stop offset="0" stop-color="#fff" stop-opacity="0"/><stop offset="1" stop-color="#e6e4e7" stop-opacity=".051"/></linearGradient></defs><path fill="url(#a)" d="m371.722 617.952.82-3.295.639-.188c.649 1.757 1.003 2.828 1.446 4.645-.39 1.928-.074 1.954-1.202 3.16-1.277-1.32-1.285-2.432-1.703-4.322"/><path fill="#5d5b5f" fill-opacity=".525" d="M331.842 789.576c.04 3.055.244 7.361-.269 10.248l-.606-.254-.102-.726.466-3.853c-.12-2.259.13-3.245.511-5.415"/><path fill="#030303" fill-opacity=".965" d="m336.797 727.652 2.785-1.291c-.253 1.649-.153 3.305-1.192 4.104a156 156 0 0 1-1.593-2.813"/><path fill="#030303" fill-opacity=".984" d="M345.143 706.078c.587-.91 1.128-2.147 1.613-3.145l.161 5.26-1.606-1.148z"/><path fill="#030303" fill-opacity=".961" d="m350.516 671.375 2.264 1.635c-.044.922-.173 1.839-.28 2.758l-.591-.283z"/><path fill="#030303" fill-opacity=".949" d="m364.648 686.505-.182 3.317-.438-.024-1.346-3.763z"/><path fill="#fdfdfd" fill-opacity=".082" d="M348.464 670.966c.075-1.564-.192-2.097.584-3.098l.808 1.907z"/><path fill="#303030" fill-opacity=".843" d="m330.769 794.794.562.197-.466 3.853z"/><path fill="#303030" d="M370.885 393.909c1.523-5.384 6.258-15.098 8.701-20.425l14.569-32.102c6.042-13.479 13.565-32.567 20.225-44.782 6.739-12.359 34.831-23.183 48.51-26.533 8.998 3.127 29.186 15.078 37.929 20.264l-10.141.619c-4.033.897-5.569 1.313-9.276 3.186 4.554 16.991 16.646 55.678 24.943 70.851 4.333 7.924 16.912 15.851 23.936 31.228-.858 2.351-1.74 5.002-2.799 7.243 16.752 11.982 25.275 16.268 43.923 25.282-1.397 1.291-2.89 2.734-4.312 3.971 7.551 8.31 15.212 15.045 22.509 23.693-8.275.128-32.562-9.435-40.685-12.576 2.063 7.654 3.281 15.072 4.659 22.857-5.823-4.169-10.358-7.451-15.748-12.113-13.041 12.91-15.996 20.87-23.154 37.362-1.167-8.228-2.324-13.918-4.852-21.86-4.847 11.885-8.548 23.523-12.594 35.661-1.842-7.661-3.894-13.61-6.97-20.873-5.842 17.791-6.844 44.25-13.041 62.572a341 341 0 0 0-5.073-36.582l-7.734 17.288c-1.64-3.465-3.657-7.451-5.153-10.921-8.338 18.697-15.089 55.327-19.624 76.421-1.043-1.682-1.082-9.01-1.326-11.784-.055-20.085-4.663-47.133-10.402-66.599-4.568 13.911-5.719 34.943-9.929 45.234-1.162-15.828-1.61-30.639-5.784-45.991-2.619 8.17-4.866 16.682-7.489 24.979-8.574-22.29-6.732-39.26-11.896-61.604-2.099 8.563-3.757 25.381-4.213 34.326-3.036-12.708-7.098-27.368-10.613-39.943-2.91 3.055-7.21 8.989-9.862 12.471-1.871-6.069-2.605-10.521-3.043-16.83-7.726 3.698-13.977 6.369-22.149 8.953 2.543-4.531 6.223-10.099 9.027-14.576-4.691.889-9.634 1.656-14.36 2.461 9.961-8.085 16.18-18.275 24.823-27.362 5.14-5.404 14.555-12.18 20.725-16.909 1.465-1.358 3.449-2.913 5.018-4.219-5.45-7.503-11.685-14.786-17.275-22.338"/><path fill="#030303" d="M388.16 416.247c4.23 4.476 30.208 37.066 31.525 40.82-2.438-1.603-7.869-7.301-10.173-9.543-7.403-7.206-21.414-18.453-26.37-27.058 1.465-1.358 3.449-2.913 5.018-4.219"/><path fill="#030303" d="M478.268 286.792c3.812.757 9.897 1.471 12.41 4.158-4.033.897-5.569 1.313-9.276 3.186-.977-1.933-2.253-5.251-3.134-7.344"/><path fill="#030303" d="M414.583 327.473c7.449 2.346 37.048 37 44.102 44.003 6.846 6.797 17.155 17.12 23.103 24.711-4.664 7.402-10.942 14.536-16.354 21.568a812 812 0 0 0-25.056 34.292l-4.573 6.362c-11.009-14.854-23.116-29.291-34.732-43.684-6.58-8.153-15.241-15.568-23.034-22.596l20.185-37.009c4.652-8.6 10.465-20.328 16.359-27.647"/><path fill="#030303" d="m521.492 419.76.602.596c-2.333 3.267-8.052 8.036-11.081 11.022-18.038 17.781-29.728 22.647-52.245 32.257l-.528-.135c.938-3.889 55.663-38.895 63.252-43.74"/><path fill="#030303" d="M518.654 397.743c2.389.252 4.213 2.418 5.916 4.083-4.882 3.812-12.631 8.025-18.1 11.421-12.233 7.597-24.718 14.876-36.834 22.675-.681.393-2.433 1.264-3.189 1.114 2.658-3.682 46.704-35.605 52.207-39.293"/><path fill="#030303" d="M391.706 451.655c2.059.495 6.592 4.541 8.43 6.086 10.138 8.519 21.949 16.731 28.431 28.592-12.43-3.619-29.745-24.257-36.861-34.678"/><path fill="#030303" d="m499.36 463.794.366.852c-19.493 13.912-27.567 17.701-49.063 26.92l-.354-.39.19-.846c20.175-13.629 26.796-16.793 48.861-26.536"/><path fill="#030303" d="M461.321 308.471c3.137 1.365 30.567 41.006 32.45 45.067-3.624-1.775-12.857-13.541-15.831-17.044-6.914-8.145-12.389-18.249-16.619-28.023"/><path fill="#7a5da0" d="m496.12 595.235 1.101 1.175c-10.773 16.633-4.26 18.8 7.432 31.397 6.952 7.49 4.314 20.555-.028 28.557-4.116 8.285-12.192 8.068-19.346 11.468-21.814 10.365 8.658 16.841 1.046 29.174-8.35 13.527-30.806 10.949-28.331 30.367 1.387 7.504 14.736 11.789 8.562 21.242-4.153 6.361-9.19 11.77.01 17.672 2.694 1.729 7.186 2.127 9.752-.451 1.859-4.771-3.744-8.537-1.057-12.054 14.247-1.568 6.32 23.881 18.94 22.817l1.25-.857c.568-3.368-2.058-4.776-1.314-7.242 2.566-.864 5.382.23 7.352 1.894 7.063 5.968 2.112 18.552 10.835 23.348 1.505.828 1.814.814 3.35.376 1.101-3.332-4.061-8.979-4.541-12.834 2.797.519 7.068 5.91 8.617 7.943 10.027 13.11 1.907 20.378-1.883 33.056-.791 2.647 2.1 10.578 3.549 13.385 5.063 9.808-16.148 24.392-23.264 20.326-2.451-4.837 6.032-11.422 9.351-14.498-3.296 1.658-13.875 6.746-15.875 8.805-7.024 7.232-4.431 8.127-14.078 13.357 2.355 5.184 10.577-1.457 13.306-3.272-5.095 8.256-10.761 13.088-20.844 8.92-16.862-6.97-24.308-3.632-36.624 9.03 5.649-11.835 6.856-9.826 15.216-18.607-9.257 3.521-14.495 5.48-19.794 15.141-4.65 8.479.286 28.467 12.447 22.223 5.257-2.699 8.13-7.209 15.064-10.351-1.113 1.688-2.422 3.973-3.652 5.536-5.147 6.324-.238 14.983 5.824 18.344 7.095 3.934 12.831 5.253 17.762 12.129 12.398 17.287 2.715 36.011-12.412 47.116 4.298-5.757 8.649-10.986 10.318-18.132l-1.506-.317c-2.252 3.599-2.732 4.258-5.491 7.286-5.397 6.121-18.709 11.745-17.4 21.266.619 4.504 9.473 11.527 5.844 15.914-4.114 4.976-14.903 12.236-9.134 20.206 3.493 1.17 7.356-2.15 9.76-4.6 7.044-7.18 12.1-6.5 22.307-6.19-3.665 1.7-11.127 4.85-13.631 7.63-10.975 12.19-10.497 28.27-31.58 28.43l-.438-.47c2.098-4.03 5.347-6.03 8.363-11.69l.389-.72c-6.323 2.82-13.619 6.56-20.366 7.66-9.041 1.47-18.454-2.31-27.369.86-5.187 1.85-16.522 8.45-13.298 15.12 5.315 3.74 11.642-2.2 15.558-5.5-9.501 24.02-24.394 7.03-41.648 20.35-17.364-13.54-30.216-1.04-48.597 3.13-8.237 1.87-15.422-1.72-23.471-1.3-7.703.77-16.044 5.86-24.534 6.43-16.276 1.08-21.505-6.9-37.938-3.8l-2.499-1.14c16.828-9.3 31.605 6 38.362-11.3 9.241-12.07 21.165-3.63 33.617-11.14 9.943-6.01 10.667-15.45 19.112-21.73 9.292-6.91 26.551-5.13 37.576-3.45l1.487 1.42c-7.088 1.35-17.243 2.8-23.74 5.05 9.945 2.36 18.69 6.34 28.955 3.21 19.08-5.81 14.486-32.885 35.238-37.285 1.91-.405 3.209-1.183 5.045-.181-.84 1.882-4.404 2.259-5.645 4.002-2.836 3.974 2.251 9.554 6.783 8.334 8.782-2.35 14.553-9.041 19.518-16.162-3.116 1.902-9.211 6.31-12.784 4.026-.749-4.28 6.475-9.896 9.591-12.714 12.188-11.019 2.787-16.232-1.595-28.42l-.272-.771c1.591-3.905 7.635-12.573 12.341-11.512.102 1.661.122 1.996.563 3.587l1.384.665c9.618-.458 15.836-9.581 15.316-18.632-.982-17.081-19.444-20.134-30.431-30.179 4.341 7.808 12.645 13.714 14.18 18.578-.331.987-.558 1.799-1.628 2.119-12.613 3.77-26.73-9.588-31.365-18.177a38.74 38.74 0 0 1-2.765-29.656c3.967-13.188 12.114-20.584 23.765-26.879-6.493 7.767-8.114 11.829-11.272 21.204 4.801-6.569 10.751-13.739 17.071-18.823 4.454-3.582 17.429-12.374 22.11-5.596-1.566 2.21-8.501 2.966-10.433 6.485.658 4.252 5.059 4.233 8.532 4.604 14.669 1.567 16.227-11.689 25.26-18.519 3.633-2.746 13.22-1.657 16.649-6.114 5.373-6.062 6.083-14.76 6.264-22.235-1.897 3.976-2.154 5.553-3.073 9.926-2.847 3.181-9.482 9.5-14.079 7.954 1.108-3.727 11.364-10.482 10.907-19.46-.71-13.952-16.309-18.834-26.087-25.689-3.465-2.429-5.569-4.636-8.381-7.481 2.947 7.092 4.985 9.578 10.396 14.905-15.049-2.253-30.308-14.384-19.648-31.439 3.971-6.351 11.187-9.382 11.312-18.773.07-5.201-2.196-11.088-7.9-11.101-.684 3.117 1.984 4.994 1.358 8.493l-1.09.445c-6.572-1.306-7.551-7.525-7.121-13.179 1.616-21.297 19.016-16.236 30.045-27.49 4.346-4.436.902-19.353 8.84-23.651 7.219-5.698 18.008-3.703 25.114-9.51 2.14-1.748 5.012-6.862 2.963-9.329-3.175-.161-4.55 2.082-7.989 2.203-2.729-5.324 7.815-10.881 7.327-16.104-.807-8.649-12.085-13.102-11.964-22.051.091-6.714 6.414-13.234 10.919-17.533"/><path fill="#262626" d="m472.655 951.418 3.176-6.359c-.29 1.186-1.324 5.764-1.67 6.676z"/><path fill="#303030" d="M558.989 462.557c3.249 2.04 8.414 6.025 12.151 4.106l.274-1.598c1.085 6.507 1.576 13.433 2.361 20.02 7.601 63.74 19.737 126.975 27.97 190.593.636 4.913.962 11.192.942 16.168-4.392-6.115-6.762-17.009-11.387-24.579-2.423 9.115-3.478 18.233-5.738 27.277-3.333-11.867-6.716-24.692-10.504-36.335-1.305 15.003-2.746 37.32-5.637 51.405-.947-5.629-4.755-26.42-9.818-28.989-6.123.552-29.38 16.825-36.048 21.084a240 240 0 0 1 6.883-25.494c3.19-9.791 28.928-79.662 27.356-83.723-.247.258-8.005 18.745-9.016 20.89-6.867 14.568-13.504 29.182-21.944 42.945-.502-30.646 3.377-60.08 10.486-89.737.988-4.12 1.629-8.844 2.305-13.07-3.719 7.734-7.122 17.399-10.207 25.54-3.421-20.215-4.561-50.782-4.652-71.827-.035-7.943 8.546-31.647 12.936-38.774 5.669 1.789 13.536 5.46 19.09 7.92.599-5.111 1.176-8.781 2.197-13.822"/><path fill="#030303" d="M564.269 549.031c1.462 1.405-1.127 5.557-1.767 7.495-4.432 13.424-11.307 23.653-19.226 35.105l-.573-.245c-.844-6.002 17.84-36.267 21.566-42.355"/><path fill="#030303" d="M559.419 492.584c-1.642 8.64-2.742 14.188-6.008 22.431-1.457 3.675-4.534 10.122-5.611 13.465l-1.302 1.461-.496-.385.468-2.217c2.823-10.888 6.519-25.542 12.949-34.755"/><path fill="#303030" d="M349.345 495.941c3.138.318 8.985-6.616 11.414-8.999 4.546 7.84 6.221 8.549 14.048 13.218 3.329 13.745 4.854 15.222 14.163 26.194-2.295 23.687-6.154 47.863-8.07 71.367l-14.504-31.557q-.228 17.806.129 35.61c-5.045-8.038-8.794-16.022-14.451-23.822l-4.245 39.806c-.803 7.063-1.776 17.181-3.353 23.947-2.923-9.769-4.886-20.308-9.195-29.355-2.284 12.88-6.144 37.81-9.916 49.735-2.615-24.683-2.233-50.517-4.147-75.384-1.795-23.31-1.157-44.06-9.116-66.494-.223 7.07.176 29.071-9.265 30.004-7.123-2.504-6.122-8.633-9.117-13.481 2.168-2.77.743-23.259-1.93-26.244 1.675-4.66 2.942-6.753 5.389-10.986l1.24-.53c9.897 16.274 17.707 20.352 33.159 30.206l11.367-6.572c-2.095-2.788-3.499-4.761-5.312-7.729 3.961-7.077 9.585-11.211 11.712-18.934"/><path fill="#030303" d="M345.835 527.32c9.741 2.843 14.634 7.691 19.96 16.254 2.108 3.387 4.41 6.322 5.983 10.066-1.937-.685-24.04-23.524-25.943-26.32"/><path fill="#030303" d="M335.584 535.398c11.119 3.43 13.92 12.536 16.063 22.836-2.351-1.559-12.944-18.574-16.063-22.836"/><path fill="#303030" d="M548.278 963.176c28.33 61.804 16.215 50.194 78.543 78.804-34.115 9.94-28.716 8.11-61.537-2.47 5.166 3.36 41.663 31.95 44.238 35.19-10.131-1.22-16.362-4-25.955-5.94-6.332-1.28-16.55 1.99-23.578 1.29-8.16-.83-14.878-3.42-23.125-3.84-1.406-3.98-33.966-16.5-40.025-19.51 20.817-5.94 41.619-2.6 61.067 5.94-9.07-8.43-27.624-22-34.416-29.46 10.596.75 24.069 3.27 34.373 5.9-6.946-10.28-14.483-21.94-19.722-33.197 6.882 6.497 12.495 13.687 19.026 20.007-1.701-21.137-6.482-33.722-8.889-52.714"/><path fill="#7a5da0" d="M274.238 497.439a635 635 0 0 0 11.781-3.44c2.824 3.667 3.438 5.557 7.67 6.508 1.386-.485 2.056-.672 3.49-1.007-2.447 4.233-3.714 6.326-5.389 10.986 2.673 2.985 4.098 23.474 1.93 26.244-6.353 9.696-1.303 11.037 2.114 20.286-2.22 5.047-4.468 9.741-5.578 15.181 1.8 3.811 4.051 8.042 4.897 12.114-.979 4.38-3.292 8.532-5.295 12.579 2.259 9.909 5.924 16.576 8.336 25.289-1.692-1.545-3.032-3.147-5.182-3.626l-1.047.564c-.818 3.749 2.847 11.628 4.348 15.47l-8.182-6.348c7.953 24.234 15.457 19.039 15.369 48.412l-10.779-10.017c2.928 8.672 4.849 16.372 7.135 25.221l-11.216-14.559c-1.079-19.26-6.719-32.605-11.064-50.955-2.448-10.336 1.421-22.112 1.048-32.573-.316-8.875-2.534-16.474-1.905-25.575 2.912-9.173-.711-42.594-1.892-53.634z"/><path fill="#030303" d="M274.238 497.439a635 635 0 0 0 11.781-3.44c2.824 3.667 3.438 5.557 7.67 6.508 1.386-.485 2.056-.672 3.49-1.007-2.447 4.233-3.714 6.326-5.389 10.986-1.422 5.405-.187 10.282-.218 15.971-4.884 8.05-8.679 14.017-10.731 23.436 2.955 2.532 4.851 4.273 5.139 8.436.33 4.774-.523 11.542-5.672 13.31-2.539-.33-2.448-1.173-3.589-3.446 2.912-9.173-.711-42.594-1.892-53.634z"/><path fill="#7a5da0" d="m566.315 907.988.423 1.942-.455.488a180 180 0 0 0-6.027 1.74c-6.336 1.933-13.017 4.099-16.199 10.471a10.52 10.52 0 0 0-.455 8.419c.442 1.173.22.799 1.383 1.345 2.982-.935 3.171-3.072 6.35-4.631.928.979 1.02 1.446.916 3.156-.727 12.011-9.619 13.141-16.685 20.037-4.085 3.986-3.376 9.16-3.036 14.305-7.887 12.883-16.52 5.885-24.987 15.49-4.729 6.435-3.376 15.934-4.672 23.32-2.018 11.51-10.83 20.76-22.706 21.53-2.485.16-6.536-.12-8.455-1.83.052-3.94 17.512-5.48 23.351-13.28 8.765-7.83 2.287-26.263 5.96-33.062 6.064-11.224 12.862-3.925 7.975-22.786 6.234-13.931 12.369-5.23 20.724-14.469 5.277-6.859 4.092-15.82 9.192-23.029 7.633-10.791 17.287-7.142 27.403-9.156"/><path fill="#262626" d="M286.171 968.644c2.456 3.694 4.853 9.328 6.773 13.465-.641 4.988-.705 7.685-3.701 11.844-6.996 9.717-23.595 11.917-17.263 27.257-10.791 3.84-34.933 13.38-44.792 5.89 21.052-2.47 23.325-7.43 25.34-25.81 1.222-11.14 17.466-13.843 25.185-17.293 5.529-2.471 7.127-9.556 8.458-15.353"/><path fill="#7a5da0" d="M293.892 954.953c-2.663-9.486-9.511-15.11-7.116-25.148 2.488-10.43 9.97-16.842 18.452-22.39.243 15.467 2.196 33.243 2.933 49.088-9.132 6.734-13.494 13.564-15.125 24.919l-.092.687c-1.92-4.137-4.317-9.771-6.773-13.465.589-3.845 5.478-8.984 7.721-13.691"/><path fill="#7a5da0" d="M291.439 708.745c3.134 3.43 12.654 14.576 11.765 19.253-2.356.572-4.771-2.716-6.341-4.394 2.664 8.407 6.473 20.53 11.211 28.089q.684 8.57 1.228 17.15c-4.863-6.613-4.734-13.56-14.815-10.672.038-3.263-.311-7.56-.485-10.892l-.526-6.7a395 395 0 0 1-2.037-31.834"/><path fill="#030303" d="M293.476 740.579c3.745.956 6.823 8.738 7.904 12.111-2.949-2.556-4.035-3.48-7.378-5.411z"/><path fill="#262626" d="M641.556 1016.53c18.944-9.85 23.853.46 38.936 10.37-13.285 1.37-32.496-4.79-45.704-6.94 2.473-.98 4.758-1.69 6.768-3.43"/><path fill="#463560" d="M355.979 1020.12c-3.175 2.12-4.586 3.05-8.343 3.97l-1.487-1.42c3.688-.74 6.218-1.45 9.83-2.55"/><path fill="#262626" d="M438.307 581.856c.244 2.774.283 10.102 1.326 11.784-.197 1.336-.285 1.566-.73 2.85l-.408-.364c-.461-4.643-.259-9.583-.188-14.27"/><path fill="#463560" d="M496.12 595.235c2.446-1.982 4.848-3.984 7.42-5.8-2.183 2.576-3.941 4.586-6.319 6.975z"/><path fill="#262626" d="M529.918 700.632c9.326-.038 10.28 5.674 17.387 10.291 3.762 2.905 16.206 2.807 17.96 7.307 2.929 7.516 1.119 24.608-6.55 28.702-2.302-.403-2.935-.434-4.672 1.487-2.315 2.561-5.084.892-7.537 2.368-3.48 2.094-12.709 8.981-16.917 7.761.237-2.978 6.975-7.603 9.504-9.832 1.359-4.482 3.908-12.694 4.044-17.183l-.569-.46-1.114 2.401c-1.292 5.497-2.355 9.668-4.094 15.029-4.474 3.352-11.208 10.795-16.487 11.026-4.867-4.522 18.14-28.056 5.561-36.028-5.038 2.436-4.739 13.93-10.602 16.151l-1.528-.732c-3.41-4.87 1.432-17.265 3.299-22.341 2.584-7.024 6.345-11.611 12.315-15.947"/><path fill="#303030" d="M392.267 593.668c1.613 1.746 1.848 10.871 2.089 13.648 3.559 40.975-2.464 81.699-9.573 121.952-.608 3.439-1.029 7.055-1.97 10.414l-.025.019c-1.963-3.863-2.821-59.311-2.185-66.685 2.122-24.581 6.645-55.134 11.664-79.348"/><path fill="#303030" d="M376.619 930.265c2.37 7.94.198 22.087-1.664 30.357-4.459 19.811-10.586 26.238-26.962 36.608-.406-2.182 8.442-14.6 10.265-17.732 9.137-15.699 13.715-31.903 18.361-49.233"/><path fill="#303030" d="M401.367 770.273c.866.631 2.236 2.351 3.088 3.274l1.233-.312c1.31-1.613.962-.738 1.287-2.623l.287.339c-.263 1.784.231 7.168.259 9.399.189 14.766-3.763 26.158-10.016 39.21l-4.141 8.037c2.274-18.726 5.591-38.252 8.003-57.324"/><path fill="#7a5da0" d="M632.33 365.182c.143-3.019.28-6.01.622-9.014 2.848-25.005 24.684-42.105 49.479-40.823a49.51 49.51 0 0 1 34.463 16.355 53.1 53.1 0 0 1 13.268 38.794c-.992 16.107-8.123 30.855-22.675 38.812 1.09 9.451 3.22 35.125 7.227 42.425l1.178.663c19.524-4.41 11.916-8.251 16.026-19.961 7.35 3.189-3.209 19.135 8.969 22.423a67 67 0 0 0 1.631-.854c15.614-8.473 1.705-19.733 10.365-30.922 2.729-3.528 7.312-5.508 11.255-7.477-2.742 2.264-5.272 4.613-7.48 7.24-8.272 8.729 1.905 13.952.755 22.27-.927 6.697-10.362 15.87-1.614 21.544 5.177.603 5.268-3.386 9.536-5.439 2.273.311 1.25 4.289 4.473 5.519 9.778 3.731 15.446-8.684 18.276-15.675-1.122-13.911-7.689-11.616-12.694-22.695-2.921-6.468 5.747-14.236 5.098-20.955-.656-6.799-8.493-10.391-9.051-17.211-.896-21.185 27.119-23.725 25.784-44.537l1.097-2.344c1.749 6.668 1.741 12.228-1.823 18.398-4.807 8.321-18.325 15.998-15.88 27.251 1.481 6.813 10.24 12.291 9.227 20.757-.766 6.397-3.437 10.759-4.283 16.994 8.181 15.688 25.316 18.253 18.8 40.835-3.043 10.548-12.178 15.516-17.723 24.34-7.011 16.213-.703 28.946-21.372 37.754-4 1.704-14.214 6.819-18.598 2.869 1.701-4.208 30.583-10.493 15.331-21.98-5.536-1.299-11.967 4.733-16.704 7.206-8.674-.717-16.087-3.336-23.395 3-5.596 4.852-5.842 12.878 3.047 12.466 4.329-.201 7.342-2.781 10.964-4.855-4.723 8.587-9.441 13.369-18.827 16.48-8.589 2.846-32.36-3.175-31.51 11.976 1.008 1.945.377 1.386 2.246 2.251 2.018-.201 2.128-.349 3.92-1.417l1.434 1.216-.359.662c-4.446 8.103-12.918 9.031-20.563 14.17-10.015 6.732-14.68 12.209-17.507 23.892-2.191 9.059 6.863 31.685 14.5 20.343 2.941-4.368-1.08-11.094 7.155-20.127l1.117-.458.571.593c-3.927 12.73.369 16.524 8.728 25.893 7.274 8.235 9.974 17.898 7.333 28.575-3.445 13.933-16.73 14.789-25.071 24.238-5.37 6.083-7.357 22.093-16.544 23.989-2.365-2.255.358-6.264-4.736-5.724-8.533.903-12.082 12.942-11.179 20.011.801 6.264 3.679 11.694 3.824 17.663-5.021 11.188 4.306 19.529 12.021 25.682-8.823-.496-15.964-3.15-22.212-9.499-17.703-17.984-13.43-55.154 6.834-69.653 7.751-5.992 20.724-11.558 20.784-23.022.018-3.506-1.466-12.564-5.968-12.204-1.588 2.414-.604 4.455-1.712 7.598-8.702-2.48-9.24-20.033-13.253-26.463-3.736-5.988-8.073-9.324-13.23-13.967-.918-1.393-3.835-6.559-4.828-6.802-.637 3.454 1.009 7.542 3.137 10.245 1.556 2.11 3.222 4.076 4.893 6.095a76 76 0 0 1-3.511-.706c-15.245-3.519-18.467-20.587-15.056-33.665 1.475-5.658 5.744-15.443 10.866-18.557 2.17.073 1.379.637 3.642 2.829l1.221-.465c12.335-13.888-9.579-28.647-18.256-36.316-4.189-3.702-3.748-9.515-3.392-14.593 1.648 4.093 1.665 7.439 5.87 10.008 1.314.803 2.936 1.242 4.451.785 1.342-.404 2.135-1.241 2.685-2.499 2.542-5.806-19.552-29.771-22.494-37.111-6.583-16.422 8.225-24.665 13.776-37.754l.287-.685c-2.127-13.481-9.352-21.978-2.812-35.727l.262.014c.48 2.181-.65 8.784-.123 10.526 1.571 5.198 6.776 9.934 8.544 15.347.52 1.617.811 3.3.865 4.998.673 16.894-22 25.439-3.077 42.047 17.137-5.334 10.12-16.832 8.921-28.725l-.084-.864c2.627-6.117 3.602-7.124 8.556-11.823-3.301 5.974-6.488 14.502 2.515 17.758 10.987 3.972 24.002.385 34.321-4.218a140.5 140.5 0 0 0 .476-21.404c-.14-.649-.43-5.564-.496-6.497-6.319.997-11.34 1.216-13.055 8.288-.299 2.396-.302 8.805-.997 9.863l-.399-.242c-.798-4.568-1.405-9.896-2.036-14.551-.52 5.391-1.133 9.392-2.094 14.729-2.508-11.214-.7-12.231-7.723-22.216.498-4.417 1.685-9.869 2.348-14.486.44-5.321 1.041-8.564-.654-13.557l-1.426 3.622-1.218 3.843c-.982-12.11-2.959-10.202-5.891-20.058 2.798-9.777 7.258-14.084.611-23.347"/><path fill="#030303" d="M632.33 365.182c.143-3.019.28-6.01.622-9.014 2.848-25.005 24.684-42.105 49.479-40.823a49.51 49.51 0 0 1 34.463 16.355 53.1 53.1 0 0 1 13.268 38.794c-.992 16.107-8.123 30.855-22.675 38.812 1.09 9.451 3.22 35.125 7.227 42.425l1.178.663c19.524-4.41 11.916-8.251 16.026-19.961 7.35 3.189-3.209 19.135 8.969 22.423a67 67 0 0 0 1.631-.854c15.614-8.473 1.705-19.733 10.365-30.922 2.729-3.528 7.312-5.508 11.255-7.477-2.742 2.264-5.272 4.613-7.48 7.24-8.272 8.729 1.905 13.952.755 22.27-.927 6.697-10.362 15.87-1.614 21.544 5.177.603 5.268-3.386 9.536-5.439 2.273.311 1.25 4.289 4.473 5.519 9.778 3.731 15.446-8.684 18.276-15.675 2.233 18.965-9.417 27.475-25.3 33.632-3.593 5.724-11.711 17.736-20.071 12.582a5.62 5.62 0 0 1-2.538-3.509c-1.659-7.119 7.069-12.399 12.04-15.399-14.201.396-23.378-1.488-31.262 12.104-2.984 5.145-13.116 19.442-19.519 12.339-5.437-5.519 4.067-11.412 7.951-14.396-7.654 2.475-12.786 4.254-16.515 11.893-4.653 9.199-9.149 23.21-22.413 16.301-3.206-1.67-2.307-6.433-.042-8.511 8.155-7.478 15.133-6.24 16.208-18.913l-.446-.842c-2.972 2.814-3.738 6.529-7.813 9.048-7.055 4.258-14.638 4.86-20.829 10.865-6.942 6.735-4.817 21.187-17.083 20.755-11.969-.422-7.006-13.819-2.345-19.23 8.83-10.248 11.789-10.621 4.709-23.235-.287 4.005-.249 7.638-5.03 8.324-6.43-2.288-5.264-9.806-3.957-14.89l-.505.552c-6.785 7.564-11.315 27.573-22.669 8.535 17.137-5.334 10.12-16.832 8.921-28.725l-.084-.864c2.627-6.117 3.602-7.124 8.556-11.823-3.301 5.974-6.488 14.502 2.515 17.758 10.987 3.972 24.002.385 34.321-4.218a140.5 140.5 0 0 0 .476-21.404c-.14-.649-.43-5.564-.496-6.497-6.319.997-11.34 1.216-13.055 8.288-.299 2.396-.302 8.805-.997 9.863l-.399-.242c-.798-4.568-1.405-9.896-2.036-14.551-.52 5.391-1.133 9.392-2.094 14.729-2.508-11.214-.7-12.231-7.723-22.216.498-4.417 1.685-9.869 2.348-14.486.44-5.321 1.041-8.564-.654-13.557l-1.426 3.622-1.218 3.843c-.982-12.11-2.959-10.202-5.891-20.058 2.798-9.777 7.258-14.084.611-23.347"/><path fill="#030303" d="M640.254 401.122c2.145-3.811 4.145-8.079 6.538-12.037 1.75-2.893 2.413-9.003 4.758-12.098 4.333-1.024 10.84 14.752 12.691 18.477-.021-6.417-.027-7.333 2.948-12.93 1.53.764 6.257 3.153 7.635 3.375 12.237 1.964 22.476-3.334 35.497-3.624-2.917 6.16-6.504 13.213-8.565 19.606l-1.198-.981c-1.147 4.874-1.797 9.883-2.534 14.84-1.827 5.496-3.696 7.551-9.124 10.162-6.32 3.039-17.135 6.294-24.036 7.382-6.319.997-11.34 1.216-13.055 8.288-.299 2.396-.302 8.805-.997 9.863l-.399-.242c-.798-4.568-1.405-9.896-2.036-14.551-.52 5.391-1.133 9.392-2.094 14.729-2.508-11.214-.7-12.231-7.723-22.216.498-4.417 1.685-9.869 2.348-14.486.44-5.321 1.041-8.564-.654-13.557"/><path fill="#7a5da0" d="M640.254 401.122c2.145-3.811 4.145-8.079 6.538-12.037 1.75-2.893 2.413-9.003 4.758-12.098 4.333-1.024 10.84 14.752 12.691 18.477-.021-6.417-.027-7.333 2.948-12.93 1.53.764 6.257 3.153 7.635 3.375 12.237 1.964 22.476-3.334 35.497-3.624-2.917 6.16-6.504 13.213-8.565 19.606l-1.198-.981c1.732-5.802 4.875-11.998 6.131-17.182-6.26 1.924-12.151 3.744-18.15 6.419.173 12.737 1.459 18.58-10.992 25.486-.751-1.994-1.105-3.852-2.795-4.917-2.954.301-3.558 4.382-4.326 6.983-.84-2.397-1.317-4.284-3.043-6.185l-1.036-.295c-1.8 1.391-1.888 3.692-2.892 6.059-1.756-1.637-.982-4.206-3.378-6.228-3.728.301-3.162 3.432-4.908 6.112-.978-1.925-2.029-4.75-3.751-5.681-1.954 1.128-2.063 2.786-3.404 5.25-2.653-1.367-.506-4.864-4.885-4l-2.221 1.948c.44-5.321 1.041-8.564-.654-13.557"/><path fill="#030303" d="M651.456 385c3.594.544 6.094 2.075 6.716 5.931l-.759.917-1.535-.324-2.078-1.442c-1.364.718-1.519.725-2.947 1.111l-.772-.462c-.031-2.253.628-3.608 1.375-5.731"/><path fill="#7a5da0" d="M715.892 452.394c19.524-4.41 11.916-8.251 16.026-19.961 7.35 3.189-3.209 19.135 8.969 22.423-9.529 5.489-16.717 3.573-24.995-2.462"/><path fill="#664984" d="m698.024 415.75 1.167 2.271c-5.513 15.405-30.568 16.053-33.729 20.478l-.102 1.292c-.14-.649-.43-5.564-.496-6.497 6.901-1.088 17.716-4.343 24.036-7.382 5.428-2.611 7.297-4.666 9.124-10.162"/><path fill="#463560" d="m700.558 400.91 1.198.981c-1.521 6.126-2.188 9.649-2.565 16.13l-1.167-2.271c.737-4.957 1.387-9.966 2.534-14.84"/><path fill="#7a5da0" d="M663.079 343.065c.481 3.678-2.842 10.405-4.367 14.057 13.056-9.774 23.144-16.896 34.517.679 2.341 3.618 6.493 7.451 8.201 11.379l-.293.507-2.48-.724c-2.973-1.643-4.803-3.402-7.356-5.623-2.312 9.232-10.142 15.493-19.567 11.561-6.821-2.845-5.514-8.202-7.135-13.07-3.761-.976-5.749.891-8.176-2.873-.756-5.164 3.874-11.663 6.656-15.893"/><path fill="#7a5da0" d="M646.792 363.366c.28-2.479.217-3.309 1.419-5.532 1.453 5.336 3.351 16.521-4.88 19.211-5.173 1.691-5.231-5.193-5.063-8.848-2.092-2.011-5.478-4.821-3.02-7.691 3.12-.983 5.061-.586 7.868.872q1.855.965 3.676 1.988"/><path fill="#463560" d="M646.263 349.702c.926 3.12 1.431 4.938 1.948 8.132-1.202 2.223-1.139 3.053-1.419 5.532-.386-4.544-.429-9.104-.529-13.664"/><path fill="#030303" d="M112.614 407.866c-.989 2.514-2.02 4.575-1.282 7.175l.859.12c14.275-10.371 3.047-21.143-3.938-30.17-11.196-14.468 3.779-21.666 7.213-33.986 1.502-5.388-5.063-11.976-7.887-15.978-9.625-12.544 5.851-27.024 15.997-33.578-2.901 3.574-6.001 7.406-8.526 11-13.903 19.79 6.611 19.028 10.065 37.793 1.536 8.341-5.677 13.084-5.284 20.521.42 7.933 6.95 14.562 8.125 22.838 3.053 16.553-10.764 21.831-19.701 32.721-7.349 8.955 1.39 29.975 13.261 27.291-8.357-13.251-4.757-21.218 3.328-33.149-2.848 11.135-5.535 23.034 10.025 24.742 5.074-5.578 1.925-12.708 3.064-19.738a9.84 9.84 0 0 1 3.681-6.224l.415.458c-4.815 14.181 5.435 18.288 17.209 18.771 2.698-6.82 4.229-17.56 5.533-25.096-16.626-14.863-27.342-31.252-18.049-54.024a42.6 42.6 0 0 1 23.571-23.577 44.14 44.14 0 0 1 34.051.211c17.856 7.67 21.028 21.798 27.516 38.366-1.844 1.946-3.214 3.857-4.814 5.998 2.201 3.677 3.756 6.018 5.142 10.126-1.625 3.86-2.552 7.694-6.162 9.556-1.338-.203-1.623-.272-3.016-.227l-1.118 2.204c1.473 3.592 2.056 9.508 2.626 13.513 1.036 4.67 3.892 14.245 2.049 18.235-2.383-1.816.161-2.343-2.153-2.128-1.664 2.375-1.952 4.481-2.615 7.302-.644-2.757-.99-5.747-2.755-7.797l-1.097-.137c-2.398 2.785-2.651 10.075-3.032 13.929l-1.207-3.79c-.18-2.711-.125-5.38-1.169-7.834-1.325-.888-2.283-1.187-4.06-.669-5.465 1.596-8.363 1.126-13.9.485-3.415 13.092-9.042 29.266-1.531 41.764 6.128-.823 15.894.635 20.842-2.073 2.35-1.286 2.752-7.801 3.026-10.445 4.71.524 1.093 13.511 4.949 17.186.739.229 1.42.458 2.207.256 11.935-3.067 7.846-14.622 10.326-23.375.65-2.294 2.589-4.78 3.918-6.604-2.885 13.165.778 16.305.596 28.653-.081 5.562-11.812 20.611-2.012 25.075 1.911-.384 3.308-1.245 5.05-2.132 2.097 3.251-8.995 12.045-10.684 14.754-3.793 6.08-4.291 18.535-5.382 26.068-1.145-6.7-.421-21.6-6.028-25.377-10.325-1.277-7.399 30.063-8.737 37.175-1.164 6.187-2.372 11.032-4.273 17.023-.841-4.679-3.024-20.159-9.572-18.916-2.825 2.331-3.092 5.163-3.809 8.668-2.979-16.247-1.016-25.334-15.604-36.661-1.474 4.388-3.216 13.663-4.262 18.516-.14-8.296-.375-15.812-2.715-24.07-4.636-16.359-20.674-6.734-33.814-14.861-9.482-5.864-12.934-13.085-16.018-23.43 2.892 3.482 7.831 10.879 12.854 7.686 4.947-10.729-16.565-21.654-23.915-24.028-2.685-.867-7.272-4.972-9.129-7.152a26.67 26.67 0 0 1-6.222-20.016c1.16-12.267 8.789-21.477 17.974-28.937m90.836 131.123c6.277-5.093 5.591-13.099-3.101-13.758-6.06 5.871-6.252 12.102 3.101 13.758"/><path fill="#7a5da0" d="M112.614 407.866c-.989 2.514-2.02 4.575-1.282 7.175l.859.12c14.275-10.371 3.047-21.143-3.938-30.17-11.196-14.468 3.779-21.666 7.213-33.986 1.502-5.388-5.063-11.976-7.887-15.978-9.625-12.544 5.851-27.024 15.997-33.578-2.901 3.574-6.001 7.406-8.526 11-13.903 19.79 6.611 19.028 10.065 37.793 1.536 8.341-5.677 13.084-5.284 20.521.42 7.933 6.95 14.562 8.125 22.838 3.053 16.553-10.764 21.831-19.701 32.721-7.349 8.955 1.39 29.975 13.261 27.291 3.767 2.208 12.472 3.807 17.165 5.091-15.642 16.008 20.229 8.241 28.373 22.113l.611 1.091c.448 2.12.782 1.905.016 3.385-3.569.489-7.162-4.635-11.261-3.338-1.775 4.37 3.411 9.99 6.835 12.338 5.076 3.48 16.297 8.922 20.814 2.028 1.785-2.723.477-6.63-.219-9.553 7.327 5.136 9.282 12.874 16.821 17.295 3.308 1.94 7.252-.02 8.626-3.534.055-2.395-.42-3.04-1.446-5.196l-.352-.731.448-.629c3.282-.308 5.709 3.415 9.133 5.718l1.049-.434c2.481-3.277.855-9.656-1.913-11.448-8.02-5.192-15.387-6.721-23.168-12.926 6.128-.823 15.894.635 20.842-2.073 2.35-1.286 2.752-7.801 3.026-10.445 4.71.524 1.093 13.511 4.949 17.186.739.229 1.42.458 2.207.256 11.935-3.067 7.846-14.622 10.326-23.375.65-2.294 2.589-4.78 3.918-6.604-2.885 13.165.778 16.305.596 28.653-.081 5.562-11.812 20.611-2.012 25.075 1.911-.384 3.308-1.245 5.05-2.132 2.097 3.251-8.995 12.045-10.684 14.754-3.793 6.08-4.291 18.535-5.382 26.068-1.145-6.7-.421-21.6-6.028-25.377-10.325-1.277-7.399 30.063-8.737 37.175-1.164 6.187-2.372 11.032-4.273 17.023-.841-4.679-3.024-20.159-9.572-18.916-2.825 2.331-3.092 5.163-3.809 8.668-2.979-16.247-1.016-25.334-15.604-36.661-1.474 4.388-3.216 13.663-4.262 18.516-.14-8.296-.375-15.812-2.715-24.07-4.636-16.359-20.674-6.734-33.814-14.861-9.482-5.864-12.934-13.085-16.018-23.43 2.892 3.482 7.831 10.879 12.854 7.686 4.947-10.729-16.565-21.654-23.915-24.028-2.685-.867-7.272-4.972-9.129-7.152a26.67 26.67 0 0 1-6.222-20.016c1.16-12.267 8.789-21.477 17.974-28.937m90.836 131.123c6.277-5.093 5.591-13.099-3.101-13.758-6.06 5.871-6.252 12.102 3.101 13.758"/><path fill="#af9fbb" d="m167.665 481.908-.684 1.642-.991.383c-2.278-1.955-4.679-4.084-5.648-6.976 2.012.487 3.405 2.287 6.22 3.631l.492.229z"/><path fill="#7a5da0" d="M210.252 386.669c2.965 3.503 7.874 15.654 11.64 15.341 1.473 3.592 2.056 9.508 2.626 13.513l-1.746 1.391c-2.745-1.914-1.913-5.076-3.917-4.764-1.163 2.4-1.407 3.115-2.075 5.701-1.182-1.892-1.928-3.617-3.832-4.612-2.521.888-2.708 5.074-3.198 7.603-.637-2.642-.83-4.598-2.578-6.627l-1.207-.353c-2.511 1.687-2.654 4.574-3.31 7.626-.621-2.432-.911-4.561-2.436-6.493-2.336 1.386-1.787 4.318-4.495 5.61-1.488-.58-1.455-.698-2.471-1.867.354-2.032.265-4.568.277-6.671.089-2.727 1.556-11.017 3.746-12.46l.754.322c1.09 1.608 1.284 1.954 1.588 3.832l.918 5.5c4.081-8.366 3.738-13.258 9.716-22.592"/><path fill="#030303" d="M211.846 394.089c.736.68 2.516 2.888 3.257 3.759l-.899 1.771.494.157-.558.418c-.693-.493-1.127-.711-1.947-.94-1.654 1.947-1.146 2.009-3.087 2.358-2.026-3.117.448-5.608 2.74-7.523"/><path fill="#7a5da0" d="M134.869 445.206c5.074-5.578 1.925-12.708 3.064-19.738a9.84 9.84 0 0 1 3.681-6.224l.415.458c-4.815 14.181 5.435 18.288 17.209 18.771-7.59 13.654-11.285 12.768-24.369 6.733"/><path fill="#7a5da0" d="M192.54 419.044c-1.156 2.68-1.886 4.583-5.04 5.204l-.951-.786c-1.796-4.101-1.943-17.551 1.891-20.301 2.322 1.589 3.317 6.05 4.096 8.796l.994.11c-.012 2.103.077 4.639-.277 6.671z"/><path fill="#664984" d="m192.536 411.957.994.11c-.012 2.103.077 4.639-.277 6.671l-.713.306c-.158-2.412-.062-4.676-.004-7.087"/><path fill="#7a5da0" d="M179.173 368.474c8.196 2.922 15.078 5.959 22.916 9.807l1.639-2.346c.358 2.244.648 2.905-.003 4.992-2.616 2.526-3.928-.002-5.79 2.442-8.131 10.673-15.034 15.285-24.478 2.535l-6.891 6.122c3.592-7.723 7.464-16.954 12.607-23.552"/><path fill="#8067a8" d="M213.949 376.547c3.054-3.069 9.636-11.379 14.042-7.016.503 3.002-.132 3.457-1.684 6.967-2.635 5.959-2.272 12.98-11.564 7.414-1.545-.925-2.146-3.66-2.27-5.703z"/><path fill="#7a5da0" d="M178.476 405.83c3.891 2.215 4.456 10.108 5.225 14.165.487 2.573.324 3.211-1.132 5.132-8.335-4.255-7.923-12.042-4.093-19.297"/><path fill="#664984" d="M202.089 378.281c-1.541-4.746-2.786-8.694-3.989-13.551 2.803 4.148 4.156 6.439 5.628 11.205z"/><path fill="#463560" d="M212.473 378.209c-.077-2.492-.248-6.244.649-8.507.95 1.706.763 4.738.827 6.845z"/><path fill="#030303" d="M500.84 184.619c4.115-17.93 12.392-38.415 28.469-48.589a39.3 39.3 0 0 1 11.882-5.091c6.965-1.771 15.605-1.596 22.667-2.853 6.3-1.122 16.565-6.334 22.596-4.193 26.343 9.353 25.263 22.193 50.609.039-13.541 24.217-24.518 15.735-44.741 6.629-6.391-2.877-12.002 1.217-10.491 8.313.961 4.578 14.867 4.246 18.408 5.63 14.839 5.802 15.825 14.88 31.657 4.003-2.354 3.458-4.814 7.222-9.102 8.383-4.84 1.31-19.457-1.821-18.6 6.459.463 4.483 5.443 6.201 9.004 7.605 19.117-5.24 19.856-16.724 30.922-19.866 24.278-6.893 25.365 22.45 52.618-7.437-3.73 6.018-10.916 16.262-18.3 17.436-12.416 1.973-26.458-12.549-37.136 1.94-5.169 7.014-6.048 18.899-16.503 20.826-5.008 1.067-20.461-.276-18.518 9.006.138.659.701.904 1.268 1.396 2.499.441 5.647-.961 8.248-1.76 21.159 6.762 26.13 8.123 42.39-8.259-17.441 26.602-21.166 15.955-44.571 16.139-12.543.098-6.294 11.473-29.234 8.036-.272 13.901.102 29.664 14.258 36.322.89-2.962 2.695-9.35 5.547-10.804.738 1.4-.726 4.351-1.295 5.856 1.407 4.119 1.438 6.285 5.516 8.216 15.143 7.273 20.014-13.055 32.362-16.62 14.097-4.069 24.178 10.142 38.278 2.393 11.037-6.066 4.578-17.508 16.466-22.461 2.395-.998 5.529-1.516 8.071-2.018-2.086 1.14-6.218 3.309-7.829 4.926-8.887 8.915-5.784 21.256-18.76 27.177-13.372 6.102-29.729-11.71-35.16 5.393-.58 1.825-.43 2.458.235 4.114 6.62 5.682 20.353-4.088 27.711-3.513 3.747.293 6.536.809 10.059 2.259-6.932 3.628-15.964 11.957-21.351 13.91-12.678 4.596-25.437-7.755-33.792 12.279-.225.54-.395 1.772-.463 2.403l.544.753c2.789-.221 6.708-4.051 9.849-5.748-8.544 24.912-36.409 24.822-24.848 2.357a74 74 0 0 1 1.798-3.322c-10.08 6.088-16.409 12.284-19.504 23.97-1.662 6.275-2.346 16.334-8.303 20.041-2.548 1.585-7.496 1.477-9.797-.815-.936-4.023 3.267-8.088 5.831-10.791-5.399 2.068-10.966 4.003-15.045 8.082-3.278 3.279-7.464 21.709-14.125 18.591-8.975-4.2-.632-13.435-.088-19.342.453-4.905-3.408-10.493-3.814-14.713 15.507 3.51 19.582-8.008 13.206-19.979-6.437-12.087-14.908-24.343-22.971-35.31-8.15.58-18.847-.418-21.151 9.273l-1.042-3.933c-.423-2.327-1.277-4.512-2.038-6.753-1.885-5.551-1.282-9.974-.715-15.688-.216-4.021-.361-7.242-1.023-11.244-1.783-2.66-6.201-8.579-7.276-11.001 1.326-4.263 2.118-6.106 4.091-10.127-2.139-2.284-5.284-5.442-6.974-7.925"/><path fill="#7a5da0" d="M523.026 186.392c6.705 5.542 10.064 9.44 13.752 17.215l.85-1.305c.614-2.283.257-2.63 1.721-3.687 1.871 1.609 2.659 8.355 2.737 10.827l1.325 1.946c-.022-5.41.242-7.505 1.787-12.689l.771-.756c4.622 3.505 6.171 23.097 6.689 29.315-2.439.135-4.562.611-6.454-.685-1.446-1.849-1.415-2.789-1.828-5.096l-1.076-.404c-2.268 2.061-.613 3.954-2.676 5.779l-1.349-.346c-1.614-3.05-.614-4.699-2.622-6.589l-1.575-.136c-2.58 2.954-.672 4.805-2.875 6.9-2.41-1.436-1.553-7.481-5.216-7.182-2.222 2.486-2.917 5.685-3.918 8.896-.634-2.611-1.285-7.102-3.75-8.534-2.07.965-2.67 4.078-3.331 6.259-1.133-.428-2.894-1.233-3.966-1.204-.216-4.021-.361-7.242-1.023-11.244 2.163-6.942 8.678-18.787 12.027-27.28"/><path fill="#463560" d="M537.628 202.302c.225 2.079.682 3.662-.265 5.422-.881-1.41-.644-2.434-.585-4.117z"/><path fill="#463560" d="m542.086 209.442 1.325 1.946-.282 1.513c-.906-.951-.764-1.88-1.043-3.459"/><path fill="#030303" d="M522.909 193.103c3.054 1.029 6.804 3.803 5.863 7.405-1.942.575-1.29.416-3.657-.613l-.49-.887c-1.924 1.399-1.387 1.443-3.414 1.597l-.797-1.073c.101-2.496 1.295-4.181 2.495-6.429"/><path fill="#7a5da0" d="M550.784 158.965c5.36 4.103 15.676 17.991 20.284 23.873l-9.081-4.849c-6.082 9.595-13.141 15.244-23.279 6.245-1.073-2.577-.895-4.181-2.713-6.736-3.526.28-5.963 1.075-7.886-2.232-.582-5.461 4.092-11.689 7.121-16.001-1.49 4.656-3.34 9.674-4.953 14.327a1819 1819 0 0 1 20.507-14.627"/><path fill="#7a5da0" d="M560.783 196.305c2.009 1.686.458 5.171 5.34 10.387.313 7.304 2.49 16.857-5.201 20.267-1.956.271-3.173.634-5.031-.016-1.137-1.596-1.197-4.879-1.05-6.843.651-8.663.732-16.503 5.942-23.795"/><path fill="#7a5da0" d="m519.26 168.007.639 3.099 2.359 8.808c-2.037 3.485-4.991 9.902-8.58 11.12-3.318-1.277-3.664-5.443-4.583-8.712l-.799-.185c-1.412 1.058-1.821 1.819-3.13 1.7-.488-3.221 2.359-7.893 3.921-10.959 4.193 1.263 5.894 1.842 9.799 3.75-.452-2.251-.54-6.2-.664-8.62z"/><path fill="#463560" d="m519.26 168.007.639 3.099c-.992 2.214-.886 3.126-1.013 5.522-.452-2.251-.54-6.2-.664-8.62z"/><path fill="#262626" d="m518.222 168.008-.058-2.601.493-.504c.59 1.46.519 1.58.603 3.104z"/><path fill="#030303" d="M131.421 588.482c1.04 6.637 1.563 12.541 7.324 17.048 3.292 2.575 10.36 2.996 12.217-1.172 5.249-11.785-12.143-17.425-15.354-27.754-3.773-12.14 9.321-16.75 6.175-28.476-1.769-6.105-12.135-8.508-13.237-15.753-.302-1.988-.805-1.508.01-2.833 4.715 9.48 13.051 9.43 18.368 17.734 5.879 9.182-13.039 22.327-1.311 29.366 4.195 2.518 11.879 2.129 16.589 3.74 3.395 1.12 5.918 2.994 9.327 3.886 2.733 1.449 14.254-3.313 14.583-6.309 1.102-10.029-13.267-9.932-17.56-20.387l-.288-.712 1.204-2.259c5.93 12.899 11.789 8.255 23.627 11.004 3.868.898 7.744 5.791 11.22 7.741 2.989 1.423 7.229 2.961 10.387 4.144 32.364 12.117 32.727 39.533 32.971 69.396-1.013.745-4.532 3.289-5.091 4.377-2.837 5.531-7.66 14.592-9.072 20.425-.836 3.457-.439 7.175-1.96 10.381-.881-.755-1.075-3.751-1.331-5.239l-.025-2.977c-.681.988-1.439 1.889-1.821 2.982-.312.775-1.825 4.679-2.126 5.149-1.093 4.725-2.634 13.933-5.594 17.42-3.758 1.507-4.767-1.513-6.618 2.781-.803 1.861-1.61 6.898-1.855 9.039-.353-5.09-.566-12.359-4.716-15.971-3.217-.657-4.557 2.299-6.033 4.83l-.526-.21c-1.204-6.657-3.586-6.505-9.485-9.584l-2.928 15.71c3.736 6.968 5.822 9.144 12.83 13.067 5.296 4.409 15.902 4.546 18.774 10.449-1.318 7.57-15.006 4.265-19.971 3.271 3.296 2.774 7.56 6.013 6.478 10.961-1.096 5.654-5.8 7.233-10.411 3.908-8.354-6.024-10.518-11.377-21.031-14.303 5.575 12.83.096 21.242-12.781 11.79-3.796-2.786-9.314-9.129-5.491-13.864 2.013-.154 2.039.771 4.358 2.355l.874-.86c.379-4.6-5.172-7.28-8.508-9.123-2.582-4.545-7.798-13.974-12.963-15.588-.582 3.721 8.539 16.275-.818 18.906-.871.201-3.071-.044-3.565-.891-7.053-12.098-7.815-15.724-19.698-24.004-8.359-10.874 1.276-20.73 8.808-27.967-2.982 4.486-10.29 17.395-2.886 21.023 3.879-.843 4.136-2.748 5.613-6.17 1.523 2.801 3.301 5.847 6.428 7.066 7.101-1.921 1.484-23.165 10.334-23.818l.388.471c-1.824 2.686-4.62 9.358-2.077 11.883 14.244 14.136 19.46-22.316 20.592-30.036-11.358-5.105-11.947-16.721-11.652-28.004l.117-1.237c-6.11-17.773-24.197-3.617-20.813-36.802"/><path fill="#7a5da0" d="M221.404 649.717c1.036 1.899 2.083 4.276 3.022 6.263 1.114 2.579 1.823 7.302 2.009 10.137.532 2.894.571 3.943 2.342 6.399l1.26.497.157.84c-.681.988-1.439 1.889-1.821 2.982-.312.775-1.825 4.679-2.126 5.149l-4.893 5.111c-.382-2.327-.467-6.344-2.842-7.079-1.975 1.301-2.922 3.538-4.138 5.672-.372-2.429-.571-6.519-2.381-7.85-2.807.682-2.759 3.093-4.938 3.651-.567-2.192-.868-3.498-1.805-5.607l-.991-.303c-1.77 1.462-3.58 5.075-4.805 7.21-1.166-5.674-2.991-22.132 4.144-24.108 2.988 1.163.67 1.931 3.1 4.297 2.719-1.157 12.302-10.571 14.706-13.261"/><path fill="#030303" d="M224.426 655.98c1.114 2.579 1.823 7.302 2.009 10.137l-2.303 1.388c-4.929-1.441-5.169-6.698-1.914-10.108 1.107-.17 1.371-.627 2.208-1.417"/><path fill="#664984" d="M224.426 655.98c1.114 2.579 1.823 7.302 2.009 10.137l-2.303 1.388c1.419-4.839 1.111-6.245-1.914-10.108 1.107-.17 1.371-.627 2.208-1.417"/><path fill="#030303" d="M217.185 657.113c3.573 2.882-.264 6.542-2.468 8.788-3.514-3.022.23-6.282 2.468-8.788"/><path fill="#664984" d="M152.234 625.284c7.83-9.636 17.113 1.725 13.358 5.935-3.222-2.739-6.2-12.957-13.475-4.698z"/><path fill="#7a5da0" d="M186.34 629.424c-2.334 1.716-5.339 4.58-8.303 3.773 1.144-3.831 11.729-9.001 15.768-9.83 9.703-1.99 17.643 4.435 25.16 9.519l1.24.028.915 1.661c-1.491 2.013-1.471 2.074-3.517 2.583-1.56-.659-2.244-1.129-3.925-.921-5.017 3.278-.172 8.588-14.05 12.415-11.379-2.727-13.564-8.574-13.288-19.228"/><path fill="#7a5da0" d="M229.885 639.83c5.133-2.268 7.837-3.336 13.324-4.481.17 3.44 2.074 8.535 1.015 10.885q-1.712-.344-3.417-.708c-1.959 2.714.414 7.176-4.136 9.504-4.249 2.173-7.797-.397-9.728-4.338-2.295-4.684-.503-6.622 1.112-10.793z"/><path fill="#7a5da0" d="m169.843 643.511-.148-.982c2.129.197 7.721 6.218 10.046 7.338 12.806 6.173 7.974 14.236 8.161 26.259-11.799-6.937-10.056-9.566-6.954-21.773-2.328-1.948-6.561-5.27-8.591-7.286-.916-1.203-1.668-2.302-2.514-3.556"/><path fill="#664984" d="M169.843 643.511c.846 1.254 1.598 2.353 2.514 3.556-.405 2.994.451 14.951.047 19.318-1.084 11.702 10.561 15.277 18.333 23.202l.603.624c-28.305-12.779-17.156-23.293-21.497-46.7"/><path fill="#7a5da0" d="M192.413 659.933c4.349 3.45 3.342 14.363 1.833 19.12-6.644-3.995-3.286-12.811-1.833-19.12"/><path fill="#664984" d="M218.965 632.886c-.756-4.74-1.716-9.993-2.164-14.73 4.793 10.419 2.583 8.116 4.319 16.419l-.915-1.661z"/><path fill="#664984" d="M232.926 630.15c-.629 1.841-2.923 8.122-3.041 9.68l-1.83.069c.597-4.118 2.505-6.426 4.871-9.749"/><path fill="#030303" d="M350.494 112.664c13.51 6.505-2.3 16.029 23.142 16.515 4.744 3.036 5.814 5.926 9.762 9.533 1.943 1.775 6.775 3.509 9.164 5.137 17.87 12.177 17.02 30.738 15.766 49.797l-5.634 4.184c-.166 2.744-.117 6.048-1.208 8.448-5.888 4.428-6.012.941-9.62 9.606-.249-.981-.254-.607-.098-1.589-2.797-.221-4.755 3.088-6.417 5.145-3.494 8.247-4.294 16.08-15.217 10.427-5.367-2.777-8.061-7.087-12.595-10.334-3.585 5.762-6.97 11.476-5.429 18.609 1.041 4.819 7.753 9.099 12.394 6.846 2.907-1.412 5.053 1.715 7.348 3.313l.733-.353c4.181-2.035 11.385-6.34 14.538-9.682.031 3.618-7.403 9.53-8.916 13.156-1.099 2.635-1.129 5.165-1.24 7.957 8.378-4.653 19.793-7.04 25.287-12.311 2.663-15.397 3.422-16.817 17.457-23.688-11.093 8.819-12.029 12.488-10.005 26.266-7.241 16.995-30.346 9.468-29.782 25.476 1.047 2.046.282 1.349 2.281 2.26 2.644.02 4.143-.798 6.552-1.796l.469.593c-1.58 12.957-30.848 15.754-30.804 31.705.049 17.453 13.885 3.755 15.554-6.595l.711.111c1.479 4.009.562 10.356-1.268 14.119-3.085 6.345-11.997 9.617-9.14 18.164.784 2.345 1.512 4.272 3.608 5.443 2.077-.296 3.353-2.014 4.949-3.585-.948 37.291-28.443 23.436-32.194 53.579-1.373 11.031 10.967 21.446 4.783 36.291-.41-2.413-.134-3.581-.765-6.361-2.919-9.149-7.717-13.416-14.095-20.566 1.276 3.985 2.912 8.119 4.39 12.055a53 53 0 0 1-4.548-4.389c-18.627-20.437.562-40.861 16.654-53.496 18.544-14.56-1.693-30.134-5.613-45.292-1.23-4.759 2.65-12.96 2.667-17.968-.065-11.827-17.008-13.363-25.013-21.438l-.48-.49c-1.374-5.798-.316-12.741-6.908-15.207-3.247-1.215-7.064-2.845-9.956-4.683l-.617-.398c-2.481-3.857-2.904-9.111-5.757-12.621-4.425-5.655-13.247-8.23-17.81-13.565-6.068-7.095-7.154-19.826-2.088-27.767 4.758-7.457 12.006-9.039 18.478-14.265 3.99-3.222 3.658-8.95 3.83-13.551 2.208 6.675 2.724 9.023.701 15.797 2.088 2.949 2.854 2.728 6.702 4.215-1.198 3.663-7.399 8.54-10.218 14.98 2.674 18.57 14.549 6.321 19.384-3.317l1.253.471c-.95 4.829-2.669 8.279 2.315 10.904 6.326-.227 6.561-10.68 9.53-12.358.32 5.42 4.488 8.371 9.348 5.487 6.549-3.886 7.348-10.857 9.009-17.502-1.51-.484-5.089-1.561-5.532-3.287-2.626-10.231-5.191-20.657-7.86-30.876l.352.483c1.851 2.505 2.164 3.316 4.898 3.733.732-.556 1.164-.574 1.292-1.542 1.331-10.058-10.048-10.166-17.413-11.687-1.422-1.432-2.695-3.149-3.954-4.741l1.348-1.238c5.757 4.654 9.806 1.004 15.967.437 5.998-.553 11.956 7.945 16.228 11.782 4.848-2.822 19.388-6.509 21.06-10.296-1.607-3.471-8.234-2.251-11.538-4.448-8.007-5.323-3.447-12.364-11.642-18.171z"/><path fill="#7a5da0" d="M297.794 165.409c2.208 6.675 2.724 9.023.701 15.797 2.088 2.949 2.854 2.728 6.702 4.215-1.198 3.663-7.399 8.54-10.218 14.98-8.592 8.75 4.787 17.335 9.599 23.767 3.049 4.076 5.327 12.473 11.273 13.283 8.553-2.335 2.484-10.076-.349-13.91 7.618 3.781 9.231 7.404 14.87 13.47 2.867 3.086 7.466 5.686 9.769 9.283l.073 1.615-.591.517c-3.168-1.402-4.494-3.54-7.279-3.829-2.017 1.429-2.166 5.109-.563 6.787 10.712 11.209 21.468 1.323 25.982 19.992-1.904-2.187-3.408-4.414-6.013-5.457l-1.675.108c-3.351 4.449 3.429 11.898 9.664 10.887 5.855-3.402.43-10.311 6.266-15.193l.549.443.002.744c.018 2.147-.154 2.926 1.068 4.664 5.929 2.767 8.381-3.387 9.343-8.193 8.378-4.653 19.793-7.04 25.287-12.311 2.663-15.397 3.422-16.817 17.457-23.688-11.093 8.819-12.029 12.488-10.005 26.266-7.241 16.995-30.346 9.468-29.782 25.476 1.047 2.046.282 1.349 2.281 2.26 2.644.02 4.143-.798 6.552-1.796l.469.593c-1.58 12.957-30.848 15.754-30.804 31.705.049 17.453 13.885 3.755 15.554-6.595l.711.111c1.479 4.009.562 10.356-1.268 14.119-3.085 6.345-11.997 9.617-9.14 18.164.784 2.345 1.512 4.272 3.608 5.443 2.077-.296 3.353-2.014 4.949-3.585-.948 37.291-28.443 23.436-32.194 53.579-1.373 11.031 10.967 21.446 4.783 36.291-.41-2.413-.134-3.581-.765-6.361-2.919-9.149-7.717-13.416-14.095-20.566 1.276 3.985 2.912 8.119 4.39 12.055a53 53 0 0 1-4.548-4.389c-18.627-20.437.562-40.861 16.654-53.496 18.544-14.56-1.693-30.134-5.613-45.292-1.23-4.759 2.65-12.96 2.667-17.968-.065-11.827-17.008-13.363-25.013-21.438l-.48-.49c-1.374-5.798-.316-12.741-6.908-15.207-3.247-1.215-7.064-2.845-9.956-4.683l-.617-.398c-2.481-3.857-2.904-9.111-5.757-12.621-4.425-5.655-13.247-8.23-17.81-13.565-6.068-7.095-7.154-19.826-2.088-27.767 4.758-7.457 12.006-9.039 18.478-14.265 3.99-3.222 3.658-8.95 3.83-13.551"/><path fill="#fdfdfd" d="M286.671 203.021c-4.936-14.45.716-13.331 11.123-21.995l.701.18c2.088 2.949 2.854 2.728 6.702 4.215-10.625 5.79-12.839 7.395-18.526 17.6"/><path fill="#7a5da0" d="M385.351 219.44c-2.921-.632-4.77 1.047-7.123.069 1.431-1.906 1.462-1.315 1.345-3.157l-1.048-.644c-1.337.642-1.983 1.336-3.077 2.311l-.93-.303-1.185-4.803c-1.754-.387-1.06 1.496-3.956 1.983-2.837-4.318 4.279-15.831 8.527-16.451l-.026 2.722c2.186 2.014 10.156-6.64 13.073-6.626l.764 1.45-.709 3.102-.881.514.108 6.413c1.432.92 1.01.902 1.614 3.116 1.035 2.06.911 3.081-.079 5.159-2.797-.221-4.755 3.088-6.417 5.145"/><path fill="#030303" d="m390.125 199.607.108 6.413c-5.145-2.209-.35-.651-3.136-3.436-1.247.626-1.23.713-2.595.841l-.63-.97.537-1c2.136-1.591 3.14-1.543 5.716-1.848"/><path fill="#664984" d="m391.715 195.991.132 13.145c-.604-2.214-.182-2.196-1.614-3.116l-.108-6.413.881-.514z"/><path fill="#7a5da0" d="M365.894 175.365c4.849-2.682 8.33-5.218 12.62-8.726 1.101 2.509 6.673 15.728 9.753 14.369l2.398.617c-.654 1.53-.995 2.092-1.878 3.514-4.832 2.402-13.981 8.938-18.784 2.661-2.548-3.33-1.712-7.388-1.035-11.235-.827-.246-2.22-.859-3.074-1.2"/><path fill="#7a5da0" d="m396.982 185.578 1.877 1.624c2.408.041 4.738-.135 6.44 1.495.507 2.087.39 1.362-.254 3.643-2.244 1.679-2.842 2.023-3.624 4.855-2.062 1.484-2.972 1.984-5.432 1.375-3.695-3.668-1.592-9.324.993-12.992"/><path fill="#664984" d="M357.373 184.398c2.441 1.184 5.716 6.755 6.811 9.358 1.843 4.383 1.539 4.807-.182 8.895l-.572.657c-1.074-1.039-4.976-15.792-6.057-18.91"/><path fill="#463560" d="M388.267 181.008c.583-1.372 3.283-8.308 3.825-9.078-.117.27-1.237 8.576-1.427 9.695z"/><path fill="#664984" d="M365.894 175.365c.854.341 2.247.954 3.074 1.2-2.305.514-6.485 1.607-8.514.069 1.271-1.123 3.631-1.084 5.44-1.269"/><path fill="#463560" d="M367.212 202.224c.944 2.238.351 4.251-.015 6.669-1.295-2.952-1.056-3.591.015-6.669"/><path fill="#030303" d="M233.073 319.126c-2.615-10.604-4.038-19.298-.369-29.993a41.42 41.42 0 0 1 21.491-23.92c11.395-5.496 25.13-6.465 37.097-2.264a44.16 44.16 0 0 1 25.145 22.998c4.065 8.77 5.769 22.727 2.368 31.925l-.948 1.023c-.093.718-.55 4.316-.358 4.706 3.639 7.381 7.268 10.556-.813 18.403-1.418.385-4.286 1.272-5.623 1.309l-1.581.963c-4.815 10.332-3.967 18.617-3.321 29.754-2.012 3.524-3.351 5.127-5.947 8.305.741 4.448 3.821 20.427-3.023 21.527-.936-1.484-.997-2.055-1.469-3.777-3.04.714-4.32 5.911-3.29 8.842 1.966 5.591 6.428 10.579 6.819 16.538.12 3.443-3.926 14.426-.565 16.296-3.698 1.099-5.521 3.082-8.43 5.605-1.119-3.689 1.743-25.832-17.449-17.58-1.914.822-1.491 9-1.475 11.613-15.005-12.422-3.683-20.45-3.502-36.297a52 52 0 0 1-2.298 2.188c-1.636 1.437-2.437 1.676-4.546 1.541-7.849-3.524-1.879-17.979-5.206-26.446l-.269-.675c-1.952-2.06-3.977-4.434-5.88-6.572-1.228-6.068-.693-12.724-1.201-18.956-.36-4.413-1.242-7.944-2.302-12.207l.068-1.536c-2.349.09-4.991.045-7.366.052-14.418-8.625-3.308-11.856-3.733-19.535z"/><path fill="#030303" d="M246.196 342.439c16.366 3.878 7.065 13.966 14.416 21.885l.795.001 1.136-1.483c2.011.684 1.749 3.194 3.723 3.611l1.938-2.118.806.023 2.14 3.041 1.026.147 1.917-2.414.806-.034a68 68 0 0 0 2.354 3.454l.774-.291 1.383-3.148.884-.204c1.286 1.297 1.989 2.527 3.449 2.632.851-1.129 1.379-1.954 2.489-2.857 4.636 1.169 4.645 1.377 9.047-.681q.573-1.461 1.113-2.934.552-6.246 1.294-12.473a86 86 0 0 1 2.014-1.903c4.031-3.668 6.229-3.616 11.363-3.38l-1.581.963c-4.815 10.332-3.967 18.617-3.321 29.754-2.012 3.524-3.351 5.127-5.947 8.305.741 4.448 3.821 20.427-3.023 21.527-.936-1.484-.997-2.055-1.469-3.777-3.04.714-4.32 5.911-3.29 8.842 1.966 5.591 6.428 10.579 6.819 16.538.12 3.443-3.926 14.426-.565 16.296-3.698 1.099-5.521 3.082-8.43 5.605-1.119-3.689 1.743-25.832-17.449-17.58-1.914.822-1.491 9-1.475 11.613-15.005-12.422-3.683-20.45-3.502-36.297a52 52 0 0 1-2.298 2.188c-1.636 1.437-2.437 1.676-4.546 1.541-7.849-3.524-1.879-17.979-5.206-26.446l-.269-.675c-1.952-2.06-3.977-4.434-5.88-6.572-1.228-6.068-.693-12.724-1.201-18.956-.36-4.413-1.242-7.944-2.302-12.207z"/><path fill="#7a5da0" d="M255.511 381.71c2.938 1.314 4.517 1.976 7.137 3.789 4.357 3.012 9.201 11.772 13.872 12.613 3.259-1.932.067-10.435-.935-13.366 12.046 7.981 10.305 12.193 6.286 24.748.696 2.341 1.019 4.239 2.781 5.952l.903-.028c1.069-2.157.279-3.664-.094-5.978 3.705-6.465 4.692-8.957 5.027-16.517a82 82 0 0 1 9.726-10.588c.741 4.448 3.821 20.427-3.023 21.527-.936-1.484-.997-2.055-1.469-3.777-3.04.714-4.32 5.911-3.29 8.842 1.966 5.591 6.428 10.579 6.819 16.538.12 3.443-3.926 14.426-.565 16.296-3.698 1.099-5.521 3.082-8.43 5.605-1.119-3.689 1.743-25.832-17.449-17.58-1.914.822-1.491 9-1.475 11.613-15.005-12.422-3.683-20.45-3.502-36.297a52 52 0 0 1-2.298 2.188c-1.636 1.437-2.437 1.676-4.546 1.541-7.849-3.524-1.879-17.979-5.206-26.446z"/><path fill="#fdfdfd" d="M246.196 342.439c16.366 3.878 7.065 13.966 14.416 21.885l.795.001 1.136-1.483c2.011.684 1.749 3.194 3.723 3.611l1.938-2.118.806.023 2.14 3.041 1.026.147 1.917-2.414.806-.034a68 68 0 0 0 2.354 3.454l.774-.291 1.383-3.148.884-.204c1.286 1.297 1.989 2.527 3.449 2.632.851-1.129 1.379-1.954 2.489-2.857 4.636 1.169 4.645 1.377 9.047-.681q.573-1.461 1.113-2.934l1.136.935.048 3.914c-.166.705-.446 1.079-.797 1.745-1.529.09-1.68.347-2.83 1.299l-2.313 1.893c-.75-.95-.99-1.235-1.871-2.059-2.148 1.389-7.526 3.538-9.952 3.892l-1.902-2.474c-1.464.214-1.52.953-2.768 2.548-2.512.088-.604-1.021-3.429-2.153-1.332.969-1.937 1.628-3.572 1.753l-2.349-2.208c-1.174.942-1.141 1.019-2.662 1.401-13.754-5.204-.465-24.243-17.003-27.58z"/><path fill="#fdfdfd" d="M297.686 348.596a86 86 0 0 1 2.014-1.903c4.031-3.668 6.229-3.616 11.363-3.38l-1.581.963c-14.226.553-9.571 12.099-11.906 21.642l-.048-3.914-1.136-.935q.552-6.246 1.294-12.473"/><path fill="#fdfdfd" d="M233.073 319.126c1.717-6.768 4.561-13.207 5.941-19.617l1.62 4.149c-3.436 7.406-5.133 10.851-5.537 19.298z"/><path fill="#fdfdfd" d="M317.857 318.895c-.667-5.129-6.144-12.804-6.203-17.525 2.781 5.414 6.309 10.74 7.151 16.502z"/><path fill="#fdfdfd" d="M254.478 307.01c20.361-.05 17.919 19.155.881 24.978-21.821.815-17.581-19.118-.881-24.978"/><path fill="#fdfdfd" d="M292.296 307.013c19.038-.232 27.28 19.506 11.488 24.922-7.129-.031-10.311-1.445-16.461-4.863-5.241-9.901-5.751-14.621 4.973-20.059"/><path fill="#fdfdfd" d="M276.942 326.853c5.118 2.403 12.234 17.624 5.974 21.706l-1.628-.37c-2.123-1.563-2.549-2.836-3.702-5.151-1.421 2.683-1.852 3.971-4.577 5.167-2.254-.07-1.343.351-2.858-1.228-1.995-6.11 1.957-16.126 6.791-20.124"/><path fill="#030303" d="m674.374 694.324.659-1.691c6.372 8.323 14.419 5.478 21.997 9.2 3.757 8.309 6.097 15.333 15.486 18.191 20.2 6.15 37.719 7.312 47.903 28.971 9.158 19.477 4.796 32.85 2.968 52.64l-6.4 3.038c-2.287 10.695-7.529 18.948-9.375 29.07-.091-2.739.068-6.431-1.078-8.742-2.102-1.245-2.955-.638-4.994.549-.793 2.657-6.413 16.644-7.85 18.77-3.053 6.7-4.599 10.252-6.15 17.637l-.801.124-.519-.803c-.226-2.604-1.537-5.762-4.379-6.219-3.977 2.175-3.416 8.132-5.14 8.343-.667-2.923-1.284-5.765-2.148-8.639-1.496 3.782-2.335 5.622-2.805 9.656l-1.57-.349c-.563-2.547-1.028-5.457-1.501-8.052-2.31-4.192-8.807-4.45-11.758-7.799-3.447-3.911-6.404-10.574-8.979-15.407-1.017 4.716-1.523 7.243-1.558 12.03l-1.275.087c-1.617-9.361.185-9.58-6.683-17.905l1.973-13.24c1.116-5.014 1.715-7.984 2.26-13.162-15.09-.595-13.898-19.266-11.927-29.987l-.182-1.644c-4.035-7.609-10.195-9.364-18.086-10.728-7.715-6.153-17.042-14.494-12.021-25.682 2.674 19.847 13.556 15.802 28.827 13.42 2.922 2.77 7.098 9.728 11.083 9.911 1.488-.908 2.816-3.128 3.326-4.792 2.922-9.519-16.474-14.063-13.282-22.993 2.45.991 4.122 4.122 7.714 5.544 4.886-.448 21.833-.613 23.064-5.135-1.771-4.084-5.409-3.925-6.824-6.923-1.993-4.081.668-12.133-2.108-15.701-5.845-7.514-12.427-1.14-17.547-10.967z"/><path fill="#7a5da0" d="m687.859 801.269.383.371c5.188 4.937 9.614 8.15 15.359 12.502l.15 9.98c3.832-3.407 7.062-5.733 11.193-8.727-.308 2.537-1.185 7.52.59 9.502 1.533-1.046 1.701-2.51 2.291-4.38l5.609-2.154 3.554-3.325c2.309-2.62 3.667-4.728 7.144-5.213 5.784 2.024 5.132 10.667 7.408 15.725-.793 2.657-6.413 16.644-7.85 18.77-.31-1.583-.363-1.68-.965-3.081l-.944.074-1.823 2.324c-.305 1.202-.319.973-1.017 2.076-.776-1.144-.466-1.332-.424-3.039-.685-1.739-.686-2.041-2.051-3.209-2.687.636-1.886 2.311-4.303 4.17-.331-3.182-.216-7.269-3.054-9.013-2.135.523-3.37 2.52-4.891 4.315-.378-2.873-.396-5.616-2.4-7.569-2.086.558-3.462 2.712-5.012 4.523-2.053-1.43-1.05-2.996-3.11-5.794l-.955-.002c-2.106 1.45-2.727 3.176-3.94 5.468-.794-6.303-1.073-15.13-1.465-21.645-4.859-4.674-6.387-6.669-9.477-12.649"/><path fill="#030303" d="M728.144 816.017c2.181-1.292 2.57-1.362 5.071-1.85l1.483 1.085c-.474 1.14-1.041 2.387-1.39 3.559l-1.757.118c-1.409 1.541-2.571 3.223-4.48 3.758-1.667-.597-2.145-1.316-2.75-3.084l-.887-1.24 3.554-3.325z"/><path fill="#664984" d="m726.988 815.038 1.156.979-3.823 3.586-.887-1.24z"/><path fill="#664984" d="m733.215 814.167 1.483 1.085c-.474 1.14-1.041 2.387-1.39 3.559l-1.757.118c.75-1.545 1.163-3.12 1.664-4.762"/><path fill="#030303" d="M734.698 815.252c2.654 2.878 3.918 5.071 1.548 8.591l-1.238.435c-2.269-1.596-1.787-2.746-1.7-5.467.349-1.172.916-2.419 1.39-3.559"/><path fill="#664984" d="M670.548 768.991c8.627-5.233 16.828-2.437 15.772 8.574l-.49.27c-4.399-9.648-3.724-11.607-15.1-7.2z"/><path fill="#7a5da0" d="M703.712 767.443c4.52 5.258 23.73 23.388 28.559 25.6 1.867-1.6 1.529-4.177 1.508-6.518l1.114-.333c.69 3.42 1.58 6.041.161 9.241-2.822 2.826-5.655 1.55-9.209.69-2.652 4.312-4.2 6.487-9.475 7.965-7.619 2.134-14.381-3.049-16.312-10.263-.433-1.619-.365-5.146-1.115-6.414l-.699-2.253c3.788-2.662 5.851-4.224 9.26-7.332-1.295-3.386-2.728-6.935-3.792-10.383"/><path fill="#7a5da0" d="M746.291 794.869c3.543-1.886 7.829-4.801 11.642-4.392 2.634 1.757 3.322 6.696 2.327 9.463-1.417 1.056-1.635 1.048-3.375 1.541-2.778 3.959-3.131 7.681-7.577 9.997-4.593.253-8.097-4.917-10.311-8.531 1.21-3.296 1.643-4.625 3.515-7.564 1.512.055 2.546.293 3.779-.514"/><path fill="#463560" d="M742.512 795.383c.606-1.658 1.93-5.617 2.776-6.976.137 2.16.063 4.515 1.003 6.462-1.233.807-2.267.569-3.779.514"/><path fill="#664984" d="M691.109 788.601c1.991-.657 5.147-2.414 7.135-3.443l.699 2.253-5.324 1.935z"/><path fill="#463560" d="M733.779 786.525c-.273-1.643-.729-3.037-.026-4.488 1.031 1.093.953 2.568 1.14 4.155z"/><path fill="#463560" d="M693.619 789.346c-1.538.389-2.126.239-3.675.093l.071-.515 1.094-.323z"/><path fill="#030303" d="M131.595 905.081c-12.299-5.624-7.319-8.056-9.92-17.62-4.586-16.861-5.544-29.6 4.425-44.768a48.86 48.86 0 0 1 31.673-21.069c25.962-5.065 47.307 10.956 52.442 36.422l-.645-.001c.49 1.414.442 1.594 1.494 2.701 3.854 2.819 4.464 5.079 5.544 9.696.249 10.44-.237 24.864-13.778 25.056.553 3.302 1.103 7.362 2.127 10.471.606 4.572 2.013 13.881 1.736 18.29-.102 2.811.268 7.623-1.038 9.63-.615-3.467-.733-6.942-3.606-8.953-4.776.422-5.501 6.994-6.46 10.898-3.272 3.018-8.23 7.834-11.61 10.407-.684 1.821-1.645 4.669-2.502 6.308-1.61-1.834-1.067-1.809-2.97-2.18-3.505 2.427-4.117 10.797-3.965 14.819l-1.288-.241c-.276-3.736-.469-6.148-1.187-9.802l-.641-2.603-.639-.173c-1.057 2.324-1.425 4.517-1.955 6.996-1.891 11.917-2.937 20.992-2.477 33.023l-1.381-3.89c-.73-10.141-.775-20.113-3.406-29.963-1.415 3.045-1.971 4.388-2.918 7.596l-1.568 2.282-1.21-6.12c-1.989-8.6-3.497-3.233-5.853-3.631-.645-3.091-1.411-30.187-1.507-35.062l-8.256-2.917-.904 8.289-1.861-8.34c-2.956-2.594-3.539-3.196-5.811-6.394z"/><path fill="#7a5da0" d="M182.555 907.067c4.239-3.097 9.035-6.395 13.134-9.574-.32 1.072-.74 2.644-1.109 3.652l-5.058 3.672c-.346 3.672-2.033 22.3-4.311 24.286a204 204 0 0 0-2.364-3.523l-.897-.097c-1.862 1.839-1.515 3.763-2.645 6.734l-.465-.064-.308-.697c-.854-1.91-1.048-2.789-2.783-3.921-3.152.254-3.847 4.433-4.768 7.214-1.184-1.924-2.184-3.764-3.731-5.404l-1.095.034c-1.475 1.887-1.856 3.973-2.538 6.31-2.556-.071-2.51-4.47-5.535-2.018-.849 2.114-1.115 3.167-1.637 5.394-1.275-1.749-2.116-3.354-4.021-4.215l-.628.518c-.381 5.952 6.571 15.36 8.745 21.522-1.632 1.808-3.157 3.482-4.669 5.403-1.989-8.6-3.497-3.233-5.853-3.631-.645-3.091-1.411-30.187-1.507-35.062 1.167-6.983 2.173-13.173 4.466-19.931 10.665 6.784 12.237 7.991 19.407 18.257a747 747 0 0 1-.938-11.175c4.397 2.73 6.383 4.274 10.161 7.843.261-3.902.508-7.633.947-11.527"/><path fill="#030303" d="m156.083 911.033 1.167.067.009 3.363-1.076 3.662c-.642 1.46-.556 1.584-1.956 2.418-4.944-1.343-2.981-7.344 1.856-9.51"/><path fill="#664984" d="m156.083 911.033 1.167.067.009 3.363-1.076 3.662z"/><path fill="#030303" d="M157.25 911.1c3.497.879 6.155 1.959 6.158 5.993l-.761 1.024c-3.006.108-3.693-1.413-5.388-3.654z"/><path fill="#664984" d="M211.064 860.746c-7.744.149-8.49 4.747-10.71 11.101l-.711.025c-.831-8.489 2.001-11.495 9.927-13.827.49 1.414.442 1.594 1.494 2.701"/><path fill="#7a5da0" d="M180.903 860.837c-.006 4.777-.474 7.417-1.832 11.938 3.439 2.39 5.388 3.563 9.103 5.497-.917.877-1.269 1.305-2.342 2.006.182 5.97-.328 12.494-5.835 15.894-8.812 5.441-14.457 1.505-19.146-5.713-1.774.959-2.227 1.123-4.174 1.661-5.09-1.078-6.51-8.125-3.965-10.6 1.141 2.093 1 4.481 1.132 6.94 11.457-4.679 20.426-17.47 27.059-27.623"/><path fill="#7a5da0" d="M126.629 888.108c2.239.769 14.397 5.703 15.534 5.698l2.34-1.49c3.115 5.697 4.732 11.386-1.696 16.45-2.367 1.865-8.628.049-9.822-2.581-1.028-1.978-.699-3.976-2.703-5.442-2.325-.416-2.977-.094-4.284-1.578-.678-3.24.452-7.58.631-11.057"/><path fill="#664984" d="M188.174 878.272c4.66 1.572 8.04 2.395 12.79 3.503-5.985.082-9.228.012-15.132-1.497 1.073-.701 1.425-1.129 2.342-2.006"/><path fill="#664984" d="M138.65 883.578c2.002 2.648 4.02 5.922 5.853 8.738l-2.34 1.49c-.763-2.966-2.442-7.242-3.513-10.228"/><path fill="#7a5da0" d="M188.291 800.104c-.139-4.629-.946-16.511-4.21-19.708l-.846.181c-1.266 2.045-1.602 3.029-2.451 5.246-2.426-3.213-.857-11.089-4.947-15.365-6.025-6.73-16.033-5.848-24.441-7.545-11.673-2.356-23.31-7.82-24.825-21.073l.543-.497c1.604 2.406 2.275 5.009 5.74 5.218 3.331.201 5.762-3.624 5.217-6.685-2.814-15.797-25.803-8.803-35.143-19.418-6.284-7.141-9.844-13.122-10.491-22.593-.192-2.871.375-4.894 1.025-7.64 3.197-13.508 24.949-18.265 24.516-32.4-.221-7.221-10.15-13.344-15.19-17.733-15.423-13.431-5.917-26.939 5.704-39.379-3.193 4.971-5.307 9.165-7.236 14.705-7.844 22.525 23.037 23.009 21.668 43.142-1.015 14.923-16.838 16.564-21.591 30.389-4.202 12.22 12.889 28.809 15.236 13.124 11.883 8.28 12.645 11.906 19.698 24.004.494.847 2.694 1.092 3.565.891 9.357-2.631.236-15.185.818-18.906 5.165 1.614 10.381 11.043 12.963 15.588 3.336 1.843 8.887 4.523 8.508 9.123l-.874.86c-2.319-1.584-2.345-2.509-4.358-2.355-3.823 4.735 1.695 11.078 5.491 13.864 12.877 9.452 18.356 1.04 12.781-11.79 10.513 2.926 12.677 8.279 21.031 14.303 4.611 3.325 9.315 1.746 10.411-3.908 1.082-4.948-3.182-8.187-6.478-10.961 4.965.994 18.653 4.299 19.971-3.271-2.872-5.903-13.478-6.04-18.774-10.449 4.377-1.05 7.83-4.12 11.399-6.842 3.004 3.816 9.404 12.693 15.665 7.559 4.014-3.291 4.504-8.919 4.993-13.824.935 3.481 2.617 8.864 2.173 12.276-.916 7.041-9.698 10.039-6.965 18.163 3.987 3.854 7.406-1.824 11.408-3.693 3.811-1.998 13.09-3.812 15.246-7.779 5.345-9.835-8.688-17.967-1.282-28.465l1.334 1.12c-.906 2.959-1.515 6.924.594 9.551 25.006 31.149-13.113 34.845-24.773 56.259-4.594 8.435 3.051 30.49 12.586 28.219 3.969-2.975 2.878-7.846 5.588-11.108 4.008-4.823 7.922-4.926 11.992-10.253l.73 4.029c-5.875 8.513-13.734 11.159-4.434 22.063 11.638 13.644 15.186 21.037 6.191 37.629-.186-7.442-.13-10.941-1.801-18.218-.656 12.519-3.916 30.569-15.174 38.048-11.652 7.74-21.91 3.113-30.184 16.642-1.08-4.617-1.69-6.877-5.544-9.696-1.052-1.107-1.004-1.287-1.494-2.701l.645.001c2.973.717 7.166-1.784 10.038-2.478 16.601-4.009 22.996-19.699 17.995-35.22-.481-1.492-1.046-2.212-2.467-2.809-1.146 1.348-1.033 2.102-1.235 3.917l-.068.664-1.184 2.353c.195-5.761-4.474-27.984-12.646-24.187-3.348 3.977-3.053 8.63-3.71 13.859l-1.3-.131c-.852-9.726-1.667-23.731-13.206-27.069-2.762-.799-7.249-1.399-9.842.014-2.867 3.489-2.803 16.196-3.336 21.213l-.491-.635c.139-3.282.051-4.179-.472-7.433m26.056-16.744c8.636-6.777 2.064-17.137-7.151-18.1-10.029 7.7-4.022 16.86 7.151 18.1"/><path fill="#7a5da0" d="M750.796 131.124c13.872 29.935-18.53 17.784-21.176 38.751A19.96 19.96 0 0 0 730.899 180c5.396 13.362 32.05 23.501 21.265 49.761a29.02 29.02 0 0 1-15.602 15.751c-7.051 2.912-14.591 1.914-20.096 5.149-5.929 3.485-8.07 13.412-16.127 15.883-9.295 2.85-20.381-1.575-26.774 8.206-.884 1.352-.284 2.409.155 3.572 6.011 5.808 16.61 3.616 22.943-.619-22.584 32.01-34.394-14.628-50.352 14.509-2.161 3.947-7.531 6.698-11.645 8.19-11.914 3.539-22.866 7.991-29.624 19.193-8.727 15.048 5.111 19.62 12.775 4.757.686 1.994.818 2.543 1.077 4.635-7.213 16.022-22.597 12.898-35.99 22.746-10.222 7.516-11.849 24.901 1.606 19.445a16.85 16.85 0 0 0 9.239-8.897l.265-.614.509.258c-.122 11.645-13.983 15.647-18.978 23.062-8.996 13.359-2.894 17.806-19.475 25.627a72 72 0 0 0 2.848-3.936c3.66-5.454 5.921-11.205 5.383-17.884-1.992-24.697-36.252-26.109-40.675-50.665-1.388-7.706.619-12.673 4.823-18.877l-.22.591c-2.465 6.703-2.763 11.756.17 18.327 1.85 4.143 6.689 9.756 11.58 7.023 1.314-.735 3.859-4.382 3.77-5.814-.631-10.267-2.364-21.265-4.749-31.286-.32-1.31-4.323-5.848-5.049-6.919-5.24-7.736 4.818-16.487 8.101-22.96.716-1.41 1.248-5.248 1.484-6.865.423 1.265 1.705 5.099 1.705 6.197 0 9.192-4.19 11.696 1.492 19.76.406 4.22 4.267 9.808 3.814 14.713-.544 5.907-8.887 15.142.088 19.342 6.661 3.118 10.847-15.312 14.125-18.591 4.079-4.079 9.646-6.014 15.045-8.082-2.564 2.703-6.767 6.768-5.831 10.791 2.301 2.292 7.249 2.4 9.797.815 5.957-3.707 6.641-13.766 8.303-20.041 3.095-11.686 9.424-17.882 19.504-23.97a74 74 0 0 0-1.798 3.322c-11.561 22.465 16.304 22.555 24.848-2.357-3.141 1.697-7.06 5.527-9.849 5.748l-.544-.753c.068-.631.238-1.863.463-2.403 8.355-20.034 21.114-7.683 33.792-12.279 5.387-1.953 14.419-10.282 21.351-13.91 4.245-.115 17.327-.422 20.8-2.903 8.658-6.186 21.183-12.15 29.398-18.531 1.836-1.426 3.895-7.333 4.616-9.43l.635 4.503c-1.125 2.973-2.191 5.912-3.528 8.798 9.946-3.424 15.895-10.73 11.879-21.523-5.981-16.07-28.573-24.46-18.988-44.892 8.441-17.581 30.099-7.338 26.143-34.549"/><path fill="#7a5da0" d="M759.529 910.509c-3.91-21.598-.21-27.373 18.051-38.295-5.524 5.338-12.522 12.462-13.125 20.577-.53 7.122 7.285 11.703 6.676 19.125-.442 6.395-4.378 11.947-8.541 16.592-11.287 12.593-31.965 3.017-40.766 18.379-2.305 4.022-4.592 10.887-.541 14.898 1.064 1.053 1.905.841 3.267.774 2.302-1.352 3.207-2.677 3.834-5.257l.438-.137c1.814 9.557 1.539 17.625-4.387 25.604-16.144 21.741-35.453 22.981-58.852 16.375 3.23-.328 9.924-.776 12.714-1.796l.106-.917c-4.312-3.42-9.734-2.512-14.818-1.945-12.509 1.395-23.043 8.284-22.029 22.044-2.01 1.74-4.295 2.45-6.768 3.43-9.954-4.33-15.304-8.62-22.696-16.14 16.088-35.163 47.332-20.046 56.928-30.757.249-3.549-3.701-3.087-4.694-5.959 1.666-1.845 5.153-2.345 7.555-2.641 9.678-.946 13.885 12.81 22.937 12.779 6.746-.023 12.199-7.611 10.482-13.865-5.663-20.629-4.017-36.661 20.899-39.719 14.206-1.744 26.252 4.298 33.33-13.149"/><path fill="#030303" d="M726.022 610.396c3.208-11.103 4.514-19.544 15.489-25.736 6.733-3.799 15.248-4.132 22.566-1.853a28.96 28.96 0 0 1 17.372 14.46c6.145 11.839 3.624 20.245-1.378 31.526 11.434 8.298-2.906 15.824-10.705 18.105-5.286 9.027-5.36 14.745-6.718 25.074-.363-2.825-.335-4.028-2.005-6.421l-1.037-.157c-.865 1.276-1.139 1.519-1.401 3.076l-.826 2.644-.737.205c-.493-3.519-.275-7.603-4.409-7.332-4.644 3.045-3.981 18.411-4.161 23.909-.745-4.815-1.268-19.601-5.019-22.03-4.373 1.304-5.644 10.382-6.555 14.455l-.799.063-.591-2.586c-.065-3.861-.412-11.3-4.114-13.49l-1.026.636c-.99 2.161-1.026 2.844-1.367 5.219l-1.164.678c-.599-5.327-.966-7.406-2.297-12.639 1.903-4.667 2.504-5.935 3.794-10.99.336-4.514.724-7.436 1.523-11.895-1.857 1.092-2.827 3.093-3.825 5.032l-1.967-.856c-.4-3.283-1.193-4.908-2.425-7.966.551-2.058 1.263-3.503.442-5.341-1.361-1.126-2.1-1.653-3.584-2.616-.138-5.323-1.976-17.728 6.924-13.174"/><path fill="#7a5da0" d="M745.08 630.012c.668 3.646 1.471 7.579 1.932 11.233.909.486 1.113.565 1.894 1.224l4.766 8.699.48.942c-1.4 1.598-1.886 2.181-3.524 3.496-2.74.427-1.604.521-4.365-.605-1.637.946-2.854 3.912-3.813 5.736-.056-2.221.339-6.4-1.76-7.413-1.791 1.203-2.49 3.167-3.51 5.164-.409-2.055-.336-5.694-2.036-6.997l-2.103 1.35-1.318-.292a110 110 0 0 1-2.789-5.337c.336-4.514.724-7.436 1.523-11.895 1.196 2.131 1.025 2.759 2.9 3.41 2.276-.889 7.891-6.256 11.723-8.715"/><path fill="#463560" d="M747.012 641.245c.909.486 1.113.565 1.894 1.224-.529 1.637-.586 2.002-1.522 3.411-.672-1.227-.389-3.032-.372-4.635"/><path fill="#030303" d="m742.43 634.568 1.201 1.101c.529 1.749 1.508 5.127-.059 6.451l-.547-.949c-1.887-1.168-3.011-.997-4.336-2.718.684-1.918 1.931-2.41 3.741-3.885"/><path fill="#664984" d="M754.489 644.901c1.71-.136 4.134-.608 5.46.239-1.294 1.819-2.463 2.137-3.997 3.601-.722-1.216-1.026-2.482-1.463-3.84"/><path fill="#664984" d="M753.672 651.168c1.226-2.503.96-3.502.817-6.267.437 1.358.741 2.624 1.463 3.84-.403 1.882-.456 1.926-1.8 3.369z"/><path fill="#7a5da0" d="M768.643 629.009c-11.258 20.583-26.141-4.841-15.719-8.953.69 1.167.617 1.462.906 2.811l1.077.674c6.513.292 10.588-2.925 15.674-6.437-.436 4.06-.474 5.426-.169 9.48.892 1.794 1.883 3.03 1.812 4.799-1.667-.334-2.323-1.207-3.581-2.374"/><path fill="#664984" d="M770.412 626.584c.892 1.794 1.883 3.03 1.812 4.799-1.667-.334-2.323-1.207-3.581-2.374l1.551-.894z"/><path fill="#7a5da0" d="M733.432 605.017c1.821 3.672 5.629 13.018 9.73 13.486l1.534-.373c.348 6.122-7.415 14.09-13.534 10.648-2.939-1.654-3.401-5.282-4.175-8.276.808-2.063 1.924-4.401 2.056-6.549l-1.455-1.447c2.975-2.991 3.589-2.647 5.505-6.749z"/><path fill="#463560" d="m743.907 615.148.784-.012.005 2.994-1.534.373z"/><path fill="#262626" d="M743.907 615.148c.141-1.976-.216-1.833.855-2.762.418 1.372.304 1.334-.071 2.75z"/><path fill="#7a5da0" d="M204.957 905.969c7.024 2.792 12.286 5.07 20.163 2.257 8.515-3.041 10.004-17.677 15.401-21.384 14.554-9.997 18.37-4.864 30.046-20.536-.25 3.816-6.237 10.884-9.22 13.477-6.525 5.671-17.239 8.156-17.892 17.991-.309 4.669.575 8.516-.146 13.338-1.088 7.267-10.193 10.746-5.557 18.007 3.663 2.964 10.337.414 12.956-3.275 5.923-8.343 2.593-17.665 5.29-26.659.366-1.153 4.001-5.287 5.016-6.456-.701 3.152-2.196 5.409-3.787 8.214 1.479 9.906 6.619 21.347.34 29.997-8.837 12.175-32.937 6.462-30.039 27.849.324 2.395.731 3.353 2.491 5.042 3.655 1.414 5.228-.111 7.937-2.641l1.615 1.525c-8.58 18.886-26.713 19.897-33.075 35.976l-1.997-1.336c-.479-11.888 1.965-37.962-4.307-46.805-2.008-.909-1.024-.855-3.043-.318-2.633 4.05-3.437 13.432-3.752 18.36-.716 1.807-.532 2.47-.446 4.476l-.569-.005q.006-.52-.002-1.04c-.056-4.524-.605-19.718-3.579-22.615l-.842.488c-2.314 4.163-2.912 15.469-3.326 20.677l-1.128-4.303c-.031-3.109-1.451-10.397-2.028-13.721.857-1.639 1.818-4.487 2.502-6.308 3.38-2.573 8.338-7.389 11.61-10.407.959-3.904 1.684-10.476 6.46-10.898 2.873 2.011 2.991 5.486 3.606 8.953 1.306-2.007.936-6.819 1.038-9.63.277-4.409-1.13-13.718-1.736-18.29m10.464 63.867c9.382-6.097 12.749-22.195-.123-23.586-2.664 1.997-4.565 3.272-6.179 6.316-3.81 7.185-3.114 15.708 6.302 17.27"/><path fill="#262626" d="M206.693 924.259c.82 4.524.56 12.997.495 17.842l-1.169-.967c-.2-2.554-.325-4.68-.364-7.245 1.306-2.007.936-6.819 1.038-9.63"/><path fill="#463560" d="m206.019 941.134 1.169.967c.242 1.625.52 2.453-.004 4.016-1.081-1.471-.987-3.091-1.165-4.983"/><path fill="#030303" d="M174.247 235.967c-.468-1.437-1.491-2.57-2.038-3.909-5.1-12.469-11.394-24.188-7.127-37.837a26.86 26.86 0 0 1 13.775-15.911c18.054-9.008 29.022 2.984 36.363 18.151l.365.591.86 1.78c2.672 3.996 2.766 4.776 2.638 9.621-.271 2.523-.476 4.196-.398 6.771-3.232 1.556-5.593 1.515-6.487 5.103l.19 1.479c-1.113 4.131-1.538 7.58-2.409 11.624l-4.251-7.545c-.447 4.423-.672 6.121-1.858 10.365l-1.234 3.934-.598 1.932-.846.242c-1.723-1.279-2.119-2.091-3.837-1.932-1.228 1.541-1.193 1.706-1.613 3.692-1.151-1.312-2.765-3.74-4.089-3.898-.595 1.622-.69 1.895-1.558 3.366l-1.273.122c-1.915-2.044-3.261-2.901-5.534-4.519-1.087-2.974-3.074-6.222-6.037-7.575l-1.029.417-.388 1.652z"/><path fill="#7a5da0" d="M189.928 209.691c5.328 1.043 9.141-8.222 12.55-10.124l.652.495a44 44 0 0 0-.353 2.855l2.959 3.114-.422 1.206c2.804 17.25-15.901 14.923-17.362 2.264l-.044-.362z"/><path fill="#664984" d="m215.22 196.461.365.591.86 1.78c-6.597 6.425.747 8.76-11.131 8.405l.422-1.206c7.456.262 5.034-4.811 9.484-9.57"/><path fill="#664984" d="m187.908 209.139 1.479-2.517.436.085c.041.913.132 2.096.105 2.984z"/><path fill="#7a5da0" d="M180.027 210.654c7.187 4.345 3.138 16.872-6.853 12.207-1.882-1.939-3.15-2.35-5.075-4.45-.668-2.817.022-3.336.916-6.53 2.895.434 7.971 1.489 10.589.417z"/><path fill="#8e76ae" d="M176.499 217.013a2.44 2.44 0 1 1 2.283 4.312 2.44 2.44 0 0 1-2.283-4.312"/><path fill="#7a5da0" d="M188.063 221.362c3.865 1.758 9.554 5.262 9.748 9.894-1.108 2.379-.54 1.529-2.994 3.301-3.733 1.003-6.096 2.186-8.768-.891-1.084-3.744.856-8.465 2.014-12.304"/><path fill="#262626" d="M187.948 224.861c1.684.783 4.089 2.527 5.077 4.191l-.524.727-2.157-.031c-.463 1.104-.601 1.117-1.446 1.995l-.822-.508c-.625-2.738-.421-3.666-.128-6.374"/><path fill="#7a5da0" d="m621.472 776.299.492-2.911c6.631 10.683 12.681 6.318 20.371 12.871 8.746 7.452 1.891 26.498 16.358 29.311 8.16 1.587 13.944.031 21.704-1.786l-1.973 13.24c6.868 8.325 5.066 8.544 6.683 17.905l1.275-.087c.035-4.787.541-7.314 1.558-12.03 2.575 4.833 5.532 11.496 8.979 15.407 2.951 3.349 9.448 3.607 11.758 7.799-7.973 2.491-8.461 11.257-8.975 18.498-.46 6.475-.976 11.437-2.263 17.829-1.064-4.451-1.782-9.717-5.111-12.84l-1.274-.187c-5.989 4.591-4.491 20.095-6.405 26.309-.005-3.716.091-6.672-.572-10.365-.281-6.303 1.28-30.238-6.334-33.117-5.153-1.948-6.288 4.837-7.061 8.743-.719-.867-.918-.695-2.184-1.114-.672-3.959-.445-9.639-3.299-12.253-1.808-.075-1.103-.234-2.812 1.234l-1.582.651c-1.157-15.826-2.518-27.435-17.452-35.799-13.076-7.323-9.672-16.217-5.064-27.112 3.996-9.445-12.029-11.097-16.511-19.606z"/><path fill="#463560" d="m685.107 844.929 1.275-.087c-.284 2.819-.541 5.766-.896 8.566-.219-2.802-.551-5.689-.379-8.479"/><path fill="#262626" d="M271.332 441.399c-.016-2.613-.439-10.791 1.475-11.613 19.192-8.252 16.33 13.891 17.449 17.58 2.909-2.523 4.732-4.506 8.43-5.605 1.474.831 3.433 1.947 3.623 3.844 1.301 13.009 2.029 25.511-.483 38.419-.833 4.28-3.966 13.037-3.407 14.946l-1.24.53c-1.434.335-2.104.522-3.49 1.007-4.232-.951-4.846-2.841-7.67-6.508a635 635 0 0 1-11.781 3.44l.589 17.12c-8.684-9.785-14.138-22.259-14.724-35.422-.143-3.206-.744-5.576-1.729-8.619 1.823-5.526 1.289-7.192 1.804-12.616.566-5.966 10.581-3.705 11.574-10.289-.211-1.901-.295-4.266-.42-6.214"/><path fill="#030303" d="M271.332 441.399c-.016-2.613-.439-10.791 1.475-11.613 19.192-8.252 16.33 13.891 17.449 17.58 3.705 1.475 7.494 4.004 9.697 7.381l-.199.492c-17.273-12.043-9.672-6.66-27.307-6.124l-.695-1.502c-.211-1.901-.295-4.266-.42-6.214"/><path fill="#030303" d="M282.552 470.456c8.159-.884 11.696 1.576 16.821 7.853.843 1.033.696 1.192.442 2.253-1.33-.5-5.135-4.987-8.674-7.235-6.125-.311-19.02.694-25.968.82 5.071-1.81 12-2.84 17.379-3.691"/><path fill="#030303" d="M288.353 457.321c3.24-.114 11.791 8.095 13.324 10.889l-.461.743c-4.471-2.052-6.527-8.218-13.238-9.049-6.453.572-13.006 1.935-19.867 2.518l-.414-.527-.601.506c7.399-2.682 13.441-3.615 21.257-5.08"/><path fill="#030303" d="M280.313 483.514c2.23-.352 5.707-.213 8.084-.197 2.742 1.482 9.481 5.811 9.49 9.055-1.838-.602-3.457-2.8-4.859-4.335-7.785-4.064-14.243-1.933-23.146-1.862l-.207-.406c3.384-1.428 6.999-1.748 10.638-2.255"/><path fill="#262626" d="M651.123 893.618c.517 3.909 1.243 7.626-1.306 10.897-2.599 3.336-8.492 6.771-7.696 11.718.987 6.14 6.547 10.606 1.713 17.262-2.843 3.916-9.328 6.986-11.597 10.995-4.142 7.321 1.273 17.677-4.347 24.931-8.302 10.717-21.648 6.974-25.775 21.764-4.518-4.511-10.387-16.883-13.548-23.076 3.967-2.863 5.476-4.662 8.68-8.348 3.168-3.646 9.463-12.974 14.701-9.853 1.819 4.381-3.953 6.904-4.163 10.87l1.171.481c11.314-1.379 10.085-14.125 12.6-23.303 5.324-5.231 11.506-5.97 14.705-9.036 2.038-3.996.88-12.499.864-17.557 6.143-7.89 9.967-5.129 12.644-14.541z"/><path fill="#303030" d="M566.738 909.93c11.175-.26 18.096-2.287 26.297-9.998 8.977-8.441 6.712-20.734 11.835-26.584 8.313-9.493 18.957-5.405 25.477-20.053.666 1.587-.192 4.738-.814 6.285-4.135 10.278-15.864 11.399-21.105 20.716-4.708 8.369-1.083 21.836-7.322 29.312-9.754 11.687-23.265 4.404-26.875 23.373-3.001-4.702-5.331-17.753-7.948-22.563z"/><path fill="#7a5da0" d="m229.044 213.831 1.904 1.603c-1.713 5.377-5.932 7.774-7.184 11.799-2.432 7.816-.762 17.582-1.743 26.051-2.291-6.357-2.692-10.741-3.393-17.416-7.743 9.585-3.739 19.849-5.704 32.172-.371-3.021-.709-10.072-3.228-11.772-3.156 2.191-3.465 14.193-3.757 18.091l-2.442.01c-.193-5.795.259-15.152-2.795-19.967-1.438-2.265-3.311-2.304-5.889-2.789l-.694-1.049c-.022-3.364 1.054-3.613 1.623-6.446.42-1.986.385-2.151 1.613-3.692 1.718-.159 2.114.653 3.837 1.932l.846-.242.598-1.932 1.234-3.934c1.186-4.244 1.411-5.942 1.858-10.365l4.251 7.545c.871-4.044 1.296-7.493 2.409-11.624l-.19-1.479c.894-3.588 3.255-3.547 6.487-5.103.605 2.981.456 4.33 3.644 5.021 3.508-1.11 4.726-3.442 6.715-6.414"/><path fill="#8e76ae" d="M212.198 220.327c2.292-.38 2.867-.699 4.824.265l.661 1.234c-.709 2.084-.211 1.341-1.963 2.692-2.103-.035-2.838-.488-3.332-2.712z"/><path fill="#8e76ae" d="M203.87 236.25c2.731 1.353 3.162 1.639 2.815 4.937l-.884 1.135-1.308.03c-.96-.938-1.118-1.062-1.857-2.168z"/><path fill="#7a5da0" d="M223.362 147.149c-1.687 5.825-3.634 10.536-.239 16.395 4.874 8.411 16.145 12.224 13.67 23.925-1.369 6.466-12.573 16.986-17.71 20.984.128-4.845.034-5.625-2.638-9.621l-.86-1.78c7.216-1.188 18.999-4.652 16.37-14.17-3.915-14.172-20.86-15.601-10.395-32.92a76 76 0 0 1 1.802-2.813"/><path fill="#7a5da0" d="M247.423 541.412c.412 4.315-3.814 9.905-2.01 15.079 3.559 10.205 18.436 21.803 5.622 32.136 1.234-4.009 1.535-5.921 2.13-10.113-6.683-15.329-20.025-17.059-5.742-37.102"/><path fill="#7a5da0" d="m188.822 243.708 1.273-.122c.868-1.471.963-1.744 1.558-3.366 1.324.158 2.938 2.586 4.089 3.898-.569 2.833-1.645 3.082-1.623 6.446l.694 1.049c.343 1.805-.694 11.903-.921 14.542-1.315-9.851-1.22-13.102-6.505-21.571z"/><path fill="#7a5da0" d="M183.288 239.189c2.273 1.618 3.619 2.475 5.534 4.519l-1.435.876-2.384 11.931c-1.008-1.161-1.121-2.105-1.529-3.585q.02-6.872-.186-13.741"/><defs><linearGradient id="b" x1="620.09" x2="622.294" y1="610.461" y2="608.793" gradientUnits="userSpaceOnUse"><stop offset="0" stop-color="#fff" stop-opacity="0"/><stop offset="1" stop-color="#f8f6fa" stop-opacity=".043"/></linearGradient></defs><path fill="url(#b)" d="M622.014 614.496c-2.128-2.703-3.774-6.791-3.137-10.245.993.243 3.91 5.409 4.828 6.802l-.003 2.244z"/><path fill="#8067a8" fill-opacity=".945" d="M668.498 869.774c1.266.419 1.465.247 2.184 1.114-.193 4.452-.266 8.994-1.039 13.374l-.39-.24c-.817-5.001-.718-9.204-.755-14.248"/><defs><linearGradient id="c" x1="172.261" x2="168.848" y1="958.718" y2="954.133" gradientUnits="userSpaceOnUse"><stop offset="0" stop-color="#fff" stop-opacity="0"/><stop offset="1" stop-color="#efedef" stop-opacity=".039"/></linearGradient></defs><path fill="url(#c)" d="M168.832 959.365c.53-2.479.898-4.672 1.955-6.996l.639.173.641 2.603c-.217 1.741-.398 3.116-.748 4.833l-.998.283z"/><path fill="#030303" fill-opacity=".953" d="m151.874 1059.69 5.005-.83c3.399 1.9 10.114-.46 12.779 1.33-5.846.04-11.085.13-16.916.49z"/><path fill="#262626" fill-opacity=".863" d="M602.732 695.127c.47 2.926 1.196 18.841-.001 20.623l-.392-.556.41-.147c-.968-1.099-.62-.46-.864-2.074 1.437-2.153.488-13.783.847-17.846"/><path fill="#8067a8" fill-opacity=".984" d="m203.497 274.369 2.442-.01-.472 5.433-1.212 2.544c-.452-2.572-.576-5.349-.758-7.967"/><path fill="#49454a" fill-opacity=".804" d="M651.809 441.582q.164 8.645.231 17.291c-.473-1.925-1.569-5.907-1.627-7.67l.399.242c.695-1.058.698-7.467.997-9.863"/><path fill="#262626" fill-opacity=".91" d="m710.178 864.07 1.57.349c.124 2.332.228 4.15.116 6.509-.321.606-.839 1.472-1.019 2.094z"/><path fill="#5d5b5f" fill-opacity=".655" d="m756.642 671.319.737-.205.826-2.644c.036 2.867.316 6.658-.6 9.29-.894-1.409-.846-4.608-.963-6.441"/><path fill="#030303" fill-opacity=".941" d="M589.928 773.526c1.303-2.244.141-5.148 1.408-9.146.062 3.014.433 9.437-.251 12.068-.851-1.045-.865-1.62-1.157-2.922"/><defs><linearGradient id="d" x1="230.009" x2="227.468" y1="679.098" y2="677.554" gradientUnits="userSpaceOnUse"><stop offset="0" stop-color="#fff" stop-opacity="0"/><stop offset="1" stop-color="#f6f5f7" stop-opacity=".043"/></linearGradient></defs><path fill="url(#d)" d="M228.373 676.835c.382-1.093 1.14-1.994 1.821-2.982l.025 2.977c-.295 1.798-.362 2.176-1.007 3.865l-.569-.094c-.205-1.468-.238-2.28-.27-3.766"/><path fill="#5d5b5f" fill-opacity=".847" d="M168.264 556.86c-.283-3.222.421-5.967 1.596-8.91.352.838-.317 5.001-.392 6.651z"/><path fill="#8067a8" fill-opacity=".89" d="M183.474 252.93c.408 1.48.521 2.424 1.529 3.585l-.378 5.298-1.162-.542z"/><path fill="#030303" fill-opacity=".961" d="M317.601 136.169c-.937-1.515-1.846-3.427-1.432-5.185 1.545.921 1.818 2.154 2.78 3.947z"/><path fill="#8067a8" fill-opacity=".945" d="m217.482 1070.29 2.499 1.14c-2.639.46-6.811 1.74-9.52 2.49 2.482-1.42 4.441-2.4 7.021-3.63"/><path fill="#262626" fill-opacity=".965" d="m648.384 890.064 1.427.004 1.312 3.55-1.354 3.204c-.316-3.035-.542-3.889-1.385-6.758"/><path fill="#030303" fill-opacity=".898" d="m771.391 1035.1 4.302.34 1.324 1.52c-1.955-.31-5.419-.23-7.512-.25z"/><path fill="#030303" fill-opacity=".973" d="M349.024 114.235c-1.909-.033-2.984.131-4.657-.667 1.961-1.049 3.85-.85 6.127-.904z"/><path fill="#8067a8" fill-opacity=".937" d="M261.462 690.663a264 264 0 0 0-6.169 6.918l-1.334-1.12c2.441-1.936 4.967-4.006 7.503-5.798"/><path fill="#868390" fill-opacity=".592" d="M152.742 1060.68c-2.668.54-3.984.91-6.758.73.896-1.01 4.34-1.41 5.89-1.72z"/><path fill="#c3becc" fill-opacity=".541" d="M621.472 776.299c-.581-2.935-.766-4.983.434-7.738.63 1.377.226 3.236.058 4.827z"/><path fill="#5d5b5f" fill-opacity=".831" d="m726.739 862.081.801-.124c-.018 2.944.048 6.577-.249 9.44l-.625.58c.121-3.167.058-6.697.073-9.896"/><path fill="#303030" fill-opacity=".82" d="M668.366 1071.19c1.561.33 2.341.19 3.261 1.12-3.121.28-4.231.03-7.311-.45z"/><path fill="#8067a8" fill-opacity=".965" d="m239.386 957.469.688 3.308-.503 1.938-1.615-1.525c.055-.273 1.256-3.277 1.43-3.721"/><path fill="#8067a8" fill-opacity=".929" d="M321.117 862.122c2.123 2.122 3.664 3.765 5.611 6.048l-.885 1.858z"/><path fill="#303030" fill-opacity=".898" d="M673.933 686.696c.961 1.38.946 4.128 1.1 5.937l-.659 1.691-.624-1.289z"/><path fill="#8067a8" fill-opacity=".961" d="m617.817 324.352 1.784-5.744c-.117 2.979-.159 7.611-.707 10.379-.259-2.092-.391-2.641-1.077-4.635"/><path fill="#7a5da0" fill-opacity=".965" d="m691.738 557.645 1.546-2.414.772-.15c-.066 1.836-.208 2.03-.884 3.78z"/><path fill="#868390" fill-opacity=".616" d="m233.294 824.473 1.184-2.353c.083 2.346.362 4.166-.481 6.326-.728-1.769-.657-2.011-.703-3.973"/><path fill="#c3becc" fill-opacity=".18" d="m735.108 677.798.591 2.586c.012 2.294-.126 4.454.472 6.65l-.773-.282c-.654-1.912-.339-6.676-.29-8.954"/><path fill="#49454a" fill-opacity=".722" d="m331.258 1071.15 7.502.04-.842.47c-1.795.11-4.016.16-5.732.55l-2.5.15z"/><path fill="#8e76ae" fill-opacity=".82" d="M344.66 419.05c.631 2.78.355 3.948.765 6.361l-.151.643-.616.298c-.38-3.185-.29-4.099.002-7.302"/><path fill="#8067a8" fill-opacity=".961" d="M262.407 766.23c.224 3.646.307 4.502-.397 8.048l-.73-4.029.25-.866z"/><path fill="#8067a8" fill-opacity=".831" d="m734.655 218.787.549-2.26c.793 1.413.371 5.159.086 6.763z"/><path fill="#7a5da0" fill-opacity=".973" d="m204.499 997.355 1.997 1.336-1.247 3.709-.421-.1z"/><path fill="#868390" fill-opacity=".639" d="m183.463 261.271 1.162.542c.12 2.065.215 2.294-.437 4.2-.953-1.185-.713-3.107-.725-4.742"/><path fill="#8e76ae" fill-opacity=".761" d="M261.53 769.383a73 73 0 0 1-.711-5.917l.587.216 1.001 2.548z"/><path fill="#af9fbb" fill-opacity=".161" d="m726.22 861.278.519.803c-.015 3.199.048 6.729-.073 9.896-.721-2.33-.478-8.072-.446-10.699"/><path fill="#c3becc" fill-opacity=".18" d="M684.077 895.262c.663 3.693.567 6.649.572 10.365-.989-2.95-.682-7.23-.572-10.365"/><path fill="#49454a" fill-opacity=".71" d="M638.828 404.744c.059 2.267.311 4.359-.406 6.472-.741-1.255-.687-1.168-.812-2.629z"/><path fill="#868390" fill-opacity=".631" d="m183.505 966.27 1.128 4.303c.107 1.44.158 1.367-.295 2.723-.932-2.536-.805-4.363-.833-7.026"/><path fill="#49454a" fill-opacity=".929" d="M314.363 197.084c.133-1.169.222-3.719.802-4.463.538 2.116.487 2.733.451 4.934z"/><path fill="#8067a8" fill-opacity=".871" d="M797.221 345.664c-.412-2.196-.46-2.601-.271-4.822l.511.07.857 2.408z"/><path fill="#868390" fill-opacity=".588" d="m215.576 814.73 1.131 3.498c.052 1.143.036 1.06-.6 2.023-.772-1.963-.566-3.404-.531-5.521"/><path fill="#7a5da0" fill-opacity=".957" d="m660.805 859.406 1.582-.651c-.282 1.889-.373 2.146-1.083 3.934l-.392-.342z"/><path fill="#030303" fill-opacity=".984" d="m664.792 1069.98 3.574 1.21-4.05.67-.626-.09z"/><path fill="#030303" fill-opacity=".976" d="m724.665 639.493 1.967.856c-.257.735-.658 1.555-.982 2.277l-.547-.383z"/><path fill="#5d5b5f" fill-opacity=".502" d="m164.974 988.498 1.381 3.89-.028.925-.5.441c-.893-2.114-.777-3.009-.853-5.256"/><path fill="#5d5b5f" fill-opacity=".827" d="m648.384 890.064-1.307-2.57.249-.565c1.442 1.347 1.525 1.435 2.485 3.139z"/><path fill="#5d5b5f" fill-opacity=".573" d="m514.775 247.357 1.042 3.933c.126 1.006.232.558-.243 1.361-.909-1.968-.755-3.131-.799-5.294"/><path fill="#5d5b5f" fill-opacity=".882" d="m735.699 680.384.799-.063-.327 6.713c-.598-2.196-.46-4.356-.472-6.65"/><path fill="#303030" fill-opacity=".831" d="m345.311 707.045 1.606 1.148c.341 1.045.235 1.572.203 2.675-1.262-1.008-1.361-2.215-1.809-3.823"/><path fill="#868390" fill-opacity=".188" d="M558.247 793.652c.528 3.042.593 3.833.54 6.918-.994-2.272-.671-4.449-.54-6.918"/><path fill="#5d5b5f" fill-opacity=".635" d="m173.254 964.947 1.288.241c.1 1.469.16 1.398-.338 2.765-1.032-1.044-.711-1.145-.95-3.006"/><path fill="#49454a" fill-opacity=".722" d="m175.834 233.683-.187 4.238-.361.251c-.318-.657-.787-1.549-1.039-2.205z"/><path fill="#8e76ae" fill-opacity=".784" d="m239.386 957.469.584-.993c.658 1.405.398 2.63.104 4.301z"/><path fill="#868390" fill-opacity=".435" d="M158.492 967.734c.053 1.831.404 4.878-.405 6.337l-.642.134c.412-1.338.419-2.694.517-4.097z"/><path fill="#5d5b5f" fill-opacity=".675" d="M775.693 1035.44c2.009.2 2.239-.1 3.678.88-1.092.43-1.2.54-2.354.64z"/><path fill="#5d5b5f" fill-opacity=".478" d="m213.708 441.137 1.207 3.79-.381.738c-.842-1.389-.738-2.875-.826-4.528"/><path fill="#8067a8" fill-opacity=".867" d="m215.638 814.014 1.3.131-.231 4.083-1.131-3.498z"/><path fill="#8e76ae" fill-opacity=".455" d="M188.291 800.104c.523 3.254.611 4.151.472 7.433-.7-2.814-.537-4.547-.472-7.433"/><path fill="#303030" fill-opacity=".953" d="M332.186 1072.21c1.716-.39 3.937-.44 5.732-.55l.021.88z"/><path fill="#49454a" fill-opacity=".776" d="m727.437 670.841 1.164-.678c-.31 1.661-.118 2.189-1.056 3.3-.138-1.091-.26-1.529-.108-2.622"/><path fill="#262626" fill-opacity=".929" d="m158.65 966.131-.158 1.603-.53 2.374-.585-.138-.295-1.557z"/><path fill="#8e76ae" fill-opacity=".929" d="m229.044 213.831.614-1.516.536.062.754 3.057z"/><path fill="#af9fbb" fill-opacity=".322" d="m673.933 686.696-.183 6.339c-.562-2.524-.659-3.948.183-6.339"/><path fill="#8e76ae" fill-opacity=".796" d="M205.467 279.792c-.133 1.833.199 2.474-.798 3.355l-.414-.811z"/><path fill="#c3becc" fill-opacity=".361" d="M193.397 968.592c.179 2.121.114 2.416-.446 4.476-.086-2.006-.27-2.669.446-4.476"/><path fill="#5d5b5f" fill-opacity=".749" d="m157.377 969.97.585.138c-.098 1.403-.105 2.759-.517 4.097z"/><path fill="#5d5b5f" fill-opacity=".588" d="M710.845 873.022c.18-.622.698-1.488 1.019-2.094l.003 2.221-.682.124z"/><path fill="#868390" fill-opacity=".537" d="M329.686 1072.36c-.283-.52-.138-.16-.212-1.12l1.784-.09z"/></svg>