<svg xmlns="http://www.w3.org/2000/svg" width="1024" height="1024" viewBox="0 0 1024 1024"><path fill="#101323" d="m261.231 115.107 3.018.369c8.172 1.065 27.107.585 35.79.595l69.527-.026 264.401-.066 79.68-.077c13.294-.04 26.648-.053 39.942-.176 1.191-.012 1.305.009 2.236.658.445 1.053.645 1.058.554 2.149-.384 4.592-11.887 17.11-14.989 19.69 1.198 13.383 4.601 17.624 11.669 28.671 6.469-.187 38.135-.962 42.718.028 1.284 4.674.806 14.686.896 19.899q.503 22.15.522 44.305l.551 178.741.245 72.107c.009 6.493.44 27.908-.314 33.286 5.834 3.605 22.23 11.088 29.176 14.685-7.31 2.365-25.984 8.828-31.764 12.568 2.914 1.254 9.275 2.498 8.926 5.955-1.444 1.884-3.87 2.883-6.04 4.048-1.063 83.527-.153 168.332-.507 251.983l-.24 67.494c-.064 9.329-.032 18.697-.116 27.983-.016 1.773-.5 4.915-1.58 4.932-7.109.115-28.674-.061-34.456-.052l-158.951.245-8.689-.06c-6.328 7.846-13.926 16.096-19.774 23.857-1.933-6.088-2.46-13.066-5.653-18.701-6.075-10.723-21.539-16.351-32.299-9.214-9.259 6.142-11.99 18.165-14.271 28.316-6.415-6.247-14.797-16.929-22.083-24.269-19.309-.672-40.755-.078-60.312-.059l-105.699.128-39.102.437c-6.042.044-12.195.351-18.22-.003-2.089-.123-3.199-.597-4.931-1.735-5.39-3.543-32.12-33.025-36.041-39a41.6 41.6 0 0 1-6.173-14.737c6.364-15.36 13.898-11.065-.057-21.27-1.875-1.371 2.462-12.96 2.92-16.672 1.368-11.079 1.024-23.014.926-34.217.017-13.542 1.763-28.019-.937-41.464-.699-3.482-4.033-7.874-6.105-10.742 9.019-9.401 16.5-23.485 10.877-35.988-5.258-11.691-19.505-3.232-9.124-18.013 7.697-10.958 15.54-36.19 16.511-49.43-4.353-3.624-17.517-12.083-22.535-15.331l3.785-29.968c-3.961-4.666-10.739-10.192-12.66-15.227.662-2.763 22.323-24.297 25.686-27.767-6.042-6.475-15.542-16.132-20.43-22.943 8.576-8.519 15.383-15.529 23.385-24.593-6.102-7.044-22.801-20.706-30.54-27.958 2.978-3.793 11.95-13.124 15.428-16.707-.602-9.575-2.303-19.52-3.804-29.005 6.162-2.639 13.928-9.14 20.589-11.458-1.815-15.108-3.678-29.824-9.461-44.095-.755-1.861-9.2-14.902-9.003-16.295.172-1.211 6.927-4.732 8.727-6.31 3.553-3.112 6.487-6.828 7.993-11.532 4.263-13.025-6.672-21.524-12.194-31.934 1.504-2.872 5.76-9.945 6.063-12.863 2.417-23.948-.368-48.705-1.104-72.751-.398-13.027-7.402-14.493 6.652-20.82-2.396-4.587-5.708-9.04-8.693-13.303 4.216-28.593-1.942-44.407 29.458-56.298m235.528 56.513-196.358-.048c-.005 3.032-.079 10.298.353 13.168 1.358 7.599.31 24.399.148 32.9a761 761 0 0 0 .33 35.999c-1.142 1.836-2.625 4.078-3.593 5.962l5.966 4.537-2.206 243.629c8.266-3.562 17.721-7.965 26.284-10.452-12.599 9.045-40.894 24.234-55.365 31.25 9.391 2.471 18.777 5.895 27.892 9.253 4.295 1.582 11.353 3.846 15.341 5.715-7.591 2.017-13.578 3.175-21.22 4.781l32.523 25.148-.931.723c-11.469-6.547-37.015-20.812-45.442-29.456 4.529-.982 8.337-1.709 12.917-2.397-2.802-1.48-8.585-3.481-11.728-4.451-3.31 1.635-6.449 4.075-9.126 6.606 5.244 14.02 8.67 18.456 16.372 30.644-6.399 9.147-18.234 14.586-25.361 27.82-.076 16.02.308 34.286-1.981 50.108-.72 4.984-3.464 12.577-5.078 17.573 26.114-17.713 23.414-44.967 25.288-73.013.077-1.162.279-2.014 1.12-2.799.208 2.503-.122 4.332-.038 6.811a876 876 0 0 0 .97 18.402c.874 14.049 2.257 27.784 2.142 41.897-.063 7.759-4.206 14.949-4.603 20.126-.564 7.362-.361 18.348-.398 26.092l-.437 39.038c-.285 36.17.089 72.295-.231 108.428-.034 3.767.05 26.632-.288 28.79-1.032-7.997-1.231-17.825-1.319-25.959-.466-43.015.653-86.067-.575-129.085-.402-14.188-.713-28.271-.708-42.465-7.903 15.075-19.994 25.607-36.16 30.665l-1.991.615c-2.086 2.152-4.213 5.726-5.714 8.382 1.272 2.488 2.32 4.685 3.368 7.273.547 1.351 1.415 5.353 1.844 6.05.139 1.338.247 2.462.305 3.808-.103 2.495-.404 18.666.225 19.863-.106 5.093-.694 9.843-.671 15.031-.409 6.839.09 13.693-.334 20.574-.649 2.392-1.299 18.726-1.147 21.777.543 2.865.57 5.221 2.41 7.744 1.682 2.648 4.554 4.786 7.366 6.093l.838.438c2.985 1.736 2.947 3.116 5.75 4.804 1.081.651 1.351 3.991-.843 3.561l-.328.333c-1.56-.739-3.706-2.302-4.896-2.528-.483-.456-.963-.9-1.434-1.369-1.155-.338-1.256-.381-2.448-.459-3.89 2.523-6.468 7.87-7.724 12.207l.133.481.236.798c3.215 11.127 15.108 20.531 22.765 29.036 4.151 4.612 11.386 14.135 16.326 17.12 7.545.387 16.105.253 23.732.289q.79-44.644.719-89.294l-11.168-7.443a384 384 0 0 1 10.695-9.137c.86-23.837.286-229.879 1.706-231.441.636 5.144.538 19.877.634 25.715q.463 28.715.412 57.431l.563 150.93c-2.49 2.101-4.844 4.406-7.208 6.652 2.574 1.648 5.317 3.054 8.012 4.5a5663 5663 0 0 0-.733 92.074q95.936-1.218 191.879-.94c-5.647-5.918-9.719-10.66-14.186-17.454 10.122 8.021 23.255 22.764 32.002 32.416.303-9.274-.071-19.258.033-28.643l.26-100.004-.118-160.54c-2.488-2.496-4.653-5.362-6.853-8.123 9.429-5.268 25.636-12.993 32.965-20.121a295 295 0 0 1-17.295-.663c3.28-6.968 12.022-17.757 16.627-26.069l.002-17.157c-3.388-.09-7.003-.042-10.412-.058-7.259 9.674-14.497 20.802-21.622 30.023-3.498-3.341-6.357-5.5-10.178-8.387-5.809 5.546-17.415 14.329-24.018 19.756 8.733 17.345 16.729 35.208 25.555 52.54 4.148 8.147 7.64 16.505 11.993 24.607-7.045-4.709-21.836-19.263-28.67-25.5l-56.396-51.011a92 92 0 0 0 2.951-3.062c17.104-18.698 16.174-24.709 14.954-49.134-10.366 7.995-18.47 24.296-28.133 33.684-1.418-6.081-4.457-14.418-6.671-20.32-23.835-7.87-47.889-17.331-71.932-25.408 7.115-3.262 16.275-5.549 23.499-8.617 15.495-6.58 31.347-12.401 46.888-18.645 2.894-6.726 3.161-14.964 5.503-21.843 8.414 10.299 21.684 26.986 30.761 35.971.759-7.267.055-20.884-.129-28.49-3.577-6.335-12.202-16.752-16.978-22.638 7.173-8.401 20.493-20.262 28.585-28.572 17.872-18.357 36.024-35.958 54.858-53.329-11.256 25.404-23.925 56.515-37.109 80.823 4.404 4.43 18.877 15.419 24.274 19.387 4.158-3.037 8.26-5.963 12.209-9.279 4.855 8.914 13.63 21.928 19.382 30.435l10.6.283c.147-6.366-.004-13.283-.024-19.691-5.674-8.638-11.712-16.591-17.106-25.523 5.607-.096 10.507-.411 16.087-.822-7.806-3.955-23.802-14.239-31.122-19.73l7.336-7.704c-.51-9.575-.099-23.016-.076-32.855l.106-60.192V162.376c-5.168 5.063-29.553 27.261-34.041 29.789zm85.805 259.849c3.35 2.835 6.295 5.516 9.506 8.513-7.568 7.03-21.101 13.362-30.029 18.654-1.056.627-1.813 1.11-2.306 2.221 1.747.926 12.694.41 15.896.682-3.05 6.243-8.93 13.336-12.998 19.018-5.425 7.579-4.211 15.622-4.193 24.504l11.854-.067c6.098-10.486 12.448-20.138 18.662-30.45 3.73 2.368 9.705 7.782 13.256 10.818 7.331-5.691 16.487-13.512 23.273-19.935-3.789-9.338-8.23-19.13-12.606-28.235-8.245-17.154-15.391-35.468-23.968-52.386 14.785 13.052 28.95 27.672 42.884 41.613 13.147 13.153 27.318 25.562 39.463 39.714-19.604 25.033-17.59 19.991-16.902 50.549 9.758-10.726 19.976-25.782 29.797-35.611 1.369 5.862 3.808 15.291 4.56 21.114 10.949 4.773 24.284 9.198 35.726 13.482 11.638 4.357 24.308 9.844 35.872 13.84l-52.104 19.629c-5.933 2.303-14.78 5.456-20.426 8.046-2.684 6.218-4.361 12.656-6.739 18.872-5.665-8.447-20.208-24.642-27.117-32.79.061 35.099-1.468 23.135 17.596 50.922a4982 4982 0 0 0-50.313 47.413c-10.478 9.969-21.354 20.935-32.594 29.916a2670 2670 0 0 1 25.332-53.833c2.947-6.156 8.354-19.024 11.646-23.929-6.317-5.732-19.827-15.982-24.508-21.475-3.015 2.606-9.098 7.548-12.505 9.693-6.017-8.849-17.407-21.801-21.743-29.449l-9.426-.032.078 15.444c5.24 8.583 13.194 19.413 17.462 27.617-4.121-.183-11.73-.744-15.551-.196l.179 1.894c.346 3.974 1.723 3.585 5.896 5.695.112.057 1.989-1.272 2.161-1.379 6.977 3.813 17.305 10.356 23.863 14.75-3.492 3.36-5.656 5.686-8.795 9.383-.995 19.694-.121 46.199-.115 66.522l.016 144.25c-.037 24.491.61 53.155-.504 77.217 8.552-10.638 20.485-23.103 30.324-32.782-2.973 5.952-11.009 14.358-15.801 19.156l194.945-1.53.919-341.851c-6.154 3.237-12.308 6.741-18.468 10.015-3.504 1.861-9.555 4.853-12.596 7.011l.08-1.445c2.167-1.468 4.508-3.289 6.567-4.918 8.108-6.417 17.054-12.012 25.015-18.581-4.84-1.966-12.197-3.889-16.417-6.176 13.218-4.897 23.094-8.921 36.688-13.096-19.341-9.39-36.816-18.652-53.695-32.373 11.113 4.329 22.093 10.524 32.817 15.817.542-30.9-.048-63.579-.35-94.514l-.543-105.589-.423-92.642c-.108-13.815.326-34.246-.69-47.476-19.742-.93-43.685-.353-63.938-.561a6622 6622 0 0 0-129.105-.464c4.733 4.63 8.427 9.065 12.478 14.214l-1.124.111c-9.003-7.781-17.264-15.993-25.866-24.198.187 23.732-.373 47.439-.227 71.175.408 66.118-.821 132.373-.126 198.479M479.822 137.981c-10.13-.499-23.932-.112-34.372-.129l-80.119.285-42.914.022c-4.374 0-17.217-.247-20.98.268q-12.67-.201-25.343-.146c-3.73-.003-9.858-.82-12.552 1.484l-6.052 4.728c2.787 3.935 6.489 7.882 9.723 11.518 3.695.101 8.941.079 12.501.404-2.745.243-6.372-.066-8.733.936l.504 1.159c3.445 3.246 6.943 5.775 10.903 8.327 72.255-1.203 146.652-.344 219.047-.283 2.04-2.95 4.437-5.374 6.877-7.998l-65.133-.438c-4.783-.023-19.499-.776-23.222-.438l.125-1.082.421.008.536.277c.883.48 1.137.457 1.804-.27 29.363-.653 58.735-.86 88.105-.62 3.297-3.438 6.285-6.646 9.914-9.76l3.351 9.993c12.465-.247 26.156.384 38.714.749 3.015-.073 5.15-.066 7.79 1.279.522-2.784 2.451-8.676 3.32-11.62 1.152.247.712.377 1.591.03 6.06 7.712 10.549 12.851 17.41 19.863l112.635.082c5.618.059 21.586.551 25.904-.058 2.42-.019 4.208-.011 6.656-.142a209 209 0 0 0-5.632-6.498c-1.706-1.895-1.272.266-3.195-1.469l.216-.509c-1.563-.848-35.13-.736-39.319-.777l-64.516-1.211c-1.182-1.578 3.484-1.171 4.972-1.379q16.74-.342 33.484-.417c7.85-.005 16.898.261 24.649-.07 2.137.232 39.802.891 39.783.898.238-.517-.778-2.565-.953-2.997l-.255-1.074c-.379-.966-.599-1.961-.898-2.953l-.341-.775c-.732-3.705-1.24-6.333-.239-10.07-8.268.814-18.934.46-27.353.397a3559 3559 0 0 0-39.076-.129l-108.129.25c-23.377-.013-48.324-.563-71.609.355m-238.216 112.11c-.054 1.163-.073 2.057-.014 3.225-.255 6.737.226 13.476-.107 20.231-.114 2.311-.461 4.516-.429 6.78l-.275.781c.026.596-.159 2.684.496 2.957 1.07-.157 4.672-4.126 5.712-5.116l.31-.292c1.249-.694 3.919-3.632 5.261-4.88.985-.721 3.44-2.801 3.948-3.92 4.487-4.824 8.694-7.509 13.602-13.559-1.394-5.326-3.087-12.581-4.083-18.002a29 29 0 0 0-.494-2.708c-.54-2.434-1.163-6.622-2.263-8.704.891-4.281 4.316-5.772 6.817-9.034 2.627-2.507 5.551-5.332 8.031-7.95-3.681-4.259-9.809-10.71-14.029-14.416-.655-.95-5.172-5.237-6.215-6.154-3.627-3.641-7.414-7.422-10.824-11.239-1.991-1.744-2.724-3.407-5.046-1.991 1.476 1.817 2.386 3.473 3.737 5.4.736 1.821 2.005 4.092 2.867 6.038-2.539 1.727-3.692 2.435-6.472 3.706-.683.254-2.383.714-2.392 1.159-.264 12.291.486 47.918 1.862 57.688m9.481-53.948c1.192 1.007 3.248 2.725 4.481 3.503 3.584 3.019 7.421 5.515 10.735 8.727-1.34 1.531-2.406 2.904-3.817 4.443l-.666.663c-1.669 1.783-3.055 3.509-4.832 5.249-.504.57-.626.705-1.041 1.346a144 144 0 0 0-8.82 10.242c.017-4.96.277-9.803.252-14.757.087-4.32.019-8.124-.11-12.425.013-1.27-.266-8.567.483-9.083.818.043 2.652 1.573 3.335 2.092m-4.093 44.471a14 14 0 0 1 .833-1.67c.953-1.025 1.624-1.745 2.464-2.89 1.603-1.725 3.258-3.371 4.8-5.15l.408-.083.495.861c.4 2.187.72 4.382 1.159 6.563a124 124 0 0 0 1.006 4.475c.153.605.339 1.124.567 1.7 1.033 3.01 1.745 6.504 2.543 9.622-2.784 2.813-8.268 7.323-9.052 10.87-.1-.303-.141-.862-.475-1.039-.695.011-3.412 3.245-4.601 4.087-.659-1.128-.205-7.373-.252-9.127.209-6.239-.113-12.756.105-18.219m-2.73 526.028c.34-3.078.139-5.646.412-8.649a62 62 0 0 1 2.275 3.344c.17.268.444.671.774.761.05.014.15.016.199-.025.218-.188.33-.971.352-1.063.636 3.472 8.126 13.331 10.839 15.659.976 4.137-1.428 4.482-3.312 8.344a214 214 0 0 0-3.531 6.149c-2.072-3.204-6.168-8.189-7.173-11.429.048-5.539-.667-8.277-.835-13.091m-.161-242.464c-.88-2.405-1.003-2.146-2.482-4.219-1.241-1.256-3.721-2.232-1.787-3.939l.131-.376c-.93-.942-1.329-1.586-.414-2.788 1.173-.592 7.586-4.815 2.722-5.272-2.086.28-3.756 1.278-5.445-.251-2.284-2.068 5.161-6.033 2.597-6.887-.661.468-1.372-.086-2.563-.586a357 357 0 0 0-3.395 3.456c-1.441 1.491-6.79 6.317-7.496 8.397-.186.548 1.474 2.402 1.929 2.927 3.119 2.932 5.854 6.174 8.8 9.022 7.24 8.167 12.813 14.585 20.973 22.02 5.289-3.47 10.782-6.716 16.034-10.214l-1.838-.77c-4.82-1.993-7.397-3.659-11.961-5.974l-.842.36c-2.919 1.283-3.258 1.803-5.721.231-2.249 1.201-3.634-3.501-5.609-4.125l-.091.059c-.133.279-.127.366-.34.508-1.377-.667-1.638-.752-3.04-1.182zm167.576 27.421c1.288 4.401 2.895 10.538 4.615 14.642l21.1-28.666c7.045.14 14.194.217 21.228.445l-.074-13.455-17.849-.059c-4.753-6.575-11.28-13.868-16.457-20.305-2.786-3.466-8.047-10.491-10.722-13.241-1.434 4.539-2.683 11.205-3.671 16.013-11.899 4.169-23.07 9.102-34.688 13.879-6.709 2.758-16.826 7.135-23.801 8.665 14.353 5.125 29.088 9.503 43.317 15.259 5.036 2.037 12.386 4.344 17.002 6.823m-144.282-3.142c-3.744 3.567-8.407 6.766-12.615 9.836l-1.72-5.098c-2.863 1.802-6.249 3.818-8.894 5.849 2.285 7.935 2.788 13.247 3.761 21.371 3.396-2.541 14.923-10.925 18.465-11.47 1.696.656 1.15.098 1.874 1.534-.746 1.285-17.324 15.289-20.121 18.185-1.267 2.193-.511 19.871-.445 23.805 12.675-17.053 17.701-24.469 34.654-37.37-3.248-4.859-6.563-9.624-9.61-14.636-1.424-2.341-4.302-10.497-5.349-12.006m402.367-25.971c.006.46-2.167 8.103-2.437 8.514 2.12 3.372 4.518 7.73 6.64 10.903 3.865-2.018 18.135-10.95 21.72-13.457-7.845-4.043-14.895-8.984-22.075-12.714-.848 1.299-3.459 5.434-3.848 6.754"/><path fill="#304c72" d="M478.899 192.165c4.488-2.528 28.873-24.726 34.041-29.789v176.493l-.106 60.192c-.023 9.839-.434 23.28.076 32.855l-7.336 7.704c7.32 5.491 23.316 15.775 31.122 19.73-5.58.411-10.48.726-16.087.822 5.394 8.932 11.432 16.885 17.106 25.523.02 6.408.171 13.325.024 19.691l-10.6-.283c-5.752-8.507-14.527-21.521-19.382-30.435-3.949 3.316-8.051 6.242-12.209 9.279-5.397-3.968-19.87-14.957-24.274-19.387 13.184-24.308 25.853-55.419 37.109-80.823-18.834 17.371-36.986 34.972-54.858 53.329-8.092 8.31-21.412 20.171-28.585 28.572 4.776 5.886 13.401 16.303 16.978 22.638.184 7.606.888 21.223.129 28.49-9.077-8.985-22.347-25.672-30.761-35.971-2.342 6.879-2.609 15.117-5.503 21.843-15.541 6.244-31.393 12.065-46.888 18.645-7.224 3.068-16.384 5.355-23.499 8.617 24.043 8.077 48.097 17.538 71.932 25.408 2.214 5.902 5.253 14.239 6.671 20.32 9.663-9.388 17.767-25.689 28.133-33.684 1.22 24.425 2.15 30.436-14.954 49.134a92 92 0 0 1-2.951 3.062l56.396 51.011c6.834 6.237 21.625 20.791 28.67 25.5-4.353-8.102-7.845-16.46-11.993-24.607-8.826-17.332-16.822-35.195-25.555-52.54 6.603-5.427 18.209-14.21 24.018-19.756 3.821 2.887 6.68 5.046 10.178 8.387 7.125-9.221 14.363-20.349 21.622-30.023 3.409.016 7.024-.032 10.412.058l-.002 17.157c-4.605 8.312-13.347 19.101-16.627 26.069 5.757.39 11.525.611 17.295.663-7.329 7.128-23.536 14.853-32.965 20.121 2.2 2.761 4.365 5.627 6.853 8.123l.118 160.54-.26 100.004c-.104 9.385.27 19.369-.033 28.643-8.747-9.652-21.88-24.395-32.002-32.416 4.467 6.794 8.539 11.536 14.186 17.454q-95.943-.278-191.879.94-.008-46.04.733-92.074c-2.695-1.446-5.438-2.852-8.012-4.5 2.364-2.246 4.718-4.551 7.208-6.652l-.563-150.93q.051-28.716-.412-57.431c-.096-5.838.002-20.571-.634-25.715-1.42 1.562-.846 207.604-1.706 231.441a384 384 0 0 0-10.695 9.137l11.168 7.443q.07 44.65-.719 89.294c-7.627-.036-16.187.098-23.732-.289-4.94-2.985-12.175-12.508-16.326-17.12-7.657-8.505-19.55-17.909-22.765-29.036l-.236-.798-.133-.481c1.256-4.337 3.834-9.684 7.724-12.207 1.192.078 1.293.121 2.448.459l-.753.479c-1.567.952-2.36 1.272-.836 2.566 1.933-.16 1.97-.045 3.023-1.676 1.19.226 3.336 1.789 4.896 2.528.74 1.221 2.629 4.851 3.129 5.951 1.379 1.211 9.558 5.588 11.534 6.404.824.333 5.34 3.38 5.877 2.601 2.138-3.098-4.151-7.637-5.91-10.131-2.047-3.482-14.55-17.315-18.939-19.578.186.096-1.846-.036-1.667-.023.182-7.16-.429-16.098-.498-23.523-.163.355-.225.803-.658.9-1.191-.348-1.256-4.701-1.29-5.592.276-1.432-.338-4.01 1.02-4.368l.477-.144c.654.388 1.169.651 1.746 1.146.574 2.166 3.498 10.379 4.807 12.006 2.218 4.492 4.647 8.805 7.71 12.785 1.479 1.922 3.064 4.301 4.591 6.131 2.328 2.787 4.465 6.233 7.235 8.491.18.146.881.145.866-.276-4.134-7.83-9.49-27.411-14.422-33.567 1.119-.726-.538-2.929-1.076-3.981 1.474-2.639 2.911-5.313 4.219-8.038.936-2.014 1.833-3.685 2.733-5.765 1.13-1.485 2.41-5.207 3.206-7.028-.731-1.087-1.68-2.697-2.65-3.535-4.555-6.543-9.245-13.697-14.255-19.809-.215-.262-1.128.543-1.422.668l-.706.294c.645-1.008.768-1.987 1.756-2.069.087-.679-4.313-7.049-5.232-7.992-.586-1.039-4.444-8.354-5.752-5.984-.429-.697-1.297-4.699-1.844-6.05-1.048-2.588-2.096-4.785-3.368-7.273 1.501-2.656 3.628-6.23 5.714-8.382l1.991-.615c16.166-5.058 28.257-15.59 36.16-30.665-.005 14.194.306 28.277.708 42.465 1.228 43.018.109 86.07.575 129.085.088 8.134.287 17.962 1.319 25.959.338-2.158.254-25.023.288-28.79.32-36.133-.054-72.258.231-108.428l.437-39.038c.037-7.744-.166-18.73.398-26.092.397-5.177 4.54-12.367 4.603-20.126.115-14.113-1.268-27.848-2.142-41.897a876 876 0 0 1-.97-18.402c-.084-2.479.246-4.308.038-6.811-.841.785-1.043 1.637-1.12 2.799-1.874 28.046.826 55.3-25.288 73.013 1.614-4.996 4.358-12.589 5.078-17.573 2.289-15.822 1.905-34.088 1.981-50.108 7.127-13.234 18.962-18.673 25.361-27.82-7.702-12.188-11.128-16.624-16.372-30.644 2.677-2.531 5.816-4.971 9.126-6.606 3.143.97 8.926 2.971 11.728 4.451-4.58.688-8.388 1.415-12.917 2.397 8.427 8.644 33.973 22.909 45.442 29.456l.931-.723-32.523-25.148c7.642-1.606 13.629-2.764 21.22-4.781-3.988-1.869-11.046-4.133-15.341-5.715-9.115-3.358-18.501-6.782-27.892-9.253 14.471-7.016 42.766-22.205 55.365-31.25-8.563 2.487-18.018 6.89-26.284 10.452l2.206-243.629-5.966-4.537c.968-1.884 2.451-4.126 3.593-5.962a761 761 0 0 1-.33-35.999c.162-8.501 1.21-25.301-.148-32.9-.432-2.87-.358-10.136-.353-13.168l196.358.048zM360.473 846.229c-1.326.624-2.487 1.973-3.58 3.023-2.853 1.951-9.064 8.947-11.574 11.688 1.6 2.123 3.158 4.263 4.943 6.237.342.785.491.916 1.188 1.461.881 1.333 1.031 1.569 2.146 2.703l.069.422.47.393c1.228 1.501 2.491 2.873 3.789 4.312-6 .081-14.936.451-20.712.006-3.733-5.149-9.209-11.659-13.249-16.887 1.805-1.672 3.653-3.343 5.437-5.029 4.369-2.714 13.199-11.977 17.046-16.033.282-.298-1.34-1.831-1.516-2.011-1.003-.778-1.403-1.097-2.521-1.678-1.463-1.443-4.853-4.084-6.664-5.105l-.82-.89c-1.635-.93-2.442-1.6-3.937-2.687-.379-.332-.735-.652-1.128-.967l-4.071-3.215a671 671 0 0 0 .284-25.049c13.449 14.887 27.819 28.34 41.562 42.992-2.183 1.888-5.18 4.349-7.162 6.314m24.726 29.919c-5.187-.294-12.314-.105-17.644-.135-1.308-1.501-2.552-3.055-3.841-4.525l-.763-1.164c-1.363-1.593-2.925-3.516-4.364-4.971l-.248-.399c-1.002-1.204-.982-1.194-2.258-2.053-.058-.395-.248-1.127.043-1.408 5.306-5.138 11.989-11.553 17.371-16.375 8.033 8.428 23.188 23.733 31.851 30.829-6.774.22-13.412.048-20.147.201m-65.382-103.272c-.516-1.212-.913-2.458-1.499-3.642-3.65-1.004-2.703 1.725-4.243.899-.021 1.479-.027 2.94.261 4.396.502 15.214 1.237 31.317 2.269 46.542.073 1.076.785 1.499 1.515 2.306 3.124 3.572 5.538 6.514 9.302 9.584.554.918 1.109 1.33 1.883 2.082l.877.853a73 73 0 0 1 2.884 2.861l.563.374c-.773.761-1.656 1.448-2.207 2.394-2.009 1.501-7.7 6.574-9.554 8.411-1.6 1.504-3.131 2.937-4.776 4.39-1.744 1.644-4.248 3.686-5.636 5.639-.267.375.951 1.855 1.153 2.15l1.718 1.795c1.117 1.366 2.372 2.796 3.535 4.132 4.062 4.135 8.31 8.988 12.267 13.288.786.918 1.409 1.707 2.231 2.583 4.215-.117 13.253.033 16.846-.344q27.011.164 54.022.016c6.563-.014 21.297.384 27.047-.259l-.182-.514c-1.217-.5-1.257-.406-2.071-1.402-.192-.865-.648-3.218-1.149-3.669-2.175-1.961-11.671-3.92-14.522-4.652-8.336-10.072-21.034-22.329-30.492-31.498a2489 2489 0 0 1-36.946-36.071c-5.925-5.893-13.041-11.9-18.359-18.018-1.889-2.174-5.429-11.402-6.737-14.626m121.77 110.181c-.238-1.552-8.596-3.528-10.141-3.922.267 2.24-1.547 3.96 1.05 4.254 3.119.354 6.015-.084 9.091-.332"/><path fill="#eee5ca" d="M247.441 841.378c1.19.226 3.336 1.789 4.896 2.528.74 1.221 2.629 4.851 3.129 5.951-1.532-.782-10.008-5.797-11.048-6.803 1.933-.16 1.97-.045 3.023-1.676"/><path fill="#eee5ca" d="M243.915 800.915c.276-1.432-.338-4.01 1.02-4.368l.477-.144q.294 4.599.451 9.204c-.163.355-.225.803-.658.9-1.191-.348-1.256-4.701-1.29-5.592"/><path fill="#2d3959" d="M326.854 573.462c.313.228 1.199.91 1.381 1.006.452.238 2.444 1.687 2.471 2.138.072 1.191-3.677-1.661-3.707-1.681l-1.076-.74z"/><path fill="#f96735" d="M311.385 578.3c2.445 1.678 4.874 6.565 6.499 9.123 18.839 29.66.724 69.664 15.505 99.461 6.956 13.254 20.4 24.29 32.975 31.855 14.319 8.614 22.314 13.596 30.095 28.385.331-33.145-2.037-39.248-29.479-60.691-4.956-3.873-13.45-12.747-15.106-19.073-4.952-18.916-3.359-41.613-3.765-61.394 2.419 5.281 7.742 17.865 7.877 22.757.556 20.175-1.746 33.912 16.458 47.373 13.528 10.003 23.909 21.05 28.711 37.878 2.542 8.905 3.343 17.345 1.419 26.744-2.03 9.435-1.365 16.182 1.046 25.398.431 1.646.233 5.702 1.291 6.988 4.315 4.914 11.304 8.182 17.06 11.327 23.324 12.744 46.673 27.853 63.306 48.955 4.115 5.221 7.623 12.346 10.511 18.489 6.644 14.429 10.848 26.522 10.096 42.706-3.533-10.187-6.466-18.33-12.139-27.943-20.431-34.622-57.894-64.367-95.077-79.256-6.034-2.416-14.563-3.145-20.884-4.994-15.927-4.66-31.98-12.86-43.636-24.712-14.421-14.663-16.58-33.177-16.094-52.803 7.843 31.601 21.95 49.158 52.784 60.662 3.173 1.183 19.813 4.894 22.575 3.418.267-1.384.398-2.764.172-4.15-2.957-18.112-30.986-32.821-44.763-43.951-42.562-34.386-30.462-65.53-32.438-113.457-.433-10.511-3.45-18.468-4.962-28.572z"/><path fill="#f96735" d="M316.499 372.073c.534-23.139 4.393-45.433 22.037-61.974 13.754-12.892 33.738-17.626 50.936-23.695a254 254 0 0 0 18.405-7.53 246.4 246.4 0 0 0 55.427-35.232c12.74-10.563 27.956-27.569 34.564-42.935a102.6 102.6 0 0 0 5.125-15.616c.541-2.26.509-7.099 2.765-7.141 3.647 4.34-2.967 30.086-5.551 35.518-19.113 40.178-57.776 63.769-96.143 82.85a89 89 0 0 1-3.717 21.059c5.566 9.499 4.879 30.401 2.356 41.213-6.311 27.059-27.36 25.769-40.214 47.242-4.981 8.32-3.494 16.473-5.411 25.413-1.714 7.996-6.858 17.406-11.088 24.365 1.175-5.326 3.977-16.275 3.943-21.217-.131-19.169-6.216-24.709 10.012-39.75 23.718-21.984 38.804-27.344 37.494-62.841-.727-2.516-.238-2.446-2.156-4.176-14.416 25.811-49.87 33.362-63.205 60.112-7.513 15.07-3.737 39.068-4.981 55.794-1.216 16.342-5.665 34.973-16.357 47.826 2.51-11.567 4.104-18.837 5.102-30.715 2.413-28.697-3.622-55.862 11.535-81.911 8.068-13.866 19.132-24.088 31.666-33.715 18.36-14.102 32.128-19.943 35.01-45.194-5.565 2.455-15.681 5.19-21.499 6.85-23.95 6.832-39.338 20.244-47.957 43.715-2.36 5.77-5.781 16.758-8.098 21.685"/><path fill="#2d3959" d="M395.283 327.626c.887-1.673 1.397-3.009 2.123-4.72l.033 8.896c-.727-2.516-.238-2.446-2.156-4.176"/><path fill="#efe4ca" d="m329.171 185.175 67.978 1.213c15.504.238 32.223.204 47.66.914-5.358 3.188-25.849 11.5-32.052 11.144-26.036 27.073-55.94 54.661-81.925 82.065-2.046 2.157-14.824 30.326-15.659 34.052-.173.371-.379 1.04-.857 1.131-.617-.563-.236-2.393-.052-3.095l3.49-65.379c5.142-5.873 11.043-10.353 16.971-15.389-7.714-7.383-15.866-14.641-23.447-22.031 6.536-8.208 11.633-16.599 17.893-24.625"/><path fill="#c6c2c0" d="M315.173 314.563c-.173.371-.379 1.04-.857 1.131-.617-.563-.236-2.393-.052-3.095.328.655.609 1.296.909 1.964"/><path fill="#304c72" d="M337.347 193.137a749 749 0 0 1 20.763.11c-4.336 5.435-7.915 11.475-11.996 17.198 3.361 4.368 17.754 18.263 22.065 21.953-8.237 8.976-22.006 21.408-31.194 29.934-3.295 3.118-6.862 6.272-10.227 9.343-.369-7.058-.231-15.38-.28-22.533 6.65-6.292 14.378-12.831 21.294-18.929-4.402-4.578-18.808-17.098-23.904-21.093a419 419 0 0 0 13.479-15.983"/><path fill="#304c72" d="M366.958 194.046c13.547.297 27.078-.314 40.895.227l-20.372 19.557a288 288 0 0 1-12.993 11.869c-5.88-6.248-11.986-11.711-17.444-17.618 3.367-4.682 6.595-9.331 9.914-14.035"/><path fill="#efe4ca" d="M339.716 558.893c9.667 1.15 16.8 1.763 25.461 7.075 13.65 8.372 32.865 21.492 36.969 38.161 1.131 4.594.301 11.629 1.534 16.356.92 3.325 5.547 7.418 8.481 9.446 13.188 9.111 20.019 24.109 32.597 33.364 7.394 5.441 17.391 7.41 25.241 11.948 9.574 5.535 13.744 21.314 17.117 31.1 3.236 10.344 1.654 17.405-3.578 26.584-1.242 1.906-3.069 4.107-4.499 5.933 1.986-8.44 2.023-14.958.581-23.66-2.27-13.702-7.943-30.685-21.704-36.86-6.796-3.035-17.119-6.338-22.739-11.335-9.533-8.476-13.662-18.544-25.586-25.04-7.941-4.326-15.155-15.359-16.298-24.162-.495-3.816-.771-8.607-1.344-12.505-3.988-20.36-22.326-28.025-38.457-37.075-4.289-2.406-9.718-6.424-13.776-9.33"/><path fill="#eee5ca" fill-opacity=".969" d="M314.336 774.529c3.55 1.647 3.216 3.083 5.481-1.653 1.308 3.224 4.848 12.452 6.737 14.626 5.318 6.118 12.434 12.125 18.359 18.018a2489 2489 0 0 0 36.946 36.071c9.458 9.169 22.156 21.426 30.492 31.498 2.851.732 12.347 2.691 14.522 4.652.501.451.957 2.804 1.149 3.669.814.996.854.902 2.071 1.402l.182.514c-5.75.643-20.484.245-27.047.259q-27.011.148-54.022-.016c2.114-.601 10.62-2.203 12.781-1.628 5.364 1.426 10.832.822 5.391-4.595 4.979-.821 33.254 1.062 35.356-.514-.994-.536-13.812.334-17.535-.684 6.735-.153 13.373.019 20.147-.201-8.663-7.096-23.818-22.401-31.851-30.829-5.382 4.822-12.065 11.237-17.371 16.375-.291.281-.101 1.013-.043 1.408-1.898 1.615-3.031-2.269-1.203-3.534 3.229-2.235 14.648-9.438 9.618-14.267-.545-.523-3.5.894-4.023 1.129 1.982-1.965 4.979-4.426 7.162-6.314-13.743-14.652-28.113-28.105-41.562-42.992a671 671 0 0 1-.284 25.049l4.071 3.215c-4.087-.8-3.337-1.418-6.191 1.526-.861-.659-1.865-1.528-2.481-2.422-.51-.74-.468-.629-1.332-1.106l-.66-.288-.084-.06.015.033c.572-.717 2.151-1.297.535-2.467-3.022-2.186-1.441 2.126-1.542 2.974-.73-.807-1.442-1.23-1.515-2.306-1.032-15.225-1.767-31.328-2.269-46.542"/><path fill="#efe4ca" d="M478.432 330.419c1.179.796 2.084 1.685 2.989 2.8 10.894 13.501 5.994 28.108-.274 41.751-9.41 20.482-23.924 17.779-40.503 29.521-5.912 4.187-11.17 11.056-16.854 15.801-9.906 8.27-23.011 14.777-25.176 28.973-1.533 11.035-.351 15.888-6.489 26.108-9.348 15.563-30.881 27.097-47.971 31.409-2.803.847-6.106 1.32-9.022 1.836 12.616-10.078 30.238-15.648 42.258-29.044 11.002-12.263 8.794-20.563 13.203-35.487 1.871-6.334 7.407-13.259 11.865-17.993 3.356-3.564 9.311-6.722 12.256-9.594 9.35-9.512 15.369-16.796 27.757-22.681 9.02-4.284 23.053-8.255 30.57-14.145 7.094-15.013 6.123-33.327 5.391-49.255"/><path fill="#eee5ca" d="M435.725 684.389c2.415 2.693 4.626 40.876 10.851 48.819 8.971 11.446 18.637 12.282 30.153 19.617 9.342 5.951 18.155 17.105 22.81 26.91 9.247 19.479 8.728 33.915 2.216 53.556l-.858.291c1.961-13.908.425-24.143-3.991-37.604-4.118-12.549-10.88-23.877-21.337-32.097-12.691-9.976-37.148-13.788-43.252-30.345-4.309-11.688-1.506-38.027 3.408-49.147"/><path fill="#304c72" d="M326.073 796.923c13.449 14.887 27.819 28.34 41.562 42.992-2.183 1.888-5.18 4.349-7.162 6.314-1.326.624-2.487 1.973-3.58 3.023-2.853 1.951-9.064 8.947-11.574 11.688 1.6 2.123 3.158 4.263 4.943 6.237.342.785.491.916 1.188 1.461.881 1.333 1.031 1.569 2.146 2.703l.069.422.47.393c1.228 1.501 2.491 2.873 3.789 4.312-6 .081-14.936.451-20.712.006-3.733-5.149-9.209-11.659-13.249-16.887 1.805-1.672 3.653-3.343 5.437-5.029 4.369-2.714 13.199-11.977 17.046-16.033.282-.298-1.34-1.831-1.516-2.011-1.003-.778-1.403-1.097-2.521-1.678-1.463-1.443-4.853-4.084-6.664-5.105l-.82-.89c-1.635-.93-2.442-1.6-3.937-2.687-.379-.332-.735-.652-1.128-.967l-4.071-3.215a671 671 0 0 0 .284-25.049"/><path fill="#efe4ca" d="M503.523 233.361c11.706 15.464-7.327 61.27-20.978 72.58-11.948 9.899-26.946 14.936-36.424 28.549-8.023 11.523-4.723 37.301-9.504 46.653-3.06-8.141-4.075-25.079-3.58-33.693 1.501-26.142 26.443-35.25 43.562-48.333 16.739-12.793 25.433-44.854 26.924-65.756"/><path fill="#f96735" d="m470.886 200.475 1.006.348c2.126 10.635-34.695 24.766-42.441 29.181a68.2 68.2 0 0 0-15.579 12.103c-8.112 8.431-13.77 19.744-13.604 31.613-2.671 1.085-5.468 2.37-8.122 3.539l-.932.037c-.346-2.418 1.411-8.753 1.61-11.664.71-10.363 3.2-19.622 9.572-27.972 11.253-14.746 29.27-20.199 45.727-26.929 7.698-3.149 15.195-6.82 22.763-10.256"/><path fill="#f96735" d="M391.473 793.432c4.238 1.426 7.762 3.063 11.509 5.461-2.992 31.678 23.077 42.308 47.138 54.663 5.846 3.003 13.166 5.684 18.199 9.875a25.7 25.7 0 0 1 7.668 10.809c-6.872-3.936-9.949-8.326-18.585-11.787-14.523-5.821-28.856-6.413-41.91-15.452-12.618-8.737-21.292-21.305-23.162-36.765-.627-5.625.382-10.866-.857-16.804"/><path fill="#304c72" d="M356.081 862.901c-.058-.395-.248-1.127.043-1.408 5.306-5.138 11.989-11.553 17.371-16.375 8.033 8.428 23.188 23.733 31.851 30.829-6.774.22-13.412.048-20.147.201-5.187-.294-12.314-.105-17.644-.135-1.308-1.501-2.552-3.055-3.841-4.525l-.763-1.164c-1.363-1.593-2.925-3.516-4.364-4.971l-.248-.399c-1.002-1.204-.982-1.194-2.258-2.053"/><path fill="#eee5ca" fill-opacity=".863" d="m362.951 870.324.763 1.164c.091 4.755.937 3.677 3.664 5.858 5.441 5.417-.027 6.021-5.391 4.595-2.161-.575-10.667 1.027-12.781 1.628-3.593.377-12.631.227-16.846.344-.822-.876-1.445-1.665-2.231-2.583.469-2.691.11-2.541 2.388-3.05 2.595-.579-.975-2.996 4.695-1.806 5.776.445 14.712.075 20.712-.006-1.298-1.439-2.561-2.811-3.789-4.312 5.939-1.519 3.349 3.172 5.531 3.961-.824.156 2.931-1.908 2.573-1.538.85-.877.611-3.03.712-4.255"/><path fill="#efe4ca" fill-opacity=".949" d="M317.092 854.326c1.869 4.943 7.435.074 12.308.232-1.784 1.686-3.632 3.357-5.437 5.029 4.04 5.228 9.516 11.738 13.249 16.887-5.67-1.19-2.1 1.227-4.695 1.806-2.278.509-1.919.359-2.388 3.05-3.957-4.3-8.205-9.153-12.267-13.288 5.958-1.721-2.097-4.178-1.299-8.303.437-2.255-1.279-3.026-2.913-.151q-.53 1.26-1.041 2.527c-.202-.295-1.42-1.775-1.153-2.15 1.388-1.953 3.892-3.995 5.636-5.639"/><path fill="#eee5ca" fill-opacity=".737" d="M335.745 829.731c1.811 1.021 5.201 3.662 6.664 5.105-.745-.182-7.207-3.637-5.136.396.317.618 2.74 1.666 2.69 3.277.301.998 1.404 1.472 2.249 1.923-1.02.68-.985.283-1.94.739-3.955 1.887-4.593 7.851-9.047 9.781-.201.092-1.359 1.04-1.519 1.169l-.316.25c-4.623.419-7.653 2.704-7.522-2.435 1.854-1.837 7.545-6.91 9.554-8.411-1.699 6.246-14.952 11.761-4.668 9.41 2.874-.656 11.485-5.922 8.167-8.618l-.143.062c-2.529 5.827-.862-2.501-1.149-3.248l-.563-.374.305-.431c3.237-4.496 2.064-8.558-3.189-2.43l-.877-.853c1.235-1.056 1.564-2.105 3.207-2.63 1.714-.548 2.477-1.062 3.233-2.682"/><path fill="#eee5ca" fill-opacity=".784" d="M360.473 846.229c.523-.235 3.478-1.652 4.023-1.129 5.03 4.829-6.389 12.032-9.618 14.267-1.828 1.265-.695 5.149 1.203 3.534 1.276.859 1.256.849 2.258 2.053-4.01 1.485-4.295 1.973-7.24-.717-2.116-8.834 14.346-11.889 9.724-14.724-.622-1.051-2.774-.349-3.93-.261 1.093-1.05 2.254-2.399 3.58-3.023"/><path fill="#eee5ca" fill-opacity=".753" d="M356.893 849.252c1.156-.088 3.308-.79 3.93.261 4.622 2.835-11.84 5.89-9.724 14.724l.103.641c.228 1.246-.067 1.419-.94 2.299-1.785-1.974-3.343-4.114-4.943-6.237 2.51-2.741 8.721-9.737 11.574-11.688"/><path fill="#efe4ca" fill-opacity=".796" d="M344.93 836.514c.176.18 1.798 1.713 1.516 2.011-3.847 4.056-12.677 13.319-17.046 16.033-4.873-.158-10.439 4.711-12.308-.232 1.645-1.453 3.176-2.886 4.776-4.39-.131 5.139 2.899 2.854 7.522 2.435l.316-.25c.16-.129 1.318-1.077 1.519-1.169 4.454-1.93 5.092-7.894 9.047-9.781.955-.456.92-.059 1.94-.739 2.194-1.625 1.966-1.395 2.718-3.918"/><path fill="#eee5ca" fill-opacity=".682" d="M333.629 839.131c.287.747-1.38 9.075 1.149 3.248l.143-.062c3.318 2.696-5.293 7.962-8.167 8.618-10.284 2.351 2.969-3.164 4.668-9.41.551-.946 1.434-1.633 2.207-2.394"/><path fill="#efe4ca" fill-opacity=".98" d="M363.714 871.488c1.289 1.47 2.533 3.024 3.841 4.525 5.33.03 12.457-.159 17.644.135 3.723 1.018 16.541.148 17.535.684-2.102 1.576-30.377-.307-35.356.514-2.727-2.181-3.573-1.103-3.664-5.858"/><path fill="#eee5ca" fill-opacity=".843" d="M358.587 865.353c1.439 1.455 3.001 3.378 4.364 4.971-.101 1.225.138 3.378-.712 4.255.358-.37-3.397 1.694-2.573 1.538-2.182-.789.408-5.48-5.531-3.961l-.47-.393c2.538-1.103 4.348-2.549 4.786-5.595z"/><path fill="#eadcbd" fill-opacity=".549" d="M323.669 826.713c2.854-2.944 2.104-2.326 6.191-1.526.393.315.749.635 1.128.967-.673.077-2.979-.022-3.113.304-.948 2.293 2.188 6.174 4.888 4.956.626-.283 1.649-1.954 2.162-2.573l.82.89c-.756 1.62-1.519 2.134-3.233 2.682-1.643.525-1.972 1.574-3.207 2.63-.774-.752-1.329-1.164-1.883-2.082-.951-1.73-2.653-4.61-3.753-6.248"/><path fill="#eadcbd" fill-opacity=".902" d="M318.318 769.234c.586 1.184.983 2.43 1.499 3.642-2.265 4.736-1.931 3.3-5.481 1.653-.288-1.456-.282-2.917-.261-4.396 1.54.826.593-1.903 4.243-.899"/><path fill="#eee5ca" fill-opacity=".631" d="M342.212 840.432c-.845-.451-1.948-.925-2.249-1.923.05-1.611-2.373-2.659-2.69-3.277-2.071-4.033 4.391-.578 5.136-.396 1.118.581 1.518.9 2.521 1.678-.752 2.523-.524 2.293-2.718 3.918m.96-1.903a1.604 1.604 0 0 0-.806-2.793 1.606 1.606 0 1 0 .806 2.793"/><path fill="#eee5ca" fill-opacity=".529" d="M340.785 836.418c.35-.515.967-.781 1.581-.682a1.604 1.604 0 0 1 .806 2.793 1.606 1.606 0 0 1-2.387-2.111"/><path fill="#eee5ca" fill-opacity=".761" d="M351.099 864.237c2.945 2.69 3.23 2.202 7.24.717l.248.399-.136.815c-.438 3.046-2.248 4.492-4.786 5.595l-.069-.422c2.146-2.466.099-2.762-2.146-2.703-.697-.545-.846-.676-1.188-1.461.873-.88 1.168-1.053.94-2.299z"/><path fill="#eadcbd" fill-opacity=".016" d="M431.446 879.135c1.545.394 9.903 2.37 10.141 3.922-3.076.248-5.972.686-9.091.332-2.597-.294-.783-2.014-1.05-4.254"/><path fill="#eee5ca" fill-opacity=".878" d="M313.65 859.588c1.634-2.875 3.35-2.104 2.913.151-.798 4.125 7.257 6.582 1.299 8.303-1.163-1.336-2.418-2.766-3.535-4.132.745-1.403 1.678-3.785-.677-4.322"/><path fill="#eadcbd" d="M313.936 765.14c-.175-1.099-.827-7.249-.207-7.702.305.524.54 1.084.613 1.7a224 224 0 0 1 3.976 10.096c-3.65-1.004-2.703 1.725-4.243.899-.067-1.683-.154-3.308-.139-4.993"/><path fill="#c6c2c0" d="M313.936 765.14c-.175-1.099-.827-7.249-.207-7.702.305.524.54 1.084.613 1.7-.247 2.105-.237 3.904-.406 6.002"/><path fill="#eadcbd" fill-opacity=".439" d="M330.988 826.154c1.495 1.087 2.302 1.757 3.937 2.687-.513.619-1.536 2.29-2.162 2.573-2.7 1.218-5.836-2.663-4.888-4.956.134-.326 2.44-.227 3.113-.304"/><path fill="#efe4ca" fill-opacity=".957" d="M318.12 823.377c.101-.848-1.48-5.16 1.542-2.974 1.616 1.17.037 1.75-.535 2.467l-.015-.033.084.06.66.288c.864.477.822.366 1.332 1.106.616.894 1.62 1.763 2.481 2.422 1.1 1.638 2.802 4.518 3.753 6.248-3.764-3.07-6.178-6.012-9.302-9.584"/><path fill="#eee5ca" fill-opacity=".855" d="M330.182 835.896c5.253-6.128 6.426-2.066 3.189 2.43l-.305.431a73 73 0 0 0-2.884-2.861"/><path fill="#eee5ca" fill-opacity=".769" d="M313.65 859.588c2.355.537 1.422 2.919.677 4.322l-1.718-1.795q.512-1.267 1.041-2.527"/><path fill="#eee5ca" fill-opacity=".678" d="M351.45 868.638c2.245-.059 4.292.237 2.146 2.703-1.115-1.134-1.265-1.37-2.146-2.703"/><path fill="#304c72" d="M582.917 161.815c8.602 8.205 16.863 16.417 25.866 24.198l1.124-.111c-4.051-5.149-7.745-9.584-12.478-14.214a6622 6622 0 0 1 129.105.464c20.253.208 44.196-.369 63.938.561 1.016 13.23.582 33.661.69 47.476l.423 92.642.543 105.589c.302 30.935.892 63.614.35 94.514-10.724-5.293-21.704-11.488-32.817-15.817 16.879 13.721 34.354 22.983 53.695 32.373-13.594 4.175-23.47 8.199-36.688 13.096 4.22 2.287 11.577 4.21 16.417 6.176-7.961 6.569-16.907 12.164-25.015 18.581-2.059 1.629-4.4 3.45-6.567 4.918l-.08 1.445c3.041-2.158 9.092-5.15 12.596-7.011 6.16-3.274 12.314-6.778 18.468-10.015l-.919 341.851-194.945 1.53c4.792-4.798 12.828-13.204 15.801-19.156-9.839 9.679-21.772 22.144-30.324 32.782 1.114-24.062.467-52.726.504-77.217l-.016-144.25c-.006-20.323-.88-46.828.115-66.522 3.139-3.697 5.303-6.023 8.795-9.383-6.558-4.394-16.886-10.937-23.863-14.75-.172.107-2.049 1.436-2.161 1.379-4.173-2.11-5.55-1.721-5.896-5.695l-.179-1.894c3.821-.548 11.43.013 15.551.196-4.268-8.204-12.222-19.034-17.462-27.617l-.078-15.444 9.426.032c4.336 7.648 15.726 20.6 21.743 29.449 3.407-2.145 9.49-7.087 12.505-9.693 4.681 5.493 18.191 15.743 24.508 21.475-3.292 4.905-8.699 17.773-11.646 23.929a2670 2670 0 0 0-25.332 53.833c11.24-8.981 22.116-19.947 32.594-29.916a4982 4982 0 0 1 50.313-47.413c-19.064-27.787-17.535-15.823-17.596-50.922 6.909 8.148 21.452 24.343 27.117 32.79 2.378-6.216 4.055-12.654 6.739-18.872 5.646-2.59 14.493-5.743 20.426-8.046l52.104-19.629c-11.564-3.996-24.234-9.483-35.872-13.84-11.442-4.284-24.777-8.709-35.726-13.482-.752-5.823-3.191-15.252-4.56-21.114-9.821 9.829-20.039 24.885-29.797 35.611-.688-30.558-2.702-25.516 16.902-50.549-12.145-14.152-26.316-26.561-39.463-39.714-13.934-13.941-28.099-28.561-42.884-41.613 8.577 16.918 15.723 35.232 23.968 52.386 4.376 9.105 8.817 18.897 12.606 28.235-6.786 6.423-15.942 14.244-23.273 19.935-3.551-3.036-9.526-8.45-13.256-10.818-6.214 10.312-12.564 19.964-18.662 30.45l-11.854.067c-.018-8.882-1.232-16.925 4.193-24.504 4.068-5.682 9.948-12.775 12.998-19.018-3.202-.272-14.149.244-15.896-.682.493-1.111 1.25-1.594 2.306-2.221 8.928-5.292 22.461-11.624 30.029-18.654-3.211-2.997-6.156-5.678-9.506-8.513-.695-66.106.534-132.361.126-198.479-.146-23.736.414-47.443.227-71.175m87.937 723.023c13.454.192 27.861-.135 41.364-.376 3.415.308 7.828.125 11.309.085 12.464-.141 24.938.146 37.394-.018 1.207-.016 2.58-1.936 3.334-2.828 4.355-3.214 15.432-18.185 20.43-23.353-5.572-5.602-16.119-13.831-22.514-19.077 4.918-4.986 13.078-12.867 17.026-18.366.011-16.542.696-33.031.773-49.466.154-1.332.214-2.474.29-3.804-1.514.774-1.494 1.237-3.17 1.018-3.028 5.546-7.197 16.716-10.428 20.705-4.536 5.6-12.78 13.404-18.116 18.681l-32.197 31.815-22.931 22.624c-3.462 3.405-7.126 7.274-10.826 10.414-2.999 2.546-11.228 3.924-13.925 5.477-1.387 1.146-1.703 1.22-3.438 1.823l-.022.057.009-.056.894.469c.266.888-4.596 1.651-4.95 2.356.073 1.001 2.321-.048 3.138.466l.003.067-.029.021c1.855.545 5.219-.055 6.582 1.266m107.977-637.515c-1.623-2.135-3.269-3.819-5.097-5.765a104 104 0 0 0-1.063-1.141q-.525-.347-1.043-.705c-1.533-1.417-2.614-2.46-4.305-3.705-1.763-1.642-3.535-3.108-5.376-4.653 3.451-2.331 19.785-19.2 22.704-22.874-1.604-2.565-3.073-4.545-4.942-6.899-3.088-4.49-9.11-11.579-12.671-16.054-3.166.034-5.633.111-8.79.375-20.182.052-40.79.72-61.004.945-4.415.049-23.975.103-27.4.638-4.808 1.775-9.606-.127-15.927.973l.744.39c4.876 2.531 26.298 10.841 28.214 12.407 6.616 5.41 19.538 19.08 26.331 25.783l35.27 34.968c5.666 5.562 14.039 13.184 19.226 18.833l.562.675c2.536 2.924 4.154 6.486 6.172 9.761 1.006 1.804 1.445 3.295 3.014 4.234 1.193-.915 1.161-1.431 1.83-2.949 1.551-1.007 2.308-.662 3.798.514l-.759.535c-.967.673-4.057 1.233-4.079 2.46-.058 3.378 5.834 13.364 7.227 15.986-.1-4.989-.439-9.663-.707-14.61.315-2.576-.111-10.894-.206-13.845a1597 1597 0 0 0-1.723-36.277m-9.903 25.021c-7.756-7.059-16.389-16.549-23.959-24.071-4.153-4.127-13.799-13.19-17.132-17.372 2.581-3.241 17.723-18.283 20.961-21.351-3.122-5.262-6.88-10.573-9.466-16.083l20.403-.062c1.381 1.752 2.926 3.395 4.426 5.051 2.276 2.84 5.398 6.294 7.39 9.135-7.655 7.566-15.665 14.551-23.256 21.962l4.628 4.461c1.814 1.757 6.331 6.24 8.033 7.608 3.028 3.272 7.135 5.84 7.884 10.171-.364 1.769.059 17.486.088 20.551m-14.041 238.547a85 85 0 0 1 2.764-1.247c-5.186-2.247-9.469-7.308-14.176-9.95-11.705-6.472-26.232-11.159-31.552-24.784-3.284-8.411-1.245-17.544-3.919-26.196-3.603-11.658-13.951-19.484-22.611-27.548-8.549-7.406-15.446-17.158-24.587-23.825-6.686-4.876-14.815-8.221-21.861-12.676-20.632-13.044-23.414-33.408-22.347-55.662-17.623 12.141-7.52 37.062 1.695 51.213 9.91 15.218 20.926 12.712 34.254 21.19 6.863 4.364 14.316 17.005 20.366 22.704 4.945 5.696 16.68 13.879 20.558 19.587 10.313 15.181.697 30.299 17.84 44.749 14.422 12.158 24.926 18.408 43.576 22.445"/><path fill="#181c32" d="M567.635 601.565c-.172.107-2.049 1.436-2.161 1.379-4.173-2.11-5.55-1.721-5.896-5.695l-.179-1.894.293.82c.594 1.883 5.858 3.926 7.943 5.39"/><path fill="#2d3959" d="m761.503 572.261-.08 1.445c-4.287 1.751-1.995-.235.08-1.445"/><path fill="#2d3959" d="m608.783 186.013 1.124-.111c2.153 2.301.018 1.996-1.124.111"/><path fill="#f96735" d="M783.008 573.448c.077 31.688-.711 64.717-6.22 95.983-3.661 20.777-12.003 33.403-26.161 48.67-17.026 18.36-46.49 23.117-47.206 52.227 21.934-6.821 54.165-15.693 64.953-37.21 5.528-11.025 6.472-19.472 7.377-31.528.823-1.056.608-1.452 1.813-1.187 10.529 71.667-43.237 70.707-92.182 93.668-36.682 17.209-73.939 49.692-90.9 86.576-.947 2.01-5.189 12.487-5.737 13.261-2.436-2.055-.462-12.261.079-15.281 10.656-59.483 59.054-81.296 107.055-105.974-2.732-10.075.144-10.304.367-19.741.055-2.329-2.564-12.431-3.06-15.676-2.37-15.513-1.73-24.799 5.096-38.345 7.844-15.567 31.047-21.355 36.043-32.835 10.044-23.082-.011-34.452 16.717-59.022l-.093.772c-.976 8.436-.829 26.565-.879 35.624-.117 21.01-2.597 27.45-19.131 41.385-12.456 10.499-31.115 20.297-32.775 37.988-.624 6.643.73 13.534 1.932 19.933 12.544-16.487 37.955-23.039 51.253-43.04 25.324-38.088 13.443-86.026 31.659-126.248"/><defs><linearGradient id="a" x1="773.131" x2="704.132" y1="871.593" y2="822.221" gradientUnits="userSpaceOnUse"><stop offset="0" stop-color="#ede4cb" stop-opacity=".941"/><stop offset="1" stop-color="#f3e8cf"/></linearGradient></defs><path fill="url(#a)" d="M777.09 768.653c-.348 3.099-5.136 13.564.414 11.105.149-.066 1.316-6.387 2.466-8.319-.077 16.435-.762 32.924-.773 49.466-3.948 5.499-12.108 13.38-17.026 18.366 6.395 5.246 16.942 13.475 22.514 19.077-4.998 5.168-16.075 20.139-20.43 23.353l-.727-.221q-.202.129-.403.256c-.846.524-1.622.987-2.597 1.238-5.899 1.514-47.109-.132-48.31 1.488-13.503.241-27.91.568-41.364.376-1.363-1.321-4.727-.721-6.582-1.266l.029-.021-.003-.067c-.817-.514-3.065.535-3.138-.466.354-.705 5.216-1.468 4.95-2.356l-.894-.469-.009.056.022-.057c1.735-.603 2.051-.677 3.438-1.823 2.697-1.553 10.926-2.931 13.925-5.477 3.7-3.14 7.364-7.009 10.826-10.414l22.931-22.624 32.197-31.815c5.336-5.277 13.58-13.081 18.116-18.681 3.231-3.989 7.4-15.159 10.428-20.705"/><path fill="#304c72" d="M770.353 795.909c.778 4.067-.371 15.589.052 20.875-7.209 7.762-14.18 14.388-21.534 21.887 6.031 4.762 16.874 14.451 22.377 19.769-4.601 6.473-9.467 12.349-13.968 19.029l-15.405-.04c-1.493.035-1.883.233-3.171-.317 4.093-5.491 6.116-8.709 9.111-14.858-5.416-5.355-14.099-16.367-19.638-22.568 6.624-6.657 12.965-13.754 19.54-20.47 7.602-7.766 15.198-15.373 22.636-23.307"/><path fill="#304c72" d="M721.43 845.346c1.452.983 6.791 6.801 8.325 8.39 3.314 3.434 5.432 5.142 9.042 8.097-3.239 4.705-8.674 11.122-12.461 15.654-5.949-.152-11.384-.14-17.388-.42l-18.6-.322c10.583-10.153 20.652-21.053 31.082-31.399"/><path fill="#eee5ca" fill-opacity=".961" d="M669.844 187.485c3.425-.535 22.985-.589 27.4-.638 20.214-.225 40.822-.893 61.004-.945 1.042.065 4.329.061 4.853.587-2.648 1.465-3.753 1.44-6.797 1.922 5.05 1.215 9.09-3.675 11.287.391 1.089 2.016 2.722 3.574 2.846 5.747-1.151 1.815-2.37 2.06-4.443 3.205-1.297-.872-1.583-1.772-2.465-3.204l-.275.191c.155 1.855.29 2.011.907 3.715-1.5-1.656-3.045-3.299-4.426-5.051l-20.403.062c2.586 5.51 6.344 10.821 9.466 16.083-3.238 3.068-18.38 18.11-20.961 21.351 3.333 4.182 12.979 13.245 17.132 17.372 7.57 7.522 16.203 17.012 23.959 24.071-.029-3.065-.452-18.782-.088-20.551 2.207 1.213 2.381-1.489.976-.394-.195-1.067-1.275-4.579-.84-4.88 3.068-2.116 3.719.258 4.758-4.961 1.828 1.946 3.474 3.63 5.097 5.765a1597 1597 0 0 1 1.723 36.277c.095 2.951.521 11.269.206 13.845-1.062-2.011-1.256-2.11-1.682-4.371-1.49-1.176-2.247-1.521-3.798-.514-.669 1.518-.637 2.034-1.83 2.949-1.569-.939-2.008-2.43-3.014-4.234 2.811-1.49 2.467-2.288 2.171-5.733-.313-.809-.973-.188-1.133-.131-1.845.67-.197 2.77-1.498 3.132-.605-.322-.487-1.154-.8-1.696-.411-.711-.348-1.681-1.037-2.228-.226-.179-.964-.383-.837-.857.136-.448.741-.709 1.074-.975.202-.162.474-.179.666-.359.229-2.324-2.811-6.599-5.34-1.589-5.187-5.649-13.56-13.271-19.226-18.833l-35.27-34.968c-6.793-6.703-19.715-20.373-26.331-25.783-1.916-1.566-23.338-9.876-28.214-12.407l-.744-.39c6.321-1.1 11.119.802 15.927-.973"/><path fill="#304c72" d="M689.084 193.191c9.054-.603 25.388-.383 34.695-.215 4.319 4.67 9.477 10.493 13.121 15.688-2.263 2.49-4.527 4.69-6.953 7.02-2.815 2.412-5.421 5.124-8.496 7.216l-.736.519c-3.96-3.364-29.809-27.385-31.631-30.228"/><path fill="#f96735" d="M693.985 302.699c8.373.33 7.436 2.726 11.282 9.726 5.174 9.418 12.344 15.581 20.124 22.647l22.131 20.034c9.022 8.199 18.139 16.783 24.015 27.619 12.91 23.803 10.183 77.458 11.557 106.141-9.872-19.081-11.42-56.139-13.724-77.55-3.467-32.221-16.568-39.485-40.442-57.891-12.095-9.351-25.861-18.778-30.882-33.514-.158 8.961 1.26 18.545 1.203 27.797-.196 31.549 45.945 35.222 47.129 67.891.49 13.487 1.021 26.991 1.56 40.393a122.6 122.6 0 0 1-8.02-22.887c-2.35-9.83-4.358-25.096-9.663-33.307-10.156-15.721-26.055-16.471-34.724-35.26-7.052-15.285-5.559-34.549.192-49.975-1.836-5.097-1.921-6.492-1.738-11.864"/><path fill="#f96735" d="M775.079 358.773c-2.925-12.667-6.403-17.082-14.469-27.26-19.384-24.456-49.571-26.886-75.143-41.446-4.189-2.384-9.265-4.315-13.413-6.721-38.179-22.143-81.602-52.47-83.995-100.985-.081-1.645.152-2.665 1.329-3.763 1.019.424 1.918 1.144 2.287 2.211 7.617 21.991 17.707 39.584 35.319 55.424 17.205 15.474 36.223 30.528 57.519 40.363 25.484 11.797 53.624 18.639 75.566 37.085 10.525 8.847 16.149 21.964 17.1 35.446-.071 2.989 1.572 9.598-2.1 9.646"/><path fill="#eee5ca" d="M756.133 554.675c1.158-.185 1.031-.122 2.229-.04l-.051.529c-8.297 8.248-24.251 13.606-34.233 20.153-15.043 9.867-13.216 23.771-16.369 39.317-4.374 21.564-14.132 20.035-28.335 31.429-5.696 4.57-12.908 15.515-19.092 21.061-8.862 7.948-17.858 11.954-27.906 18.284-14.827 9.34-15.861 23.483-16.06 39.584-.041 3.35 1.396 8.491.742 11.757l-.595.111-1.359-1.49c-8.651-11.4-8.965-19.646-6.512-33.45 4.051-22.795 25.026-27.835 41.627-39.235 6.652-4.568 11.68-13.369 17.649-18.864 7.532-7.533 17.785-14.009 24.262-22.377 8.736-11.556 4.048-28.297 13.341-39.453 11.911-14.298 32.509-24.582 50.662-27.316"/><path fill="#efe4ca" fill-opacity=".961" d="M754.887 510.891c-18.65-4.037-29.154-10.287-43.576-22.445-17.143-14.45-7.527-29.568-17.84-44.749-3.878-5.708-15.613-13.891-20.558-19.587-6.05-5.699-13.503-18.34-20.366-22.704-13.328-8.478-24.344-5.972-34.254-21.19-9.215-14.151-19.318-39.072-1.695-51.213-1.067 22.254 1.715 42.618 22.347 55.662 7.046 4.455 15.175 7.8 21.861 12.676 9.141 6.667 16.038 16.419 24.587 23.825 8.66 8.064 19.008 15.89 22.611 27.548 2.674 8.652.635 17.785 3.919 26.196 5.32 13.625 19.847 18.312 31.552 24.784 4.707 2.642 8.99 7.703 14.176 9.95q-1.393.599-2.764 1.247"/><path fill="#eee5ca" d="M593.227 232.369c1.099 1.483 2.355 13.534 3.156 16.328 3.023 10.553 10.939 33.718 17.363 42.045 11.764 15.25 39.513 21.018 50.083 40.199 6.724 12.203.155 30.083-3.682 42.958a45 45 0 0 1-1.121 2.721l-.758.122c-1.215-1.706-1.345-3.846-1.903-5.896-1.107-4.068-1.387-7.66-1.781-11.82-.698-7.37.664-16.973-3.141-23.451-3.013-5.131-9.125-9.597-13.835-13.012-18.178-13.184-30.214-18.753-39.985-40.208a91.4 91.4 0 0 1-6.597-19.756c-1.869-9.209-3.237-21.995 2.201-30.23"/><path fill="#f96735" d="M707.97 791.93c1.881.145 1.188-.254 2.287.969 1.838 8.061.035 10.901-2.257 17.865-9.081 27.585-27.71 37.255-53.156 47.476-10.013 4.022-24.207 11.024-33.601 17.328l-1.618.743-.298-.51c8.274-20.648 31.078-26.69 47.949-37.453 14.502-9.252 26.859-24.453 30.539-41.51 3.301-1.756 6.764-3.324 10.155-4.908"/><path fill="#304c72" d="m739.332 193.467 20.403-.062c1.381 1.752 2.926 3.395 4.426 5.051 2.276 2.84 5.398 6.294 7.39 9.135-7.655 7.566-15.665 14.551-23.256 21.962l4.628 4.461c1.814 1.757 6.331 6.24 8.033 7.608 3.028 3.272 7.135 5.84 7.884 10.171-.364 1.769.059 17.486.088 20.551-7.756-7.059-16.389-16.549-23.959-24.071-4.153-4.127-13.799-13.19-17.132-17.372 2.581-3.241 17.723-18.283 20.961-21.351-3.122-5.262-6.88-10.573-9.466-16.083"/><path fill="#efe4ca" d="M660.761 689.092c.65.175 2.112.367 2.356.957 3.428 8.293 4.07 40.044-1.329 47.141-12.059 15.851-42.736 22.888-51.853 42.336-5.876 12.532-15.831 38.424-15.982 51.487l-.43.682c-2.424-2.355-3.122-13.528-2.963-17.007.6-13.093 8.219-33.541 14.933-44.258a53.4 53.4 0 0 1 8.984-10.746c7.233-6.774 31.753-22.192 36.219-27.754 4.203-5.233 8.438-34.529 10.065-42.838"/><path fill="#f96735" d="M616.735 198.999c2.457 1.133 4.766 2.794 7.4 3.677 21.868 7.332 40.394 9.787 59.625 24.192 17.213 12.894 23.524 24.323 20.209 46.019-2.217 1.461-8.216.669-11.096.503-2.524-7.415-6.186-19.067-10.133-25.583-14.87-24.547-48.996-24.503-66.005-48.808"/><path fill="#eee5ca" fill-opacity=".918" d="M758.248 185.902c3.157-.264 5.624-.341 8.79-.375 3.561 4.475 9.583 11.564 12.671 16.054-.32 6.243 2.724 2.348 2.306 7.027.001-.008.763-.695 1.203-.825l.099.407-.165-.381.113.765c-.997.879-5.35 6.965-6.517 7.03-.229-.282.187-.89.021-1.421l-.114-.105c-1.498.124-1.662 4.184-4.148 4.38-1.959.154-1.68 3.466-3.298 3.967-1.911.593-2.49 1.139-3.435 2.857-2.512 2.994-3.58 1.514-3.827 6.072 1.841 1.545 3.613 3.011 5.376 4.653-2.309.955-2.734.847-4.697 2.468-2.329-1.725-4.034-4.272-6.383-6.062-2.429-1.851-2.354-1.213-3.32 1.601l-4.628-4.461c7.591-7.411 15.601-14.396 23.256-21.962-1.992-2.841-5.114-6.295-7.39-9.135-.617-1.704-.752-1.86-.907-3.715l.275-.191c.882 1.432 1.168 2.332 2.465 3.204 2.073-1.145 3.292-1.39 4.443-3.205-.124-2.173-1.757-3.731-2.846-5.747-2.197-4.066-6.237.824-11.287-.391 3.044-.482 4.149-.457 6.797-1.922-.524-.526-3.811-.522-4.853-.587"/><path fill="#eee5ca" fill-opacity=".62" d="M767.323 236.007c1.691 1.245 2.772 2.288 4.305 3.705-1.39.194-4.289-.349-3.774 1.304.213.67.71 1.213 1.359 1.485.417.175.666.194 1.107.194.774-.686 1.419-1.472 2.351-2.278q.536.567 1.063 1.141c-1.039 5.219-1.69 2.845-4.758 4.961-.435.301.645 3.813.84 4.88 1.405-1.095 1.231 1.607-.976.394-.749-4.331-4.856-6.899-7.884-10.171 2.264-1.069 2.036-.173 1.67-3.147 1.963-1.621 2.388-1.513 4.697-2.468"/><path fill="#eee5ca" fill-opacity=".98" d="M779.709 201.581c1.869 2.354 3.338 4.334 4.942 6.899-2.919 3.674-19.253 20.543-22.704 22.874.247-4.558 1.315-3.078 3.827-6.072.945-1.718 1.524-2.264 3.435-2.857 1.618-.501 1.339-3.813 3.298-3.967 2.486-.196 2.65-4.256 4.148-4.38l.114.105c.166.531-.25 1.139-.021 1.421 1.167-.065 5.52-6.151 6.517-7.03l-.113-.765.165.381-.099-.407c-.44.13-1.202.817-1.203.825.418-4.679-2.626-.784-2.306-7.027"/><path fill="#eee5ca" fill-opacity=".984" d="M712.218 884.462c1.201-1.62 42.411.026 48.31-1.488.975-.251 1.751-.714 2.597-1.238q.201-.127.403-.256l.727.221c-.754.892-2.127 2.812-3.334 2.828-12.456.164-24.93-.123-37.394.018-3.481.04-7.894.223-11.309-.085"/><path fill="#eadcbd" d="M649.952 884.906a150.5 150.5 0 0 1 18.715-6.537c-1.387 1.146-1.703 1.22-3.438 1.823l-.022.057.009-.056.894.469c.266.888-4.596 1.651-4.95 2.356.073 1.001 2.321-.048 3.138.466l.003.067-.029.021c1.855.545 5.219-.055 6.582 1.266-6.532.259-14.16-.04-20.902.068"/><path fill="#eee5ca" fill-opacity=".741" d="M752.923 234.014c.966-2.814.891-3.452 3.32-1.601 2.349 1.79 4.054 4.337 6.383 6.062.366 2.974.594 2.078-1.67 3.147-1.702-1.368-6.219-5.851-8.033-7.608"/><path fill="#eee5ca" fill-opacity=".769" d="M763.702 280.839c2.529-5.01 5.569-.735 5.34 1.589-.192.18-.464.197-.666.359-.333.266-.938.527-1.074.975-.127.474.611.678.837.857.689.547.626 1.517 1.037 2.228.313.542.195 1.374.8 1.696 1.301-.362-.347-2.462 1.498-3.132.16-.057.82-.678 1.133.131.296 3.445.64 4.243-2.171 5.733-2.018-3.275-3.636-6.837-6.172-9.761z"/><path fill="#eadcbd" fill-opacity=".494" d="M777.09 768.653c1.676.219 1.656-.244 3.17-1.018-.076 1.33-.136 2.472-.29 3.804-1.15 1.932-2.317 8.253-2.466 8.319-5.55 2.459-.762-8.006-.414-11.105"/><path fill="#de775a" d="M777.179 349.127c1.281 3.284-.076 20.536-.603 24.796-.766-4.396-.426-8.3-1.146-12.673-.143-.869-.305-1.594-.351-2.477 3.672-.048 2.029-6.657 2.1-9.646"/><path fill="#eee5ca" d="M653.917 188.458c-.282-.15-.921-.437-1.203-.714l.026-.033c1.09-.428 15.236-.291 17.104-.226-4.808 1.775-9.606-.127-15.927.973"/><path fill="#eee5ca" d="M780.532 761.063c-.031 2.256-.03 4.317-.272 6.572-1.514.774-1.494 1.237-3.17 1.018q.169-.386.323-.778c.875-2.207 2.102-4.635 3.119-6.812"/><path fill="#eee5ca" fill-opacity=".576" d="M771.628 239.712q.518.358 1.043.705c-.932.806-1.577 1.592-2.351 2.278-.441 0-.69-.019-1.107-.194a2.4 2.4 0 0 1-1.359-1.485c-.515-1.653 2.384-1.11 3.774-1.304"/><path fill="#de775a" d="M776.424 693.3c.538 2.472 1.049 4.554 1.14 7.103-1.205-.265-.99.131-1.813 1.187.259-2.77.399-5.481.673-8.29"/><path fill="#efe4ca" d="M754.887 510.891a85 85 0 0 1 2.764-1.247c3.026 2.737-1.119 1.537-2.764 1.247"/><path fill="#f96735" d="M518.496 631.227c1.855 1.138 27.432 25.967 29.454 28.412q14.66-13.951 28.957-28.274c-.99 25.381-.345 54.708-.21 80.301l.167 135.232c-.158 19.915.575 47.006-.951 66.224.017 1.283-.006 1.214-.462 2.427-1.19-1.385-2.858-7.513-4.354-9.919-8.079-13.1-25.183-17.363-38.274-8.889-9.608 6.219-11.968 13.71-14.257 24.243-.392-12.085-.11-25.566-.094-37.752l.077-68.196z"/><path fill="#101323" d="M567.56 654.428c1.027 1.071.468 24.892.456 28.908v53.187l.299 155.742c-3.755-5.062-16.223-17.612-20.989-21.781-6.12 6.615-13.375 14.1-18.93 21.055-.692.933-.263.532-1.313 1.174-.981-2.605.116-86.544.132-96.463l-.265-141.932c6.292 6.392 13.978 13.187 20.649 19.203a1117 1117 0 0 0 19.961-19.093"/><path fill="#f96735" d="M547.437 781.829c3.501 2.139 15.006 15.014 17.827 18.568-4.961 5.299-12.074 12.193-17.392 17.283-2.78-1.25-15.118-14.619-17.921-17.453 5.589-6.206 11.686-12.337 17.486-18.398"/><path fill="#101323" d="M547.023 793.909c.945.219 6.274 4.938 7.842 6.051a246 246 0 0 0-7.777 6.66c-.533-.34-6.542-5.996-7.643-7.021a289 289 0 0 1 7.578-5.69"/><path fill="#f96735" d="M547.363 717.305c3.59 2.214 13.315 12.547 16.437 15.837-5.255 7.33-9.893 12.274-16.33 18.619-6.78-7.193-9.397-9.888-16.832-16.529 4.927-6.05 11.329-12.08 16.725-17.927"/><path fill="#181c32" d="M548.395 727.914c1.468.391 5.352 4.287 6.855 5.635-2.343 2.232-4.567 4.144-6.81 6.498-1.572-1.034-5.344-4.722-6.962-6.205 2.294-2.137 4.414-4.031 6.917-5.928"/><path fill="#f96735" d="M547.967 838.864c2.302 1.612 10.789 11.656 14.02 14.745l2.417 12.593a206 206 0 0 0-5.428 7.07 177 177 0 0 1-6.215-6.404 208 208 0 0 1 4.606-3.944c-3.881-4.43-5.397-6.421-9.888-10.264-2.395 2.483-5.011 4.683-7.48 7.09-3.436 3.35-.474 4.173 1.938 6.259-2.109 2.785-4.11 5.636-6.227 8.381-1.327-2.579-2.868-5.233-4.292-7.78.346-3.462.614-6.626.89-10.107 4.042-5.175 10.924-11.936 15.659-17.639"/><path fill="#f96735" d="M564.461 666.751c.02 3.1.633 10.641-.788 12.744-5.415 5.593-11.248 11.117-16.76 16.72-5.897-5.938-10.387-10.366-15.88-16.696.043-4.187.033-8.198.196-12.395 3.289 2.272 12.95 12.261 16.312 15.599 4.571-4.638 11.95-11.821 16.92-15.972"/><path fill="#f96735" d="M559.085 748.438c1.119.693 4.198 4.57 4.331 5.822.768 7.268.585 16.813.351 23.987-2.142 2.634-2.584 3.158-5.125 5.471-1.178-1.097-2.141-2.008-3.249-3.186-.941-1.174-3.36-3.135-1.7-4.335 2.719-1.967 3.876-5.635 4.954-8.658l-.329-.401-1.031-1.245a116 116 0 0 1-5.88-8.304c2.579-3.206 5.002-6.02 7.678-9.151"/><path fill="#f96735" d="M538.193 749.839c1.648 1.097 5.366 5.024 6.88 6.606-4.634 4.371-8.712 6.631-7.955 12.799.56 4.561 5.79 6.203 6.409 7.509-.058.743-1.734 2.318-2.288 2.923-1.279 1.363-2.267 2.47-3.61 3.808-2.007-2.198-3.643-4.1-5.579-6.387-.36-6.331-.578-13.227-.265-19.56 2.247-3.408 3.472-4.744 6.408-7.698"/><path fill="#f96735" d="M558.199 692.853c1.393 1.15 4.617 7.476 5.109 9.253 2.08 7.521-.326 12.471-2.989 18.722a350 350 0 0 1-4.533-4.33c-1.13-1.14-2.258-2.265-3.276-3.507l-.595-.698 5.763-5.713c-2.337-2.151-4.436-4.086-6.839-6.161a434 434 0 0 1 7.36-7.566"/><path fill="#f96735" d="M559.52 815.441c5.929 3.872 4.58 12.143 4.435 18.317-2.05 3.177-3.28 4.858-5.644 7.853-.984-.997-1.873-1.896-2.814-2.937-1.239-1.514-2.509-2.986-3.757-4.495a267 267 0 0 0 5.447-5.009c-2.021-2.721-3.409-4.489-5.689-7.066 2.79-2.582 4.961-4.38 8.022-6.663"/><path fill="#f96735" d="M537.055 692.359c2.088 2.847 4.36 5.359 6.556 8.138-2.348 1.935-3.855 3.342-5.903 5.62 1.98 2.921 3.395 4.481 5.808 7.106l-3.239 3.556-3.509 3.695c-4.689-5.814-5.01-5.977-5.288-13.41-.293-7.812 2.163-7.796 5.575-14.705"/><path fill="#f96735" d="M537.142 815.74c2.609 2.184 4.036 3.796 6.271 6.236-2.515 3.294-3.878 5.083-5.796 8.748 1.535 1.545 2.982 2.852 4.752 4.125l.77.566c-1.152 1.62-2.123 2.813-3.305 4.37-.988 1.231-1.721 2.22-2.813 3.39-7.11-11.855-8.238-14.849.121-27.435"/><path fill="#f96735" d="M575.924 159.408c.887 10.521.608 23.059.604 33.762l.004 51.967q.738 88.963-.004 177.925l-4.044-4.289a825 825 0 0 0-24.424-24.03c-9.867 9.437-19.232 20.356-29.606 30.384.522-87.682-.973-176.808.464-264.366 1.066 1.084 1.203 2.009 1.855 3.384 12.541 26.473 46.896 22.852 55.151-4.737"/><path fill="#101323" d="m568.489 184.339-.546 214.945c-3.662-1.898-15.409-15.011-20.437-19.15-6.488 6.739-13.64 13.474-20.382 20.008.753-34.909.231-71.633.134-106.615q.307-54.363-.143-108.726c4.428 3.394 15.524 15.398 19.86 19.984 7.532-6.895 14.407-13.111 21.514-20.446"/><path fill="#f96735" d="M546.455 235.394c6.002 4.933 14.497 13.511 18.982 19.723a142.6 142.6 0 0 1-17.604 16.667c-2.06-.067-16.538-13.639-18.398-16.254 3.376-5.564 12.335-15.082 17.02-20.136"/><path fill="#101323" d="M546.785 247.359c1.607.876 7.107 5.792 8.633 7.179-2.257 1.931-4.427 3.787-6.592 5.821-3.028-2.311-5.933-4.278-8.857-6.807 2.608-2.251 4.404-3.675 6.816-6.193"/><path fill="#f96735" d="M547.132 302.557c4.892 3.442 13.552 12.187 17.779 16.631-5.907 5.984-11.601 12.411-17.312 18.152-5.965-6.295-11.166-11.44-17.667-17.141 5.724-6.146 11.491-11.547 17.2-17.642"/><path fill="#101323" d="M547.961 313.346c1.995 1.239 5.435 4.373 7.378 5.947-2.294 2.83-4.17 4.768-6.674 7.397-1.993-.957-5.547-5.153-7.215-6.94z"/><path fill="#f96735" d="M548.046 357.903c1.893 1.179 13.55 13.66 15.695 16.05-.074 3.894-.034 7.716-.125 11.623-1.84-1.868-15.392-15.519-16.381-15.249a232 232 0 0 1-15.742 16.997 764 764 0 0 1-.025-12.664c4.819-5.681 11.285-11.37 16.578-16.757"/><path fill="#f96735" d="M559.7 267.872c.82 1.052 4.529 6.292 4.606 7.249.574 7.15.422 16.181.096 23.28-2.129 2.968-3.146 4.17-5.615 6.862-1.702-1.815-3.276-3.498-4.883-5.404-.85-1.065-2.061-2.248-3.025-3.244 3.888-4.104 4.872-5.193 7.831-10.036-2.627-5.798-2.644-6.156-6.889-11.084 3.051-2.675 5.065-4.689 7.879-7.623"/><path fill="#f96735" d="M556.544 205.988c2.464 2.24 7.07 7.359 7.404 10.756.758 7.707 2.483 12.556-2.995 18.972-1.696 1.986-1.255 4.264-3.853.412a228 228 0 0 0-4.908-5.885c2.427-2.744 4.043-4.699 6.082-7.808-2.939-3.015-6.341-7.342-8.828-10.798 2.355-1.945 4.648-3.824 7.098-5.649"/><path fill="#f96735" d="M535.851 268.754c1.272.787 6.53 5.899 7.885 7.238-8.765 10.64-10.156 11.512-1.292 22.603l.191.523c-1.325 1.644-2.418 2.856-3.839 4.388a128 128 0 0 1-6.644-6.193c-.367-10.784-2.124-19.367 3.699-28.559"/><path fill="#f96735" d="M535.667 333.403c3.316 2.69 3.689 3.941 8.486 7.477-6.5 6.915-6.952 6.753-.458 13.503a192 192 0 0 1-3.436 3.786l-3.348 3.692c-7.767-10.742-7.364-16.515-1.244-28.458"/><path fill="#f96735" d="M559.01 333c5.597 6.412 4.681 11.718 4.489 19.657-2.241 3.81-2.835 4.454-5.497 8.05a253 253 0 0 0-3.94-3.806c-.902-.889-1.762-1.803-2.641-2.715 2.167-2.062 4.112-3.855 6.087-6.118l.636-.722c-2.411-2.147-4.433-4.164-6.676-6.484 2.569-2.643 5.072-5.104 7.542-7.862"/><path fill="#f96735" d="M538.788 206.873c1.788 1.943 3.71 3.606 5.61 5.451-2.427 3.21-5.766 6.482-7.835 9.747l-.5.765c3.489 5.953 7.113 5.307 3.743 9.446-1.205 1.423-2.326 2.849-3.51 4.284-1.964-2.074-2.482-2.717-4.208-5.048-.966-12.509-2.108-15.774 6.7-24.645"/><path fill="#eee5ca" d="M725.989 137.108c-1.001 3.737-.493 6.365.239 10.07-3.215-.237-2.23-2.369-2.297-5.177.102-1.125.621-3.082-1.09-3.226-3.306-.278-3.04.924-3.356 3.643 1.053 10.728-4.699 4.319-6.706 6.368 1.061 1.493 7.356-2.214 6.228 2.522-3.953.441-10.841-1.083-14.836-.234-.635.64 2.627 2.038 3.054 2.267-.556.416-16.029.42-18.333.738-7.751.331-16.799.065-24.649.07q-16.743.075-33.484.417c-1.488.208-6.154-.199-4.972 1.379l64.516 1.211c4.189.041 37.756-.071 39.319.777l-.216.509c-5.321 1.679.218 3.13-8.176 2.273-1.549.045-3.39-.242-4.705.818-.563.453-.014 1.36-.377 1.896-.473.205-7.247.621-8.396.289-.401-.116-7.836-.075-7.737-.103l-.114.152c.356 1.435 4.819 1.006 6.237 2.059.141.318-.278.593-.465.783l-112.635-.082c-6.861-7.012-11.35-12.151-17.41-19.863-.879.347-.439.217-1.591-.03-.869 2.944-2.798 8.836-3.32 11.62-2.64-1.345-4.775-1.352-7.79-1.279-12.558-.365-26.249-.996-38.714-.749l-3.351-9.993c-3.629 3.114-6.617 6.322-9.914 9.76-29.37-.24-58.742-.033-88.105.62-.667.727-.921.75-1.804.27l-.536-.277-.421-.008-.125 1.082c3.723-.338 18.439.415 23.222.438l65.133.438c-2.44 2.624-4.837 5.048-6.877 7.998-72.395-.061-146.792-.92-219.047.283-3.96-2.552-7.458-5.081-10.903-8.327l-.504-1.159c2.361-1.002 5.988-.693 8.733-.936-3.56-.325-8.806-.303-12.501-.404-3.234-3.636-6.936-7.583-9.723-11.518l6.052-4.728c2.694-2.304 8.822-1.487 12.552-1.484q12.672-.055 25.343.146c3.763-.515 16.606-.268 20.98-.268l42.914-.022 80.119-.285c10.44.017 24.242-.37 34.372.129 23.285-.918 48.232-.368 71.609-.355l108.129-.25q19.538-.043 39.076.129c8.419.063 19.085.417 27.353-.397m-40.961 5.816c-.226-.978-1.952-3.109-2.346-3.122-11.409-.37-25.857-1.231-37.193.12.678.297 2.27.739 2.624.964l.009.026-.038-.03-.056.115c-.751.073-2.168-.187-2.84.204l-.089.152c.97 1.098 3.46 1.395 4.898 1.409zm-406.553 18.694c-.147-.392-.073-.256-.21-.453-.239-.064-.338.066-.618.218.273.425.344.343.828.235"/><path fill="#efe4ca" fill-opacity=".533" d="M645.489 139.922c11.336-1.351 25.784-.49 37.193-.12.394.013 2.12 2.144 2.346 3.122l-35.031-.162c-1.438-.014-3.928-.311-4.898-1.409l.089-.152c.672-.391 2.089-.131 2.84-.204l.056-.115.038.03-.009-.026c-.354-.225-1.946-.667-2.624-.964"/><path fill="#c4bba3" d="M301.437 138.427c3.763-.515 16.606-.268 20.98-.268l42.914-.022 80.119-.285c10.44.017 24.242-.37 34.372.129 3.797.973 14.733.118 16.413 1.006-2.525.102-7.527.179-9.878.559-52.184 1.097-103.746.429-155.806 1.004-7.35-.4-15.629-.199-23.091-.755-1.601-.119-5.438.226-6.687-.108-2.28-.609-1.415-.525-4.07-.377l-.631.04c.68-.352 12.461-.42 14.393-.467-3.203-.073-5.84-.156-9.028-.456"/><path fill="#050506" d="M551.761 144.406a6875 6875 0 0 1 133.943 1.651c1.139.31 2.093.448 3.192.709-.727.23-2.64.459-3.602.684-36.557.524-73.121.262-109.666-.786-.879.347-.439.217-1.591-.03-7.579-.511-18.531-.344-26.31-.434l-42.401-.685-1.548-.609c.617-.517 43.198-.327 47.983-.5"/><path fill="#eadcbd" d="M725.989 137.108c-1.001 3.737-.493 6.365.239 10.07-3.215-.237-2.23-2.369-2.297-5.177.102-1.125.621-3.082-1.09-3.226-3.306-.278-3.04.924-3.356 3.643l-1.149-.248c.012-.831-.007-1.615-.155-2.434-5.485-.748-11.161-1.623-16.594-.553-4.528.891-10.889.147-15.102 1.175l1.96 2.264c-1.204.391-2.132.513-3.417.302-.226-.978-1.952-3.109-2.346-3.122-11.409-.37-25.857-1.231-37.193.12-4.839.216-10.348.079-15.24.067.096-.077 10.883-1.166 12.226-1.407-6.245-1.758-26.031-.575-33.45-.546-27.106.104-54.021-.455-81.057 1.33-11.645.769-30.028.892-41.611.18 2.351-.38 7.353-.457 9.878-.559-1.68-.888-12.616-.033-16.413-1.006 23.285-.918 48.232-.368 71.609-.355l108.129-.25q19.538-.043 39.076.129c8.419.063 19.085.417 27.353-.397"/><path fill="#050506" d="M279.714 156.415c30.499-.895 64.826.351 95.446.602.391.499.285.277.419.608-.166.609-4.333.697-5.108.812q-49.493.33-98.986.073l-.504-1.159c2.361-1.002 5.988-.693 8.733-.936"/><path fill="#efe4ca" d="M263.542 139.765c2.694-2.304 8.822-1.487 12.552-1.484q12.672-.055 25.343.146c3.188.3 5.825.383 9.028.456-1.932.047-13.713.115-14.393.467l.631-.04c2.655-.148 1.79-.232 4.07.377 1.249.334 5.086-.011 6.687.108 7.462.556 15.741.355 23.091.755q-.877.174-1.765.285c-3.768.486-42.556-.153-43.27-.715 1.498-.295 2.956-.596 4.489-.583-2.316-.749-23.544-.623-26.463.228"/><path fill="#75736b" d="M505.326 145.515a74 74 0 0 1-12.355-.64c4.922-1.42 52.036-1.258 58.79-.469-4.785.173-47.366-.017-47.983.5z"/><path fill="#75736b" d="M625.787 155.945c-1.139.096-15.779-.672-15.886-.772.148-.604 1.377-.461 1.851-.476 6.172-.196 12.867-.432 19.007-.131-1.488.208-6.154-.199-4.972 1.379"/><path fill="#353431" d="M375.16 157.017c1.694-.007 14.714.243 15.157 1.097-.453.619-17.886.4-19.846.323.775-.115 4.942-.203 5.108-.812-.134-.331-.028-.109-.419-.608"/><path fill="#353431" d="M685.704 146.057c5.161-.128 9.077.292 14.196.634-5.041.9-9.493.917-14.606.759.962-.225 2.875-.454 3.602-.684-1.099-.261-2.053-.399-3.192-.709"/><path fill="#575752" d="M419.957 157.68c-3.726-.454-2.792-1.206.125-1.082z"/><path fill="#353431" d="M420.503 156.606c1.008-.059 1.338-.066 2.34.007-.667.727-.921.75-1.804.27z"/><path fill="#050506" d="M379.206 146.912c-.286-.106-.65-.204-.749-.323l.014-.019c3.929-.722 31.273-.647 35.744-.151a742 742 0 0 1 31.501.621c1.362.39 2.515.689 3.889 1-19.848.718-41.307-.123-61.209-.519q-3.74.025-7.474-.224c-.978.041-.907.076-1.716-.385"/><path fill="#575752" d="M379.206 146.912c-.286-.106-.65-.204-.749-.323l.014-.019c3.929-.722 31.273-.647 35.744-.151-8.862.645-18.953.027-28.058.286l.032-.034.367.432c.744.048 1.099.15 1.84.418q-3.74.025-7.474-.224c-.978.041-.907.076-1.716-.385"/><path fill="#c4bba3" d="M379.206 146.912c.968.064.911-.001 1.716.385-.978.041-.907.076-1.716-.385"/><path fill="#050506" d="m283.245 144.488 39.588.262c5.249.05 13.447.45 18.376.258l2.692.983c-8.53-.152-17.96.176-26.619.149a1577 1577 0 0 1-32.115-.668c-.713-.39-1.187-.669-1.922-.984"/><path fill="#575752" d="M445.716 147.04c2.932-.057 5.473.026 8.393.157.925-.098.816-.086 1.583.522.543 0 1.052.023 1.589.081-.783.31-6.67.307-7.676.24a68 68 0 0 1-3.889-1"/><path fill="#c4bba3" d="M454.109 147.197c.925-.098.816-.086 1.583.522-.814-.21-.896-.187-1.583-.522"/><path fill="#75736b" d="M277.435 144.494c1.951.018 3.863-.038 5.81-.006.735.315 1.209.594 1.922.984-2.694.065-4.242-.007-6.87-.219-.571.052-1.068.15-1.535-.258.023-.476.108-.272.673-.501"/><path fill="#c4bba3" d="M278.297 145.253c-.571.052-1.068.15-1.535-.258.023-.476.108-.272.673-.501.434.21.485.35.862.759"/><path fill="#75736b" d="M341.209 145.008c1.406-.023 5.297-.27 6.436.645l-.023.113c-1.305.345-2.353.259-3.721.225z"/><path fill="#eadcbd" fill-opacity=".855" d="M277.647 161.383c.28-.152.379-.282.618-.218.137.197.063.061.21.453-.484.108-.555.19-.828-.235"/><path fill="#304c72" d="M242.004 176.1c-1.677-.212-.962.15-2.12-1.296-.915-4.187-.414-13.172-.276-17.844 10.107 8.611 28.614 25.13 40.837 30.515-.006 28.007-.707 55.79-.59 84.078l.222 46.627c.034 7.229.34 16.189.091 23.255.196.154.456.64.58.843a3796 3796 0 0 0 1.923-154.489l14.539-.259c1.965 17.827 3.625 40.405 1.285 58.449-.269 2.072-4.444 11.967-5.444 15.49l-.186.668c2.459 1.716 3.882 2.33 6.549 3.574.6 80.936-.117 161.278 1.093 242.35-6.533 2.835-14.992 6.483-21.047 10.026-2.807-2.717-5.827-6.203-8.492-9.13 5.64-10.242 12.454-21.435 18.489-31.492l-6.425-3.98c.102-20.67.985-41.629 1.295-62.339.19-14.854 2.942-30.135-.5-44.819-4.491-19.159-15.524-37.345-28.506-51.991-6.822-7.698-13.769-13.768-19.846-22.165 2.995-4.604 3.552-6.046 5.306-11.063.026.596-.159 2.684.496 2.957 1.07-.157 4.672-4.126 5.712-5.116l.31-.292c1.249-.694 3.919-3.632 5.261-4.88.985-.721 3.44-2.801 3.948-3.92 4.487-4.824 8.694-7.509 13.602-13.559-1.394-5.326-3.087-12.581-4.083-18.002a29 29 0 0 0-.494-2.708c-.54-2.434-1.163-6.622-2.263-8.704.891-4.281 4.316-5.772 6.817-9.034 2.627-2.507 5.551-5.332 8.031-7.95-3.681-4.259-9.809-10.71-14.029-14.416-.655-.95-5.172-5.237-6.215-6.154-3.627-3.641-7.414-7.422-10.824-11.239-1.991-1.744-2.724-3.407-5.046-1.991"/><path fill="#2d3959" d="M280.168 341.435c.196.154.456.64.58.843.001.346.131.927-.104 1.219l-.081-.003c-.422-.634-.37-1.326-.395-2.059"/><path fill="#304c72" d="m271.785 122.498 475.175.347-4.773 6.283c-1.387 1.395-2.449 1.267-4.364 1.287-9.455.1-18.913.089-28.369.139l-45.757.418-135.832.522c-81.585.197-164.591 1.991-246.04 1.193a635 635 0 0 0-10.04-10.189"/><path fill="#f96735" d="M590.931 505.269c3.113 1.655 6.325 4.439 9.121 6.689-.037 6.973-.528 28.532.325 34.14-3.047 2.221-6.422 5.35-9.304 7.882l.013-7.096-84.936.039c-.122 2.618-.255 4.725-.566 7.358a1015 1015 0 0 0-10.387-8.818c-.519-10.046-.067-20.589-.547-30.882 2.566-2.418 7.671-6.924 10.83-8.22l.527.273c-.083 1.496-.354 2.515.481 3.694 3.241.502 23.771.178 28.444.177q28.21-.051 56.412.549z"/><defs><linearGradient id="b" x1="571.737" x2="571.264" y1="521.893" y2="534.588" gradientUnits="userSpaceOnUse"><stop offset="0" stop-color="#0e121c"/><stop offset="1" stop-color="#15162f"/></linearGradient></defs><path fill="url(#b)" d="M553.719 522.028c11.558.069 23.233-.013 34.796-.143.25-.003 1.141.102 1.221.294.386.934.087 3.956-.003 4.81-.173 1.46-.208 2.171-.199 3.621.046.815.433 3.602-.243 4.228-.897.831-31.91.264-35.463.242-.049-4.393.084-8.658-.109-13.052"/><path fill="#eadcbd" d="M589.534 530.61c-10.318.085-20.917.188-31.166-.174-.201-.007-1.754-3.444 1.664-3.415 9.878.084 19.818.036 29.701-.032-.173 1.46-.208 2.171-.199 3.621"/><path fill="#101323" d="M503.568 526.984c-.017-.554-.228-4.42.252-4.434 10.395-.303 26.445-.43 36.372-.565l.032 12.797c-3.379.024-35.847.485-36.354-.116-.659-.781-.23-3.324-.179-4.197.013-1.234-.048-2.26-.123-3.485"/><path fill="#eadcbd" d="M503.568 526.984c8.831-.036 21.979-.285 31.08.234.478.027.583 2.836.033 3.105-10.188.385-20.743.264-30.99.146.013-1.234-.048-2.26-.123-3.485"/><path fill="#f96735" d="M681.252 491.369c.725.871 3.729 12.645 4.41 14.719 19.434 8.116 39.495 16.571 59.452 23.319a687 687 0 0 0-59.387 22.792c-1.681 1.308-4.676 11.074-6.192 14.326-7.757-10.017-14.931-20.282-22.945-30.423-5.706 2.135-12.5 1.38-18.617 1.282l-.067-13.094c5.555.213 11.112.122 16.671.085 3.719-4.981 8.67-9.988 12.624-14.876 4.806-5.94 9.421-12.053 14.051-18.13M667.327 531c2.12 3.372 4.518 7.73 6.64 10.903 3.865-2.018 18.135-10.95 21.72-13.457-7.845-4.043-14.895-8.984-22.075-12.714-.848 1.299-3.459 5.434-3.848 6.754.006.46-2.167 8.103-2.437 8.514"/><path fill="#eee5ca" fill-opacity=".976" d="M673.612 515.732c7.18 3.73 14.23 8.671 22.075 12.714-3.585 2.507-17.855 11.439-21.72 13.457-2.122-3.173-4.52-7.531-6.64-10.903.27-.411 2.443-8.054 2.437-8.514.389-1.32 3-5.455 3.848-6.754"/><path fill="#101323" d="M673.612 515.732c.953-1.436 1.792-2.631 2.871-3.974 6.779 4.786 21.225 12.174 29.162 15.646-8.187 5.593-17.653 9.992-25.971 15.528-2.913 1.939-3.414 2.528-5.261-.345l-.446-.684c3.865-2.018 18.135-10.95 21.72-13.457-7.845-4.043-14.895-8.984-22.075-12.714"/><path fill="#efe4ca" d="M667.327 531c-2.357-4.025-1.06-4.561 2.437-8.514.006.46-2.167 8.103-2.437 8.514"/><path fill="#f96735" d="M413.52 490.96c2.675 2.75 7.936 9.775 10.722 13.241 5.177 6.437 11.704 13.73 16.457 20.305l17.849.059.074 13.455c-7.034-.228-14.183-.305-21.228-.445l-21.1 28.666c-1.72-4.104-3.327-10.241-4.615-14.642-4.616-2.479-11.966-4.786-17.002-6.823-14.229-5.756-28.964-10.134-43.317-15.259 6.975-1.53 17.092-5.907 23.801-8.665 11.618-4.777 22.789-9.71 34.688-13.879.988-4.808 2.237-11.474 3.671-16.013m-.025 47.846a31 31 0 0 0 2.238 1.543l1.212.735c1.903-1.565 3.825-4.213 5.541-6.155.979-5.123.967-5.478 3.201-10.506-.981-1.017-4.912-5.352-5.518-6.434-5.184 1.908-12.67 7.193-18.271 9.474-3.965 2.02-3.284 1.991.971 4.539.674.763 9.59 6.335 10.626 6.804"/><path fill="#efe4ca" fill-opacity=".812" d="M420.169 517.989c.606 1.082 4.537 5.417 5.518 6.434-2.234 5.028-2.222 5.383-3.201 10.506-1.716 1.942-3.638 4.59-5.541 6.155l-1.212-.735q.366-.267.743-.521c2.069-1.377.324-2.664-2.981-1.022-1.036-.469-9.952-6.041-10.626-6.804.729-2.128.28-2.541-.971-4.539 5.601-2.281 13.087-7.566 18.271-9.474"/><path fill="#101323" d="M388.936 529.604c9.489-5.117 19.364-9.881 28.567-15.566 2.874-1.776 2.983 1.764 2.666 3.951-5.184 1.908-12.67 7.193-18.271 9.474-3.965 2.02-3.284 1.991.971 4.539.674.763 9.59 6.335 10.626 6.804a31 31 0 0 0 2.238 1.543l1.212.735c1.2.774 1.814 1.134 3.088 1.769.287.82.002 3.183-.64 2.969-10.675-3.559-20.621-10.941-30.457-16.218"/><path fill="#efe4ca" d="M422.486 534.929c.979-5.123.967-5.478 3.201-10.506.318.415 2.076 2.373 1.776 3.078-2.288 5.377-5.426 9.776-7.43 15.352-1.274-.635-1.888-.995-3.088-1.769 1.903-1.565 3.825-4.213 5.541-6.155"/><path fill="#eadcbd" fill-opacity=".376" d="M402.869 532.002c-4.255-2.548-4.936-2.519-.971-4.539 1.251 1.998 1.7 2.411.971 4.539"/><path fill="#efe4ca" fill-opacity=".718" d="M413.495 538.806c3.305-1.642 5.05-.355 2.981 1.022q-.377.254-.743.521a31 31 0 0 1-2.238-1.543"/><path fill="#f96735" d="M495.583 401.98c.182 1.229-26.769 58.172-29.482 63.971 8.046 7.275 17.197 14.555 25.491 21.771-9.992 9.288-22.413 17.116-32.398 26.545-1.551 1.464-1.14 3.376-1.083 5.365l-10.516-.006q-.103-16.054-.604-32.1a649 649 0 0 0-15.746-21.329c21.131-21.26 43.601-42.676 64.338-64.217"/><path fill="#101323" d="M458.519 477.722c4.036 2.585 6.82 6.903 12.087 10.211l-5.522 3.155c-2.378 1.743-4.588 3.377-6.89 5.221-.183-5.973-.271-12.659.325-18.587"/><path fill="#f96735" d="m603.586 406.716 1.448-.7c19.956 20.959 40.549 39.775 60.086 60.144-5.084 7.096-10.554 13.863-15.637 21.014l.122 32.184c-3.943.089-7.681-.021-11.625-.132l.001-6.064c-10.209-8.024-21.417-17.227-31.882-24.696 8.031-6.819 16.961-14.101 24.572-21.246-9.5-19.584-17.879-40.793-27.085-60.504"/><path fill="#101323" d="M635.898 479.912c1.062 1.063.772 12.74.918 15.666-2.313-1.027-4.612-2.097-6.945-3.078-1.576-.661-3.215-1.206-4.822-1.83z"/><path fill="#f96735" d="M604.418 569.367c4.99-3.071 32.433-21.064 33.434-24.414.119-.399.245-1.175.321-1.606 2.651-.83 8.287-.496 11.476-.764q.031 15.362.25 30.724c4.938 6.623 10.126 13.96 15.846 19.831-19.887 18.974-41.81 38.035-61.112 57.452l-1.677-.801c9.035-19.022 18.52-40.324 28.106-58.762-6.768-4.732-20.794-16.05-26.644-21.66"/><path fill="#101323" d="M634.806 563.454c1.519 1.132.887 12.925.878 15.546l-5.882-5.409c-1.831-1.488-3.808-2.948-5.683-4.447a207 207 0 0 0 10.687-5.69"/><path fill="#f96735" d="M446.992 543.212c2.472 0 9.141-.314 11.037.638l.323 1.967c1.692 2.598 29.358 22.858 33.319 25.501-4.985 5.184-18.741 15.212-25.437 21.084 9.094 17.486 17.48 36.812 26.284 54.742l3.654 6.616-43.981-40.708c-6.814-6.257-15.108-13.308-21.525-19.725 4.007-4.368 13.6-16.928 16.343-21.984a1167 1167 0 0 1-.017-28.131"/><path fill="#101323" d="M459.117 561.682c4.455 3.308 6.838 5.231 11.612 8.226a269 269 0 0 0-5.036 4.274c-1.436 1.373-3.13 3.124-4.678 4.337l-1.518 1.175a319 319 0 0 1-.38-18.012"/><path fill="#f96735" d="M247.488 312.961c5.351 4.869 8.653 9.962 12.66 15.759 14.408 20.845 18.899 34.388 20.24 59.117-6.458-16.978-11.904-26.651-28.157-36.278 5.659 14.652 5.868 29.593 6.55 45.09.556 14.45-.348 29.984.681 44.339-4.576-6.296-7.676-11.285-11.421-17.976 2.049-15.776-1.391-44.17-6.767-58.731-2.597-7.034-6.722-14.737-10.357-21.382 12.349-6.76 18.305-15.446 16.571-29.938"/><path fill="#efe4ca" d="M590.336 482.794c13.36 10.308 29.922 24.571 43.594 33.699l.062 26.286c-4.533 2.921-11.103 8.015-15.615 11.304a1607 1607 0 0 0-28.73 21.222c-4.061-4.939-8.668-11.462-12.563-16.673l-4.734-6.127 14.705.001q.05 1.608.118 3.214c.08 1.837-.047 3.915 1.24 5.099.698-.27 26.152-21.859 29.237-24.439.028-5.004-.05-10.131-.077-15.144-6.974-6.196-22.67-19.804-29.95-24.577l-.109 8.301-11.894-.064c3.992-6.919 10.114-15.391 14.716-22.102"/><path fill="#efe4ca" d="M506.514 482.949c1.327.884 13.149 19.106 14.735 21.468l-11.089-.019c-.271-2.258-.345-4.584-1.854-6.261-2.727.639-26.136 20.98-29.653 24.314l-.058 14.687c5.475 4.702 23.427 20.913 29.209 23.954l.817-.625c.949-2.618.86-4.933.99-7.728l12.313-.068-4.239 5.052c-4.607 5.911-8.423 11.819-12.294 18.205-5.414-5.183-13.423-11.006-19.52-15.592-7.384-5.556-15.643-12.025-23.356-16.99l-.138-25.67c15.438-11.033 29.352-22.879 44.137-34.727"/><path fill="#f96735" d="M259.063 607.396c-.461 21.073.885 48.238-9.728 66.681-.64 1.112-.892 1.15-1.03 2.444l1.046.628c14.029 1.037 24.106-14.078 29.893-24.664l1.487.483c-.534 7.653-1.206 16.613-4.981 23.401-6.425 11.554-20.987 30.839-33.503 35.122 5.255-15.343 2.504-25.065-10.451-35.022 8.226-17.244 14.899-37.588 16.791-56.666 3.745-3.57 7.239-8.301 10.476-12.407"/><path fill="#eee5ca" d="M549.095 404.23a1581 1581 0 0 0 34.593 35.128c-6.819 3.542-16.819 10.356-23.7 14.635l.127-11.588c2.706-2.008 5.88-4.121 8.671-6.073-4.295-3.571-8.652-8.462-12.981-11.486-.318 7.944-1.016 29.973-.494 37.194l-.332 2.569c-4.066-.378-9.199-.17-13.38-.164-1.242-8.111-.759-28.858-.921-38.233-3.977 3.42-9.242 8.469-12.761 12.255l8.431 2.514a773 773 0 0 1-.145 12.274 1635 1635 0 0 0-21.874-14.956z"/><path fill="#efe4ca" d="M541.351 590.761c3.063.323 10.624.417 13.675-.005q-.143 19.822.351 39.638c3.854-4.01 7.208-7.361 11.288-11.159-2.701-1.832-4.5-3.367-6.983-5.472-.11-2.992.072-6.072.193-9.07 7.698 3.718 15.637 8.281 23.034 12.542-10.002 8.419-24.781 24.246-34.345 33.96-10.568-10.506-23.694-22.909-33.657-33.695 7.134-4.348 14.26-7.85 21.584-12.509l-.031 8.943c-2.589 1.328-5.358 3.139-7.859 4.681 5.888 4.162 7.625 6.246 12.508 11.576q-.038-19.716.242-39.43"/><path fill="#304c72" d="M261.53 365.881c7.54 6.319 15.471 24.222 17.263 33.857 1.68 9.038 1.759 18.795 2.064 28.021l1.087 44.903c-4.182-3.526-14.567-19.072-17.818-24.196-.347-15.105.026-30.414-.193-45.532-.178-12.317-.059-24.944-2.403-37.053"/><path fill="#efe4ca" d="M246.953 431.965c6.775 11.881 14.652 23.072 22.481 34.287 4.03 5.771 6.321 10.359 13.193 12.858-5.558 8.192-10.572 17.074-15.95 25.459-2.866-2.816-5.869-5.879-8.797-8.597a1100 1100 0 0 0-17.915 19.672c-.93-.942-1.329-1.586-.414-2.788 1.173-.592 7.586-4.815 2.722-5.272-2.086.28-3.756 1.278-5.445-.251-2.284-2.068 5.161-6.033 2.597-6.887-.661.468-1.372-.086-2.563-.586a527 527 0 0 0 20.166-22.088c2.411 1.701 8.502 6.47 11.112 6.169.399-4.068-17.61-19.844-21.274-23.301z"/><path fill="#eee5ca" d="M267.397 548.457c1.047 1.509 3.925 9.665 5.349 12.006 3.047 5.012 6.362 9.777 9.61 14.636-16.953 12.901-21.979 20.317-34.654 37.37-.066-3.934-.822-21.612.445-23.805 2.797-2.896 19.375-16.9 20.121-18.185-.724-1.436-.178-.878-1.874-1.534-3.542.545-15.069 8.929-18.465 11.47-.973-8.124-1.476-13.436-3.761-21.371 2.645-2.031 6.031-4.047 8.894-5.849l1.72 5.098c4.208-3.07 8.871-6.269 12.615-9.836m-17.624 57.899c1.928-1.83 2.993-2.734 4.768-4.755-1.009-3.465-1.739-4.658-2.491-8.386-.12-1.127-.324-3.66-1.236-4.406-2.95.296-1.726 8.503-1.372 10.241.039 2.548.034 4.765.331 7.306m1.01-29.003c1.129-3.722 2.125-4.297-1.715-5.718-.011 1.555-.728 6.376 1.715 5.718"/><path fill="#eee5ca" fill-opacity=".043" d="M249.442 599.05c.418-6.092-.566-2.623 2.608-5.835.752 3.728 1.482 4.921 2.491 8.386-1.775 2.021-2.84 2.925-4.768 4.755-.297-2.541-.292-4.758-.331-7.306"/><path fill="#eee5ca" fill-opacity=".302" d="M249.442 599.05c-.354-1.738-1.578-9.945 1.372-10.241.912.746 1.116 3.279 1.236 4.406-3.174 3.212-2.19-.257-2.608 5.835"/><path fill="#eee5ca" fill-opacity=".671" d="M249.068 571.635c3.84 1.421 2.844 1.996 1.715 5.718-2.443.658-1.726-4.163-1.715-5.718"/><path fill="#304c72" d="M240.326 150.587c.828-8.984 1.901-17.925 10.177-22.84 4.003-2.378 8.939-4.772 13.443-5.851 3.525 2.413 7.962 6.634 12.126 9.602l-10.347-.157c-5.151 3.829-11.854 8.241-14.9 13.844 6.593 10.838 19.122 20.417 30.121 26.509 5.537-.035 13.494.109 18.794-.376l.661.254c-.005 3.032-.079 10.298.353 13.168l-1.546.016c-2.922.726-12.677.28-16.126.185-14.496-11.582-29.478-21.227-42.756-34.354"/><path fill="#181c32" d="m299.74 171.318.661.254c-.005 3.032-.079 10.298.353 13.168l-1.546.016c-.358-3.43-.146-10.099.532-13.438"/><path fill="#f96735" d="M241.129 538.361c3.538 2.975 6.428 6.213 9.571 9.583a635 635 0 0 1-13.227 8.469c2.634 7.37 4.594 13.433 4.814 21.338.345 12.446.17 25.034.12 37.477l-7.089-5.333a270 270 0 0 1-8.348-5.995c1.706-9.748 1.826-17.845 3.022-27.318-2.976-4.644-7.648-9.71-11.34-13.943 6.175-8.016 15.623-15.965 22.477-24.278"/><path fill="#f96735" d="M242.854 406.917a15.1 15.1 0 0 1-.307 7.524c-2.591 8.3-.987 36.555-2.088 48.354 3.43 2.706 8.659 7.681 12.188 10.788l-7.69 8.766c-3.079-2.977-6.747-6.119-9.967-9.003a706 706 0 0 0-17.939-15.008c5.042-4.793 9.803-9.91 14.603-14.949-1.415-7.762-2.164-19.013-3.355-27.51 5.371-3.263 9.241-5.409 14.555-8.962"/><path fill="#f96735" d="M555.311 462.04c1.697.358.333.698 1.372 1.66.59.545 14.614-1.979 11.122 1.168-.49 1.647-11.839 16.421-13.782 19.549-.306 7.02-.122 13.41-.515 20.685-4.046.177-7.114.235-11.166.071l.012-21.197c-4.776-7.024-9.299-12.911-14.51-19.583 4.173.104 9.649.276 13.755.052 4.181-.006 9.314-.214 13.38.164z"/><path fill="#050506" d="M555.311 462.04c1.697.358.333.698 1.372 1.66.59.545 14.614-1.979 11.122 1.168-3.261.067-9.792.289-12.826-.259z"/><path fill="#f96735" d="m542.043 552.174 10.789.041q-.18 9.984.123 19.965c3.259 4.65 10.125 14.081 13.484 18.304-2.856-.032-8.943-.269-11.413.272-3.051.422-10.612.328-13.675.005-2.032-.421-9.354-.297-11.803-.318 5.362-6.089 8.554-11.133 12.828-17.939.079-6.919-.243-13.456-.333-20.33"/><path fill="#eee5ca" d="M562.927 156.975c3.015-.073 5.15-.066 7.79 1.279-.12.233-.192.273-.366.457-4.719 13.765-17.309 20.576-31.433 15.468-8.132-2.941-11.005-8.507-14.094-16.037 9.428-.005 18.838.267 28.26.054 2.985-.068 5.912-.243 8.906-.152z"/><path fill="#999383" d="M562.927 156.975c3.015-.073 5.15-.066 7.79 1.279-.12.233-.192.273-.366.457-2.082-1.734-4.546-.563-8.361-.667z"/><path fill="#304c72" d="M247.269 203.134c.013-1.27-.266-8.567.483-9.083.818.043 2.652 1.573 3.335 2.092 1.192 1.007 3.248 2.725 4.481 3.503 3.584 3.019 7.421 5.515 10.735 8.727-1.34 1.531-2.406 2.904-3.817 4.443l-.666.663c-1.669 1.783-3.055 3.509-4.832 5.249-.504.57-.626.705-1.041 1.346a144 144 0 0 0-8.82 10.242c.017-4.96.277-9.803.252-14.757.087-4.32.019-8.124-.11-12.425"/><path fill="#f96735" d="M255.643 504.788c2.96.979 15.473 13.513 18.072 16.292a371 371 0 0 0-10.895 5.032l-.764.36c-1.349.785-2.323 1.421-3.626 2.277a576 576 0 0 1-13.049-12.541c3.674-3.654 6.926-7.464 10.262-11.42"/><path fill="#304c72" d="m255.499 230.821.495.861c.4 2.187.72 4.382 1.159 6.563a124 124 0 0 0 1.006 4.475c.153.605.339 1.124.567 1.7 1.033 3.01 1.745 6.504 2.543 9.622-2.784 2.813-8.268 7.323-9.052 10.87-.1-.303-.141-.862-.475-1.039-.695.011-3.412 3.245-4.601 4.087-.659-1.128-.205-7.373-.252-9.127.209-6.239-.113-12.756.105-18.219a14 14 0 0 1 .833-1.67c.953-1.025 1.624-1.745 2.464-2.89 1.603-1.725 3.258-3.371 4.8-5.15z"/><path fill="#eee5ca" fill-opacity=".965" d="M236.7 523.662a60 60 0 0 0 1.979.118c1.753 1.363 2.109 1.669 3.495 3.359.588.947 5.898 9.51 5.489 4.453-.365-4.522-2.097-3.68-3.398-7.017 1.402.43 1.663.515 3.04 1.182.213-.142.207-.229.34-.508l.091-.059c1.975.624 3.36 5.326 5.609 4.125 2.463 1.572 2.802 1.052 5.721-.231l.842-.36c4.564 2.315 7.141 3.981 11.961 5.974l1.838.77c-5.252 3.498-10.745 6.744-16.034 10.214-8.16-7.435-13.733-13.853-20.973-22.02"/><path fill="#304c72" d="M244.264 766.642c.34-3.078.139-5.646.412-8.649a62 62 0 0 1 2.275 3.344c.17.268.444.671.774.761.05.014.15.016.199-.025.218-.188.33-.971.352-1.063.636 3.472 8.126 13.331 10.839 15.659.976 4.137-1.428 4.482-3.312 8.344a214 214 0 0 0-3.531 6.149c-2.072-3.204-6.168-8.189-7.173-11.429.048-5.539-.667-8.277-.835-13.091"/><path fill="#eee5ca" fill-opacity=".008" d="M266.027 238.296c.996 5.421 2.689 12.676 4.083 18.002-4.908 6.05-9.115 8.735-13.602 13.559-.437.076-3.35-1.029-4.186-1.304-.163-.29-.346-2.558-.426-3.053l.321-.588c.784-3.547 6.268-8.057 9.052-10.87-.798-3.118-1.51-6.612-2.543-9.622.927-2.246 5.388-2.64 6.972-5.55z"/><path fill="#eee5ca" fill-opacity=".549" d="M238.291 799.156c.566 4.852 2.918-.302 5.624 1.759.034.891.099 5.244 1.29 5.592.433-.097.495-.545.658-.9.069 7.425.68 16.363.498 23.523 1.035 2.562 5.195 4.399 1.397 6.078l-.838-.438c.945-2.751-1.92-2.046-2.597-3.321-.704-1.328-2.219-3.886-4.769-2.772-1.84-2.523-1.867-4.879-2.41-7.744-.152-3.051.498-19.385 1.147-21.777m2.885 19.582c1.104-.491 1.794-.834 2.301-1.961.413-.917 1.314-.266 1.759-.545.055-.132.019-.015.002-.256-.112-1.668.306-3.73-.075-5.317-.001-.002-2.307-1.275-2.624-1.486l.146.835c.067.321.231 3.657.025 4.113-.795 1.758.699 3.945-1.409 2.07-2.218-1.975-1.084.984-.125 2.547"/><path fill="#eee5ca" fill-opacity=".529" d="M242.539 809.173c.317.211 2.623 1.484 2.624 1.486.381 1.587-.037 3.649.075 5.317.017.241.053.124-.002.256-.445.279-1.346-.372-1.759.545-.507 1.127-1.197 1.47-2.301 1.961-.959-1.563-2.093-4.522.125-2.547 2.108 1.875.614-.312 1.409-2.07.206-.456.042-3.792-.025-4.113z"/><defs><linearGradient id="c" x1="239.34" x2="249.929" y1="789.366" y2="793.113" gradientUnits="userSpaceOnUse"><stop offset="0" stop-color="#efe6cf" stop-opacity=".863"/><stop offset="1" stop-color="#ebe4cb" stop-opacity=".98"/></linearGradient></defs><path fill="url(#c)" d="M238.625 778.582c2.003 5.505 3.578 4.9 6.474 1.151 1.005 3.24 5.101 8.225 7.173 11.429a214 214 0 0 1 3.531-6.149l.568 1.52-.059 1.219-.593.969-.228.522c-2.786 6.544-4.556 3.924-8.333 8.306-.577-.495-1.092-.758-1.746-1.146l-.477.144c-1.358.358-.744 2.936-1.02 4.368-2.706-2.061-5.058 3.093-5.624-1.759.424-6.881-.075-13.735.334-20.574"/><path fill="#eee5ca" fill-opacity=".757" d="M246.361 829.13c-.179-.013 1.853.119 1.667.023 4.389 2.263 16.892 16.096 18.939 19.578-.443-.054-2.492-.467-2.683-.437-2.753 2.584 1.221 6.414 2.716 7.967-1.976-.816-10.155-5.193-11.534-6.404-.5-1.1-2.389-4.73-3.129-5.951l.328-.333c2.194.43 1.924-2.91.843-3.561-2.803-1.688-2.765-3.068-5.75-4.804 3.798-1.679-.362-3.516-1.397-6.078"/><path fill="#304c72" d="M729.828 136.907c4.513.105 4.956.214 9.358.853-1.997 10.04 1.905 15.147 5.183 24.283l.172.488c-.768.081-.828-.071-1.417-.632-8.486-8.074-13.268-12.902-13.296-24.992"/><path fill="#efe4ca" fill-opacity=".973" d="M264.089 195.484c4.22 3.706 10.348 10.157 14.029 14.416-2.48 2.618-5.404 5.443-8.031 7.95-.055-1.154.197-4.66-.083-5.326-.381-.131-.633.205-.999.317-.297-.119-.308-.04-.271-.37.311-2.772-.665-2.485-2.431-4.098-3.314-3.212-7.151-5.708-10.735-8.727 4.065-.661 2.966 1.049 5.571 1.641 6.787 1.541 3.081-4.152 2.95-5.803"/><path fill="#eee5ca" fill-opacity=".827" d="M241.606 250.091c-1.376-9.77-2.126-45.397-1.862-57.688.009-.445 1.709-.905 2.392-1.159 3.509 1.605 3.075.002 3.148 4.837l-.435-.785c-.939-1.751-2.276-3.829-4.333-2.138-1.483 2.247.382 5.845.257 9.078-.159 4.111-.554 10.643.178 14.264.827 4.087-1.783 12.676 3.618 9.857-1.414 10.016-.357 3.824 3.35 8.911l.109-.264c.879.841.039 2.865-.201 3.94a14 14 0 0 0-.833 1.67c-.225-.245-.107-.169-.32-.271-.204.147-.259.347-.362.597l-.154-.063c-.076-.322-.072-.353-.23-.606-.168.024-.081-.011-.258.13-.073.191-.326 1.265-.158 1.083-3.828 4.151-3.07 2.884-3.906 8.607"/><path fill="#eadcbd" d="M604.136 515.887c2.999 2.699.733 2.597 7.214 6.877.01 3.711.169 7.8.114 11.503-.015.972-2.053 2.097-2.987 2.816-1.415.934-2.787 1.928-4.22 2.837-.258-7.279-.269-16.682-.121-24.033"/><path fill="#eee5ca" fill-opacity=".886" d="M239.071 743.688c1.813 4.014 1.831 6.439 5.447 2.176.919.943 5.319 7.313 5.232 7.992-.988.082-1.111 1.061-1.756 2.069a347 347 0 0 0-.095 3.385c-.302-1.104-.557-2.845-1.689-3.421-.408.071-.509.1-.886.183-.551.674-.609 1.11-.648 1.921-.273 3.003-.072 5.571-.412 8.649-.975-5.756-.466-4.49-4.968-3.091-.629-1.197-.328-17.368-.225-19.863"/><path fill="#efe4ca" fill-opacity=".988" d="M247.05 178.091c3.41 3.817 7.197 7.598 10.824 11.239-3.129 1.407-5.759 3.468-6.787 6.813-.683-.519-2.517-2.049-3.335-2.092-.749.516-.47 7.813-.483 9.083-2.08-2.663-.979-3.775-1.985-7.053-.073-4.835.361-3.232-3.148-4.837 2.78-1.271 3.933-1.979 6.472-3.706-.862-1.946-2.131-4.217-2.867-6.038.444-.809.744-1.573 1.008-2.459z"/><path fill="#eee5ca" fill-opacity=".82" d="M262.486 212.816c3.14-.155 4.658-.051 4.801 3.775.138 3.705-4.299 3.783-5.279 6.415-.272.723.378 3.605 1.262 3.878 1.1 2.082 1.723 6.27 2.263 8.704-7.443 1.26 1.823-7.093-9.539-3.906l-.495-.861c-.66-3.63-2.017-1.485-3.295-4.111 1.865-2.815 3.436-3.398 3.743-6.636.415-.641.537-.776 1.041-1.346.295 7.049 1.956 3.412 4.78 1.736 3.079-1.827 4.395-5.313.879-6.648l-.827-.337z"/><path fill="#eee5ca" fill-opacity=".8" d="M247.158 797.549c3.777-4.382 5.547-1.762 8.333-8.306l.228-.522c.523 4.344 1.682 4.484 5.369 2.379-1.308 2.725-2.745 5.399-4.219 8.038.538 1.052 2.195 3.255 1.076 3.981-4.967-.018-5.309 2.769-5.98 6.436-1.309-1.627-4.233-9.84-4.807-12.006"/><path fill="#eadcbd" fill-opacity=".2" d="M241.606 250.091c.836-5.723.078-4.456 3.906-8.607-.168.182.085-.892.158-1.083.177-.141.09-.106.258-.13.158.253.154.284.23.606l.154.063c.103-.25.158-.45.362-.597.213.102.095.026.32.271-.218 5.463.104 11.98-.105 18.219-.578 6.031.426 2.935-3.268 6.246-.397.356-.519 1.34-1.321 1.452-.401-.422-.364-10.967-.708-13.215-.059-1.168-.04-2.062.014-3.225"/><path fill="#eadcbd" d="M490.89 518.998c.734 1.121.466 18.818.482 21.439a78 78 0 0 1-3.846-3.079c-.912-.846-2.217-1.804-3.227-2.643l.112-10.331.359-.284a104 104 0 0 0 6.12-5.102"/><path fill="#eee5ca" fill-opacity=".906" d="M257.874 189.33c1.043.917 5.56 5.204 6.215 6.154.131 1.651 3.837 7.344-2.95 5.803-2.605-.592-1.506-2.302-5.571-1.641-1.233-.778-3.289-2.496-4.481-3.503 1.028-3.345 3.658-5.406 6.787-6.813"/><path fill="#efe4ca" fill-opacity=".459" d="M244.569 226.357c-5.401 2.819-2.791-5.77-3.618-9.857-.732-3.621-.337-10.153-.178-14.264.125-3.233-1.74-6.831-.257-9.078 2.057-1.691 3.394.387 4.333 2.138l.435.785c1.006 3.278-.095 4.39 1.985 7.053.129 4.301.197 8.105.11 12.425-.598.707-.909.836-1.695 1.367 1.09-4.067 1.55-3.201 1.249-8.169-.239-3.95-2.25-2.95-5.161-1.92-.883 4.866-.44 11.454.256 16.407.08.567 1.872.196 3.031.54l.025 1.556z"/><path fill="#eadcbd" fill-opacity=".988" d="M705.673 166.609c.187-.19.606-.465.465-.783-1.418-1.053-5.881-.624-6.237-2.059l.114-.152c-.099.028 7.336-.013 7.737.103 1.149.332 7.923-.084 8.396-.289.363-.536-.186-1.443.377-1.896 1.315-1.06 3.156-.773 4.705-.818-.316.939-.844 2.031-.544 3.001 2.182 1.138 7.561 1.334 10.891 2.835-4.318.609-20.286.117-25.904.058"/><path fill="#eee5ca" fill-opacity=".988" d="M688.892 154.079c2.304-.318 17.777-.322 18.333-.738-.427-.229-3.689-1.627-3.054-2.267 3.995-.849 10.883.675 14.836.234 1.728.17 3.7-.079 4.84 1.505.398.553 1.504 2.047 2.342 1.626.804-1.233.027-1.169 1.533-2.459.175.432 1.191 2.48.953 2.997.019-.007-37.646-.666-39.783-.898"/><path fill="#eee5ca" fill-opacity=".482" d="M255.994 231.682c11.362-3.187 2.096 5.166 9.539 3.906.238 1.049.344 1.663.494 2.708l-.329.574c-1.584 2.91-6.045 3.304-6.972 5.55a13 13 0 0 1-.567-1.7 124 124 0 0 1-1.006-4.475c-.439-2.181-.759-4.376-1.159-6.563"/><path fill="#efe4ca" fill-opacity=".733" d="M719.485 142.418c.316-2.719.05-3.921 3.356-3.643 1.711.144 1.192 2.101 1.09 3.226.067 2.808-.918 4.94 2.297 5.177l.341.775c-4.315.223-5.023 3.341-1.35 4.387.057.016 1.808-1.21 2.248-1.434l.255 1.074c-1.506 1.29-.729 1.226-1.533 2.459-.838.421-1.944-1.073-2.342-1.626-1.14-1.584-3.112-1.335-4.84-1.505 1.128-4.736-5.167-1.029-6.228-2.522 2.007-2.049 7.759 4.36 6.706-6.368m3.282 2.31c1.284-2.894 1.827-5.097-1.439-5.564-1.453 3.457-2.871 5.313 1.439 5.564"/><path fill="#eee5ca" fill-opacity=".541" d="M721.328 139.164c3.266.467 2.723 2.67 1.439 5.564-4.31-.251-2.892-2.107-1.439-5.564"/><path fill="#eadcbd" fill-opacity=".702" d="M264.377 774.772c.97.838 1.919 2.448 2.65 3.535-.796 1.821-2.076 5.543-3.206 7.028-2.799-1.443-5.491-3.72-6.67.476l-.78.722-.568-1.52c1.884-3.862 4.288-4.207 3.312-8.344 2.52.402 2.859 1.252 4.763-1.334z"/><path fill="#eadcbd" fill-opacity=".604" d="M241.592 253.316c.344 2.248.307 12.793.708 13.215.802-.112.924-1.096 1.321-1.452 3.694-3.311 2.69-.215 3.268-6.246.047 1.754-.407 7.999.252 9.127 1.291 1.34 1.215 1.302 2.119 2.952-7.766-5.423-.488 2.599-5.603 4.781-1.219.52-1.847 1.626-2.137 2.756l-.464 1.878c-.032-2.264.315-4.469.429-6.78.333-6.755-.148-13.494.107-20.231"/><path fill="#eee5ca" fill-opacity=".827" d="M241.166 508.399c3.119.806-.379 2.996-1.615 4.457-.915 1.202-.516 1.846.414 2.788l-.131.376c-1.934 1.707.546 2.683 1.787 3.939l-.651-.06-1.227-.197c-2.256-.028-2.992-.186-3.7-2.425-.464-1.468-1.895-1.183-3.048-1.421-.27-.056-.52-.825-.555-1.07-.304-2.611-1.873-3.725-4.024-4.924 3.983-2.034 3.681 1.153 5.169 4.758 2.09-2.043 4.081-4.845 6.756-5.881z"/><path fill="#efe4ca" fill-opacity=".894" d="M233.467 503.316c4.538 3.154-1.637 6.194 7.699 5.083l-.825.34c-2.675 1.036-4.666 3.838-6.756 5.881-1.488-3.605-1.186-6.792-5.169-4.758-.178.588-.302 1.216-.435 1.815l.163 1.955-.244 1.008c-.455-.525-2.115-2.379-1.929-2.927.706-2.08 6.055-6.906 7.496-8.397"/><path fill="#efe4ca" fill-opacity=".863" d="M266.303 208.373c1.766 1.613 2.742 1.326 2.431 4.098-.037.33-.026.251.271.37.366-.112.618-.448.999-.317.28.666.028 4.172.083 5.326-2.501 3.262-5.926 4.753-6.817 9.034-.884-.273-1.534-3.155-1.262-3.878.98-2.632 5.417-2.71 5.279-6.415-.143-3.826-1.661-3.93-4.801-3.775 1.411-1.539 2.477-2.912 3.817-4.443"/><path fill="#eadcbd" fill-opacity=".008" d="M267 856.261c-1.495-1.553-5.469-5.383-2.716-7.967.191-.03 2.24.383 2.683.437 1.759 2.494 8.048 7.033 5.91 10.131-.537.779-5.053-2.268-5.877-2.601"/><path fill="#eee5ca" d="M237.144 820.933c.543 2.865.57 5.221 2.41 7.744 1.682 2.648 4.554 4.786 7.366 6.093l.838.438c2.985 1.736 2.947 3.116 5.75 4.804 1.081.651 1.351 3.991-.843 3.561-4.816-5.442-10.669-9.673-15.681-15.145z"/><path fill="#efe4ca" fill-opacity=".537" d="M228.416 509.862c2.151 1.199 3.72 2.313 4.024 4.924.035.245.285 1.014.555 1.07 1.153.238 2.584-.047 3.048 1.421.708 2.239 1.444 2.397 3.7 2.425l1.227.197-.509.789c-1.31 2.013-3.838.655-1.782 3.092a60 60 0 0 1-1.979-.118c-2.946-2.848-5.681-6.09-8.8-9.022l.244-1.008c3.964 4.162 3.079-1.663-.163-1.955.133-.599.257-1.227.435-1.815"/><path fill="#eee5ca" fill-opacity=".918" d="M245.684 216.926c.786-.531 1.097-.66 1.695-1.367.025 4.954-.235 9.797-.252 14.757a144 144 0 0 1 8.82-10.242c-.307 3.238-1.878 3.821-3.743 6.636-1.458 1.72-.915 3.989-4.557 4.637-3.512.624-2.495-3.833-2.563-6.007l-.025-1.556c.501-1.713.548-4.942.625-6.858"/><path fill="#eee5ca" fill-opacity=".4" d="M241.52 278.449c.29-1.13.918-2.236 2.137-2.756 5.115-2.182-2.163-10.204 5.603-4.781.873 1.653 1.654 1.993 3.3 2.865-1.342 1.248-4.012 4.186-5.261 4.88-2.24-.893-3.553-.53-5.779-.208"/><path fill="#eee5ca" fill-opacity=".722" d="m261.82 213.479.827.337c3.516 1.335 2.2 4.821-.879 6.648-2.824 1.676-4.485 5.313-4.78-1.736 1.777-1.74 3.163-3.466 4.832-5.249"/><path fill="#eadcbd" fill-opacity=".412" d="M257.151 785.811c1.179-4.196 3.871-1.919 6.67-.476-.9 2.08-1.797 3.751-2.733 5.765-3.687 2.105-4.846 1.965-5.369-2.379l.593-.969c2.262 1.812 5.368-1.712.839-1.941"/><path fill="#eee5ca" fill-opacity=".894" d="M245.084 225.34c.068 2.174-.949 6.631 2.563 6.007 3.642-.648 3.099-2.917 4.557-4.637 1.278 2.626 2.635.481 3.295 4.111l-.408.083c-4.499-5.066-4.387 2.67-4.8 5.15-.84 1.145-1.511 1.865-2.464 2.89.24-1.075 1.08-3.099.201-3.94l-.109.264c-3.707-5.087-4.764 1.105-3.35-8.911z"/><path fill="#efe4ca" fill-opacity=".925" d="M233.467 503.316a357 357 0 0 1 3.395-3.456c1.191.5 1.902 1.054 2.563.586 2.564.854-4.881 4.819-2.597 6.887 1.689 1.529 3.359.531 5.445.251 4.864.457-1.549 4.68-2.722 5.272 1.236-1.461 4.734-3.651 1.615-4.457-9.336 1.111-3.161-1.929-7.699-5.083"/><path fill="#efe4ca" d="M239.834 516.02c3.975 4.774 9.747 8.838 13.511 13.295-2.249 1.201-3.634-3.501-5.609-4.125l-.091.059c-.133.279-.127.366-.34.508-1.377-.667-1.638-.752-3.04-1.182l-.162-.397c-.88-2.405-1.003-2.146-2.482-4.219-1.241-1.256-3.721-2.232-1.787-3.939"/><path fill="#eadcbd" fill-opacity=".102" d="M238.766 739.88c1.308-2.37 5.166 4.945 5.752 5.984-3.616 4.263-3.634 1.838-5.447-2.176-.058-1.346-.166-2.47-.305-3.808"/><path fill="#efe4ca" fill-opacity=".506" d="M249.26 270.912c4.688.03.219-2.358 2.636-5.412.08.495.263 2.763.426 3.053.836.275 3.749 1.38 4.186 1.304-.508 1.119-2.963 3.199-3.948 3.92-1.646-.872-2.427-1.212-3.3-2.865"/><path fill="#eee5ca" fill-opacity=".804" d="m244.103 524.178.162.397c1.301 3.337 3.033 2.495 3.398 7.017.409 5.057-4.901-3.506-5.489-4.453.659-1.107 1.29-1.905 1.929-2.961"/><path fill="#eadcbd" fill-opacity=".278" d="m240.97 519.899.651.06c1.479 2.073 1.602 1.814 2.482 4.219-.639 1.056-1.27 1.854-1.929 2.961-1.386-1.69-1.742-1.996-3.495-3.359-2.056-2.437.472-1.079 1.782-3.092z"/><path fill="#eee5ca" fill-opacity=".835" d="M247.141 267.96c1.189-.842 3.906-4.076 4.601-4.087.334.177.375.736.475 1.039l-.321.588c-2.417 3.054 2.052 5.442-2.636 5.412-.904-1.65-.828-1.612-2.119-2.952"/><path fill="#eee5ca" fill-opacity=".49" d="M239.554 828.677c2.55-1.114 4.065 1.444 4.769 2.772.677 1.275 3.542.57 2.597 3.321-2.812-1.307-5.684-3.445-7.366-6.093"/><path fill="#eee5ca" fill-opacity=".988" d="M250.291 236.054c.413-2.48.301-10.216 4.8-5.15-1.542 1.779-3.197 3.425-4.8 5.15"/><path fill="#efe4ca" fill-opacity=".506" d="M727.467 150.906c-.44.224-2.191 1.45-2.248 1.434-3.673-1.046-2.965-4.164 1.35-4.387.299.992.519 1.987.898 2.953"/><path fill="#eadcbd" fill-opacity=".796" d="M242.004 176.1c2.322-1.416 3.055.247 5.046 1.991l-.301.95c-.264.886-.564 1.65-1.008 2.459-1.351-1.927-2.261-3.583-3.737-5.4"/><path fill="#efe4ca" fill-opacity=".988" d="M244.676 757.993c.039-.811.097-1.247.648-1.921.377-.083.478-.112.886-.183 1.132.576 1.387 2.317 1.689 3.421l.377 1.7c-.022.092-.134.875-.352 1.063-.049.041-.149.039-.199.025-.33-.09-.604-.493-.774-.761a62 62 0 0 0-2.275-3.344"/><path fill="#efe4ca" fill-opacity=".302" d="M246.007 840.009c.471.469.951.913 1.434 1.369-1.053 1.631-1.09 1.516-3.023 1.676-1.524-1.294-.731-1.614.836-2.566z"/><path fill="#eadcbd" fill-opacity=".376" d="M257.151 785.811c4.529.229 1.423 3.753-.839 1.941l.059-1.219z"/><path fill="#efe4ca" fill-opacity=".4" d="M227.981 511.677c3.242.292 4.127 6.117.163 1.955z"/><path fill="#de775a" d="m602.956 649.789 1.677.801c-.471.468-1.761 1.973-2.333 2.001-.492-.63.382-2.157.656-2.802"/><path fill="#de775a" d="M279.244 652.485c1.188-3.022 1.527-1.926 1.487.483z"/><path fill="#de775a" d="M603.586 406.716c-.289-.598-1.279-2.173-.804-2.807.58.064 1.798 1.621 2.252 2.107z"/></svg>