<svg xmlns="http://www.w3.org/2000/svg" width="832" height="1280" viewBox="0 0 832 1280"><path fill="#070707" d="M369.576 155.237c-10.072-5.434-7.415-14.301-9.995-23.633-1.314-3.219-3.339-5.492-4.791-8.718-2.003-4.448 2.467-9.796 7.029-6.877.747.477 1.25.803 2.175.677-.368-6.641-3.535-14.748-4.282-21.872-3.743-35.701 16.607-60.682 52.932-63.743.381.35.943.689.862 1.273l-.702.29.016.071c.461.218 4.099.199 4.756.131 5.403-.558 13.129 2.795 17.762.998 2.499.316 4.729 1.403 6.977 2.293 26.352 10.43 35.183 35.56 31.371 61.864-.885 6.107-3.201 11.931-3.903 18.244 1.694-.199 5.843-1.178 7.045.126 4.901 5.191-1.367 10.207-2.818 14.878-1.399 3.849-1.688 17.467-4.535 19.918-6.848 5.896-5.15 2.609-6.686 12.705-1.619 10.643-9.022 18.325-16.327 25.923-.892 14.01 1.631 22.026 14.04 29.497 14.541 8.756 33.963 13.196 47.424 23.191 18.68.728 40.676 3.149 54.204 17.77 13.265 14.338 16.512 35.895 15.41 54.74-.441 7.527-1.981 16.929-.941 24.14 1.731 11.994 8.77 29.428 8.785 41.185.118 16.663-4.687 35.05-.78 51.611 6.367 26.986 24.594 45.191 25.427 74.629.677 23.916-2.537 46.656-3.944 70.513-.764 12.941 3.396 23.725 4.489 36.318.557 5.845-4.013 13.629-4.088 20.071-.215 18.446-.082 36.835-.819 55.28-.983 1.601-2.271 3.377-3.424 4.886-6.196 8.11-11.145 16.335-16.108 25.262-6.723 2.6-31.915 12.687-37.668 11.364-1.07-1.92-2.992-9.248-2.324-11.286 2.696-3.394 8.685-4.523 12.966-5.785 1.825-3.1 2.308-3.022 5.072-4.982 11.448-8.112 17.257-26.051 8.964-38.376-.852-1.266-1.022-1.117-2.365-1.239-5.371 4.981-4.248 29.258-15.929 33.095-2.641.868-5.728.617-7.986-.952-.887-2.849 5.312-20.687 6.334-25.712 1.647-8.094.147-23.365 3.239-29.628 10.843-20.466 22.681-18.207 21.19-44.41-2.118-37.193-23.468-61.494-35.839-94.96-7.224-19.542 3.243-45.93.29-62.925-3.376-19.428-19.462-32.153-21.686-55.99-2.758 6.224-5.407 15.133-8.041 21.876-6.348 17.454-20.112 41.348-18.96 60.313 1.925 31.689 15.086 65.12 21.032 96.618 6.784 35.926 12.166 70.679 15.939 106.975 2.006 19.297 4.468 38.237 5.794 57.565.994 13.237-.476 28.307-2.977 41.252-4.749 24.587-13.143 48.196-11.93 73.55-.194 7.13 2.837 13.914 3.716 20.878.313 5.968.862 12.521.902 18.457.083 12.175 5.231 20.48 8.902 31.331 6.059 17.908 9.921 40.096 8.991 59.134-2.372 48.539-20.435 96.199-16.021 145.109.58 6.39 3.704 12.45 5.083 18.54.934 4.13.745 10.91 1.14 15.53.858 10.02 7.237 20.08 11.365 29.33 2.55 5.22 5.713 10.13 8.839 15 6.857 10.54 23.858 23.71 9.864 36.05-15.937 14.05-50.294 17.95-66.067 1.85-8.548-8.73-3.744-22.98-3.095-33.75-4.009-8.24-12.928-10.68-12.405-20.32.478-8.83 4.754-16.79 6.277-25.37.857-4.83-1.475-10.58-1.089-15.51.53-5.07 2.438-10.21 3.084-15.5 1.963-16.07-.167-31.3-3.155-47.05-3.704-19.53-9.741-38.01-16.336-56.7-5.718-16.22-11.049-29.391-14.387-46.357-4.811-24.454 5.442-38.339 6.662-61.585.643-12.25-5.059-20.318-6.359-32.011-1.423-12.8 1.566-25.816.053-38.585-2.243-18.919-9.209-36.375-15.04-54.272-9.676-29.701-17.721-58.91-17.425-90.472.084-8.966.805-18.293 1.371-27.268-5.311-.382-13.55-.031-19.079.048.014 4.774.675 10.641.906 15.561a220.4 220.4 0 0 1-.691 32.619c-2.503 23.894-9.564 48.331-16.799 71.233-5.211 16.495-9.555 29.566-12.98 46.644-3.45 17.206.554 28.508-1.254 44.685-1.325 11.847-8.478 20.128-6.78 34.395 2.468 20.74 11.594 36.732 7.265 58.18-4.234 20.972-13.093 41.125-20.105 61.435a277 277 0 0 0-12.63 54.54c-1.281 9.45-2.627 25.23-.846 34.48 2.597 13.5 3.54 17.33 1.742 30.73.502 5.07 7.367 25.57 5.92 29.12-5.958 14.62-16.412 8.48-11.447 30.05 9.42 40.93-61.467 37.98-74.516 13.31-5.433-10.27 12.049-26.88 17.401-35.51a206 206 0 0 0 13.345-25.93c1.987-4.74 4.892-12.68 4.276-17.59-1.435-11.42 4.675-20.27 5.55-31.02 4.265-53.16-17.959-104.25-16.051-157.301.208-22.749 8.578-43.991 16.269-65.029.835-3.868 1.552-8.485 1.726-12.414.376-8.493.171-16.83 2.62-25.092 6.82-23.01-.573-45.067-5.954-67.458-2.566-10.677-4.144-21.822-5.784-32.681-3.465-21.638-.481-42.935 1.696-64.653a2331 2331 0 0 1 6.405-57.395 887 887 0 0 1 17.296-96.572 1366 1366 0 0 1 9.081-36.114c2.185-8.457 6.776-25.244 6.752-33.606-.058-20.169-11.093-42.722-18.51-61.043-2.991-7.388-5.555-14.677-8.521-21.968-4.099 22.929-15.455 35.758-21.513 57.311-1.241 4.415.137 15.135.995 20.243 2.372 14.112 3.209 28.658-1.344 42.508-10.212 27.745-29.039 52.34-34 82.167-1.712 11.108-4.135 26.721 3.988 35.81 6.767 7.572 15.723 14.271 17.057 25.097.845 6.856.989 14.985 1.573 22.125.575 7.025 7.099 22.541 6.103 27.75-8.078 8.934-17.762-9.572-18.579-16.046-.483-3.839-2.629-13.589-5.782-15.42l-1.278.761c-2.685 4.505-3.826 8.545-4.907 13.619 1.469 4.953 3.62 13.418 6.233 17.62 2.974 4.785 10.204 7.405 12.76 12.199 3.231.835 9.139 1.967 11.34 4.336 1.914 2.06.602 10.711-1.505 12.707-8.435.622-29.554-8.138-37.564-11.454-5.071-8.843-11.939-21.38-19.058-28.494-2.158-18.032-.281-40.004-1.674-58.332-.444-5.849-4.62-13.226-4.074-18.709 1.288-12.931 5.622-19.947 5.271-33.775-.933-28.252-7.2-55.138-2.963-83.424 3.463-23.124 15.892-37.771 23.08-58.814 6.183-18.105.077-40.094.842-58.527.586-14.119 7.33-28.967 9.158-43.014.255-2.962-.417-6.126-.669-9.045-1.934-22.412-1.788-48.217 14.545-65.766 14.194-15.25 34.401-17.694 53.906-18.354 10.201-7.107 23.619-11.805 35.069-16.721 21.314-9.151 28.093-13.73 26.209-37.515-12.232-11.217-13.679-17.205-16.068-32.96"/><path fill="#070707" fill-opacity=".957" d="M412.644 31.071c8.822-.017 14.108-.118 22.694 2.763-4.633 1.797-12.359-1.556-17.762-.998-.657.068-4.295.087-4.756-.13l-.016-.072.702-.29c.081-.584-.481-.923-.862-1.273"/></svg>