<svg xmlns="http://www.w3.org/2000/svg" width="512" height="512" viewBox="0 0 512 512"><path fill="#020000" d="M335.982 63.938c3.261-.797 9.04-3.526 12.416-4.816 7.432-2.84 15.194-5.748 22.894-7.77 4.9-1.287 12.507-1.429 17.736-1.688a565 565 0 0 1 66.67 1.088l.281.741c-4.477 1.49-9.044 2.66-13.455 4.26-20.387 7.396-39.474 17.52-55.668 32.076a121 121 0 0 0-9.409 9.366c-1.466 1.661-6.143 7.683-7.522 8.495-5.765 3.395-13.224 6.685-19.098 9.908a309 309 0 0 0-14.401 8.326c-2.023 1.237-5.603 3.658-7.553 4.712-.397.207-.738.38-1.143.575l.145.385c.486-.164.917-.336 1.396-.518 3.322-1.632 8.938-3.383 12.594-4.853a266 266 0 0 0 24.025-11.112c-8.54 10.99-14.412 19.988-18.787 33.269-17.168 4.819-35.817 9.234-51.053 18.783-4.62 2.895-7.068 8.721-10.283 10.91-5.365 3.654-13.176 6.186-18.769 9.958l-.145.097c24.459-6.076 55.794-14.556 77.001-28.017-12.428 21.257-25.911 38.253-45.04 53.93-4.11 3.37-9.44 7.964-13.74 10.975-8.146.141-16.273-.27-24.399.243-2.136.135-5.589.144-7.606.52-1.572-.114-2.874-.028-4.433-.016-.687-.022-2.404-.111-3.013.268-.081.317.668.188.867.179 2.228.095 3.969.387 6.269.288 2.81.414 6.044.608 8.723 1.265-3.4 2.161-8.79 3.336-12.514 5.259-11.45 5.911-25.609 11.804-35.81 19.587 5.694-2.108 15.268-3.855 21.44-5.3 21.555-5.046 50.094-9.847 67.575-24.055-12.348 15.274-45.72 56.799-61.653 63.37-6.782 2.798-23.543 4.439-31.394 5.27-5.36.568-10.978 1.224-16.364 1.346-.302.003-1.42-.071-1.659.176.155.205.341.226.591.28a90.4 90.4 0 0 0 35.275 2.516c1.856-.231 4.73-.573 6.476-1.053-3.191 2.207-7.082 4.115-10.501 6.058a137 137 0 0 0-15.42 10.084c-3.962-.22-12.224-1.906-15.27-1.748l-1.33-.2c-.541-.083-2.388-.419-2.845-.273l-.022.033c.29.36 1.598.54 1.96.585.678.195 1.335.341 2.01.549 1.983.698 4.102 1.49 6.106 2.084l-.478.676c-6.22.2-12.77 1.131-18.881 2.266 7.11 1.053 15.107 2.802 19.606 8.968 7.799 10.686 4.422 23.351-1.844 33.892l-.305-.367c4.327-9.127.01-16.617-8.387-20.644-14.791-7.094-34.46 5.388-43.66 16.467-15.374 18.515-26.996 42.128-36.822 63.939A478 478 0 0 0 97.229 440c-1.156 3.04-3.15 8.063-3.952 11.041l-.38-.13a498.4 498.4 0 0 1 18.82-76.83 407 407 0 0 1 6.807-18.581c4.939-12.481 9.927-21.48 2.608-34.596-5.678-10.176-14.538-12.69-24.791-6.909-5.54 3.123-7.71 8.441-9.253 14.305 1.397-15.28 6.63-31.074 24.311-31.404 8.714-.164 12.401 3.559 18.395 9.183-1.842-2.707-4.816-7.115-7.067-9.404-6.974-7.089-12.952-13.909-18.788-21.962 4.725 1.283 8.024 2.23 12.664 3.802-2.774-2.231-7.94-6.022-10.986-7.665-.73-2.256-1.54-6.294-1.626-8.651.486-1.329.466-8.84.061-10.083-.34-3.93 4.187-13.203 6.257-16.636.209-.002.544-.048.706.134.17.2.076.547.09.765 0 .007.053.939.052.745.007 2.488.014 5.014.065 7.501.015 1.313-.321 2.868.067 4.136.011.037.11.407.1.488-.037.296.452 1.233.47 1.406.083.836-.192.968.7 1.539.04.03.34.401.377.496.004.009.391.408.394.411.302.422 1.403 3.902 1.727 4.697 3.079 7.563 9.852 15.92 16.086 21.185-1.415-3.495-3.104-7.63-3.975-11.254-2.434-10.113-2.667-23.66-1.469-33.947 3.105-26.642 17.59-55.787 35.125-75.847a159.7 159.7 0 0 1 23.605-21.93l.398.893c-15.431 24.874-15.79 56.369-4.352 82.893.095.224.22.711.427.846.307-.23.078-1.244-.031-1.582-3.639-35.765-.977-67.512 21.365-97.143a110 110 0 0 1 15.614-17.006c4.402-3.84 9.055-7.104 13.906-10.35 24.818-16.61 54.412-28.162 83.35-35.123 13.677-3.29 28.631-5.694 42.61-7.654-6.851 2.862-16.079 7.471-21.735 12.158M96.06 435.915c-.025.259-.161.934.04 1.177.152.184.422-.36.422-.449l.159-.652z"/><path fill="#373639" d="M327.876 129.596c-1.802 1.499-3.413.966-.146-.386z"/><path fill="#eb2c43" d="M328.549 68.797c12.884-6.605 29.98-13.097 43.884-16.84 6.026-1.621 19.213-1.837 25.637-1.939a581 581 0 0 1 41.612.808c3.773.199 8.689.055 12.168.643-7.09.713-13.841 2.104-20.83 3.375-49.656 9.036-99.739 21.206-143.196 48.312l-.382-.453.177-.157c2.052-1.868 4.205-4.302 6.125-6.347 9.823-10.46 20.147-18.626 32.292-26.294-44.7 14.945-81.577 38.847-103.258 82.205a134 134 0 0 0-5.683 12.917c-.381-.532-.469-.602-.513-1.237 2.201-13.79 6.92-26.256 13.66-38.403q-.487.361-.971.73c-28.218 21.49-43.416 55.247-48.03 89.758-3.931-33.441 1-65.922 21.475-93.362a106.4 106.4 0 0 1 15.802-17.233c19.971-17.326 53.672-32.744 78.744-40.254 15.204-4.554 36.106-8.91 51.788-11.172.812-.166 1.143-.398 1.746-.124-.513.457-.377.37-.978.71-8.299 3.693-14.488 8.515-21.269 14.356"/><path fill="#eb2c43" d="m301.347 116.35-.03.734a859 859 0 0 0-42.702 45.631 811 811 0 0 0-54.607 68.308 756 756 0 0 0-37.816 59.939 961 961 0 0 0-44.43 86.137c-9.11 19.964-17.273 38.212-25.081 58.892l-.62-.076c2.335-8.364 4.353-18.268 6.322-26.824 8.246-35.826 21.655-67.656 39.017-99.822a631.1 631.1 0 0 1 127.46-164.81c9.27-8.57 22.507-20.517 32.486-28.109"/><path fill="#4a1a1a" d="M301.347 116.35c.722-1.104 2.868-2.658 4.018-3.442l.11.099c-.148.474-3.653 3.625-4.158 4.076z"/><path fill="#c52d30" d="M216.175 166.289c.13-.768.219-1.785.406-2.499.045.635.133.705.514 1.238-.117.429-.257.796-.396 1.217z"/><path fill="#4a1a1a" d="m216.175 166.289.524-.044c-.099.443-.249 1.412-.578 1.759-.284-.413-.035-1.271.054-1.715"/><path fill="#4a1a1a" fill-opacity=".843" d="m96.681 435.99-.16.653c.001.089-.269.633-.421.449-.201-.243-.064-.918-.04-1.177z"/><path fill="#c52d30" d="m287.443 102.704.381.452c-1.029.889-1.293.611-.382-.453"/><path fill="#020000" d="M239.264 289.822c1.81-.96 4.306-2.057 6.427-2.974 6.469-2.798 10.482-10.748 16.883-13.121 1.182-.438 7.814-.233 9.416-.223q10.515.042 21.029.361c12.626.29 25.332.154 37.986.425 3.629 6.832 6.778 10.037 13.577 13.351.151 5.208-.069 10.528.089 15.752.069 2.285.093 4.769-.145 7.033-5.142.59-6.7.891-11.464 2.988-.158 4.045-.08 8.632-.101 12.719 5.476 9.067 22.06 11.95 31.986 13.216a79 79 0 0 0-.325 4.398c-.437 9.99 3.284 18.673 11.858 24.189 5.724 3.684 11.678 4.132 18.266 4.32l-.003 3.964c-.936 2.24-.572 11.884-.574 14.734l.053 24.977c.012 1.783-.149 10.477.123 11.53a28.9 28.9 0 0 0-14.032 3.145c-6.022 3.086-10.499 8.386-12.8 14.719-.733 2.014-.877 4.127-1.588 6.175H217.058c-2.582-16.19-12.287-22.993-28.1-24.284-.26-5.498-.166-11.978-.18-17.507a2899 2899 0 0 0-.058-37.474c3.321-.208 6.05-.149 9.403-.717 11.69-1.981 19.724-11.535 20.916-23.145.338-3.286-.141-5.976-.771-9.269 11.962-2.843 22.683-1.655 31.95-12.124l.018-12.709c-4.651-1.398-6.072-1.929-10.991-2.577q-.065-10.936.018-21.873m94.499 72.664c.675 2.093 1.077 4.393 1.704 6.521 4.205 14.272 11.382 25.577 26.457 28.913-1.32 1.058-2.539 2.182-3.782 3.327-10.209 9.405-20.87 18.44-30.978 27.945 1.903.274 5.745.13 7.854.148l16.303.158.141-.323c3.88-8.659 13.285-15.303 21.975-18.603l.01-13.007c.005-2.366-.09-6.362.272-8.584-6.841-2.954-9.772-3.64-15.684-9.12-6.353-5.888-11.683-15.85-11.824-24.626a560 560 0 0 0-24.606-3.831c-4.788-.67-9.725-1.46-14.538-1.717-.388-.053-2.802-.453-2.931-.062.141.248.685.38.946.455 3.353 1.791 7.939 3.548 11.476 5.04 5.733 2.418 11.562 4.731 17.205 7.366m-101.823 66.75q7.173-.014 14.343.265c3.157.021 6.923.13 10.022-.017-11.26-10.713-23.725-21.75-35.546-31.871 16.512-1.87 25.363-20.541 27.839-35.051 4.597-2.377 27.645-11.354 29.58-13.179l-.49.003c-6.474.415-13.122 1.488-19.56 2.418-6.722.971-14.475 1.78-21.061 3.208-2.263 15.074-12.204 29.457-27.192 33.986-.228 6.245-.232 14.96-.086 21.27 8.944 4.212 17.166 10.2 22.15 18.969"/><path fill="#eb2c43" d="M330.099 275.829c.178-.034.7.013.763.129 3.298 6.01 7.135 8.953 12.894 12.444-.47 5.959-.095 14.938-.007 21.058-7.658.204-16.408 1.415-24.108 2.038-12.696 1.03-22.582.948-35.032-1.12-4.128-.875-8.62-2.031-12.185-4.356-1.91-1.245-3.673-3.01-4.088-5.339-.317-1.775.235-3.397 1.292-4.826 8.396-11.345 46.328-17.627 60.471-20.028"/><path fill="#eb2c43" d="M292.582 366.936c.864 3.903 1.678 7.894 2.781 11.737 2.666 9.281 11.967 11.97 20.73 12.979-16.81 5.293-20.52 4.738-23.923 24.106l-.293.08c-4.813-17.748-6.072-20.347-24.235-24.09 20.437-3.489 19.349-7.338 24.94-24.812"/><path fill="#d9dada" fill-opacity=".012" d="M305.082 350.08c-.26-.075-.805-.207-.946-.455.129-.391 2.543.009 2.931.062-.796.12-1.25.094-1.985.393"/><path fill="#020000" fill-opacity=".965" d="M394.743 376.22c.01 10.111.131 38.915-.064 50.783l-.334.459c-.272-1.054-.112-9.748-.123-11.531l-.053-24.977c.002-2.85-.362-12.494.574-14.735"/><path fill="#020000" fill-opacity=".965" d="M110.31 235.48c.714-1.687 1.721-3.171 2.825-4.623l.292-.387c-2.678 7.566-1.979 14.979-.097 22.631-.002-.003-.39-.402-.394-.411-.037-.095-.337-.465-.378-.496-.892-.571-.616-.703-.7-1.539-.017-.173-.506-1.11-.47-1.406.01-.081-.088-.451-.1-.488-.387-1.268-.051-2.823-.066-4.136a417 417 0 0 1-.064-7.501c0 .194-.052-.738-.053-.745-.014-.218.08-.565-.09-.765-.162-.183-.498-.136-.706-.133"/><path fill="#020000" fill-opacity=".976" d="M104.052 252.116c.405 1.243.424 8.754-.061 10.083-.497-2.405-.485-7.69.061-10.083"/><path fill="#d9dada" fill-opacity=".984" d="M248.636 223.765c1.559-.011 2.861-.097 4.434.016l-.311.719c-2.3.099-4.04-.194-6.269-.288.806-.135 1.35-.244 2.146-.447"/><path fill="#373639" fill-opacity=".8" d="m196.231 355.768.305.368c-.222.341-1.531 2.221-1.879 2.302-.405-.187 1.379-2.409 1.574-2.67"/><path fill="#020000" fill-opacity=".91" d="M184.43 136.006c.39-.427 1.502-1.156 2.022-1.55-.553.808-1.088 1.624-1.625 2.442z"/><path fill="#777278" fill-opacity=".949" d="M190.017 307.7c-.362-.046-1.67-.226-1.96-.585l.023-.033c.456-.146 2.303.19 2.844.272-.324.108-.593.219-.907.346"/><path fill="#d9dada" fill-opacity=".012" d="m190.924 307.355 1.33.2-.227.694c-.675-.208-1.332-.355-2.01-.549.314-.127.583-.238.907-.346"/><path fill="#020000" fill-opacity=".976" d="M455.698 50.752c.549-.002 1.665-.164 2.009.155l.074-.153c.132.039.076.008.174.086l-.002.051c-.274.245-1.473.444-1.974.602z"/><path fill="#020000" fill-opacity=".973" d="M198.133 310.333c.244.064 1.381.291 1.502.54-.105.226-1.69.133-1.98.137z"/><path fill="#5e6060" fill-opacity=".973" d="M246.49 224.212c-.199.008-.948.138-.868-.179.61-.38 2.327-.29 3.014-.268-.797.203-1.34.312-2.146.447"/><path fill="#777278" fill-opacity=".118" d="M180.87 219.055c.11.338.339 1.352.031 1.582-.206-.135-.331-.623-.427-.846z"/><path fill="#d9dada" fill-opacity=".153" d="m328.873 128.636.398.442c-.479.182-.91.354-1.396.518l-.145-.386c.405-.194.746-.367 1.142-.574"/><path fill="#b6b7b5" fill-opacity=".278" d="M191.694 291.698c-.25-.054-.436-.075-.59-.28.238-.247 1.356-.173 1.658-.176q-.536.222-1.068.456"/><path fill="#020000" fill-opacity=".537" d="m92.898 450.91.379.131c-.056.161-.264 1.041-.459 1.059-.291-.201-.005-.947.08-1.19"/></svg>