<svg xmlns="http://www.w3.org/2000/svg" width="512" height="512" viewBox="0 0 512 512"><path fill="#101010" d="M165.811 170.253c5.243-4.533 10.482-9.22 14.879-14.66 9.018-11.16 13.778-25.917 17.274-39.656 1.777-6.983 2.695-14.427 6.028-20.993 5.105-10.058 22.203-23.607 32.415-27.458a36.3 36.3 0 0 1 15.075-2.195c13.991 1.022 28.362 11.734 37.624 21.936 7.793 8.538 8.213 20.336 11.132 30.986 3.385 12.342 7.229 24.859 14.562 35.507 4.94 7.176 11.359 10.938 17.276 16.671-3.615 5.044-8 11.363-11.245 16.67l.264.111c1.636.677 3.415 1.101 5.104 1.688 6.278 2.182 8.309 5.301 11.376 10.842 5.744.893 11.48 1.072 16.92 3.614 5.81 2.716 7.484 8.976 10.758 13.9 7.221 3.43 14.91 6.005 21.924 9.784.76.41 1.443 7.564 1.611 8.97q1.11 9.002 2.075 18.022c.288 2.68 1.02 10.248 1.766 12.684 2.58 1.247 6.31 3.163 8.895 4.127-5.846 12.623-6.346 20.46 2.813 31.243 10.858 12.784 23.067 20.562 38.178 27.38l.462.209c-.721.445-1.807.262-2.774.372-5.067-.147-10.261-.729-15.31-.903-5.925-.203-12.283-.225-18.201.001a259.8 259.8 0 0 0-117.158 34.009c-10.719 6.071-19.428 11.987-29.468 18.874-2.432 1.875-4.718 3.634-7.05 5.635 1.93-2.22 4.513-6.083 6.444-8.608 23.025-31.097 62.682-53.056 99.475-63.227 1.743-.482 3.503-.946 5.252-1.411.66-.144 1.308-.308 1.966-.45.222-.037 1.1-.095 1.207-.326-.254-.305-1.459-.092-1.813.01-.914.11-1.853.175-2.748.292-3.983.241-7.983.922-11.934 1.518a245 245 0 0 0-39.709 9.238c-51.695 17.009-103.175 49.197-134.662 94.226-4.906 7.016-10.218 14.851-14.076 22.498-2.043-2.061-4.582-6.048-5.975-8.553-11.03-19.835-12.039-44.733-5.667-66.271 7.796-26.347 27.182-49.873 49.334-65.679 3.184-2.271 6.525-4.721 9.883-6.631 1.196-.687 1.951-1.2 3.079-1.957-1.53.564-1.954.677-3.319 1.52-53.781 22.613-106.342 74.34-98.246 137.957.634 4.984 2.117 9.52 3.367 14.332-5.881-5.437-12.136-11.126-17.202-17.342-15.543-19.07-28.808-45.872-29.696-70.768q-.05-1.476-.061-2.953a234 234 0 0 0 27.709-58.66c1.277-4.239 3.386-9.602 2.33-13.78a392 392 0 0 0-3.123-11.611c2.938-1.506 7.371-3.524 10.025-5.127.403-5.334 1.369-11.082 2.184-16.406l3.455-22.332c7.503-3.733 14.968-6.91 22.521-10.365 6.772-14.424 10.195-15.594 26.17-17.023 5.149-8.891 8.866-9.41 18.686-12.355-2.873-3.703-5.543-7.67-8.2-11.539-1.11-1.617-2.963-4.025-3.861-5.587m58.445 45.402c.268.232.976.82 1.352.7.202-.396-.88-1.147-1.135-1.36a130.5 130.5 0 0 1-27.946-32.703c-1.596-2.601-3.816-6.112-4.863-8.927 6.675-11.61 21.965-23.977 32.868-31.706 7.172-5.085 19.178-12.494 28.247-10.855 12.582 2.273 37.366 24.999 46.364 34.963 2.261 2.503 4.254 5.209 6.195 7.961-5.998 11.477-18.9 31.377-28.842 40.017l.26.588c16.346-10.922 29.434-25.138 39.899-41.757-4.115-4.421-8.596-8.704-12.978-13.425-13.09-14.103-28.366-32.504-46.817-39.365-7.556-2.81-14.868-.814-21.754 2.647l-.843-.732a164 164 0 0 1 13.864-13.373c3.344-2.887 7.29-5.505 10.204-8.769.87-.972.726-1.913.736-3.124-.401-5.299-5.263-9.102-9.166-11.93 14.676 3.168 26.39 10.01 34.718 22.772 2.659 4.075 4.096 7.722 6.341 11.804-3.782-14.864-11.048-30.218-24.662-38.565-5.769-3.538-14.629-6.442-21.461-4.315-10.602 3.302-25.35 13.923-31.183 23.634-2.666 4.439-3.773 11.99-5.117 17.114-5.2 19.829-11.395 41.837-29 54.302 2.23 3.992 4.353 6.821 7.025 10.448 10.593 14.383 22.527 24.582 37.694 33.956m153.45 18.018c-8.725-3.288-17.189-7.352-25.964-10.667a268 268 0 0 0-10.692 10.311c11.986 2.552 16.38 3.864 27.641 8.487 2.491 4.459 4.725 9.296 5.963 14.258.176.948.389 1.954.508 2.905 2.031.721 3.503 1.183 5.589 1.721-.296-8.49-2.313-18.216-3.045-27.015m-253.13 20.517c1.725-5.099 3.68-8.279 6.28-12.903 9.403-4.171 21.265-6.409 31.319-8.323-1.88-1.276-14.45-10.309-14.984-10.442-8.698 3.405-18.036 7.684-26.565 11.617a607 607 0 0 0-2.738 16.468c-.45 2.868-1.283 7.498-1.378 10.294 2.105-.822 5.1-2.183 7.102-2.834.264-1.25.508-2.707.965-3.877m262.03 31.206a559 559 0 0 0 1.044-10.494c-12.977-6.358-27.33-11.433-41.871-12.179-.634-.096-3.812-.397-4.295-.129l-.02.044c.191.238.613.267.906.31 13.332 4.53 26.202 8.188 37.639 16.899 2.296 1.75 4.416 3.664 6.596 5.549m-276.656.162c2.778-2.25 5.921-4.909 8.799-6.957a116.3 116.3 0 0 1 34.596-16.495 28 28 0 0 1 1.71-.382c.236-.097.596-.18.779-.36l-.019-.044c-.355-.156-1.162-.067-1.544-.046-.593.129-.738.147-1.278.37-15.424 1.267-31.492 7.468-45.297 14.378.559 2.671 1.354 7.099 2.254 9.536m239.704-74.282c-3.684-.07-8.1-.732-11.755-1.234-2.768 2.06-5.704 3.614-8.714 5.273 1.13-12.093-.176-16.141-12.486-19.129-5.019 4.75-10.01 10.725-15.262 15.69-11.642 11.003-24.184 20.027-38.142 27.825-.762.114-3.067 1.514-3.788 1.952 1.545-.414 3.126-.812 4.557-1.54 22.407-8.449 38.763-16.14 56.217-32.522-2.15 17.063-15.868 31.546-27.877 42.924 7.784-4.194 18.505-11.392 26.033-16.371 9.181-6.073 23.101-15.432 31.216-22.868m-208.38 97.306c1.166-.66 2.206-1.671 3.15-2.601-.977.595-2.551 1.47-3.337 2.159-.52.264-.905.48-1.4.788-1.12.638-2.462 1.247-3.625 1.832-10.35 5.21-19.808 11.952-28.824 19.22 5.249-16.273 11.1-31.853 21.532-45.666.267-.258 1.098-.972 1.065-1.394-.269-.337-1.193.589-1.349.74-7.616 6.084-15.242 12.506-21.443 20.247-1.335 1.666-2.982 6.317-3.876 8.526a275 275 0 0 1-3.954 9.215 462 462 0 0 1-10.86 21.8c-2.335 4.452-4.644 9.023-7.219 13.329 1.552 12.075 2.965 22.245 7.295 33.949 1.457 3.939 3.433 8.025 5.11 11.909-.243-5.81.376-11.107 1.213-16.825 4.553-31.11 22.2-56.148 45.421-76.452q.555-.383 1.101-.776m93.725-69.834a209.8 209.8 0 0 1-46.341-34.356c-1.834-1.8-6.084-5.308-7.438-6.903-10.816 3.088-12.84 6.89-12.418 17.834-3.004-1.424-6.706-3.55-9.667-5.202q-4.857.837-9.757 1.355c2.43 2.36 5.892 5.008 8.618 7.15a256.2 256.2 0 0 0 45.802 28.237c2.569 1.208 6.226 3.016 8.797 3.792-13.333-10.86-27.434-23.086-31.328-40.687 4.493 3.432 9.404 7.266 14.051 10.388 11.721 7.874 26.322 14.55 39.68 19.227l.269.066c.215.05 1.194.382 1.365.188-.025-.298-1.406-.963-1.633-1.089"/><path fill="#101010" fill-opacity=".953" d="M225.28 115.274a162 162 0 0 1-9.425 15.612c-2.6 3.787-5.62 7.665-8.118 11.376l-.347-.109c6.033-11.113 9.725-17.105 17.89-26.88"/><path fill="#353437" fill-opacity=".776" d="m207.39 142.153.347.11c-.096.158-.572 1.152-.848 1.087-.18-.347.315-.929.501-1.197"/><path fill="#101010" fill-opacity=".91" d="m234.264 121.702.842.731c-1.089.787-2.55 1.605-3.716 2.342.825-.876 2.066-2.319 2.874-3.074"/><path fill="#e8eaec" fill-opacity=".592" d="M259.507 241.653c.721-.437 3.026-1.838 3.788-1.952l.769.412c-1.431.728-3.012 1.126-4.557 1.54"/><path fill="#acafaf" d="M273.73 216.084c.918-.789 1.777-1.626 2.766-2.339l.26.588c-.681.729-1.68 1.262-2.464 1.96z"/><path fill="#868a8c" fill-opacity=".855" d="M144.425 305.98c-.946.93-1.985 1.942-3.151 2.601l-.186-.442c.785-.689 2.359-1.563 3.337-2.159"/><path fill="#acafaf" fill-opacity=".086" d="M342.37 262.949c-.293-.045-.715-.073-.906-.311l.02-.043c.483-.269 3.661.032 4.295.128-1.243.126-2.185.067-3.41.226"/><path fill="#e8eaec" fill-opacity=".337" d="M128.487 283.66c.155-.151 1.08-1.077 1.348-.74.033.422-.798 1.136-1.065 1.394z"/><path fill="#6a686a" d="M271.421 218.36c.853-.965 1.31-1.432 2.309-2.276l.562.208c-.864.691-1.954 1.416-2.871 2.068"/><path fill="#e8eaec" fill-opacity=".027" d="M234.999 238.748c.227.126 1.608.79 1.633 1.089-.171.194-1.15-.138-1.365-.188l-.27-.066z"/><path fill="#e8eaec" fill-opacity=".082" d="M224.474 214.995c.254.213 1.336.964 1.134 1.36-.376.12-1.084-.468-1.352-.7z"/><path fill="#e8eaec" fill-opacity=".071" d="M152.993 261.644c.54-.223.685-.241 1.278-.37l.785.45a28 28 0 0 0-1.711.382z"/><path fill="#e8eaec" fill-opacity=".141" d="m141.088 308.14.186.442q-.545.393-1.1.776l-.488-.43c.496-.308.881-.524 1.401-.788"/><path fill="#868a8c" fill-opacity=".325" d="M154.27 261.274c.382-.021 1.19-.11 1.545.046l.019.043c-.183.182-.543.264-.779.36z"/><path fill="#101010" fill-opacity=".953" d="M442.977 329.635q1.3.474 2.541 1.089c-1.521-.224-4.008-.456-5.315-.717.967-.11 2.053.073 2.774-.373"/><path fill="#e8eaec" fill-opacity=".043" d="M362.8 313.903c.894-.118 1.833-.183 2.747-.292l.606.316c-.658.142-1.305.305-1.966.45-.63-.309-.704-.31-1.387-.474"/><path fill="#e8eaec" fill-opacity=".153" d="M209.753 293.813c1.365-.844 1.79-.957 3.319-1.52-1.128.757-1.883 1.269-3.079 1.956z"/><path fill="#868a8c" fill-opacity=".361" d="M365.547 313.611c.354-.102 1.56-.315 1.813-.01-.108.231-.985.29-1.207.326z"/></svg>