<svg xmlns="http://www.w3.org/2000/svg" width="1024" height="1024" viewBox="0 0 1024 1024"><path d="M513.836 364.95c-3.793-1.969-9.343-5.329-12.736-7.78-7.369-5.325-13.258-12.283-14.482-21.617-2.199-16.786 5.679-28.493 14.465-41.658a814 814 0 0 1 10.97-16.153c10.619-15.017 8.831-12.793 12.765-30.774 4.418-20.2 10.392-40.651 23.208-57.248 15.17-19.648 37.331-34.375 62.011-38.849 13.095-2.352 35.054 9.23 45.163 17.256 35.038 27.818 40.979 57.994 46.576 98.986 7.675 9.225 19.864 32.422 25.358 43.68 5.546 11.365 1.813 22.664-2.417 33.678 12.517-.073 27.119.165 37.733 7.845 4.833 3.497 7.278 8.401 9.997 13.52 14.029 1.63 26.112 5.804 35.426 17.026 22.115.971 66.713 15.876 77.326 36.34-4.091 19.836-16.29 34.623-31.855 47.249 3.526 3.947 7.617 9.781 11.047 14.035 3.146 3.902 7.797 9.239 10.152 13.37-3.932 10.002-10.168 14.555-18.851 20.092 9.037 21.894 16.854 37.176 31.45 55.697-8.786 7.967-17.246 11.554-29.042 11.961 4.396 18.501 9.681 42.592 15.852 60.369-1.433 2.261-2.731 4.681-4.147 6.986-37.287 60.688-89.685 120.679-154.861 151.788-8.281 3.953-21.571 9.811-30.23 12 36.257-27.114 58.461-61.47 69.045-105.176 5.737-23.692 7.284-40.508 1.763-64.587-3.476 12.783-7.108 26.295-12.735 38.437-26.851 57.94-79.575 106.74-134.813 137.341-16.56 9.174-36.185 17.347-53.763 24.084q2.262-1.44 4.495-2.923c13.965-9.289 26.244-20.065 38.07-31.886 40.619-40.601 70.444-90.352 81.821-146.985.268-1.126 1.341-5.174.704-6.054l.012.235-.413.2c-.303.929-.634 1.715-.794 2.687-9.439 22.687-22.22 47.961-37.575 67.477-41.676 52.969-104.391 98.099-166.492 123.781-35.251 14.578-76.417 24.285-114.47 24.178-4.647-.013-13.431.112-17.773-.542l.537-1.673c10.334-3.837 25.804-10.537 35.046-16.501 32.986-21.284 65.274-60.523 82.689-95.437a244.5 244.5 0 0 0 18.895-53.017c-7.017 7.148-14.127 14.361-21.88 20.663-34.012 27.645-77.121 41.268-120.71 41.935-46.823.717-88.545-12.037-122.841-44.821 22.552 14.65 79.446 14.201 91.677-15.984 4.838-11.374-2.827-24.117-11.969-30.997-45.57-34.292-120.404-4.105-151.547 35.922l-1.13-1.303c.543-1.858 1.545-4.18 2.381-5.952 25.046-53.113 75.269-91.453 132.986-101.966 22.102-4.026 42.445-4.694 63.468-13.107 29.704-11.887 47.667-32.185 60.094-61.278-7.202-4.438-13.074-7.007-17.581-14.355a1451 1451 0 0 0 23.37-33.17c-18.364-15.145-26.122-26.844-31.589-50.379 33.291-.535 55.562-14.109 79.652-35.838 5.613 11.895 9.443 16.322 19.71 24.289-5.699-7.114-14.424-23.036-8.865-32.359 3.441-5.772 12.719-8.02 19.071-9.2 1.122 10.75 1.153 12.372 6.51 22.108-1.012-22.015.644-31.492 24.066-35.646m58.179-169.158c6.014-4.12 15.882-7.481 23.03-8.569l1.752 1.499a44.5 44.5 0 0 0-12.989 12.742c6.812.205 18.226.05 24.236 2.769-16.402 7.894-31.081 30.035-40.532 45.273-3.78 6.094-9.092 13.969-11.849 20.558 9.681-10.725 43.072-44.033 58.008-42.251 20.935 2.498 56.714 47.645 68.583 64.955 7.229 11.548 23.68 34.823 10.537 47.268-10.095 9.559-22.198 13.677-34.011 22.974-18.954 14.918-55.088 48.748-79.724 49.598-12.99.448-42.944-23.09-54.627-29.958a374.3 374.3 0 0 0 53.339 44.686c23.842-6.861 47.406-18.718 70.703-27.417 6.645-2.481 13.237-6.191 19.936-8.689l.569 1.247c-10.182 7.448-20.74 14.542-31.073 21.808-24.799 17.438-49.752 34.62-76.319 49.272-8.775-2.481-17.623-6.519-26.082-10.025-3.493-1.448-10.349-4.078-13.52-5.735-5.218-3.862-4.893-.761-.454.711 13.248 9.668 26.855 19.193 40.229 28.711 20.324-8.976 39.505-20.856 58.877-31.675 26.48-14.788 52.264-32.062 78.863-46.542l.002 1.129a4468 4468 0 0 0-40.914 35.903c-26.122 23.459-51.507 47.702-79.781 68.649-13.581 10.062-19.887 11.347-36.101 10.207 6.314 4.01 11.408 5.667 18.668 7.076 13.101-4.851 35.74-20.735 47.16-29.344a1063 1063 0 0 0 47.657-37.495c41.854-35.144 71.557-63.876 127.898-71.605.665-.005 3.951.275 4.109-.27-.1-.42-.718-.769-1.016-1.006-19.99-6.389-39.545-9.276-60.422-4.995l-1.003-.906c12.467-6.709 18.066-7.405 31.895-10.394-6.82-6.028-14.127-9.038-23.301-8.808-25.027.627-49.154 10.092-72.165 19.166l-.389-.97c5.405-3.19 12.855-7.027 17.913-10.337 11.607-7.596 31.722-17.272 34.654-31.943 1.209-6.046 1.776-13.377-.429-19.173-4.766-12.528-14.505-24.791-21.423-36.234-9.177-15.179-18.992-29.956-28.187-44.986l.734-.925c9.492 9.9 14.893 18.282 23.506 28.192-1.452-4.936-2.795-12.66-3.745-17.827-6.867-37.354-29.916-72.069-69.595-79.601a89.63 89.63 0 0 0-43.207 33.287m187.022 231.561c-15.463 14.386-20.86 25.619-26.773 45.164 26.688-38.112 69.733-58.765 114.211-67.854-26.861-7.475-50.242-19.564-78.304-6.595-21.109 9.756-37.299 26.488-46.07 47.955-2.169 4.196.464 1.557 2.17.182 12.102-9.384 20.549-13.916 34.766-18.852m66.302 176.078-1.644.29c-10.966-11.343-33.309-22.884-48.578-26.677a60 60 0 0 0-2.812-.635l-.248.739c.864.51 1.579.935 2.468 1.395 17.087 10.208 28.909 20.354 42.474 34.971 4.426 4.771 8.501 8.826 12.175 14.309-.984 2.672-.96 3.698-.17 6.383 0 1.51-1.041 6.942-1.34 8.525a176.3 176.3 0 0 1-19.751 52.878c9.941-10.584 19.673-21.266 28.576-32.75 6.673-8.608 12.929-17.685 19.841-26.135-5.501-18.15-10.738-35.155-14.915-53.798-15.474-3.584-25.236-8.354-39.253-15.428 6.454 8.521 17.861 26.57 23.177 35.933m31.707-114.053c-4.142-8.148-29.166-40.693-37.335-43.957l-2.072.121c-9.98 2.833-16.892 6.129-25.858 11.276 5.328 2.676 11.118 5.652 16.678 7.748-10.058 3.862-18.604 7.067-27.977 12.603-5.765 3.406-10.141 6.827-15.533 10.5 8.683-2.205 19.115-5.101 27.928-5.615 17.233-1.331 47.926 1.45 64.169 7.324m-41.777 42.067c-15.45-9.525-35.242-16.88-53.344-18.563-3.333-.084-1.119.896.374 1.81 5.774 1.914 17.233 9.919 22.823 13.435 19.228 12.093 39.288 25.361 61.721 30.44 6.643 1.504 10.718 1.478 17.084 2.348-2.386-5.394-7.513-12.324-10.536-17.797-6.004-10.87-12.753-23.737-17.136-35.283-18.029-5.637-23.38-6.445-41.75-6.481 3.343 4.793 6.938 9.404 10.205 14.236 3.577 5.291 6.584 10.837 10.559 15.855"/><path d="m661.794 375.339.389.97-3.279 1.527c-.617.288-4.618 2.346-4.996 1.947-.029-.18-.045-.098.038-.248l.088.067.274-.359-.006-.005c1.69-1.074 5.631-2.997 7.492-3.899"/><path fill="#3c3c3f" d="M772.057 577.148c-1.065-.328-6.354-1.906-6.763-2.84.965-.622 5.688 1.265 7.011 2.101z"/><path d="M668.407 391.23c1.181-.625 6.346-3.504 7.232-3.691l.14.046c.246.571-1.699 1.516-1.993 1.698a103 103 0 0 0-4.81 3.194z"/><path d="M829.174 627.823c.813 2.268.414 4.043-.17 6.383-.79-2.685-.814-3.711.17-6.383"/><path fill="#3c3c3f" fill-opacity=".89" d="M521.528 448.508c-4.439-1.472-4.764-4.573.454-.711z"/><path d="M595.045 187.223c.595-.087 3.131-.524 3.585.029-.059.462-1.468 1.215-1.833 1.47z"/><path fill="#ececed" fill-opacity=".02" d="M724.271 446.205c-1.706 1.375-4.339 4.014-2.17-.182z"/><path fill="#ececed" fill-opacity=".063" d="M772.305 576.409a60 60 0 0 1 2.812.635l-.592 1.499c-.889-.46-1.604-.885-2.468-1.395z"/><path d="M699.497 399.002c.738-.512 1.812-1.286 2.585-1.684l-.297.168.838-.329.149.142c-.17.598-2.645 2.339-3.273 2.832z"/><path d="M726.757 377.251c-.538.119-3.246 1.124-3.397.48.268-.565 1.802-1.114 2.394-1.386z"/><path fill="#ececed" fill-opacity=".035" d="M787.179 382.246c.298.237.916.586 1.016 1.006-.158.545-3.444.265-4.109.27 1.109-.499 1.944-.908 3.093-1.276"/><path d="m823.695 603.721 1.644-.29c.218.581 1.249 2.957-.449 1.396z"/><path fill="#ececed" fill-opacity=".02" d="M762.299 514.692c-1.493-.914-3.707-1.894-.374-1.81q.19.904.374 1.81"/><path d="M664.322 232.666c-.227-.395-1.268-1.831-1.086-2.31.47-.162.848.361 1.163.704l.657.681z"/><path d="M137.493 720.385c1.028-3.398 1.583-5.213 3.07-8.582l1.13 1.303c-1.788 2.623-2.702 4.47-4.2 7.279"/><path fill="#3c3c3f" fill-opacity=".357" d="M678.106 658.122c.16-.972.491-1.758.794-2.687l.413-.2-.012-.235c.637.88-.436 4.928-.704 6.054z"/><path d="m342.333 871.343-.537 1.673c-.442.002-2.614.201-2.89-.263.25-.367 2.842-1.189 3.427-1.41"/></svg>