<svg xmlns="http://www.w3.org/2000/svg" width="1024" height="1024" viewBox="0 0 1024 1024"><path fill="#0d0d0c" d="M505.696 157.703c8.761-1.128 21.457.808 30.286 2.172a663 663 0 0 0-3.1 10.539c8.978 2.15 18.292 4.253 25.912 9.74 18.94 13.637 27.504 35.275 31.549 57.329 2.859-1.842 7.107-4.89 10.704-3.083 1.996 1.002 2.696 3.64 2.725 5.741.061 4.498-1.417 8.996-2.344 13.367-6.703 26.619-6.562 22.366 1.478 47.291-3.317 4.988-9.729 14.862-12.101 19.97.383 5.965.753 11.995 2.36 17.777 5.31 3.066 10.102 5.739 15.557 8.532-.641-5.502-3.388-13.433-5.183-18.936a341 341 0 0 1 25.447 18.978c10.877 8.807 19.771 16.821 32.395 23.471 2.503-29.819-2.146-50.183-19.333-74.828q2.992 1.037 5.956 2.153c25.019 9.467 47.85 22.152 63.449 44.831 4.02 5.845 6.796 12.132 9.698 18.566 9.167-4.128 15.208-6.903 25.6-7.634 35.926-2.529 66.993 25.555 84.515 54.323 6.4 10.508 10.176 24.227 19.224 31.941 9.421 8.032 27.501 13.705 39.697 12.702-12.821 9.217-26.093 16.049-38.157 27.082-8.281 7.573-8.876 9.732-9.911 21.177-.73 8.067 1.225 14.857 6.823 20.859 15.374 16.482 29.908 19.532 51.02 20.849-28.23 19.332-51.717 28.499-84.842 35.074 7.004 17.819 22.69 37.982 41.21 44.661-14.03 2.676-29.494 2.841-43.702 2.008 6.138 18.673 7.123 25.703 8.008 45.21 9.079 3.523 15.957 4.593 25.381 5.993-11.253 18.9-27.114 36.208-42.481 51.82-9.612 9.765-8.391 10.243-21.53 13.503-20.331 5.044-47.27 11.996-65.204 23.338a131 131 0 0 0-9.926-35.872l6.634-.158c5.234-7.902 12.463-21.514 14.793-30.588-21.705-12.796-35.452-36.267-39.586-60.851-5.464 12.93-8.573 19.389-19.762 28.247a636 636 0 0 1 3.209 11.424c-3.882 5.023-18.183 20.361-22.529 24.065l.022 12.159c4.313 4.594 9.818 9.484 14.418 14.158-6.126 6.72-11.708 13.347-18.036 19.933-.053 4.544.078 9.316.132 13.878 4.136 3.085 10.548 8.945 14.298 12.483-2.103 5.04-4.212 10.231-5.877 15.43-1.548 4.833-2.627 9.308-4.538 14.045-20.102 5.594-52.125 14.566-68.997 26.703-4.141 2.979-9.107 11.21-11.923 15.688-16.575 7.155-33.164 13.649-49.85 21.033l-7.068 3.458c-11.425-5.26-22.117-10.372-33.905-15.101-7.42-2.978-15.498-6.093-22.694-9.362-3.196-4.983-9.013-14.278-14.224-17.269-20.012-11.485-44.931-18.919-66.857-25.273-3.482-8.895-7.804-20.658-11.021-29.653a881 881 0 0 0 14.431-12.087c.091-4.754-.027-9.194-.163-13.933-5.683-7.182-12.23-13.268-17.708-20.147 3.779-3.817 10.27-10.356 14.415-13.346l-.027-13.059c-3.982-3.304-19.214-19.805-22.176-23.863l2.804-10.86c-9.664-9.488-14.004-15.461-18.718-27.892-1.591 5.018-2.695 10.282-4.552 15.252-7.255 19.419-16.647 33.7-34.658 44.053 1.346 9.246 8.811 23.578 14.212 31.429 2.165-.021 4.474-.17 6.649-.269-1.288 4.135-3.148 8.402-4.506 12.64-2.45 7.649-4.14 15.173-5.832 23.01-15.097-7.064-28.873-13.122-44.93-17.843-6.13-1.803-27.938-5.93-31.204-8.725-19.179-16.415-39.782-39.915-52.642-61.657 9.661-1.312 15.731-2.363 25.083-5.761.67-18.754 1.581-27.436 8.51-45.161-17.043.066-26.718.788-44.229-2.287 20.706-8.084 31.936-24.978 41.377-44.164-5.856-1.997-13.871-3.025-20.298-4.896-21.261-6.187-46.91-16.503-63.9-30.795 20.268.426 41.082-7.37 53.219-23.958 5.554-7.591 4.071-16.757 3.033-25.484-.174-1.459-.869-3.795-1.64-5.119-10.252-14.018-31.855-25.511-45.999-35.179 7.289-.009 13.502-.466 20.339-2.644 27.197-8.665 26.676-19.032 37.983-40.388 11.539-21.795 38.755-47.288 62.757-53.661 17.645-4.685 32.281-2.881 48.078 5.753 17.838-39.708 40.748-50.201 78.937-65.952-16.47 25.293-20.963 44.027-17.982 74.365 4.062-2.429 9.749-5.496 13.454-8.327 14.723-11.252 28.971-23.355 43.961-34.262-2.312 5.695-4.689 13.532-5.777 19.522 5.217-2.432 10.875-5.679 15.977-8.457 1.151-6.524 2.227-12.368 2.855-18.966-4.235-5.994-8.534-12.603-12.695-18.722 8.177-23.262 8.457-23.558 1.922-47.977-1.191-4.709-2.67-8.58-2.799-13.507-.169-6.446 8.859-6.979 12.074-3.046.567.694.375.668 1.155 1.37 1.236-2.889 1.607-7.978 2.518-11.24 8.673-31.076 22.978-49.754 55.464-56.15-.636-3.977-1.65-6.665-2.951-10.494 5.781-1.261 10.486-1.788 16.36-2.209M384.002 465.119c42.05.811 80.633 18.66 99.834 57.731-3.077-11.998-4.619-17.48-9.553-28.998 29.192 23.003 32.744 35.722 37.327 72.586l.102.892c.098.489.226 2.198.667 2.408.712-.152.705-2.666.757-3.21a234 234 0 0 1 3.456-21.607c4.951-24.202 13.038-37.001 33.726-50.617-4.303 8.184-7.143 18.916-9.67 27.871 17.998-38.194 61.259-57.149 101.775-57.166l1.065-1.331a65.5 65.5 0 0 0-10.709-2.323c-46.666-6.199-85.746 25.724-119.951 51.867-7.934-4.865-15.713-12.187-23.321-17.667-28.519-20.54-68.722-42.241-104.746-32.82.07 1.371-.002 1.179-.759 2.384m55.517-198.81c.376 10.03-.4 25.231-1.314 35.487 10.617 11.3 25.253 24.006 36.933 34.179 2.982 18.607 4.452 37.498 6.784 56.086-9.89-11.877-26.249-32.522-39.494-40.267-1.262.377-1.063.736-1.952 2.311.802 1.802 7.793 7.456 9.858 9.197 15.275 12.878 26.671 28.947 40.05 43.441-2.803-24.319-6.4-49.871-7.955-74.192-11.52-9.161-25.421-19.498-36.105-29.095-.519-9.494-1.93-24.964-1.839-33.845 20.884 9.305 37.505 15.699 58.769 23.635 3.241 7.559 6.122 15.406 9.412 22.844 1.634-5.96 6.876-17.211 9.944-22.613 4.059-2.075 9.17-3.848 13.522-5.316 15.021-5.066 28.945-11.038 43.201-17.925.537-.007.769-.078 1.315-.181-.812 11.17-1.99 22.827-2.662 33.909-7.812 6.657-15.137 12.504-23.262 18.754-3.277 2.52-9.233 7.025-12.097 9.668l-8.061 74.246c13.754-16.083 26.638-32.474 43.268-45.92 2.352-1.902 4.955-3.855 7.198-5.835l-1.756-3.885c-18.416 11.946-26.14 26.083-40.12 41.026.946-15.651 4.076-40.323 7.007-55.725 11.794-11.454 24.196-21.657 36.501-33.784a575 575 0 0 1-1.643-30.157c-.026-3.261-.277-4.646.745-7.751 2.787-5.027 5.035-8.885 6.851-14.394-4.85 3.523-13.157 10.197-17.945 12.92-16.532 9.397-50.44 28.06-69.827 23.591-23.255-5.359-56.414-22.382-73.766-38.394 1.321 7.746 4.218 11.338 8.44 17.985M396.266 666.41c6.057 1.326 15.136 1.184 21.904 2.04 9.747-20.519 19.289-31.488 41.015-39.641 22.39-8.401 39.305-1.477 47.257 21.199 2.887 8.231 3.572 16.53 6.004 24.485 5.181-25.903 11.317-55.805 45.824-47.919 23.351 5.336 38.165 20.321 48.289 41.334 7.055-.195 15.614-.063 22.4-.466.581.019 6.222.494 5.968-.553-.383-.201-.228-.147-.771-.117-8.155-2.132-17.242-4.252-25.205-6.671-11.951-19.672-30.934-36.428-53.573-41.914-25.854-6.266-37.254 9.035-42.798 31.402-3.18-8.854-5.122-17-11.777-23.975-11.459-12.009-26.193-9.76-40.16-4.537-20.116 7.521-33.666 22.319-45.475 39.591-5.76 1.393-13.683 3.28-18.902 5.742m312.402-270.625c-7.456 15.463-12.202 29.794-10.597 47.299.243 2.652.953 9.143 1.979 11.371.583 2.872 1.416 5.077 2.327 7.843-.462-4.79-.694-9.674-1.127-14.165.821-22.83 8.078-40.015 26.197-54.684 29.963-24.18 65.61-7.497 87.726 18.473 4.474 5.254 7.523 10.516 11.507 15.714l.581.746c-4.001-17.508-25.824-40.512-40.884-49.385-11.691-6.889-28.657-14.247-42.637-12.956-7.272.763-18.444 10.816-24.911 14.024-9.575 4.75-15.431 8.213-23.226 15.448 3.683.017 9.573-.127 13.065.272m-384.669 48.347.113 3.142c-.163 3.758-.43 6.288-.768 10.012-.502 1.295-.725 2.752-.878 4.13-.154.433-.56 1.114-.159 1.516.586-.069.577-1.142.62-1.492.825-1.922 1.015-2.962 1.576-4.896.568-2.4 1.25-5.042 1.377-7.507q.278-1.574.51-3.156c1.978-19.093-1.795-32.182-9.847-49.474l.498-.574c2.351-.376 3.194.008 3.948-2.237 1.269.248 2.134.378 3.419.522l.456-.516c-1.656-6.648-15.073-10.694-20.613-14.268-8.414-5.428-16.868-13.918-27.469-13.322-26.664 1.499-57.753 22.075-70.121 45.531-.725.81-.998 1.468-1.52 2.429-1.073 1.045-3.06 4.942-3.681 6.405l-.819 1.259 1.085 1.08q.542-.741 1.112-1.461c.889-1.544 2.433-3.505 3.014-4.746.83-1.045 1.652-1.975 2.291-3.146 14.546-15.764 31.337-30.203 53.859-31.565 32.392-1.958 62.023 30.904 61.997 62.334m61.912-42.426c2.547-5.414 11.454-21.125 19.225-16.536 1.142 5.518 1.193 25.772 1.538 32.753 8.452-20.785 14.108-6.76 19.14 5.336 1.125 2.705 2.348 5.428 3.309 8.205 11.598-6.747 14.824-3.62 21.101 7.262 1.534 2.661 3.272 5.416 4.795 8.126 1.005-3.438 2.06-6.924 3.017-10.37 10.347 10.009 20.503 19.967 29.714 31.063 1.575 1.897 3.289 4.042 4.98 5.796-6.452-14.75-21.601-35.245-33.603-46.665-2.744-2.611-15.232-6.509-20.444-9.812-23.642-14.984-32.545-39.43-29.074-66.138.128-.53 1.063-3.21.541-3.397-.476.198-1.639 1.896-2.096 2.419-13.425 14.313-20.287 32.58-22.143 51.958m154.683 56.719c-1.342.82-5.501 8.249-6.484 10.112-.508.685-.55.745-.947 1.501l1.577.697.967-1.217c1.882-2.385 6.783-7.889 8.106-9.873 8.434-7.705 13.383-13.987 22.91-21.866a217 217 0 0 0 2.992 8.625c2.139-3.296 4.614-7.089 6.593-10.413 6.037-10.14 9.595-10.047 19.07-4.272 4.232-8.095 8.201-20.308 14.47-25.741 4.46 3.705 5.75 5.96 8.107 11.003.467-9.151.475-18.767 1.165-27.886.148-1.963.938-3.581 2.54-4.776 5.902-1.73 13.683 11.366 16.473 15.719-2.282-22.242-7.571-34.145-21.801-51.493-2.131-2.241-1.945-1.708-1.6 1.192 3.097 15.418.239 33.937-8.502 47.122a65 65 0 0 1-27.223 23.408c-1.909.871-10.237 4.25-11.379 5.224-8.687 7.405-21.628 23.324-27.034 32.934m151.481 48.063c.312.353 1.523 1.826 2.016 1.798.868-.051-.93-2.178-.929-2.177-7.722-9.349-14.937-22.708-18.724-33.876-8.639-25.481-4.417-42.3 9.748-64.163 5.485-8.751 10.551-17.509 13.983-27.276 9.696-27.599-6.451-44.934-27.116-60.622-.48-.956-1.509-1.466-2.343-2.089-1.262-1.142-3.828-2.821-5.3-3.913 1.643 1.9 3.326 3.62 5.056 5.44.892.926 1.14 1.189 2.154 1.96 11.796 13.639 16.931 32.474 16.208 50.419-.825 20.48-9.971 30.175-18.524 47.334-15.747 31.594 2.494 64.139 23.771 87.165M403.486 720.231c-1.226-.697-1.04-.586-2.502-1.116a99 99 0 0 1-3.129-1.168c-1.105-.432-2.237-.795-3.36-1.178 2.007 1.361 5.478 3.58 7.75 4.29 9.312 5.127 16.315 8.504 26.487 11.968 2.759-3.664 5.634-7.232 9.185-10.2 13.498-11.278 38.32-19.439 53.708-7.461 10.831 8.431 16.117 20.403 20.946 32.812 2.989-10.403 14.834-30.646 24.692-35.523 19.385-9.589 47.746 3.891 59.375 20.394 6.923-2.404 18.565-7.169 24.661-11.095-.475-.375-.904-.71-1.392-1.07-6.468 2.121-16.22 4.342-23.064 6.102-15.242-13.795-33.436-28.404-55.877-24.224-13.906 2.591-22.081 15.346-29.096 26.518-1.045-1.606-2.921-4.627-3.719-6.193-11.502-22.564-32.359-25.842-54.094-15.308-10.843 5.254-16.872 11.061-25.973 19.382-8.195-2.495-16.441-4.499-24.598-6.93m41.8 54.848c-.577.639-1.505 1.415-1.669 2.229 11.33 2.761 35.826 5.116 44.809 9.901 14.387 7.662 19.731 27.13 24.26 41.311 2.192-10.794 4.53-18.394 10.332-27.618 9.734-15.474 20.176-17 36.993-19.843 8.915-1.506 18.645-3.362 27.696-5.114 2.507-.426 4.653-.863 7.132-1.335-2.357-.114-4.436-.124-6.788-.108-13.063-.037-36.265-.868-48.999 1.892-8.304 1.8-21.084 18.561-26.203 25.542-9.515-14.697-18.733-26.957-37.527-26.649-9.875.161-20.066-.687-30.036-.208m54.589-574.971a208 208 0 0 0-6.25-22.733c-29.574 13.366-42.103 27.976-48.868 60.229-.303.774-.711 2.211-.43 3.007.408.091 1.224-2.119 1.347-2.381a86 86 0 0 1 1.429-4.451c5.773-16.119 16.46-30.49 31.087-39.6 3.892-2.424 8.164-4.216 12.322-6.185 3.454 4.889 5.324 7.276 7.867 12.745.668 2.295 1.561 4.383 2.224 6.746.772 3.329 1.826 3.944 1.161.117-.71-2.524-1.109-4.982-1.889-7.494m41.61 387.089.495-.129c22.774-2.511 48.756 2.788 67.991 15.916 4.57 3.119 8.425 9.208 14.021 10.33 10.329 2.07 24.344-2.374 32.795-8.19 16.397-11.284 27.671-30.734 31.46-49.961.206-1.299.339-2.572.826-3.803l.246-.647c.357-2.458-.346-4.496-.685-1.647-.363 1.965-.736 3.28-1.343 5.185-9.447 22.894-22.797 39.061-46.073 49.172-4.59 1.995-13.135 3.953-17.542 1.744-4.317-2.163-7.46-6.722-12.407-9.912-18.676-12.045-46.201-17.884-67.693-10.482q-1.295.437-2.568.938-1.298.528-2.604 1.036c-2.526-.009-6.216 2.007-8.483 3.14 4.041-.761 7.625-1.804 11.564-2.69m184.61-27.372a95 95 0 0 0 7.423 6.555c12.68 9.913 24.672 17.674 40.304 8.501 23.795-13.962 51.706-22.213 78.26-29.238 2.823-.28 6.834-1.364 9.685-2.011-2.474-.081-8.017-.399-10.285.243-22.2.865-44.349 3.648-64.612 14.329-7.274 3.834-13.165 13.638-22.21 15.021-9.839 1.504-21.364-3.905-29.782-8.072-1.788-1.372-6.59-3.986-8.783-5.328m-453.128-46.822a198.6 198.6 0 0 0-19.52-21.164c-14.03-13.063-36.681-29.713-54.965-35.285-6.274-1.912-12.419-2.284-18.917-2.046-.872 1.425-1.456 1.58-1.676 3.247 38.149 12.017 64.502 29.051 94.017 55.786l1.611 1.446c.294.263.716.651 1.123.668.626-.322-1.269-2.186-1.366-2.296zm476.2 3.585c1.647-1.53 2.916-2.338 4.356-4.082 2.841-3.002 13.641-11.605 17.328-14.387 25.558-19.284 55.308-36.131 86.848-42.88-5.629-.484-12.964-1.089-18.472-.774-32.807 1.88-65.988 34.471-86.906 57.485-1.728 1.561-2.43 2.67-3.906 4.267zm-412.451 40.386c5.535 28.587 30.862 60.539 63.891 56.101 6.136-.825 9.291-6.851 13.921-10.212 19.603-13.956 46.944-18.71 70.258-15.264q1.484.277 2.954.624c.806.196 4.083 1.39 4.7.914l-.452-.045-.029-.487c-1.251-.547-1.685-.799-3.018-1.109l-1.118-.544c-8.718-2.282-13.209-4.805-23.043-5.108-27.529-.851-43.814 6.867-63.643 23.984-7.189 1.095-12.206.066-18.824-2.883-22.287-9.932-35.912-25.822-44.649-48.298-.412-2.074-1-3.998-1.407-6.214 0-.491.068-.778-.19-1.169l-.23-.016c-.715.642-.213 3.231-.078 4.029l.231.842c.475 1.632.533 3.176.726 4.855m1.528-59.471q-.82 1.19-1.611 2.399c-.835.589-6.258 8.241-7.203 9.527 3.471-2.707 6.038-5.578 8.742-9.022l.974-1.218.5-.537c.85-.898 1.185-1.059 1.441-2.206 9.748-12.056 20.188-30.436 20.332-46.225l.249-1.836c.437-5.534.132-7.342-.374-12.747-1.839-13.967-6.325-18.629-12.845-30.652-11.962-22.06-13.694-46.814-2.401-69.526 3.593-7.226 6.62-11.111 10.581-17.672-13.451 10.731-30.337 24.487-32.192 42.64-2.423 23.698 16.934 45.644 26.312 65.91 1.707 3.689 2.688 8.732 3.432 12.742-.172 1.713-.072 2.059.149 3.825.108 1.763.113 3.102.028 4.872.015.96.005 1.879-.007 2.838l-.009 2.124c-.402 2.077-.573 4.385-.89 6.509-1.903 12.762-6.853 24.155-13.264 35.205-.808.667-1.651 2.047-1.944 3.05m241.069-265.365c-8.238-29.71-20.238-42.011-47.593-55.241-3.034 9.334-4.713 16.548-6.874 26.034l1.139.079c2.654-5.671 5.142-9.971 8.895-15.045 18.897 6.696 32.396 21.707 40.798 39.477a62 62 0 0 1 2.483 6.002c.175 1.019.373 1.643.661 2.646l1.15-1.543a75 75 0 0 0-.659-2.409M163.601 543.433l.517.136c2.427.656 4.336 1.169 6.839 1.628l1.863.345c25.327 7.222 50.667 14.368 73.971 26.934 2.94 1.585 6.056 3.257 9.09 4.632l.747.278c.937.37 3.649 1.377 4.545.509.648-.233 5.082 1.608 10.885-.462 7.243-3.163 6.989-3.222 13.469-7.166l.437-.262c1.563-.679 4.228-2.718 5.577-3.771-1.021-.279-1.702-.457-2.753-.656-1.358.592-5.386 2.631-6.614 3.346-4.219 1.775-8.641 3.149-13.042 4.387-2.466.308-4.281.258-6.688.388-13.07-2.562-12.535-8.255-22.086-13.897-20.586-12.162-45.481-15.161-68.879-15.936-1.684-.66-5.799-.418-7.878-.433M513.75 252.96c1.004-12.284 1.772-26.317 3.133-38.374a423 423 0 0 1 7.762-45.462c-5.623-.869-16.93-.942-22.82-.381l-1.02.43c-.091 2.106 2.786 13.873 3.378 16.891a306 306 0 0 1 2.978 18.49c2.509 18.34 2.415 41.718 5.686 58.265z"/><path fill="#f3f3f4" fill-opacity=".565" d="M361.294 435.638c.506 5.405.811 7.213.374 12.747-4.656 3.493-1.651 2.209-7.317 2.23.012-.959.022-1.878.007-2.838 3.433-2.061 5.31-5.711-.028-4.872-.221-1.766-.321-2.112-.149-3.825 2.558-.858 3.037-2.383 6.514-1.434.407.111.597-1.993.599-2.008"/><path fill="#f3f3f4" fill-opacity=".173" d="M262.444 573.699c2.407-.13 4.222-.08 6.688-.388.531 2.777-.462 2.841 2.926 4.122-5.803 2.07-10.237.229-10.885.462-.896.868-3.608-.139-4.545-.509l-.747-.278c4.241-1.812 5.387 1.037 6.563-3.409"/><path fill="#f3f3f4" fill-opacity=".314" d="M585.766 264.601c-1.022 3.105-.771 4.49-.745 7.751-3.105-.308-1.855-1.798-4.373-2.297-.546.103-.778.174-1.315.181-1.889-1.645-1.79-2.511.138-4.167 3.315-2.847 3.574-.932 6.295-1.468"/><path fill="#f3f3f4" fill-opacity=".929" d="M534.11 468.537c.983-1.863 5.142-9.292 6.484-10.112l.202.574c.507 1.601 1.766 1.032 3.017.646-1.323 1.984-6.224 7.488-8.106 9.873z"/><path fill="#f3f3f4" d="M428.479 775.216a141 141 0 0 1 16.807-.137c-.577.639-1.505 1.415-1.669 2.229-3.518.043-11.335-1.471-15.138-2.092"/><path fill="#f3f3f4" d="M167.945 455.364c4.544-.765 7.028-1.019 11.62-.856-.872 1.425-1.456 1.58-1.676 3.247-1.66-.027-7.866-1.904-9.944-2.391"/><path fill="#f3f3f4" fill-opacity=".09" d="M354.351 450.615c5.666-.021 2.661 1.263 7.317-2.23l-.249 1.836c-2.527.096 2.223 5.592-7.077 2.518z"/><path fill="#f3f3f4" fill-opacity=".537" d="M282.174 568.924c1.228-.715 5.256-2.754 6.614-3.346 1.051.199 1.732.377 2.753.656-1.349 1.053-4.014 3.092-5.577 3.771-1.664-1.06-1.779-1.036-3.79-1.081"/><path fill="#f3f3f4" d="M375.613 465.154c3.094-1.06 5.934-1.857 9.148-2.419.07 1.371-.002 1.179-.759 2.384-2.878.573-4.459.363-7.831 1.146z"/><path fill="#f3f3f4" fill-opacity=".988" d="M205.141 413.972c.212 1.055.376 1.528.711 2.537-.581 1.241-2.125 3.202-3.014 4.746l-1.378-.878c.621-1.463 2.608-5.36 3.681-6.405"/><path fill="#f3f3f4" fill-opacity=".376" d="M329.43 509.429c.945-1.286 6.368-8.938 7.203-9.527l1.539.505c-2.704 3.444-5.271 6.315-8.742 9.022"/><path fill="#f3f3f4" fill-opacity=".941" d="M324.112 447.274c.65 1.476.202 1.515 1.768 1.763-.127 2.465-.809 5.107-1.377 7.507l-1.159.742c.338-3.724.605-6.254.768-10.012"/><path fill="#f3f3f4" fill-opacity=".663" d="M354.33 442.905c5.338-.839 3.461 2.811.028 4.872.085-1.77.08-3.109-.028-4.872"/><path fill="#c9ccce" d="M195.482 433.273c.89-2.484 3.575-9.657 5.159-11.637l1.085 1.08c-1.974 3.316-4.01 7.637-6.244 10.557"/><path fill="#7d8181" fill-opacity=".984" d="M851.482 543.875c2.268-.642 7.811-.324 10.285-.243-2.851.647-6.862 1.731-9.685 2.011z"/><path fill="#f3f3f4" d="M629.04 717.383c-1.326 1.06-6.162 4.639-7.741 4.571-.475-.375-.904-.71-1.392-1.07 1.869-1.097 6.921-2.719 9.133-3.501"/><path fill="#c9ccce" d="m298.369 560.297-.708.731c-1.844 1.945-3.972 3.608-6.12 5.206-1.021-.279-1.702-.457-2.753-.656 3.072-1.406 6.527-3.599 9.581-5.281"/><path fill="#9f9fa3" d="M579.972 234.547c.673 3.956 1.445 7.096 1.928 11.212-1.365-3.265-2.189-6.235-3.078-9.669z"/><path fill="#f3f3f4" fill-opacity=".988" d="M499.875 200.108c.78 2.512 1.179 4.97 1.889 7.494l-1.161-.117c-.663-2.363-1.556-4.451-2.224-6.746z"/><path fill="#c9ccce" fill-opacity=".024" d="M700.05 454.455c2.472-1.575-.676-3.893 1.2-6.322.433 4.491.665 9.375 1.127 14.165-.911-2.766-1.744-4.971-2.327-7.843"/><path fill="#7d8181" fill-opacity=".988" d="M529.921 589.887c2.267-1.133 5.957-3.149 8.483-3.14 1.384.343 1.603.348 3.081.45-3.939.886-7.523 1.929-11.564 2.69"/><path fill="#f3f3f4" fill-opacity=".02" d="M733.518 566.38a95 95 0 0 1-7.423-6.555c2.193 1.342 6.995 3.956 8.783 5.328z"/><path fill="#9f9fa3" fill-opacity=".984" d="M163.601 543.433c2.079.015 6.194-.227 7.878.433l1.341 1.676-1.863-.345c-2.503-.459-4.412-.972-6.839-1.628z"/><path fill="#f3f3f4" fill-opacity=".522" d="M338.244 497.503c.293-1.003 1.136-2.383 1.944-3.05.331 1.046.323 1.076.899 1.993-.256 1.147-.591 1.308-1.441 2.206l-.5.537z"/><path fill="#6f6e73" fill-opacity=".988" d="M402.245 721.059c-2.272-.71-5.743-2.929-7.75-4.29 1.123.383 2.255.746 3.36 1.178q1.554.61 3.129 1.168c1.462.53 1.276.419 2.502 1.116z"/><path fill="#f3f3f4" fill-opacity=".149" d="M206.661 411.543c.441 1.225.368 1.122 1.482 1.82-.639 1.171-1.461 2.101-2.291 3.146-.335-1.009-.499-1.482-.711-2.537.522-.961.795-1.619 1.52-2.429"/><path fill="#f3f3f4" d="m533.163 470.038 1.577.697c-1.627 2.215-3.293 4.395-5.099 6.467 1.159-2.399 2.248-4.822 3.522-7.164"/><path fill="#9f9fa3" d="M643.488 463.678c1.625.162 3.144.768 4.721 1.158l-.27.816c-2.043-.197-3.471-.317-5.516-.643z"/><path fill="#f3f3f4" fill-opacity=".8" d="M748.415 516.217c1.476-1.597 2.178-2.706 3.906-4.267l1.202.556c-1.44 1.744-2.709 2.552-4.356 4.082z"/><path fill="#c9ccce" fill-opacity=".035" d="M336.257 548.433c.407 2.216.995 4.14 1.407 6.214l-.948 2.327c-.193-1.679-.251-3.223-.726-4.855l-.231-.842c.183-.974.351-1.864.498-2.844"/><path fill="#9f9fa3" d="M523.444 208.807c.191-1.847.594-4.188 1.402-5.876l1.139.079a221 221 0 0 1-2.022 6.012z"/><path fill="#f3f3f4" fill-opacity=".051" d="M588.051 774.502c2.352-.016 4.431-.006 6.788.108-2.479.472-4.625.909-7.132 1.335z"/><path fill="#262929" d="M827.261 428.382c1.509 1.168 2.048 3.81 2.464 5.606-1.385-1.39-2.508-3.189-2.468-5.216z"/><path fill="#f3f3f4" fill-opacity=".192" d="M323.999 444.132c.879 2.027.611 2.501 2.391 1.749a111 111 0 0 1-.51 3.156c-1.566-.248-1.118-.287-1.768-1.763z"/><path fill="#f3f3f4" fill-opacity=".855" d="M668.71 318.083c.834.623 1.863 1.133 2.343 2.089q-.221.697-.433 1.398c-1.014-.771-1.262-1.034-2.154-1.96z"/><path fill="#9f9fa3" fill-opacity=".941" d="M324.503 456.544c-.561 1.934-.751 2.974-1.576 4.896l-.461-.024c.153-1.378.376-2.835.878-4.13z"/><path fill="#6f6e73" d="m376.171 466.265-.609.129c-.551.112-3.189.851-3.561.289.2-.679 2.918-1.335 3.612-1.529z"/><path fill="#9f9fa3" fill-opacity=".906" d="M668.466 319.61c-1.73-1.82-3.413-3.54-5.056-5.44 1.472 1.092 4.038 2.771 5.3 3.913z"/><path fill="#9f9fa3" fill-opacity=".984" d="M488.941 587.496c1.333.31 1.767.562 3.018 1.109l.029.487.452.045c-.617.476-3.894-.718-4.7-.914z"/><path fill="#9f9fa3" fill-opacity=".106" d="m688.634 549.066.685 1.647-.246.647c-.487 1.231-.62 2.504-.826 3.803l-.956-.912c.607-1.905.98-3.22 1.343-5.185"/><path fill="#f3f3f4" fill-opacity=".851" d="m534.11 468.537 1.597.981-.967 1.217-1.577-.697c.397-.756.439-.816.947-1.501"/><path fill="#f3f3f4" fill-opacity=".024" d="M408.054 349.748c.457-.523 1.62-2.221 2.096-2.419.522.187-.413 2.867-.541 3.397z"/><path fill="#4e4e51" d="M648.209 464.836c.887.166 3.398.698 3.961 1.426.02.855-3.89-.502-4.231-.61z"/><path fill="#f3f3f4" fill-opacity=".306" d="M579.313 232.138q.35 1.2.659 2.409l-1.15 1.543c-.288-1.003-.486-1.627-.661-2.646.907-.32.836-.431 1.152-1.306"/><path fill="#6f6e73" fill-opacity=".431" d="M634.156 666.772c.543-.03.388-.084.771.117.254 1.047-5.387.572-5.968.553 1.946-.473 3.208-.46 5.197-.67"/><path fill="#f3f3f4" fill-opacity=".22" d="m338.244 497.503.902 1.686-.974 1.218-1.539-.505q.79-1.21 1.611-2.399"/><path fill="#9f9fa3" fill-opacity=".075" d="M513.136 566.528c-.052.544-.045 3.058-.757 3.21-.441-.21-.569-1.919-.667-2.408z"/><path fill="#f3f3f4" fill-opacity=".027" d="m272.967 513.003.307.356c.097.11 1.992 1.974 1.366 2.296-.407-.017-.829-.405-1.123-.668l-1.611-1.446z"/><path fill="#f3f3f4" fill-opacity=".051" d="M538.404 586.747q1.306-.508 2.604-1.036l.972 1.357-.495.129c-1.478-.102-1.697-.107-3.081-.45"/><path fill="#6f6e73" fill-opacity=".616" d="M335.759 551.277c-.135-.798-.637-3.387.078-4.029l.23.016c.258.391.19.678.19 1.169-.147.98-.315 1.87-.498 2.844"/><path fill="#6f6e73" fill-opacity=".973" d="m500.603 207.485 1.161.117c.665 3.827-.389 3.212-1.161-.117"/><path fill="#f3f3f4" fill-opacity=".824" d="m200.641 421.636.819-1.259 1.378.878q-.57.72-1.112 1.461z"/><path fill="#f3f3f4" fill-opacity=".204" d="m487.823 586.952 1.118.544-1.201.727a65 65 0 0 0-2.954-.624z"/><path fill="#f3f3f4" fill-opacity=".027" d="M614.732 349.737c-.345-2.9-.531-3.433 1.6-1.192z"/><path fill="#c9ccce" fill-opacity=".235" d="M445.674 238.23c-.123.262-.939 2.472-1.347 2.381-.281-.796.127-2.233.43-3.007z"/><path fill="#4e4e51" fill-opacity=".729" d="M688.634 549.066c.339-2.849 1.042-.811.685 1.647z"/><path fill="#6f6e73" fill-opacity=".424" d="M693.162 506.109c-.001-.001 1.797 2.126.929 2.177-.493.028-1.704-1.445-2.016-1.798z"/><path fill="#4e4e51" d="m523.444 208.807.519.215c-.041.305-.072 1.668-.668 1.724-.435-.529-.023-1.378.149-1.939"/><path fill="#4e4e51" fill-opacity=".969" d="m322.466 461.416.461.024c-.043.35-.034 1.423-.62 1.492-.401-.402.005-1.083.159-1.516"/><path fill="#7d8181" d="m748.415 516.217.752.371c-.151.151-1.504 1.633-1.816 1.149.04-.319.203-.542.414-.777z"/></svg>