<svg xmlns="http://www.w3.org/2000/svg" width="2048" height="2048" viewBox="0 0 2048 2048"><path fill="#0c001f" d="M0 0h2048v2048H0z"/><path fill="#28024a" d="M1524.11 333.892c-.14-1.371-.48-3.071.23-4.353.67-.05 1.38.381 1.38 1.037-.15 14.838 2.19 36.874-.6 50.907-.74 9.525-.6 24.144-2.04 32.87-1.57 61.495-15.75 146.695-43.12 202.288-10.77 21.871-23.33 39.218-37.99 58.275 30.25-12.069 42.54-21.782 66.41-44.314-6.79 15.167-20.9 38.266-29.66 52.619-29.05 47.577-76.07 115.597-121.71 148.379 31.57-5.342 39.83-9.66 66.02-29.507-62.26 78.708-131.77 119.884-228.71 145.24-24.36 6.372-72.47 16.504-94.24 25.295 3.79 2.042 8.15 1.121 13.37 1.528 36.77.63 58.25 1.106 94.54 11.24-45.01 7.308-101.45 17.294-141.89 39.814 1.43 1.25 1.36.46 1.37 2.23h-.05c1.58 1.76 4.23-1.72 3.67 3.32 21.67-4.15 50.89-8.77 72.46-2.21l-.15.96c-14.14 3.11-28.02 5.92-41.89 10.09-36.37 10.94-98.84 42.35-126.988 67.85 28.438-15.36 51.428-27.42 84.038-33.17l2.8 2.31c-36.02 19.36-61.869 39.4-90.795 68.46-7.541 2.86-22.221 20.1-25.502 28.03-3.51 8.49-5.7 29.8-7.718 39.84-1.018.59-2.037 1.17-3.056 1.75-7.503-1.93-7.545-23.51-10.859-30.2-.1-.2-2.96-1.79-3.379-1.97l-1.182.92-.662 2.04c-.836-2.56-1.159-3.89-1.696-6.52 7.622-116.78 48.431-214.061 121.099-305.568 21.99-27.688 47.99-52.071 70.89-80.228-14.14 12.473-27.82 19.594-43.9 34.585-5.37-1.186-9.35-1.452-14.78-1.948l-.88.259c-19.36-14.347-36.5-44.519-42.77-67.476-1.21-4.458-3.64-18.664-4.22-20.032l-1.17.758c-5.291.448-2.711-.758-2.249-6.258 8.659-19.697 62.619-68.933 81.349-80.554 8.61-7.298 20.46-13.703 29.63-20.125 60.75-35.253 141.87-56.684 209.27-80.032 12.2-7.415 38.14-15.711 52.92-23.352 71.15-36.785 120.91-84.557 145.56-162.187 1.07-8.144 4.84-24.417 6.85-32.89"/><path fill="#f8c76d" d="m1318.78 552.321.37 1.693c-7.71 4.462-43.63 14.354-45.9 16.95l.45 1.731c6.21 2.681 25.59-10.324 37.49-7.259-11.8 4.229-23.25 7.518-35.34 10.781 33.81 36.836 52.53 76.767 50.18 127.783a178.3 178.3 0 0 1-58.76 122.639A161.2 161.2 0 0 1 1149 869.296c-28.34-1.532-51.3-10.189-76.11-22.839-40.84 52.512-74.67 103.607-104.603 163.373-6.772 6.73-21.704 43.86-23.003 52.81-10.58 29.57-17.667 64.03-22.718 94.97-.952 5.83-3.592 20.37-3.697 25.81l-.662 2.04c-.836-2.56-1.159-3.89-1.696-6.52 7.622-116.78 48.431-214.061 121.099-305.568 21.99-27.688 47.99-52.071 70.89-80.228-14.14 12.473-27.82 19.594-43.9 34.585-5.37-1.186-9.35-1.452-14.78-1.948l-.88.259c-19.36-14.347-36.5-44.519-42.77-67.476-1.21-4.458-3.64-18.664-4.22-20.032l-1.17.758c-5.291.448-2.711-.758-2.249-6.258 8.659-19.697 62.619-68.933 81.349-80.554 8.61-7.298 20.46-13.703 29.63-20.125 60.75-35.253 141.87-56.684 209.27-80.032"/><path fill="#28024a" d="M1144.56 622.129c.48 13.801 4.25 25.524 14.61 35.348a46.13 46.13 0 0 0 34.35 12.334c18.52-1.148 31.56-12.403 40.88-27.456 17.66 28.279 28.35 47.693 20.39 82.568a92.5 92.5 0 0 1-41.35 58.483 97.18 97.18 0 0 1-74 11.781c-7.14-1.706-11.07-3.833-17.77-6.573l-8.45-5.237c-1.53.615-2.17.841-3.73 1.298-8.8-7.838-6.92-4.76-12.53 4.52a121 121 0 0 1-2.89-5.962c-7.86 12.876-16.5 23.844-29.63 31.68-4.61 2.749-5.77 5.452-9.95 2.171-2.5 2.795-5.5 4.863-4.67 8.697l-.88.259c-19.36-14.347-36.5-44.519-42.77-67.476-1.21-4.458-3.64-18.664-4.22-20.032l-1.17.758c-5.291.448-2.711-.758-2.249-6.258 8.659-19.697 62.619-68.933 81.349-80.554 8.61-7.298 20.46-13.703 29.63-20.125.92 3.384.97 4.459 1.25 7.958 11.38-6.678 22.05-12.166 33.8-18.182"/><path fill="#d0872b" d="M998.531 733.032c8.659-19.697 62.619-68.933 81.349-80.554 3.19 1.719 3.87.652 7.03 2.093-14.1 13.53-17.85 46.07-15.39 64.672-.37.51-.75 1.02-1.13 1.529.57 3.941.7 4.667 1.89 8.447l1.33-.006 1.49 4.275c9.67 27.361 18.07 32.265 38.12 49.889-1.53.615-2.17.841-3.73 1.298-8.8-7.838-6.92-4.76-12.53 4.52a121 121 0 0 1-2.89-5.962c-7.86 12.876-16.5 23.844-29.63 31.68-4.61 2.749-5.77 5.452-9.95 2.171-2.5 2.795-5.5 4.863-4.67 8.697l-.88.259c-19.36-14.347-36.5-44.519-42.77-67.476-1.21-4.458-3.64-18.664-4.22-20.032l-1.17.758c-5.291.448-2.711-.758-2.249-6.258"/><path fill="#e09b36" d="m1072.28 729.219 1.33-.006 1.49 4.275c9.67 27.361 18.07 32.265 38.12 49.889-1.53.615-2.17.841-3.73 1.298-8.8-7.838-6.92-4.76-12.53 4.52a121 121 0 0 1-2.89-5.962c1.16-2.391 2.93-4.779 3.5-7.253.34-1.457-2.66-4.432-3.51-3.895-2.64 1.668-6.52 7.036-8.78 9.542-.92-2.329-1.99-3.34-3.02-5.868-12.83 13.372-23.61 21.337-41.76 25.709-2.44-3.27-8.97-10.129-7.8-13.887-.79-.685-1.18-.966-2.14-1.204-.06.047 6.5-1.108 2.99-2.106-.81-.23-1.99-.453-2.84-.646 2.27-.715 3.55.434 6.11-.908 19.92-3.058 33.57-9.424 45.91-26.341.71-.98-2.87-6.344-3.39-6.255-2.58.443-3.92 3.851-7.04 5.217-2.58-2.8-2.92-.918-7.28-1.627 2.31-1.84 11.96-8.946 11.15-11.185-2.72-7.468-3.23-6.042-7.22-3.772-8.36 4.761-16.32 7.588-25.25 8.798-3.05-1.419-1.19-1.088-.63-3.158-3.72-2.358-8.12 1.763-16.4-3.481 18.09.772 30.08.246 45.61-11.694"/><path fill="#28024a" d="M1032.7 787.581c23.04 2.789 38.94-9.387 53.78-25.227.27-.284 3.2 2.56 2.93 3.869-.63 3.032-5.22 7.357-7.15 9.536-12.83 13.372-23.61 21.337-41.76 25.709-2.44-3.27-8.97-10.129-7.8-13.887"/><path fill="#28024a" d="M1043.7 747.552c8.93-1.21 16.89-4.037 25.25-8.798 3.99-2.27 4.5-3.696 7.22 3.772.81 2.239-8.84 9.345-11.15 11.185-1.03.364-1.61.593-2.58 1.166-14.09 8.329-28.25 8.478-43.89 5.46-1.41-5.736-2.54-10.142-3.8-16.016 8.55 2.433 20.07 5.16 28.95 3.231"/><path fill="#28024a" d="M1012.46 721.221c22.26 10.554 35.86 8.916 57.93-.449.57 3.941.7 4.667 1.89 8.447-15.53 11.94-27.52 12.466-45.61 11.694-1.73-.984-10.86-3.075-13.35-3.847-.44-5.272-.73-10.556-.86-15.845"/><path fill="#28024a" d="M1072.3 755.338c3.12-1.366 4.46-4.774 7.04-5.217.52-.089 4.1 5.275 3.39 6.255-12.34 16.917-25.99 23.283-45.91 26.341-12.79-2.916-9.04.598-15.23-14.92 18.82 1.585 35.89 1.484 50.71-12.459"/><path fill="#28024a" d="M1085.28 781.627c2.26-2.506 6.14-7.874 8.78-9.542.85-.537 3.85 2.438 3.51 3.895-.57 2.474-2.34 4.862-3.5 7.253-7.86 12.876-16.5 23.844-29.63 31.68-4.61 2.749-5.77 5.452-9.95 2.171-2.75-3.142-5.85-6.221-8.76-9.243 14.62-6.285 29.43-12.733 39.55-26.214"/><path fill="#28024a" d="M1067.86 706.111c1.13 4.439 2.4 7.855-2.26 10.028-13.92 6.487-28.7 7.788-43.27 2.611l-1.66-.552c-2.59-3.344 3.36-7.595 5.69-9.964 17.46 4.9 24.43 4.854 41.5-2.123"/><path fill="#28024a" d="M1067.15 692.304c3.44.669 1.85 6.541-.44 7.794-9.63 5.278-20.85 5.866-31.5 4.194-5.01-2.898 2.13-7.221 5.24-10.31 12.23 1.127 14.69.69 26.7-1.678"/><path fill="#28024a" d="M1070.41 677.43c3.19.007.81 6.892-1.79 7.903-6.36 2.475-12.09 2.803-18.73 3.183-4-2.36 4.31-6.919 7.14-9.218 4.64-.569 8.79-1.262 13.38-1.868"/><path fill="#22043a" d="M1075.7 663.921c3.98 4.326-5.72 7.59-8.16 8.477-2.65-2.256 6.31-7.178 8.16-8.477"/><path fill="#f8bf5d" d="M1109.51 632.353c.92 3.384.97 4.459 1.25 7.958-3.56 2.171-21.63 13.517-23.85 14.26-3.16-1.441-3.84-.374-7.03-2.093 8.61-7.298 20.46-13.703 29.63-20.125"/><path fill="#825a4b" d="M1071.52 719.243c.96 2.134 1.82 7.574 2.09 9.97l-1.33.006c-1.19-3.78-1.32-4.506-1.89-8.447.38-.509.76-1.019 1.13-1.529"/><path fill="#f8bf5d" d="M1268.81 587.718c2.55 1.784 3.03 1.806 4.47 4.601 3.07.832 8.22 8.793 10.4 11.347 1.26 1.483-1.54 3.605-2.35 4.524l3.44.173c1.02 2.493.63 1.268-.2 4.684.4-.26 3.37-2.387 3.91-1.829 4 4.117 7.33 11.375 10.2 16.409-8.25.697-12.22.724-20.4 3.857l2.26 2.913c2.79-.426 3.53-.746 6.16.301 2.25.145 11.54-1.095 14.31-1.325l.56 1.213c1.92 4.045 3.18 8.416 4.64 12.641-10.6-2.734-16.66-3.511-27.55-.901 2.83.294 17.64 1.051 18.54 1.713q-6.075.767-12.18 1.296l-.86 1.319c15.66 2.367 23.51-3.38 27.11 14.333l.27 1.312c.04.2.07.399.11.599-1.79 2.307-2.87 4.253-4.49 6.658 2.66 1.626 3.4 2.278 6.38 3.218.5 3.598.89 4.367-.75 7.643 1.4 1.522 4.94 29.499-1.71 19.81l-1.06-.06-2.61 2.145-4.45-.859c5.84 5.516 6.03 5.728 10.33 12.038-.38 1.807-2.14 11.073-2.71 12.134-.52.319-2.59-1.963-2.96-2.285-1.67 2.501-1.7 2.224-4.66 2.515l5.51 9.299c-.89 3.147-1.96 6.521-2.91 9.659-8.9-8.388-16.12-14.55-27.75-19.189l2.12 4.225c-1.4 1.651-.54.95-2.65 2.008 12.86 6.749 16.39 8.414 25.68 19.956-2.22 5.18-4.23 9.575-7.53 14.141-1.1 2.034-1.13 2.887-1.35 5.19-.65.251-1.97.811-2.59.925 1.37 3.777-8.67 15.897-11.26 18.97-2.2 2.789-1.99 3.814-3.93 6.272-3.12 2.294-8.62 8.338-11.54 11.394-3.56-12.838-7.9-20.692-17.66-30.019l-3.38 4.344c10.43 12.666 11.71 14.669 16.04 30.935a212 212 0 0 1-10.89 8.882c-.75.592-1.44 1.203-2.33 1.568-.52-.848-.82-1.482-1.26-2.367l-1.5.159-1.7 2.6-.63-.242-1.12-9.081-1.21 14.029c-2.41 1.767-14.28 9.912-16.65 9.057 0-1.564.5-3.918.71-5.549-.94.815-2.24 2.656-3.05 3.715l-1-.379-.82-4.034q-1.53 4.583-2.94 9.208l-.37 1.149c-2.15.888-4.3 1.741-6.47 2.56-3 1.143-3.79.883-4.17-2.084-1.9 1.477-.93.88-2.86 1.854l-1.57-3.46c-4.69 10.985-5.08 7.098-16.85 10.511-2.38.597-2.28.665-4.69.395l-1.41-2.592c-3.52 5.498-13.02 4.63-18.8 3.582-2.97-.805-3.11-.964-5.83-2.482-4.89 3.791-17.43 3.897-14.74-1.822.9-1.009 1.8-2.023 2.69-3.044-1.87-1.732-2.95-2.696-4.96-4.259l-.57 1.691c-7.84 8.287-5.64 7.317-16.79 5.515l-1.01-1.144 1.32-3.086-.79.202c-2.63-.993-1.34-.801-3.93-.353 14.82-14.392 18.76-29.905 12.16-49.759-.82-3.527-.89-5.987-4.09-7.631l-.58-.961.61-1.699c6.7 2.74 10.63 4.867 17.77 6.573a97.18 97.18 0 0 0 74-11.781 92.5 92.5 0 0 0 41.35-58.483c7.96-34.875-2.73-54.289-20.39-82.568l1.24-2.241c3.79-3.985 5.99-7.866 8.1-13.029 8.49-12.284 15.3-25.823 25.07-39.367"/><path fill="#28024a" d="M1257.16 680.956c20.87-9.853 36.39-10.45 55.63 3.461 1.4 1.522 4.94 29.499-1.71 19.81l-1.06-.06-.3-1.197c-3.19-1.659-5.53-4.061-8.7-5.868-13.67-7.785-27.03-7.789-41.78-4.148-.55-3.359-1.04-7.26-1.78-10.528z"/><path fill="#22043a" d="M1309.72 702.97c2.43-5.879 4.91-1.969 1.36 1.257l-1.06-.06z"/><path fill="#28024a" d="M1250.08 747.344c21.33 5.494 29.64 10.273 41.41 28.725 1.37 3.777-8.67 15.897-11.26 18.97-6.67-18.639-17.54-29.522-36.63-36.002 2.38-4.005 4.31-7.589 6.48-11.693"/><path fill="#28024a" d="M1284.16 650.654c15.66 2.367 23.51-3.38 27.11 14.333l.27 1.312c.04.2.07.399.11.599-1.79 2.307-2.87 4.253-4.49 6.658-16.87-6.434-29.97-9.251-47.35.147-5.52 2.982-3.93 1.91-5.63-4.217-.36-1.284 2.27-3.388 3.02-4.338 2.71-2.397 5.22-4.343 7.93-6.635 7.54-3.07 10.38-4.592 19.03-7.859"/><path fill="#28024a" d="M1169.96 801.186c3.63-.556 7.28-1.029 10.94-1.418 16.16 11.367 25.27 25.583 19.03 45.782-4.69 10.985-5.08 7.098-16.85 10.511 5.48-23.16 3.79-36.702-13.12-54.875"/><path fill="#28024a" d="M1205.04 791.835c2.68-1.516 5.36-3.036 8.08-4.463l1.56-.856c16.16 9.311 20.32 15.686 25.65 32.968l-1.21 14.029c-2.41 1.767-14.28 9.912-16.65 9.057 0-1.564.5-3.918.71-5.549 3.22-6.117.52-20.299-2.22-26.524-3.4-7.724-9.76-13.187-15.92-18.662"/><path fill="#28024a" d="M1233.09 771.824c2.41-2.721 4.71-5.318 7.07-8.092l3.36 1.171a50.27 50.27 0 0 1 28.97 26.121c1.35 2.935 2.75 7.204 3.81 10.287-3.12 2.294-8.62 8.338-11.54 11.394-3.56-12.838-7.9-20.692-17.66-30.019-4.86-4.563-8.6-7.122-14.01-10.862"/><path fill="#28024a" d="M1158.18 857.446c2.43-5.008 4.66-8.311 5.8-13.947 2.87-14.002.14-28.351-6.41-40.912-.93-1.778 3.8-1.059 4.41-.808 5 2.055 9.57 9.527 11.92 13.779 7.78 14.115 7.8 23.389 3.08 38.306-3.52 5.498-13.02 4.63-18.8 3.582"/><path fill="#28024a" d="M1256.82 730.663c8.6 1.211 12.36 2.026 20.46 5.194 12.86 6.749 16.39 8.414 25.68 19.956-2.22 5.18-4.23 9.575-7.53 14.141l-.27-.479c-8.64-15.324-26.56-23.134-42.58-27.714 1.02-2.588 1.92-5.202 2.93-7.76l.63-1.575z"/><path fill="#28024a" d="M1139.52 797.703c3.17.719 6.43 1.41 9.57 2.153 11.65 21.246 15.03 33.321 3.26 55.108-4.89 3.791-17.43 3.897-14.74-1.822.9-1.009 1.8-2.023 2.69-3.044 10.53-18.97 5.95-33.118-.78-52.395"/><path fill="#28024a" d="M1306.14 725.691c-6.39-10.144-22.98-16.746-34.64-17.397-1.24-.516-10.69.581-10.81.25-2.33-6.451-1.57-10.036 4.12-10.994 17.28-2.909 24.41.28 38.15 7.903 5.84 5.516 6.03 5.728 10.33 12.038-.38 1.807-2.14 11.073-2.71 12.134-.52.319-2.59-1.963-2.96-2.285z"/><path fill="#28024a" d="M1259.51 714.09c23.43-.312 25.77 1.734 43.45 15.765l5.51 9.299c-.89 3.147-1.96 6.521-2.91 9.659-8.9-8.388-16.12-14.55-27.75-19.189-7.01-3.133-12.5-3.581-19.85-4.397.63-3.982 1.11-7.071 1.55-11.137"/><path fill="#28024a" d="M1220.02 782.504c3.23-2.347 5.59-4.24 9.04-6.402 5.36 3.487 9.81 6.689 14.66 10.928 10.43 12.666 11.71 14.669 16.04 30.935a212 212 0 0 1-10.89 8.882c-.75.592-1.44 1.203-2.33 1.568-.52-.848-.82-1.482-1.26-2.367 2.95-20.067-10.84-32.593-25.26-43.544"/><path fill="#28024a" d="M1188.58 797.812c2.9-1.071 5.72-2.257 8.7-3.101l1.68-.508c14.81 12.289 22.1 21.854 19.35 42.12q-1.53 4.583-2.94 9.208l-.37 1.149c-2.15.888-4.3 1.741-6.47 2.56-3 1.143-3.79.883-4.17-2.084 9.17-19.29-2.27-36.168-15.78-49.344"/><path fill="#28024a" d="M1273.28 592.319c3.07.832 8.22 8.793 10.4 11.347 1.26 1.483-1.54 3.605-2.35 4.524-16.37 9.092-30.57 32.8-43.04 44.954 7.55-21.736 22.14-41.873 34.99-60.825"/><path fill="#28024a" d="M1286.7 634.698c2.25.145 11.54-1.095 14.31-1.325l.56 1.213c1.92 4.045 3.18 8.416 4.64 12.641-10.6-2.734-16.66-3.511-27.55-.901-5.53 1.244-12.68 3.933-17.03 7.637-2.92 2.037-4.49 3.35-7.18 5.743-1.36 1.434-3.01 3.898-5.26 2.77-2.77-9.375 30.44-24.752 37.51-27.778"/><path fill="#28024a" d="M1284.57 613.047c.4-.26 3.37-2.387 3.91-1.829 4 4.117 7.33 11.375 10.2 16.409-8.25.697-12.22.724-20.4 3.857-4.52 1.841-8.74 4.121-13.11 6.268-2.21-1.149-2.08-.961-3.36-3.131 7.25-8.935 14.48-14.03 22.76-21.574"/><path fill="#28024a" d="M1137.94 811.546c3.5 12.665 4.82 22.61-2.6 34.293l-.57 1.691c-7.84 8.287-5.64 7.317-16.79 5.515 12.51-10.834 16.03-21.952 16.08-37.835.01.034.53 1.822.52 1.902-.02.246.49 2.595 1.11 1.982 1.29-1.265 1.62-4.957 2.01-6.586z"/><path fill="#22043a" d="m1131.93 799.189 2-.115c.74 2.269 1.42 4.178 2.23 6.414a53 53 0 0 1 1.78 6.058l-.24.962c-.39 1.629-.72 5.321-2.01 6.586-.62.613-1.13-1.736-1.11-1.982.01-.08-.51-1.868-.52-1.902-.41-6.43-1.5-10.259-2.13-16.021"/><path fill="#22043a" d="M1251.51 646.283c3.24-3.507 7-8.772 10.3-11.662 1.28 2.17 1.15 1.982 3.36 3.131-3.66 3.323-7.13 4.485-11.91 9.391z"/><path fill="#fcc655" d="m1306.14 725.691 1.48 1.649c-1.67 2.501-1.7 2.224-4.66 2.515.02-2.036-.49-3.337 1.82-3.825z"/><path fill="#c57b24" d="M1253.26 647.143c-.6.801-3.26 4.529-4.69 4.067-.58-1.485 2.1-3.976 2.94-4.927z"/><path fill="#5d3416" d="M1131.93 799.189c-1.97-5.042.25-5.025 2-.115z"/><path fill="#28024a" d="m1122.25 801.015 3.48-2.11c6.6 19.854 2.66 35.367-12.16 49.759-5.06 3.7-12.57-1.802-17.89-4.178 2.58-2.205 5.27-4.315 7.78-6.602l1.02-.903c-2.06-2.636-2.97-2.347-4.37-4.218 4.95-5.317 6.94-8.285 11.16-13.696 5.45.899 1.85.199 7.07-2.055 2.25-5.053 3.35-10.52 3.91-15.997"/><path fill="#fcc655" d="M1111.27 819.067c5.45.899 1.85.199 7.07-2.055-3.65 9.197-6.94 13.106-13.86 19.969-2.06-2.636-2.97-2.347-4.37-4.218 4.95-5.317 6.94-8.285 11.16-13.696"/><path fill="#28024a" d="M1254.08 584.172c7.75-5.466 9.97-3.434 14.73 3.546-9.77 13.544-16.58 27.083-25.07 39.367a76 76 0 0 1-3.26-3.218l.46-3.39c-1.67-3.223-.92-3.312-3.74-5.522 3.54-7.952 5.98-20.197 10.13-26.736.8.461.52.357.94.458 1.35-.815.32-4.489 4.36-4.482z"/><path fill="#f8bf5d" d="M1247.33 588.219c.8.461.52.357.94.458 1.35-.815.32-4.489 4.36-4.482l1.45-.023c-.95 4.739-10.79 31.385-13.14 36.305-1.67-3.223-.92-3.312-3.74-5.522 3.54-7.952 5.98-20.197 10.13-26.736"/><path fill="#28024a" d="M1100.11 832.763c-3.18 2.292-10.29 9.468-15.08 7.742-1.19-.427-4.5-.654-4.76-1.03-.17.886 30.7-35.898 31.77-36.673 1.26 2.204 1.3 1.989 3.66 3.378-1.28 5.462-2.02 7.687-4.43 12.887-4.22 5.411-6.21 8.379-11.16 13.696"/><path fill="#28024a" d="M1233.04 588.959c5.01-1.416 13.85-6.503 14.29-.74-4.15 6.539-6.59 18.784-10.13 26.736-1.81-6.552-1.55-5.835-5.02-11.849.55-5.715.74-8.371.86-14.147"/><path fill="#28024a" d="M1096.96 789.195c5.61-9.28 3.73-12.358 12.53-4.52-1.59 1.295-20.41 16.472-12.53 4.52"/><path fill="#22043a" d="M1235.64 640.114c1.14-4.861 2.69-11.872 4.84-16.247a76 76 0 0 0 3.26 3.218c-2.11 5.163-4.31 9.044-8.1 13.029"/><path fill="#22043a" d="M1311.65 666.898c.87 3.782 1.33 6.038 1.89 9.876-2.98-.94-3.72-1.592-6.38-3.218 1.62-2.405 2.7-4.351 4.49-6.658"/><path fill="#22043a" d="M1121.64 791.274c3.2 1.644 3.27 4.104 4.09 7.631l-3.48 2.11c-.22-3.246-.43-6.493-.61-9.741"/><path fill="#fcc655" d="M1135.34 845.839c2.01 1.563 3.09 2.527 4.96 4.259-.89 1.021-1.79 2.035-2.69 3.044-3.5-1.853-2.8-1.468-2.84-5.612z"/><path fill="#22043a" d="m1112.04 802.802 1.65-3c4.1-7.38 2.19 4.427 2.01 6.378-2.36-1.389-2.4-1.174-3.66-3.378"/><path fill="#f8bf5d" d="M1228.91 590.611c3.72 2.824 2.3 7.178 1.88 11.614-1.52-3.288-2.29-4.338-2.1-7.824z"/><defs><linearGradient id="a" x1="998.948" x2="1468.646" y1="746.498" y2="832.817" gradientUnits="userSpaceOnUse"><stop offset="0" stop-color="#de9e44"/><stop offset="1" stop-color="#ffd67c"/></linearGradient></defs><path fill="url(#a)" d="M1524.11 333.892c-.14-1.371-.48-3.071.23-4.353.67-.05 1.38.381 1.38 1.037-.15 14.838 2.19 36.874-.6 50.907-.74 9.525-.6 24.144-2.04 32.87-1.57 61.495-15.75 146.695-43.12 202.288-10.77 21.871-23.33 39.218-37.99 58.275 30.25-12.069 42.54-21.782 66.41-44.314-6.79 15.167-20.9 38.266-29.66 52.619-29.05 47.577-76.07 115.597-121.71 148.379 31.57-5.342 39.83-9.66 66.02-29.507-62.26 78.708-131.77 119.884-228.71 145.24-24.36 6.372-72.47 16.504-94.24 25.295 3.79 2.042 8.15 1.121 13.37 1.528 36.77.63 58.25 1.106 94.54 11.24-45.01 7.308-101.45 17.294-141.89 39.814 1.43 1.25 1.36.46 1.37 2.23h-.05c1.58 1.76 4.23-1.72 3.67 3.32 21.67-4.15 50.89-8.77 72.46-2.21l-.15.96c-14.14 3.11-28.02 5.92-41.89 10.09-36.37 10.94-98.84 42.35-126.988 67.85 28.438-15.36 51.428-27.42 84.038-33.17l2.8 2.31c-36.02 19.36-61.869 39.4-90.795 68.46-7.541 2.86-22.221 20.1-25.502 28.03-3.51 8.49-5.7 29.8-7.718 39.84-1.018.59-2.037 1.17-3.056 1.75-7.503-1.93-7.545-23.51-10.859-30.2-.1-.2-2.96-1.79-3.379-1.97l-1.182.92c.105-5.44 2.745-19.98 3.697-25.81 5.051-30.94 12.138-65.4 22.718-94.97 1.299-8.95 16.231-46.08 23.003-52.81 4.323 1.8 30.155-4.27 36.443-5.92 3.91-1.03 10.64-4.33 14.24-6.53 52.34-31.98 112.91-43.849 171.44-59.221 66.08-17.384 134.27-49.989 182.46-99.546-17.49 2.832-28.28 2.246-46.01.197 63.36-41.342 108.23-108.184 147.62-171.178-18.27 10.821-58.54 28.626-78.35 34.918 65.59-57.662 88.57-105.923 104.11-189.433-1.19-.455-2.56-.314-2.98-.72.01.059 1.55-5.63 1.63-5.779 2.78-5.652-1.5-5.437 1.67-11.596-.12.234 1.61-5.83 1.44-6.017.29-4.591.58-8.595 1.65-13.018 1.11-4.598-.28-9.12.74-13.03.16-.787.33-1.574.5-2.361.86-3.464 2.8-6.976-.82-9.081-.84-.503 1.61-3.044 1.83-4.539l.26-1.939c.68-4.778 3.34-20.508.81-23.162l-.73 1.267c-10.74 16.123-16.21 24.114-27.91 39.616-7.97 7.939-16.27 17.727-24.43 25.065-31.37 28.203-61.26 44.479-99.02 61.819 12.54 8.649 16.76 18.891 20.61 33.117-2.89 3.038-2.39 15.08-2.81 20.393-2.39-20.989-6.75-39.231-26.24-50.807-11.89 4.714-23.04 9.244-35.25 13.091-11.9-3.065-31.28 9.94-37.49 7.259l-.45-1.731c2.27-2.596 38.19-12.488 45.9-16.95l-.37-1.693c12.2-7.415 38.14-15.711 52.92-23.352 71.15-36.785 120.91-84.557 145.56-162.187 1.07-8.144 4.84-24.417 6.85-32.89"/><path fill="#d0872b" d="M945.284 1062.64c.458 10.21-7.774 23.16-7.201 33.86 9.585-1.67 16.49-22.69 23.04-21.57-.925 1.78-1.462 2.12-2.923 3.66-9.789 10.32-13.856 21.69-18.953 34.58 4.104-5.31 7.658-10.71 12.414-15.33-4.617 16.31-18.93 18.37-19.871 21.27-2.377 7.3-9.534 43.91-8.98 51.32 1.355-3.61 1.139-5.12 3.71-6.8 6.76 4.37-3.394 15.21-6.469 18.87l-1.182.92c.105-5.44 2.745-19.98 3.697-25.81 5.051-30.94 12.138-65.4 22.718-94.97"/><path fill="#0c001f" d="M961.123 1074.93c16.265-13.06 24.672-19.43 42.567-30.29l1.3 1.37a229.2 229.2 0 0 0-52.005 49.5c-.831 1.08-.808 1.11-1.324 2.33-4.756 4.62-8.31 10.02-12.414 15.33 5.097-12.89 9.164-24.26 18.953-34.58 1.461-1.54 1.998-1.88 2.923-3.66"/><path fill="#f8bf5d" d="M1524.11 333.892c-.14-1.371-.48-3.071.23-4.353.67-.05 1.38.381 1.38 1.037-.15 14.838 2.19 36.874-.6 50.907-.74 9.525-.6 24.144-2.04 32.87-.64-5.341-1.06-13.322-.67-18.854.42-6.068.39-11.809.27-17.996.42-1.381.48-15.703.2-15.84-5.45-2.646-.58 7.055-5.62 5.119 1.07-8.144 4.84-24.417 6.85-32.89"/><path fill="#5d3416" d="M1524.11 333.892c-.14-1.371-.48-3.071.23-4.353.67-.05 1.38.381 1.38 1.037-.15 14.838 2.19 36.874-.6 50.907-.35-11.7 1.04-37.932-1.01-47.591"/><path fill="#0f021f" d="M1506.97 421.875c1.46-3.354 2.64-5.262 4.45-8.307-2.48 34.899-6.17 65.141-11.18 99.549-1.19-.455-2.56-.314-2.98-.72.01.059 1.55-5.63 1.63-5.779 2.78-5.652-1.5-5.437 1.67-11.596-.12.234 1.61-5.83 1.44-6.017.29-4.591.58-8.595 1.65-13.018 1.11-4.598-.28-9.12.74-13.03.16-.787.33-1.574.5-2.361.86-3.464 2.8-6.976-.82-9.081-.84-.503 1.61-3.044 1.83-4.539l.26-1.939c.68-4.778 3.34-20.508.81-23.162"/><path fill="#0f021f" d="M1046.63 1038.42c8.19-7.26 9.27-8.3 19.47-13.21 1.43 1.25 1.36.46 1.37 2.23h-.05c1.58 1.76 4.23-1.72 3.67 3.32-7.5 2.51-16.8 5.3-24.46 7.66"/><path fill="#5d3416" d="M1113.45 974.156c-2.21.273-16.7 1.641-17.6.297 1.11-1.152 2.64-1.374 4.23-1.825 3.79 2.042 8.15 1.121 13.37 1.528"/><path fill="#5d3416" d="M1003.69 1044.64c1.25-.72 6.07-3.9 7.54-3.19.08.87-5.55 4.12-6.24 4.56z"/><path fill="#0f021f" d="M995.057 1020.73c11.553-4.86 29.633-11.33 41.743-14.47-13.1 7.83-22.46 11.09-35.72 17.45-17.045 8.4-21.345 13.26-34.909 25-1.598-.64-2.675-1.09-3.425-2.69l-.561-1.12c1.47-3.24 2.289-4.95 3.982-8.07l.884-1.66c10.668-6.86 16.322-9.39 28.006-14.44"/><path fill="#0c001f" d="M955.57 1059.89c1.67-3.97 4.547-11.93 6.615-14.99l.561 1.12c.75 1.6 1.827 2.05 3.425 2.69-1.694 2.2-8.555 9.14-10.601 11.18"/><path fill="#f8bf5d" d="M1372.68 603.152c.42-5.313-.08-17.355 2.81-20.393 11.49 48.364-11.09 92.364-42.97 127.659 21.02-32.7 43.01-66.35 40.16-107.266"/><path fill="#1d080f" d="M1506.24 423.142c.2 3.567 1.54 6.927-1.66 8.064-3.42 1.218-9.61 16.673-9.38 16.518-.75-.658-.31-1.922-.91-2.152-.58.331-1.67 2.013-1.69 2.837 2.58 1.105 9.53 1.424 3.51 8.934-2.16 2.692-7.38-1.683-9.28-.914-3.34 1.106-4.23 8.566-8.5 6.329 11.7-15.502 17.17-23.493 27.91-39.616"/><path fill="#f8bf5d" d="M1490.94 451.491a2.744 2.744 0 0 1 4.76 1.354 2.746 2.746 0 0 1-4.75 2.306 2.75 2.75 0 0 1-.01-3.66"/><path fill="#fcc655" d="M1342.52 591.553a4.891 4.891 0 0 1 7.5 4.158 4.87 4.87 0 0 1-2.57 4.271 4.88 4.88 0 0 1-6.53-1.832 4.89 4.89 0 0 1 1.6-6.597"/><path fill="#f8bf5d" d="M1348.13 607.512a4.625 4.625 0 0 1 6.33 1.51 4.626 4.626 0 1 1-8.55 2.58 4.63 4.63 0 0 1 2.22-4.09"/><path fill="#f8bf5d" d="M1298.7 864.544a4.62 4.62 0 0 1 6.24 1.727 4.624 4.624 0 0 1-1.62 6.273 4.61 4.61 0 0 1-4.66.059 4.6 4.6 0 0 1-2.34-4.042 4.63 4.63 0 0 1 2.38-4.017"/><path fill="#f8c76d" d="M1334.97 577.558a4.58 4.58 0 0 1 4.86-.468 4.57 4.57 0 0 1 2.51 4.182 4.56 4.56 0 0 1-2.69 4.072c-2.11.955-4.6.177-5.8-1.811a4.585 4.585 0 0 1 1.12-5.975"/><path fill="#f8bf5d" d="M1197.43 903.576a4.55 4.55 0 0 1 4.47 1.252 4.54 4.54 0 0 1 1.05 4.524 4.556 4.556 0 0 1-8.78-.341 4.55 4.55 0 0 1 3.26-5.435"/><path fill="#f8bf5d" d="M1224.08 895.499a4.45 4.45 0 0 1 4.59-.157 4.44 4.44 0 0 1 2.28 3.983 4.45 4.45 0 0 1-2.45 3.884 4.454 4.454 0 0 1-5.86-1.763 4.46 4.46 0 0 1 1.44-5.947"/><path fill="#fcc655" d="M1342.31 792.544a4.371 4.371 0 0 1 6.71 3.898 4.38 4.38 0 0 1-2.56 3.754 4.36 4.36 0 0 1-5.64-1.891 4.37 4.37 0 0 1 1.49-5.761"/><path fill="#f8bf5d" d="M1272.78 876.476a4.23 4.23 0 0 1 4.33-.458 4.24 4.24 0 0 1 2.44 3.6 4.23 4.23 0 0 1-2.02 3.852 4.24 4.24 0 0 1-5.71-1.239 4.24 4.24 0 0 1 .96-5.755"/><path fill="#f8c76d" d="M1441.45 570.553c2.12-.684 4.4.401 5.21 2.476a4.206 4.206 0 0 1-2.15 5.359 4.2 4.2 0 0 1-4.33-.479 4.2 4.2 0 0 1-1.59-4.062 4.19 4.19 0 0 1 2.86-3.294"/><path fill="#f8c76d" d="M1363.46 773.632a4.22 4.22 0 0 1 5.03 2.603 4.225 4.225 0 0 1-2.1 5.254 4.22 4.22 0 0 1-4.43-.454 4.22 4.22 0 0 1-1.55-4.168 4.21 4.21 0 0 1 3.05-3.235"/><path fill="#f8bf5d" d="M1142.85 920.522a4.19 4.19 0 0 1 5.78 1.242 4.19 4.19 0 0 1-1.21 5.789 4.2 4.2 0 0 1-5.82-1.221 4.2 4.2 0 0 1 1.25-5.81"/><path fill="#f8bf5d" d="M1382.26 755.7a4.2 4.2 0 0 1 5.19 2.315 4.196 4.196 0 0 1-6.27 5.088 4.19 4.19 0 0 1-1.73-4.032 4.18 4.18 0 0 1 2.81-3.371"/><path fill="#fcc655" d="M1430.88 589.514a4.19 4.19 0 0 1 6.84 2.981 4.17 4.17 0 0 1-2.05 3.862 4.183 4.183 0 0 1-5.56-1.203 4.186 4.186 0 0 1 .77-5.64"/><path fill="#f8bf5d" d="M1170.04 912.525a4.18 4.18 0 0 1 4.3.641 4.18 4.18 0 0 1-1.6 7.257 4.177 4.177 0 0 1-5.03-2.688 4.18 4.18 0 0 1 2.33-5.21"/><path fill="#f8bf5d" d="M1421.03 607.595a4.18 4.18 0 1 1 4.93 6.742 4.175 4.175 0 0 1-5.72-.989 4.18 4.18 0 0 1 .79-5.753"/><path fill="#f8bf5d" d="M1249.38 886.579a4.155 4.155 0 1 1 .8 7.411 4.158 4.158 0 0 1-.8-7.411"/><path fill="#f8c76d" d="M1410.95 625.544a4.145 4.145 0 0 1 5.57 4.75 4.146 4.146 0 1 1-5.57-4.75"/><path fill="#f8c76d" d="M1449.62 553.594a4.14 4.14 0 0 1 4.54 6.909 4.139 4.139 0 0 1-6.59-3.17 4.14 4.14 0 0 1 2.05-3.739"/><path fill="#fcc655" d="M1116.05 929.519a4.15 4.15 0 0 1 4.27-.266 4.12 4.12 0 0 1 2.22 3.651 4.12 4.12 0 0 1-2.19 3.669 4.14 4.14 0 0 1-5.48-1.498 4.14 4.14 0 0 1 1.18-5.556"/><path fill="#f8c76d" d="M1071.64 945.487a4.094 4.094 0 1 1 3.83 7.234 4.09 4.09 0 0 1-5.51-1.713 4.1 4.1 0 0 1 1.68-5.521"/><path fill="#f8c76d" d="M1465.46 518.577a4.066 4.066 0 0 1 5.49 1.618 4.07 4.07 0 0 1-1.56 5.515 4.06 4.06 0 0 1-4.09-.049 4.09 4.09 0 0 1-1.99-3.588 4.08 4.08 0 0 1 2.15-3.496"/><path fill="#f8c76d" d="M1399.16 644.521a4.054 4.054 0 0 1 5.2 1.539 4.057 4.057 0 0 1-5.26 5.764 4.05 4.05 0 0 1-2.25-3.67 4.06 4.06 0 0 1 2.31-3.633"/><path fill="#f8c76d" d="M1397.46 738.602a4.06 4.06 0 0 1 5.27 1.692 4.056 4.056 0 0 1-5.54 5.501 4.04 4.04 0 0 1-2.05-3.679 4.04 4.04 0 0 1 2.32-3.514"/><path fill="#f8c76d" d="M1473.49 500.704a4.03 4.03 0 0 1 2.94 7.482 4.04 4.04 0 0 1-4.18-.425 4.033 4.033 0 0 1 1.24-7.057"/><path fill="#f8bf5d" d="M1478.7 483.478a4.016 4.016 0 0 1 6.47 3.446 4.018 4.018 0 0 1-7.52 1.684 4.01 4.01 0 0 1 1.05-5.13"/><path fill="#fcc655" d="M1031.95 965.492a4.004 4.004 0 0 1 5.37 1.592 4.006 4.006 0 0 1-5.53 5.406 3.99 3.99 0 0 1-1.97-3.545 4.01 4.01 0 0 1 2.13-3.453"/><path fill="#fcc655" d="M1387.23 662.659a4.005 4.005 0 0 1 4.9 1.67 3.996 3.996 0 0 1-5.19 5.631 3.98 3.98 0 0 1-2.23-3.746 3.99 3.99 0 0 1 2.52-3.555"/><path fill="#f8bf5d" d="M1012.87 977.514a3.98 3.98 0 0 1 4.39-.379 3.977 3.977 0 0 1-.77 7.293 3.97 3.97 0 0 1-4.66-1.963 3.964 3.964 0 0 1 1.04-4.951"/><path fill="#fcc655" d="M1323.2 853.584a3.967 3.967 0 1 1 3.634 7.053 3.967 3.967 0 0 1-3.634-7.053"/><path fill="#f8c76d" d="M1093.06 937.566a3.91 3.91 0 0 1 5.04 1.712 3.91 3.91 0 0 1-1.32 5.157 3.93 3.93 0 0 1-4.09.091 3.92 3.92 0 0 1 .37-6.96"/><path fill="#f8c76d" d="M1457.37 536.659a3.9 3.9 0 0 1 5.23.626 3.9 3.9 0 0 1-.17 5.259 3.894 3.894 0 0 1-6.63-2.113 3.9 3.9 0 0 1 1.57-3.772"/><path fill="#f8c76d" d="M1051.38 955.59a3.803 3.803 0 0 1 5.15 1.229 3.81 3.81 0 0 1-1.07 5.189 3.79 3.79 0 0 1-3.86.248 3.79 3.79 0 0 1-2.08-3.268 3.8 3.8 0 0 1 1.86-3.398"/><path fill="#fcc655" d="M1412.04 722.461a3.75 3.75 0 0 1 4.27 2.472 3.76 3.76 0 0 1-1.85 4.575 3.77 3.77 0 0 1-4.04-.41 3.78 3.78 0 0 1-1.32-3.837 3.77 3.77 0 0 1 2.94-2.8"/><path fill="#f8bf5d" d="M1485.11 466.576a3.64 3.64 0 0 1 3.78-.701 3.62 3.62 0 0 1 2.29 3.079 3.64 3.64 0 0 1-1.74 3.422 3.634 3.634 0 0 1-4.79-.941 3.633 3.633 0 0 1 .46-4.859"/><path fill="#fcc655" d="M1325.54 809.548a3.545 3.545 0 0 1 4.86 1.076 3.547 3.547 0 0 1-1.01 4.872 3.54 3.54 0 0 1-3.56.215 3.55 3.55 0 0 1-1.95-2.998 3.57 3.57 0 0 1 1.66-3.165"/><path fill="#fcc655" d="M1328.53 566.579a3.5 3.5 0 0 1 4.51 1.105c1 1.457.76 3.436-.57 4.606a3.49 3.49 0 0 1-3.68.592 3.5 3.5 0 0 1-2.12-3.069 3.51 3.51 0 0 1 1.86-3.234"/><path fill="#fcc655" d="M1310.03 822.596a3.215 3.215 0 1 1-.98 4.44 3.21 3.21 0 0 1 .98-4.44"/><path fill="#fcc655" d="M1424.26 709.43a3.22 3.22 0 0 1 3.2-.819 3.21 3.21 0 0 1 2.23 2.437 3.21 3.21 0 0 1-1.11 3.111 3.2 3.2 0 0 1-4.4-.312 3.21 3.21 0 0 1 .08-4.417"/><path fill="#fcc655" d="M1350.61 624.417a3.14 3.14 0 0 1 3.18-.347 3.12 3.12 0 0 1 1.83 2.625 3.12 3.12 0 0 1-1.42 2.869 3.135 3.135 0 0 1-4.28-.836 3.135 3.135 0 0 1 .69-4.311"/><path fill="#fcc655" d="M997.474 988.477a3.003 3.003 0 1 1 3.306 5.014 3.004 3.004 0 0 1-3.306-5.014"/><path fill="#fcc655" d="M1373.03 679.476c.8-.647 1.88-.813 2.84-.435a2.84 2.84 0 0 1 1.77 2.26 2.84 2.84 0 0 1-1.09 2.656 2.85 2.85 0 0 1-3.97-.507 2.85 2.85 0 0 1 .45-3.974"/><path fill="#fcc655" d="M1341.94 846.5a2.68 2.68 0 0 1 3.61.373 2.68 2.68 0 0 1-.07 3.624 2.67 2.67 0 0 1-2.71.714 2.67 2.67 0 0 1-1.86-2.103 2.66 2.66 0 0 1 1.03-2.608"/><defs><linearGradient id="b" x1="400.897" x2="815.493" y1="1265.828" y2="1431.259" gradientUnits="userSpaceOnUse"><stop offset="0" stop-color="#bc6e19"/><stop offset="1" stop-color="#e7aa4d"/></linearGradient></defs><path fill="url(#b)" d="m383.136 1295.62 147.809-98.84c25.398-16.9 54.927-37.39 81.002-52.7 4.298 3.59 11.274 8.11 16.047 11.38-40.773 28.2-80.34 59.41-120.2 88.93-9.625 7.13-21.016 15.26-29.766 23.23 7.746-2.31 76.021-47.04 87.956-55.03 18.707-12.54 56.422-34.79 73.718-47.94a2132.5 2132.5 0 0 1 272.329 275.63c19.151 23 38.496 46.24 56.985 69.78 8.811 11.22 16.067 25.39 23.002 37.92-3.014-1.85-17.158-10.06-18.249-12.2-3.214-1.7-7.319-4.09-10.156-6.36a1803 1803 0 0 0-56.719-36.81 2287 2287 0 0 0-54.34-31.78c-10.567-5.9-24.536-12.93-34.468-19.14-27.773-13.42-54.758-27.66-82.905-40.55a1802 1802 0 0 0-196.476-75.63c-22.286 17.85-50.875 36.33-71.913 54.7.897 1.22 1.786 2.45 2.668 3.68 21.042-15.15 49.165-31.89 71.654-46.95 32.884 9.82 67.429 23.03 99.361 35.29 102.949 39.53 201.613 91.98 290.039 158.02 6.44 4.81 13.538 10.15 19.102 15.9-7.091-2.64-30.734-9.28-34.649-11.52-7.123-1.66-13.636-4.37-20.507-6.14-59.609-18.87-123.353-34.02-184.517-46.92-7.954-.75-26.173-4.74-34.703-6.36-21.4-4.21-42.91-7.83-64.506-10.87a2008 2008 0 0 0-286.013-20.38l185.291-126c-38.084-10.34-87.216-18.29-126.876-22.34"/><path fill="#28024a" d="M478.028 1267.62c7.746-2.31 76.021-47.04 87.956-55.03 18.707-12.54 56.422-34.79 73.718-47.94a2132.5 2132.5 0 0 1 272.329 275.63c19.151 23 38.496 46.24 56.985 69.78 8.811 11.22 16.067 25.39 23.002 37.92-3.014-1.85-17.158-10.06-18.249-12.2-3.214-1.7-7.319-4.09-10.156-6.36a1803 1803 0 0 0-56.719-36.81 2287 2287 0 0 0-54.34-31.78c-10.567-5.9-24.536-12.93-34.468-19.14-4.063-8.13-5.37-8.14 1.853-16.45-67.543-44.04-141.163-80.61-215.2-112.29-46.154-19.76-83.476-32.12-132.662-40.77 2.634-2.58 2.768-2.65 5.951-4.56"/><path fill="#f8bf5d" d="M819.939 1425.24c26.956 17.76 53.93 35.28 79.792 54.62 3.366 2.52 7.012 4.89 10.208 7.6 18.499 12.67 36.5 26.57 54.362 40.15l-.688 1.81a1803 1803 0 0 0-56.719-36.81 2287 2287 0 0 0-54.34-31.78c-10.567-5.9-24.536-12.93-34.468-19.14-4.063-8.13-5.37-8.14 1.853-16.45"/><path fill="#bd9b6e" d="M964.301 1527.61c3.758 2.61 6.58 4.7 9.468 8.17-3.214-1.7-7.319-4.09-10.156-6.36z"/><path fill="#28024a" d="M541.114 1336.94c32.884 9.82 67.429 23.03 99.361 35.29 102.949 39.53 201.613 91.98 290.039 158.02 6.44 4.81 13.538 10.15 19.102 15.9-7.091-2.64-30.734-9.28-34.649-11.52-7.123-1.66-13.636-4.37-20.507-6.14-59.609-18.87-123.353-34.02-184.517-46.92 2.781-.32 3.347-.11 5.708-1.47 1.88-4.73 1.703-11.33-3.293-13.83l.416-1.76c-4.961-2.6-33.949-10.21-41.503-12.26-77.845-21.15-158.571-39.13-239.335-42.98l1.098-.88c9.283-7.65 25.751-17.11 36.426-24.5 21.042-15.15 49.165-31.89 71.654-46.95"/><path fill="#f8bf5d" d="M712.774 1464.51c59.097 16.82 126.248 39.57 183.378 62.31l-1.692 1.67c-59.609-18.87-123.353-34.02-184.517-46.92 2.781-.32 3.347-.11 5.708-1.47 1.88-4.73 1.703-11.33-3.293-13.83z"/><path fill="#bd9b6e" d="M896.152 1526.82c4.265 1.48 14.324 4.95 17.844 7.2l.971.61c-7.123-1.66-13.636-4.37-20.507-6.14z"/><path fill="#0f021f" d="M466.792 1380.21c.897 1.22 1.786 2.45 2.668 3.68-10.675 7.39-27.143 16.85-36.426 24.5l-1.098.88c-.745-.03-2.409.29-2.482-.83.616-1.17 34.011-26.11 37.338-28.23"/><defs><linearGradient id="c" x1="1269.292" x2="1638.262" y1="1462.709" y2="1259.752" gradientUnits="userSpaceOnUse"><stop offset="0" stop-color="#e0a144"/><stop offset="1" stop-color="#ffd37a"/></linearGradient></defs><path fill="url(#c)" d="M1437.29 1144c56.26 35.9 111.88 72.79 166.82 110.67 17.38 11.72 36.09 25.11 53.48 36.32 11.1 6.29 3.2 4.93-5.08 5.93-42.28 5.56-72.93 11.65-114.35 20.77 61.28 41.03 123.8 85.81 185.17 125.64-120.52 2.24-238.69 10.57-357.31 33.12-17.91 3.4-37.1 8.36-54.94 11.01-1.5.53-1.12.39-2.56.73l-9.01 2.04c-11.04 2.37-22.05 4.9-33.02 7.57l-1.96.45-4.01 1-4 .97c-5.56 1.34-12.74 3.74-18.19 4.59-27.51 7.88-55.25 14.71-82.51 23.57-5.64 1.84-12.07 3.85-17.8 5.28-6.36 3.33-29.37 10-37.35 12.46 8.08-5.66 16.95-13.24 25.11-19.35a923 923 0 0 1 49.26-34.52 1254.4 1254.4 0 0 1 241.14-123.01c29.26-11.33 62.07-22.1 91.86-32.29 16.37 11.77 46.22 30.21 63.75 40.75 2.38-1.28 2.22-1.18 3.82-3.46l-65.07-48.77a1842 1842 0 0 0-199.1 77.35c-18.16 8.36-41.07 18.68-58.43 28.28a1602 1602 0 0 0-114.08 64.46c-16.47 10.57-44.76 30.42-60.62 39.12-2.88 2.85-16.67 10.93-20.58 13.32 8.42-13.64 17.19-26.01 26.7-38.88 67.07-90.68 142.66-174.25 223.56-252.73 32.63-31.65 65.39-63.21 101.45-90.85 23.16 11.01 153.71 101.59 162.32 102.12-14.56-12.22-32.59-25.29-47.93-36.84-33.81-25.36-67.75-50.53-101.84-75.51 5.06-3.73 10.31-7.5 15.3-11.31"/><path fill="#28024a" d="M1057.73 1548c8.42-13.64 17.19-26.01 26.7-38.88 67.07-90.68 142.66-174.25 223.56-252.73 32.63-31.65 65.39-63.21 101.45-90.85 23.16 11.01 153.71 101.59 162.32 102.12l5.72 4.67c-50.69 8.49-88.56 22.17-136.19 42.16a1446 1446 0 0 0-196.89 101.22c1.76 1.79 8.47 13.09 8.61 15.39a1602 1602 0 0 0-114.08 64.46c-16.47 10.57-44.76 30.42-60.62 39.12-2.88 2.85-16.67 10.93-20.58 13.32"/><path fill="#d0872b" d="M1244.4 1415.71c1.76 1.79 8.47 13.09 8.61 15.39a1602 1602 0 0 0-114.08 64.46c-2.9-1.86-3.03-1.45-4.75-4.05 35.68-26.77 72.45-52.06 110.22-75.8"/><path fill="#d0872b" d="M1134.18 1491.51c1.72 2.6 1.85 2.19 4.75 4.05-16.47 10.57-44.76 30.42-60.62 39.12 5.08-5.95 48.3-38.59 55.87-43.17"/><path fill="#28024a" d="M1508.04 1336.95c16.37 11.77 46.22 30.21 63.75 40.75 2.38-1.28 2.22-1.18 3.82-3.46 5.22 3.78 45.45 32.97 44.49 35.52-42.84.72-86.66 7.78-128.64 16a1618 1618 0 0 0-192.83 50.12c5.19 2.11 3.88 1.52 1.42 4.28.07 7.14 7.91-1.61 11.03 7.3-1.5.53-1.12.39-2.56.73l-9.01 2.04c-11.04 2.37-22.05 4.9-33.02 7.57l-1.96.45-4.01 1-4 .97c-5.56 1.34-12.74 3.74-18.19 4.59-27.51 7.88-55.25 14.71-82.51 23.57-5.64 1.84-12.07 3.85-17.8 5.28-6.36 3.33-29.37 10-37.35 12.46 8.08-5.66 16.95-13.24 25.11-19.35a923 923 0 0 1 49.26-34.52 1254.4 1254.4 0 0 1 241.14-123.01c29.26-11.33 62.07-22.1 91.86-32.29"/><path fill="#d0872b" d="M1245.36 1493.81c6.35-3.34 44.2-14.66 53.27-17.93 5.19 2.11 3.88 1.52 1.42 4.28.07 7.14 7.91-1.61 11.03 7.3-1.5.53-1.12.39-2.56.73l-9.01 2.04c-11.04 2.37-22.05 4.9-33.02 7.57l-1.96.45-4.01 1-4 .97c-5.56 1.34-12.74 3.74-18.19 4.59-1.83-1.14-4.83-1.68-5.79-3.58l.16.01.48-.62c3.4-.39 10.21-1.83 11.56-5.33z"/><path fill="#d0872b" d="M1138.02 1533.66c8.51-6.58 92.11-34.7 107.34-39.85l-.62 1.48c-1.35 3.5-8.16 4.94-11.56 5.33l-.48.62-.16-.01c.96 1.9 3.96 2.44 5.79 3.58-27.51 7.88-55.25 14.71-82.51 23.57-5.64 1.84-12.07 3.85-17.8 5.28"/><path fill="#0f021f" d="M1575.61 1374.24c5.22 3.78 45.45 32.97 44.49 35.52-1.01-.31-5.12-1.03-5.5-1.61-3.66-5.49-11.78-8.08-16.6-12.27-6.39-5.54-21.05-12.61-26.21-18.18 2.38-1.28 2.22-1.18 3.82-3.46"/><path fill="#f8c76d" d="M1657.59 1290.99c11.1 6.29 3.2 4.93-5.08 5.93 3.57-2.83 2.2-2.45 5.08-5.93"/><path fill="#28024a" d="M1270.06 949.949c20.19 13.065 41.68 28.897 61.55 42.923l100.97 70.918c15.19 10.62 32.31 23.39 47.72 33.12-116.35 82.61-224.9 192.89-320.16 298.83-31.37 36.74-59.65 70.1-90.02 108.08-2.69-.77-2.46-.6-3.91-3-2.3 2.9-4.34 6.93-6.59 10.26 0-7.48 7.26-32.79 9.44-41.61l25.9-103.03 86.15-341.21c13.08 3.38 33.48 8.37 45.61 13.76 6.48-23.55 18.89-51.229 26.28-76.173 9.76 9.736 21.55 18.371 31.75 27.534 28.82 25.879 64.56 51.849 92.52 77.769 4.71.91 5.01-.95 7.81 2.84 1.98 2.68 2.91 3.62 6.07 3.12-5.89-7.34-29.39-29.83-37.68-38.12a5503 5503 0 0 0-86.02-84.392z"/><defs><linearGradient id="d" x1="1073.932" x2="1390.487" y1="1302.414" y2="1005.804" gradientUnits="userSpaceOnUse"><stop offset="0" stop-color="#d7953d"/><stop offset="1" stop-color="#fbcb72"/></linearGradient></defs><path fill="url(#d)" d="M1270.06 949.949c20.19 13.065 41.68 28.897 61.55 42.923l100.97 70.918c15.19 10.62 32.31 23.39 47.72 33.12-116.35 82.61-224.9 192.89-320.16 298.83-.1-2.55-.07-2.08-.64-4.54-1.88.23-.92.16-2.86.19-1.38-4.32-1.51-6.12-2.09-10.69-3.73-.49-5.87-1.06-9.54-2.02l.52-1.84c2.44-2.35 3.71-4.47 5.83-7.09 12.36-19.03 27.61-38.99 41.39-57.21a1281.6 1281.6 0 0 1 211.1-220.44c5.93-3.8-9.01-14.75-12.7-18.02-5.89-7.34-29.39-29.83-37.68-38.12a5503 5503 0 0 0-86.02-84.392z"/><path fill="#d0872b" d="M1145.53 1376.84c2.44-2.35 3.71-4.47 5.83-7.09 3.91 8.89.41 8.69-5.83 7.09"/><path fill="#d0872b" d="M1156.16 1373.25c4.05-1.39 3.44.3 3.91 4.23-1.98-.95-5.27-1.71-3.91-4.23"/><path fill="#d0872b" d="M1145.01 1378.68c3.67.96 5.81 1.53 9.54 2.02.58 4.57.71 6.37 2.09 10.69 1.94-.03.98.04 2.86-.19.57 2.46.54 1.99.64 4.54-31.37 36.74-59.65 70.1-90.02 108.08-2.69-.77-2.46-.6-3.91-3 3.5-6.42 7.84-13.31 11.74-19.53 21.56-34.46 43.42-69.54 67.06-102.61"/><path fill="#0f021f" d="M1377.27 1068.12c4.71.91 5.01-.95 7.81 2.84 1.98 2.68 2.91 3.62 6.07 3.12 3.69 3.27 18.63 14.22 12.7 18.02-2.2-4.27-7.37-4.89-9.24-8.58-3.23-6.39-13.34-10.87-17.34-15.4"/><path fill="#28024a" d="M825.178 938.706c8.337 39.774 21.551 80.864 30.459 120.894 6.15 27.64 5.417 52.18 11.321 78.86 4.22 19.07 17.068 40.48 21.237 60 2.778 11.85 2.978 24.4 4.726 36.36 2.223 15.21 3.814 33.42 8.256 48.1 12.679 41.91 25.898 83.65 36.908 126.07 2.046 7.89 9.205 28.28 9.23 34.94.973 1.7 4.541 7.62 5.148 9.06 7.107 9.68 39.769 61.86 44.561 72.32l-4.425-5.75c-15.312-20.01-36.105-41.88-50.288-61.45-3.564-3.06-29.452-34.53-34.329-40.18a3084 3084 0 0 0-69.86-77.48 1983 1983 0 0 0-269.379-243.63c67.353-46.47 134.3-93.53 200.832-141.171 7.273 5.14 2.932-2.231 7.915.705-32.327 31.873-66.139 62.986-97.643 95.876-8.4 8.77-30.355 28.93-36.866 37.89 9.636-4.98 48.736-39.55 59.377-48.42a5307 5307 0 0 0 78.969-65.933c14.363-12.006 30.09-24.584 43.851-37.061"/><defs><linearGradient id="e" x1="586.162" x2="1054.395" y1="1071.088" y2="1318.484" gradientUnits="userSpaceOnUse"><stop offset="0" stop-color="#c37822"/><stop offset="1" stop-color="#eaae4f"/></linearGradient></defs><path fill="url(#e)" d="M769.575 955.649c7.273 5.14 2.932-2.231 7.915.705-32.327 31.873-66.139 62.986-97.643 95.876-8.4 8.77-30.355 28.93-36.866 37.89a1319.6 1319.6 0 0 1 230.939 246.4c26.7 36.59 48.331 70.43 73.395 107.41.973 1.7 4.541 7.62 5.148 9.06 7.107 9.68 39.769 61.86 44.561 72.32l-4.425-5.75c-15.312-20.01-36.105-41.88-50.288-61.45-3.564-3.06-29.452-34.53-34.329-40.18a3084 3084 0 0 0-69.86-77.48 1983 1983 0 0 0-269.379-243.63c67.353-46.47 134.3-93.53 200.832-141.171"/><path fill="#d0872b" d="M952.463 1452.99c7.107 9.68 39.769 61.86 44.561 72.32l-4.425-5.75c-15.312-20.01-36.105-41.88-50.288-61.45-.265-.08 2.547.85 2.433.75 7.944 6.99 18.817 21.67 25.97 29.01-2.533-6.44-6.259-13.58-10.53-19.01-3.425-4.35-8.19-10.2-7.721-15.87"/><defs><linearGradient id="f" x1="1267.592" x2="1619.932" y1="1769.213" y2="1432.198" gradientUnits="userSpaceOnUse"><stop offset="0" stop-color="#c07214"/><stop offset="1" stop-color="#ffd37a"/></linearGradient></defs><path fill="url(#f)" d="M1589.28 1471.8c-1-.83-4.06-2.84-4.32-4.18l.22-.27c2.35-.81 13.37 1.09 16.11 1.79 5.88.35 11.3 1.29 17.11 2.18 57.21 46.87 115.79 91.97 173.31 138.23 2.99 1.92 3.34 2.37 5.61 4.65-9.7-.15-22.29.01-31.69-.96L1448.7 1605l-150.49-2.72c-29.87-.43-61.03-.17-90.77-1.37-31.95.57-63.9.16-95.82-1.22 14.88-3 33.26-5.98 48.38-7.02 3.12-1.13 40.03-5.31 45.87-5.79 38.53-3.16 84.74-11.12 122.86-11.99 11.38-2.1 43.56-2.79 56.95-3.69 38.78-2.06 77.62-3.13 116.46-3.2 19.6-.04 41.79.82 61.1.14 4.83-.75 8.86.19 12-2.11l.65.44c-2.17-1.74-3.51-1.6-6.17-1.91l-.69-1.36c-109.01-8.39-229.87-4.47-338.28 7.98-32.28 3.7-59.07 10.21-89.95 15.18l-.95-1.27c-4.22-.23-21.25 3.63-26.35 4.69-3.06 5.22-8.15 10.65-13.02 3.01 3.42-7.19 28.39-7.76 33.27-14.28 17.8-6.29 65.15-16.18 84.94-20.48a1372 1372 0 0 1 327.09-31.94c41.52 1.44 82.97 4.37 124.28 8.76-26.5-21.13-54.04-42.05-80.78-63.05"/><path fill="#0f021f" d="M1569.03 1563.2c32.59.29 69.26 5.4 102.08 6.94l.06 2.26c-34.86-1.75-74.1-1.92-107.93-4.26 4.83-.75 8.86.19 12-2.11l.65.44c-2.17-1.74-3.51-1.6-6.17-1.91z"/><path fill="#c57b24" d="M1111.62 1599.69c14.88-3 33.26-5.98 48.38-7.02-.72 2.56-7.54 3.82-4.46 5.19.37-.24.74-.49 1.11-.73 2.91.86 5 .5 8.31 1.17l.87-.83.81.43c-.74-.42-1.56-.75-2.09-1.44.03-.75 5.68-1.14 5.62.99-.01.21.7.63.84.52 7.52.66 29.14-.28 34.47 2.11.65.29 1.3.56 1.96.83-31.95.57-63.9.16-95.82-1.22"/><path fill="#d0872b" d="M1328.73 1574.89c11.38-2.1 43.56-2.79 56.95-3.69l-.71 1.37c-4.07 8.38-13.63-.63-20.83 1.68-5.56 1.8-11.9-.63-17.18 1.93-4.6 2.29-13.61.15-18.23-1.29"/><path fill="#f8bf5d" d="M1791.71 1609.55c2.99 1.92 3.34 2.37 5.61 4.65-9.7-.15-22.29.01-31.69-.96 6.11-.92 21.39-1.6 24.82-3.13z"/><path fill="#5d3416" d="M1671.11 1570.14c7.56-.15 24.01 1.6 31.52 2.95l.22 1.02c-10.02-.8-21.99-.36-31.68-1.71z"/><path fill="#f8bf5d" d="M1589.28 1471.8c-1-.83-4.06-2.84-4.32-4.18l.22-.27c2.35-.81 13.37 1.09 16.11 1.79-3.91.9-8.07 1.81-12.01 2.66"/><path fill="#e09b36" d="M1702.63 1573.09c2.38-.15 10.09-.73 11.7 1.36-1.52 1.48-9.14.39-11.48-.34z"/><defs><linearGradient id="g" x1="303.003" x2="804.979" y1="1496.105" y2="1687.315" gradientUnits="userSpaceOnUse"><stop offset="0" stop-color="#b2600c"/><stop offset="1" stop-color="#f6c466"/></linearGradient></defs><path fill="url(#g)" d="m430.616 1471.14 35.721-4.55c-28.269 23.53-58.298 46.04-87.563 68.36 119.157-11.33 226.43-14.47 345.745 4.21 9.644 1.51 50.16 7.02 56.252 9.28 23.161 3.99 46.207 8.63 69.111 13.9 9.153 2.06 21.791 5.46 30.712 7.04l2.037 11.87c-37.775-8.88-88.107-12.89-126.795-16.5-7.078.2-26.938-1.74-34.848-2.28-19.8-1.38-39.631-2.29-59.476-2.71a2096 2096 0 0 0-199.581 4.51c6.785 1.24 27.547.6 32.853 3.61 77.73.49 154.722.56 232.331 6.72 6.134.49 31.151 2.07 34.744 3.33 17.271.55 40.361 3.67 57.98 5.69 30.461 3.28 60.848 7.2 91.14 11.77-3.443 4.78-10.282 2.81-17.546 4.56l-76.841 1.44c-12.642.33-40.545 1.71-52.323.74-18.923 1.67-46.93 1.29-66.465 1.66l-130.115 2.38-174.489 4.08c-19.552.36-45.077 2.15-63.856 1.69-25.131.76-54.518.82-79.303 2.88 24.613-20.19 50.675-39.22 75.335-59.44 6.742-5.52 16.359-13.63 23.422-18.23 5.203-5.53 17.189-14.14 23.321-19.27 18.59-15.56 40.331-31 58.497-46.74"/><path fill="#f8c76d" d="M780.771 1548.44c23.161 3.99 46.207 8.63 69.111 13.9 9.153 2.06 21.791 5.46 30.712 7.04l2.037 11.87c-37.775-8.88-88.107-12.89-126.795-16.5.768-.6 1.537-1.21 2.305-1.82 8.849-.12 23 3.13 31.299 2.77 5.312-3.44 2.673-6.02 8.611-11.2-5.954-1.8-14.365-2.91-19.191-5.21z"/><path fill="#f8c76d" d="M761.859 1577.93c17.271.55 40.361 3.67 57.98 5.69 30.461 3.28 60.848 7.2 91.14 11.77-3.443 4.78-10.282 2.81-17.546 4.56l-76.841 1.44c-12.642.33-40.545 1.71-52.323.74-3.232-.47-6.466-.7-9.718-.99 11.184-1.93 50.548.56 54.583-5.18-.566-2.63-.743-2.65-.306-5.25 2.373-1.54 3.69-1.13 6.568-.95l1.1.07c1.7-1.86.877-1.41 3.091-2.2 1.484 1.96 3.94 6.32 3.112 8.74-2.988-.22-3.702-.58-6.387.7l-.208.98c5.185.76 18.052.75 23.399.16l-2.927-1.73c-1.563-4.84.029.1 2.67-5.29-.531-.94-1.062-1.87-1.593-2.81-10.097-3.04-69.976-5.66-75.794-10.45"/><path fill="#c57b24" d="M250.041 1614.82c24.613-20.19 50.675-39.22 75.335-59.44 6.742-5.52 16.359-13.63 23.422-18.23-4.026 9.81-48.493 39.22-58.028 48.38-3.574 3.43-8.61 7.01-12.525 10.06-2.773 2.2-19.182 13.95-18.04 16.1 1.282.77 21.442-.25 24.411-.78 8.647-1.54 18.506-.34 27.023-1.52 7.129-.99 11.177.94 17.705 2.55-25.131.76-54.518.82-79.303 2.88"/><path fill="#1d080f" d="M374.437 1570.14c25.244-.01 60.806-4.75 87.494-5.87 6.785 1.24 27.547.6 32.853 3.61-40.78 1.12-79.025 1.98-119.901 4.21z"/><path fill="#c57b24" d="M358.283 1573.26c-5.443 2.8-12.082 1.15-18.783 2.4-11.294 2.11-5.609-7.59 7.547-4.27l-1.517.44c-.922.19-2.159.31-2.764 1.12 0 .18-.031.29.109.34 2.238.81 13.268.11 15.408-.03"/><path fill="#5d3416" d="M347.047 1571.39c7.172 1.37 19.169-1.35 27.39-1.25l.446 1.95c-5.718.4-10.807.84-16.6 1.17-2.14.14-13.17.84-15.408.03-.14-.05-.109-.16-.109-.34.605-.81 1.842-.93 2.764-1.12z"/><path fill="#f8c76d" d="M804.614 1592.35c2.546.97 1.163 1.47-.655 1.71-.549-.38-1.227-.51-1.195-1.06.476-.48 1.166-.5 1.85-.65"/><path fill="#d0872b" d="m942.254 765.823 1.253.718c1.671.878 1.818 1.537 2.316 3.332-17.725 71.902-27.586 142.885-18.897 216.892 1.126 9.592 2.342 30.835 8.273 37.925 1.673-1.25 1.126-.45 1.681-1.94 26.359-70.874 68.3-135.431 121.03-189.377l-8.97-7.333.88-.259c5.43.496 9.41.762 14.78 1.948 16.08-14.991 29.76-22.112 43.9-34.585-22.9 28.157-48.9 52.54-70.89 80.228-72.668 91.507-113.477 188.788-121.099 305.568.537 2.63.86 3.96 1.696 6.52l.662-2.04 1.182-.92c.419.18 3.279 1.77 3.379 1.97 3.314 6.69 3.356 28.27 10.859 30.2 1.019-.58 2.038-1.16 3.056-1.75 2.018-10.04 4.208-31.35 7.718-39.84 3.281-7.93 17.961-25.17 25.502-28.03-4.022 4.55-20.783 21.87-21.954 25.87-19.033 64.93-16.669 144.51 9.069 206.81-2.077.96-3.286 1.33-5.415.79-27.671-44.65-41.639-96.18-49.095-147.73-2.138-14.78-1.725-31.22-4.671-45.47-.517-2.49-8.551-16.27-10.571-21.25-11.914-29.34-16.34-51.47-15.004-82.76l2.966-1.21c2.571 6.91 5.444 15.3 8.607 21.8l.212-1.46c.442-3.26 1.075-4.59 2.813-7.58-13.95-50.95-13.616-91.52-5.688-142.821l2.465-13.996 1.644 14.719c4.072 40.933 11.692 68.088 29.98 105.058l4.43-.69c-.775-2.79-1.53-5.6-2.265-8.4-19.497-75.184-21.328-159.322 4.021-233.027 4.85-14.101 12.696-35.164 20.145-47.88"/><path fill="#0f021f" d="m884.497 1101.9.212-1.46c.442-3.26 1.075-4.59 2.813-7.58 5.203 15.03 8.146 22.75 15.227 37.22-8.352-9.13-13.011-17.23-18.252-28.18"/><path fill="#1d080f" d="m915.923 1055.82 4.43-.69c.991 4.28 2.637 9.52 3.867 13.85z"/><path fill="#e09b36" d="M918.207 1185.46c.026 1.67.309 5.45-.89 6.79l-.318-.2-.017.29-.171.05c-1.77-1.29-.673-11.3-.3-13.45.537 2.63.86 3.96 1.696 6.52"/><path fill="#28024a" d="M493.049 1464.26c13.8.58 31.885 2.53 45.888 3.75a1249.8 1249.8 0 0 1 262.378 50.44c19.142 5.84 41.262 12.28 59.72 19.78-7.764.2-52.212-9.12-63.234-11-84.869-16.17-196.407-23.89-281.952-21.14a1744 1744 0 0 0-93.641 6.48c22.233-13.9 47.796-33.25 70.841-48.31"/><path fill="#28024a" d="M1192.38 1536.62c74.12-26.24 149.53-45.78 227.31-57.02 45.06-6.51 91.71-13.59 137.22-15.46 22.55 16.75 47.47 32.32 70.61 49.09-97.19-12.5-201.67-9.08-298.8 2.95-42.57 5.27-92.51 11.99-134.16 22.35z"/><path fill="#c57b24" d="M880.594 1569.38c54.942 15 91.808 23.88 143.836 50.37 26.85-13.52 80.07-36.08 109.32-41.24-4.88 6.52-29.85 7.09-33.27 14.28 4.87 7.64 9.96 2.21 13.02-3.01 5.1-1.06 22.13-4.92 26.35-4.69l.95 1.27c-4.54 1.71-20.36 4.66-25.9 5.82.1 17.43-.16 35.16-.25 52.62-59.92.88-121.556.15-181.612.16.22-17.46.112-35.09.126-52.57-16.257-4.14-34.027-7.63-50.533-11.14z"/><path fill="#d0872b" d="M956.012 813.588c5.076-18.47 30.068-66.509 42.519-80.556-.462 5.5-3.042 6.706 2.249 6.258-18.299 22.946-31.606 48.312-44.768 74.298"/><path fill="#c57b24" d="M805.023 930.129c-3.088 3.335-24.82 24.441-27.533 26.225-4.983-2.936-.642 4.435-7.915-.705 11.975-8.342 23.376-17.252 35.448-25.52"/><path fill="#c57b24" d="M957.68 1377.73c2.113 3.25 3.639 7.71 5.399 11.32 3.516 7.22 7.487 14.1 11.535 21.02-8.602-9.38-15.586-20.78-22.349-31.55 2.129.54 3.338.17 5.415-.79"/><path fill="#f8bf5d" d="M910.979 1595.39c7.194.61 17.043 2.58 24.336 3.84-10.772 1.18-30.505.97-41.882.72 7.264-1.75 14.103.22 17.546-4.56"/><path fill="#d0872b" d="M1059.62 1511.08c2.25-3.33 4.29-7.36 6.59-10.26 1.45 2.4 1.22 2.23 3.91 3-3.19 4.94-14.27 18.64-18.34 23.53 2.54-5.34 5.58-10.91 7.84-16.27"/><path fill="#e09b36" d="M964.863 892.571a4.246 4.246 0 1 1 3.677 7.652 4.246 4.246 0 0 1-3.677-7.652"/><path fill="#e09b36" d="M940.647 954.674a4.234 4.234 0 0 1 6.347 3.974 4.236 4.236 0 1 1-6.347-3.974"/><path fill="#f8bf5d" d="M971.826 834.507a4.174 4.174 0 1 1 4.442 7.067 4.174 4.174 0 0 1-4.442-7.067"/><path fill="#c57b24" d="M942.254 765.823c.822-4.105 6.37-12.764 8.655-16.474-1.588 6.38-3.929 14.145-5.086 20.524-.498-1.795-.645-2.454-2.316-3.332z"/><path fill="#e09b36" d="M955.838 912.564a4.141 4.141 0 1 1 4.465 6.976 4.141 4.141 0 0 1-4.465-6.976"/><path fill="#e09b36" d="M947.182 933.47a4.093 4.093 0 1 1 4.77 6.653 4.093 4.093 0 0 1-4.77-6.653"/><path fill="#e09b36" d="M976.188 874.645a3.949 3.949 0 1 1 2.648 7.44 3.949 3.949 0 0 1-2.648-7.44"/><path fill="#e09b36" d="M987.904 860.651a3.757 3.757 0 0 1 5.041 1.62 3.758 3.758 0 1 1-6.673 3.46 3.76 3.76 0 0 1 1.632-5.08"/><path fill="#e09b36" d="M993.168 834.504a3.472 3.472 0 1 1 4.402 5.371 3.472 3.472 0 0 1-4.402-5.371"/><path fill="#e09b36" d="M935.877 976.525a3.423 3.423 0 1 1 4.78 4.892 3.425 3.425 0 0 1-4.78-4.892"/><path fill="#e09b36" d="M1001.15 848.483a3.236 3.236 0 0 1 4.46.548 3.237 3.237 0 1 1-5.716 2.51 3.23 3.23 0 0 1 1.256-3.058"/><path fill="#e09b36" d="M953.913 833.491a3.187 3.187 0 1 1 4.475 4.54 3.187 3.187 0 0 1-4.475-4.54"/><path fill="#22043a" d="M1194.56 1538.53c-1.36.36-12.49 3.84-13.11 2.45.93-2.1 8.8-4.11 10.93-4.36z"/><path fill="#f8bf5d" d="M1257.04 940.874c4.73 3.123 8.51 5.587 13.02 9.075l-2.61 1.619c-3.66-3.503-6.94-7.013-10.41-10.694"/><path fill="#c57b24" d="m872.929 1074.15 2.417.66c.117 1.97.285 3.33.544 5.29l-2.966 1.21c-.028-2.39-.027-4.77.005-7.16"/><path fill="#f8bf5d" d="M1058.56 1074.28c1.17-.22 6.55-1.77 7.48-.72-.69 1.06-3.54 2.33-4.68 3.03z"/><path fill="#825a4b" d="m872.929 1074.15.173-1.52c.046-.49.009-1.45.451-1.83.881.83 1.376 2.79 1.793 4.01z"/><path fill="#c57b24" d="M1143.55 1028.55c.77.06 1.77-.36 2.2.43-.35.8-1.77.54-2.35.53z"/></svg>