<svg xmlns="http://www.w3.org/2000/svg" width="1024" height="1024" viewBox="0 0 1024 1024"><path fill="#2e5f8a" d="m417.166 155.014 166.766-.015c50.376-.028 86.888 9.484 125.832 45.435 4.692 4.334 8.654 8.878 13.53 13.086 33.422 1.268 62.714-3.962 94.418 12.022 41.332 20.84 65.674 60.084 65.94 106.442l.012 418.704c.014 13.53.24 27.28-.094 40.8-.864 35.114-29.28 67.356-63.296 74.6-10.788 2.296-22.686 1.718-33.72 1.708l-178.93-.024-354.786.006c-34.674.008-61.91 3.63-89.015-23.474-27.986-27.986-23.346-57.236-23.33-93.348l-.166-429.232c-.06-53.41 48.465-99.75 99.945-107.304 9.096-1.334 19.01-.93 28.296-.936l33.658.036c32.406-36.192 66.638-53.982 114.94-58.506"/><path fill="#d6e8f7" d="M415.064 169.418c5.098-.342 14.002-.034 19.384-.029l158.22.019c66.042.175 119.898 36.7 146.342 97.504 8.63 19.848 7.672 40.046 25.122 56.706 21.804 20.818 38.67 19.412 66.082 19.418l39.302-.028v55.118H573.714c2.57-11.28 2.062-22.308 2.066-33.78v-30.384c-.01-19.216 1.78-41.738-4.59-59.778-19.26-45.542-83.128-52.102-111.102-11.378-14.268 20.77-11.178 44.13-11.146 68.01l-.028 33.008c-.01 12.978-.544 21.336 1.902 34.302H155.02v-55.118l42.531.026c23.395.094 37.359 2.052 57.429-13.286 22.594-16.162 22.776-40.94 32.068-64.514 22.418-56.872 69.784-87.602 128.016-95.816"/><path fill="#a8c8e8" d="M243.446 624.876h218.846c.024 16.11-3.84 43.062 7.66 55.1 10.37 10.854 29.046 5.726 42.312 6.89 56.346 4.948 48.95-19.664 48.82-61.99h220.888v103.356c-25.766 7.12-34.5 18.83-43.39 42.83H285.55c-9.328-23.106-18.468-32.158-42.104-40.94z"/><path fill="#a8c8e8" d="M770.868 412.588c3.894-.382 7.194-.16 11.104 0-.49 10.208-.016 24.252-.012 34.852l.012 70.486H561.084c1.064-32.608-47.674-23.88-70.082-23.898-16.894-.012-27.732 5.856-28.71 23.898H246.376c-.872-.022-1.538-.102-2.402-.19-1.326-1.75-.532-94.344-.528-105.148h213.526c25.034 44.664 84.136 42.994 110.886 0z"/><path fill="#d6e8f7" d="M285.55 785.406c16.324-.326 33.652-.006 50.058-.004l402.974.004-.034 28.836c-.006 3.32-.248 11.006.034 13.916.158 8.406.036 17.006 0 25.428H284.408v-29.442c1.876-5.756 1.13-31.196 1.142-38.738"/><path fill="#d6e8f7" d="M645.768 532.086h223.748v78.612H561.084v-78.612z"/><path fill="#d6e8f7" d="M155.02 532.086c10.508-.408 23.864-.022 34.593-.014l272.679.014c-.022 25.34-.672 52.948.626 77.996l-.626.616H155.02z"/><path fill="#d6e8f7" d="M507.32 250.19c26.492-1.864 51.362 16.354 53.816 43.67.41 4.562.078 9.748.028 14.404l-.046 58.486c.21 29.222-5.98 60.34-42.496 63.716-13.242 1.502-25.662-1.73-36.258-9.808-23.97-18.272-19.386-46.92-19.404-73.268l-.034-31.192c-.01-31.526 4.99-61.684 44.394-66.008"/><path fill="#2e5f8a" d="M509.584 369.78c6.322-1.48 12.658 2.406 14.204 8.714 1.546 6.306-2.276 12.68-8.566 14.29a11.842 11.842 0 0 1-14.296-14.822 11.85 11.85 0 0 1 8.658-8.182"/><path fill="#2e5f8a" d="M509.544 290.454c6.216-1.608 12.558 2.132 14.158 8.35s-2.148 12.556-8.368 14.148c-6.208 1.592-12.534-2.148-14.13-8.356-1.598-6.208 2.134-12.536 8.34-14.142"/><path fill="#a8c8e8" d="M738.582 828.158c34.912 13.186-10.162-59.134 37.432-82.836 12.352-6.21 26.748-4.346 40.356-4.346l53.146.026.024 31.662c-.006 53.556-21.46 80.908-76.77 80.95l-54.188-.028c.036-8.422.158-17.022 0-25.428"/><path fill="#a8c8e8" d="m155.02 744.158 45.642.014c20.736 0 42.474-4.098 58.432 10.918 24.71 23.254.046 83.33 25.314 69.054v29.442l-42.984.032c-59.309.022-86.489-15.888-86.443-78.842z"/><path fill="#5b8fc9" d="m483.648 508.49 35.37-.052c36.708.012 27.902 3.032 27.92 42.264l-.016 92.764c-.01 10.646 2.602 21.798-6.726 29.068-9.782 1.558-45.822.338-56.548 0-6.032-4.046-7.038-6.914-7.054-13.922-.104-46.676-.318-93.38.092-140.054.054-6.262.994-8.178 6.962-10.068"/><path fill="#a8c8e8" d="M257.776 228.538h33.142c-21.152 27.528-23.848 69.276-40.066 85.49-18.38 18.372-39.536 14.742-63.477 14.682-10.122-.038-22.529.502-32.355 0l-.006-.78c-.169-57 46.578-99.846 102.762-99.392"/><path fill="#a8c8e8" d="M734.178 228.538c37.544-.074 65.228-3.012 96.766 22.584 26.39 21.418 34.984 45.008 38.572 77.588l-41.286.026c-61.518-.006-55.932-15.03-75.122-64.978-5.11-13.302-11.146-23.51-18.93-35.22"/><path fill="#d6e8f7" d="M795.984 411.394h73.532v106.532h-73.532z"/><path fill="#d6e8f7" d="M155.02 412.588h74.006v105.338H155.02z"/><path fill="#d6e8f7" d="M155.02 624.876c4.919-.436 18.124-.036 23.479-.032l50.527.032c-.002 10.516.59 103.96 0 105.246H155.02z"/><path fill="#d6e8f7" d="M857.758 624.876c3.99-.172 7.776-.078 11.758 0v101.738h-73.532V624.876z"/></svg>