<svg xmlns="http://www.w3.org/2000/svg" width="1024" height="1024" viewBox="0 0 1024 1024"><path fill="#2e5f8a" d="m477.836 118.499 45.938-.044c26.692-.016 34.024-5.203 38.298 24.802 3.766 26.446 8.746 52.567 11.968 79.089 30.47 3.23 69.618 25.022 96.528 38.248 4.802-2.128 13.924-7.944 18.828-10.932l38.354-23.754c27.634-16.98 30.072-20.962 53.648 3.336 32.682 33.68 41.438 29.154 14.496 71.58l-20.232 31.312c-4.532 6.964-9.722 15.464-15.012 21.686 3.886 8.27 10.812 17.808 15.304 26.83 11.186 22.47 18.266 42.82 24.68 66.87 28.15 4.066 56.372 10.056 84.444 14.744 11.124 1.856 20.186 8.234 20.134 20.542-.066 14.922 6.346 71.208-11.308 76.01-29.28 7.962-64.96 9.566-93.27 18.04-2.64 5.118-6.47 22.034-9.064 29.408-7.78 22.122-18.132 44.394-30.92 64.034 4.108 7.548 9.746 15.704 14.572 22.886l21.024 30.854c8.434 12.184 24.004 26.976 11.8 40.456-8.954 9.71-17.904 19.232-27.324 28.54-25.2 24.902-22.5 23.048-51.608 4.696l-33.492-20.826c-6.984-4.35-17.098-11.002-24.278-14.264l-.776-.35c-9.248 2.894-18.356 9.878-27.4 14.306-22.112 10.83-42.386 17.054-65.986 23.242-5.248 22.788-8.94 47.206-14.028 70.148-2.548 11.494-2.364 30.428-15.338 35.246-12.11 2.186-52.572.304-66.126-.078-13.264-.952-15.306-9.174-17.424-19.918-5.026-25.494-10.874-60.032-17.854-84.762l-.186-.636c-9.81-4.19-25.932-6.716-36.646-11.138-21.828-9.012-35.686-16.016-56.35-26.41-8.94 4.274-18.346 11.016-26.62 16.57l-29.426 19.504c-9.302 6.186-24.318 18.794-35.82 11.358-8.926-5.77-44.004-40.456-47.206-51.094-4.266-15.866 15.396-35.246 22.96-49.338 7.788-14.018 17.786-27.514 25.68-41.39-18.196-26.998-29.97-59.644-37.694-91.044-29.956-7.644-61.279-9.642-91.345-16.75-24.258-4.042-15.222-54.97-15.749-74.778-.319-11.98 5.212-18.71 16.705-21.626 14.593-3.702 78.757-17.128 90.389-16.182 3.508-24.412 22.462-74.464 37.694-93.7-15.464-22.524-28.658-46.924-43.468-69.932-6.542-10.164-9.61-20.036.084-30.058 10.52-10.77 21.354-21.122 31.456-32.304 17.282-19.13 27.184-7.686 45.08 2.532 20.092 12.02 39.226 27.006 59.832 38.036 2.268-1.068 4.73-2.744 6.904-4.066 18.194-11.06 65.856-33.808 87.712-35.684 4.882-26.654 8.304-53.985 13.152-80.674 1.876-10.337 2.422-19.838 14.286-23.173m15.722 180.837c-61.826 8.986-111.544 33.9-149.468 84.752-21.476 28.798-41.854 75.062-42.666 111.35-8.226 1.76-41.292 14.3-21.122 25.31 5.058 2.76 14.042 5.778 19.634 7.968 12.924 92.906 72.26 166.722 166.71 187.988 9.014 2.03 17.886 3.08 26.912 4.76 3.396 8.234 7.384 24.484 16.776 26.528 13.79-.018 15.114-16.718 20.538-26.528 8.262-2.038 16.614-2.91 24.844-4.798 87.586-20.108 162.888-96.594 168.908-187.95 25.16-10.688 31.896-22.156 0-33.278-4.108-101.028-95.938-183.73-193.752-196.102-5.996-8.84-10.208-27.394-20.538-26.808-9.472 3.97-12.956 18.026-16.776 26.808"/><path fill="#a8c8e8" d="M480.21 133.877h65.684c3.376 31.31 9.226 64.026 14.108 95.237 1.322 8.46 33.438 13.462 42.774 16.638 16.876 5.742 32.718 13.832 48.478 22.07 6.222 3.214 12.914 8.446 19.314 10.822 19.446-8.526 45.232-27.426 64.018-38.982 7.194-4.426 14.76-9.676 22.608-12.772 6.484 3.874 38.872 38.604 41.126 43.276-12.418 16.016-42.57 60.608-52.058 79.84-5.072 10.28 9.584 26.004 14.332 34.52 8.536 15.31 14.514 32.238 20.022 48.83 1.744 5.252 5.072 22.922 8.744 26.036 10.436 8.85 97.724 12.684 100.004 23.404 1.568 7.376.338 27.422.372 36.222v26.122c-28.868 6.72-60.17 9.296-89.152 16.514-13.982 3.482-13.784 2.672-17.01 16.706-5.874 25.564-15.872 50.398-28.85 73.206-10.152 17.846-15.846 15.942-2.196 34.436 15.848 21.474 29.936 45.724 45.792 67.414l-8.696 8.876c-10.674 11.552-21.23 23.682-32.43 34.71-7.718-3.664-17.654-10.324-25.108-15.008l-34.794-21.776c-6.892-4.382-19.768-13.74-26.724-15.324-5.83 1.504-8.892 3.594-13.986 6.71-21.724 13.296-44.832 23.798-69.596 29.958-7.42 1.844-17.574 3.422-23.018 8.824-7.202 20.818-17.158 78.42-19.89 99.734H480.21c-.3-7.09-2.456-15.414-4.002-22.478l-12.5-57.094c-6.956-32.618-6.256-23.04-37.938-32.538-17.822-5.344-34.57-12.202-50.872-21.2-23.772-13.12-18.98-15.762-41.19-.844-9.654 6.484-59.846 43.616-66.094 40.028-5.124-2.944-28.036-27.622-32.736-33.702-7.652-6.37-7.36-10.056-2.138-18.172 8.124-12.626 42.336-63.7 46.544-76.218-5.534-18.4-24.078-43.64-32.194-67.032-2.394-6.896-8.128-32.978-11.438-36.23-8.504-8.356-90.433-11.694-101.184-21.768-3.451-3.232-1.998-21.858-1.956-27.11-.025-5.644-1.525-31.718 1.818-35.062 6.15-6.152 95.912-16.8 102.07-22.84 4.054-3.978 7.01-23.568 9.022-30.07 5.226-16.89 12.07-33.47 19.834-49.344 3.94-8.054 10.254-15.974 12.524-24.624-2.106-7.238-7.91-16.03-11.922-22.666l-23.396-38.544c-4.616-7.604-11.764-18.444-14.678-26.432 12.12-12.226 28.1-30.104 40.908-40.9 26.302 11.436 62.744 46.574 87.09 53.364 6.958-2.166 17.322-9.748 24.51-13.5 19.426-10.14 38.992-19.14 60.252-24.81 3.796-1.014 22.358-4.804 23.384-8.238 5.786-19.346 14.314-77.524 16.282-98.22m13.348 165.459c-61.826 8.986-111.544 33.9-149.468 84.752-21.476 28.798-41.854 75.062-42.666 111.35-8.226 1.76-41.292 14.3-21.122 25.31 5.058 2.76 14.042 5.778 19.634 7.968 12.924 92.906 72.26 166.722 166.71 187.988 9.014 2.03 17.886 3.08 26.912 4.76 3.396 8.234 7.384 24.484 16.776 26.528 13.79-.018 15.114-16.718 20.538-26.528 8.262-2.038 16.614-2.91 24.844-4.798 87.586-20.108 162.888-96.594 168.908-187.95 25.16-10.688 31.896-22.156 0-33.278-4.108-101.028-95.938-183.73-193.752-196.102-5.996-8.84-10.208-27.394-20.538-26.808-9.472 3.97-12.956 18.026-16.776 26.808"/><path fill="#5b8fc9" d="M676.67 681.72c2.268 2.394 8.166 5.742 11.198 7.874l79.38 56.582c4.22 3.012 18.832 14.192 22.376 16.116-10.674 11.552-21.23 23.682-32.43 34.71-7.718-3.664-17.654-10.324-25.108-15.008l-34.794-21.776c-6.892-4.382-19.768-13.74-26.724-15.324-5.83 1.504-8.892 3.594-13.986 6.71-21.724 13.296-44.832 23.798-69.596 29.958-7.42 1.844-17.574 3.422-23.018 8.824-7.202 20.818-17.158 78.42-19.89 99.734H480.21c-.3-7.09-2.456-15.414-4.002-22.478l-12.5-57.094c-6.956-32.618-6.256-23.04-37.938-32.538-17.822-5.344-34.57-12.202-50.872-21.2-23.772-13.12-18.98-15.762-41.19-.844-9.654 6.484-59.846 43.616-66.094 40.028-5.124-2.944-28.036-27.622-32.736-33.702 5.622-2.322 14.668-9.7 20.368-13.254 29.752-19.018 69.01-51.152 102.918-55.77 40.486 26.044 65.572 43.314 116.89 50.78 9.706 1.412 18.434 1.006 27.98 3.944l-.018 65.986c0 11.666-.338 23.954.638 35.482.848 10.006 18.006 12.298 18.94-.23.846-11.372.354-22.936.346-34.282l.022-70.054.884.072c53.6 4.194 113.986-29.792 152.824-63.246"/><path fill="#79b6e0" d="M132.512 515.762c.318 1.914.098 2.744 1.178 3.936 43.25 4.532 88.684 11.798 131.812 17.958 18.724 75.406 38.708 104.914 92.662 155.612-33.908 4.618-73.166 36.752-102.918 55.77-5.7 3.554-14.746 10.932-20.368 13.254-7.652-6.37-7.36-10.056-2.138-18.172 8.124-12.626 42.336-63.7 46.544-76.218-5.534-18.4-24.078-43.64-32.194-67.032-2.394-6.896-8.128-32.978-11.438-36.23-8.504-8.356-90.433-11.694-101.184-21.768-3.451-3.232-1.998-21.858-1.956-27.11"/><path fill="#79b6e0" d="M889.736 519.018v26.122c-28.868 6.72-60.17 9.296-89.152 16.514-13.982 3.482-13.784 2.672-17.01 16.706-5.874 25.564-15.872 50.398-28.85 73.206-10.152 17.846-15.846 15.942-2.196 34.436 15.848 21.474 29.936 45.724 45.792 67.414l-8.696 8.876c-3.544-1.924-18.156-13.104-22.376-16.116l-79.38-56.582c-3.032-2.132-8.93-5.48-11.198-7.874 31.85-25.154 60.94-79.262 71.82-117.722 2.128-7.526 4.182-17.652 7.844-24.158 3.478-2.152 119.718-18.85 133.402-20.822"/><path fill="#2e5f8a" d="M510.334 272.528c10.33-.586 14.542 17.968 20.538 26.808 97.814 12.372 189.644 95.074 193.752 196.102 31.896 11.122 25.16 22.59 0 33.278-6.02 91.356-81.322 167.842-168.908 187.95-8.23 1.888-16.582 2.76-24.844 4.798-5.424 9.81-6.748 26.51-20.538 26.528-9.392-2.044-13.38-18.294-16.776-26.528-9.026-1.68-17.898-2.73-26.912-4.76-94.45-21.266-153.786-95.082-166.71-187.988-5.592-2.19-14.576-5.208-19.634-7.968-20.17-11.01 12.896-23.55 21.122-25.31.812-36.288 21.19-82.552 42.666-111.35 37.924-50.852 87.642-75.766 149.468-84.752 3.82-8.782 7.304-22.838 16.776-26.808m9.418 364.438c69.692-4.49 122.526-64.666 117.962-134.354-4.562-69.688-64.792-122.458-134.476-117.822-69.58 4.628-122.256 64.75-117.7 134.336s64.624 122.324 134.214 117.84m39.688-260.078c30.32 14.152 50.992 27.454 70.324 56.64 5.536 8.356 9.378 18.52 14.97 26.682 11.738 7.28 48.44 21.224 63.842 26.954-14.802-84.666-75.166-153.95-161.954-169.724-3.116-.566-6.654-1.088-9.832-1.16 9.06 18.838 15.964 40.706 22.65 60.608M377.856 559.114l-38.534-14.89c-6.848-2.626-16.194-6.582-23.014-8.372 6.454 76.72 76.668 149.33 150.834 165.4 5.348 1.158 13.356 2.858 18.668 2.922-6.752-18.552-15.788-41.796-23.548-60.058l-.456-.28c-45.424-27.286-58.594-28.984-83.95-84.722M485.81 316.28c-79.356 5.974-148.574 78.524-165.162 154.172-.606 2.756-3.698 14.798-2.482 16.712 13.256-7.274 47.78-22.88 62.378-26.954 22.178-59.418 82.712-77.352 85.818-88.408 1.436-6.214 20.13-53.47 19.448-55.522m222.766 219.572c-19.024 5.688-46.194 17.144-63.842 25.372l-.246.416c-23.114 39.456-35.252 62.248-82.228 80.714-5.618 17.02-20.734 46.292-24.024 61.256l.378.564c41.718-2.732 93.858-33.432 121.1-64.63 27.878-31.93 41.954-61.196 49.254-102.886z"/><path fill="#79b6e0" d="M480.21 648.94c22.522 5.192 41.576 4.474 63.868 0-7.432 17.442-15.322 35.596-21.116 53.648-3.46 6.392-7.808 17.382-10.772 24.264-12.382-25.762-21.198-51.636-31.98-77.912"/><path fill="#79b6e0" d="M649.476 479.394c7.986 1.624 69.708 28.08 76.872 32.996-8.39 2.986-16.476 6.096-24.718 9.602-15.58 6.532-36.326 15.414-52.154 20.614 5.378-24.236 4.206-39.276 0-63.212"/><path fill="#79b6e0" d="M512.19 296.8c9.504 23.014 23.002 50.624 28.802 74.788-9.716-2.9-18.714-3.406-28.802-3.278-11.686.216-18.798 1.354-30.17 3.278 10.236-24.572 16.674-51.144 30.17-74.788"/><path fill="#79b6e0" d="m372.216 479.394.632.128c.15.91.226.712.05 1.434-5.034 20.574-2.99 39.132-.682 59.78-15.444-5.34-35.068-14.984-50.098-18.744-5.46-3.532-15.438-5.774-22.182-9.602 11.522-8.638 54.536-25.468 72.28-32.996"/></svg>