<svg xmlns="http://www.w3.org/2000/svg" width="1024" height="1024" viewBox="0 0 1024 1024"><path fill="#2e5f8a" d="M599.332 148.418c11.582-1.42 35.454-7.885 47.936-10.683l113.852-26.007c8.114-1.836 34.87-8.8 41.548-8.514 5.232 2.645 48.158 38.144 50.134 41.736 2.836 5.15-9.416 60.664-11.052 69.452l-8.276 46.692c-5.132 27.714-10.75 56.588-14.978 84.4 11.192 13.886 52.702 38.846 54.244 52.69 2.224 19.958-12.476 28.564-25.412 43.17l-27.856 31.052c-9.716 10.928-18.232 22.952-30.5 30.98-37.766 24.714-100.748 24.424-133.976-7.28-10.07-9.608-13.308-16.942-25.83-26.584-6.966 16.312-18.276 26.972-36.674 26.992-7.144 26.52-24.726 50.27-55.682 36.1-8.64 7.802-20.4 23.004-28.24 32.298L403.86 688.02c-7.63 9.016-21.344 24.024-27.362 33.202 10.504 8.43 20.168 18.226 30.468 26.982l34.262 29.5c8.6 7.504 24.012 19.224 27.164 29.924 5.962 20.236-4.654 39.398-24.088 45.818-23.698 5.868-34.696-8.438-50.072-23.816-9.862-9.864-17.578-1.556-13.438 5.246 5.348 8.788 18.766 17.578 25.222 26.712 22.036 31.17-14.582 79.772-60.546 40.328-22.98-19.722-45.282-40.202-68.268-59.93-8.162 11.402-35.27 44.602-44.472 52.484-42.052 36.02-101.057-18.508-70.899-60.282 7.016-9.304 14.936-18.508 22.378-27.5L451.7 487.316c3.748-4.552 11.17-14.14 15.318-17.794-19.324-25.642-3.402-55.952 23.542-59.75-5.886-22.06 6.084-35.006 24.894-42.594-18.142-15.196-38.884-31.92-54.188-50.066-28.252-33.494-31.838-89.744-7.056-126.134 8.87-13.025 21.704-27.12 31.658-39.582l20.81-25.734c8.46-10.538 13.84-20.074 28.214-22.448 22.954-2.28 46.006 31.813 64.44 45.204M718.756 308.14c34.048-3.646 58.646-34.276 54.858-68.308-3.788-34.034-34.518-58.505-68.536-54.576-33.818 3.906-58.116 34.418-54.35 68.252 3.766 33.836 34.178 58.258 68.028 54.632"/><path fill="#a8c8e8" d="M797.35 118.583c4.418-.73 34.678 27.994 40.822 32.595-4.282 17.56-7.568 41.295-10.726 59.192l-16.68 90.234c-5.904 32.418-.332 35.856-22.478 61.204l-22.606 25.74c-4.932 5.576-29.712 36.97-35.688 37.256-3.206.152-72.53-62.298-79.6-68.728-7.638-7.19-17.116-14.948-25.178-22.014l-45.122-39.518c-11.274-9.706-23.538-20.102-34.15-30.578-14.974-14.926 4.708-33.57 13.85-45.17 13.934-17.682 29.272-38.273 44.566-54.489 1.704-1.806 41.504-10.475 47.746-11.947zM718.756 308.14c34.048-3.646 58.646-34.276 54.858-68.308-3.788-34.034-34.518-58.505-68.536-54.576-33.818 3.906-58.116 34.418-54.35 68.252 3.766 33.836 34.178 58.258 68.028 54.632"/><path fill="#2e5f8a" d="M703.822 170.537c42.11-4.632 79.98 25.8 84.524 67.917s-25.966 79.926-68.094 84.382c-42.004 4.442-79.674-25.958-84.204-67.952s25.79-79.729 67.774-84.347m14.934 137.603c34.048-3.646 58.646-34.276 54.858-68.308-3.788-34.034-34.518-58.505-68.536-54.576-33.818 3.906-58.116 34.418-54.35 68.252 3.766 33.836 34.178 58.258 68.028 54.632"/><path fill="#d6e8f7" d="M818.496 367.178c11.102 6.862 24.224 20.188 34.904 28.322 13.074 9.962-9.032 25.93-16.37 34.684-14.226 16.302-28.526 32.534-42.784 48.806-28.076 31.964-84.968 34.12-119.776 13.538-13.12-7.756-18.818-19.746-29.568-29.34L505.626 339.64c-22.57-19.676-44.066-36.426-50.712-67.724-12.136-57.15 18.558-80.654 50.124-120.6 8.054-9.46 14.896-20.264 23.604-29.135 11.512-11.729 19.41.86 27.598 7.611 10.674 8.8 21.198 20.8 32.224 28.522l.842.582c-14.914 15.914-48.33 56.002-59.124 74.056-17.162 28.7 14.196 49.738 31.97 65.296l123.64 108.684c10.4 9.22 20.338 18.974 31.184 27.676 17.872 14.338 29.174-3.442 39.822-14.996 15.47-16.792 32.424-39.176 48.318-54.28l.588-.548c1.508-2.05 2.356-3.208 4.132-5.068 3.674 2.612 5.422 4.246 8.66 7.462"/><path fill="#a8c8e8" d="M477.894 479.268c6.028 3.09 40.904 36.634 47.842 43.216-7.238 7.948-13.69 15.93-20.668 24.046L226.942 879.292c-3.294 3.934-7.578 6.574-12.134 8.784-21.416 8.97-43.158-2.904-46.18-25.786-1.92-14.53 9.04-24.336 17.314-34.444z"/><path fill="#a8c8e8" d="M365.964 733.746c3.874 1.758 18.692 14.928 22.788 18.45l31.952 27.468c9.436 8.154 18.938 15.92 28.114 24.434 12.482 11.09 6.788 31.792-9.124 35.58-22.01 5.114-31.726-28.344-52.3-29.604-12.102-.742-22.834 10.034-22.852 21.998-.022 15.258 16.554 24.482 26.278 34.552l.676.708c12.786 15.72 4.452 35.398-15.824 35.432-10.786.018-19.738-11.004-27.526-17.906L316.81 857.06c-8.672-7.82-23.262-19.534-30.818-27.408 27.046-30.748 54.344-63.776 79.972-95.906"/><path fill="#5b8fc9" d="M490.56 423.588c15.15-1.156 24.448 13.09 35.862 23.184l37.656 33.486c4.868 4.328 10.278 8.578 14.932 12.964-2.33 10.752-8.922 22.646-19.334 27.284-14.226 6.122-24.642-8.838-34.206-18.032-17.32-16.646-37.552-31.938-52.89-50.394-6.032-7.258 9.982-25.072 17.98-28.492"/><path fill="#a8c8e8" d="M521.886 380.65c1.704-.164 4.232-.032 6.014 0 14.144 7.758 42.908 37.17 55.666 48.672 11.126 10.028 22.726 19.464 33.956 29.394-4.35 11.91-6.274 17.7-18.19 23.56-2.614.258-7.26.05-10.026 0l-.144-.08c-12.942-7.24-84.792-75.09-85.626-79.036-2.496-11.814 7.31-20.496 18.35-22.51"/><path fill="#2e5f8a" d="M300.054 228.502c18.364-.632 3.7 34.628 43.434 47.57-2.364-31.396 12.548-44.864 15.694-11.206 4.966 53.116 40.312 77.792 89.1 81.968 8.176.698 9.708 9.596 3.726 12.836-1.846 1-12.888 2.118-15.582 2.552-39.726 6.402-66.644 35.762-73.962 75.158-.838 6.132.29 23.002-8.632 22.596-8.994-.412-7.932-12.936-8.728-19.44-5.376-43.898-40.618-76.096-84.038-80.758-9.696-1.042-19.526-6.164-8.382-14.284 20.39.186 24.246-.612 42.972-7.426-23.914-49.01-38.958-35.398-47.774-46.752-3.496-4.502 1.826-11.262 6.882-11.76 39.394-9.3 33.102-43.964 45.29-51.054m15.062 98.034c4.086-3.142 18.328-18.924 18.788-23.756l-.316-.3c-3.66 2.626-22.316 20.016-18.472 24.056"/><path fill="#a8c8e8" d="m353.992 299.894.62 2.106c6.334 22.024 36.02 47.118 57.412 52.516-28.034 10.442-46.9 32.59-58.032 59.64l-.124.088c-.746-.308-19.056-46.572-58.212-59.728 41.474-19.162 34.418-27.528 57.764-53.986z"/><path fill="#a8c8e8" d="M302.51 258.916c6.13 13.948 14.73 20.184 27.088 28.836-11.676 5.59-21.166 16.724-27.088 28.02-1.166-.206-4.278-5.5-5.192-6.89-6.064-9.232-13.284-15.148-22.416-21.13 12.908-7.994 20.278-15.204 27.608-28.836"/></svg>