<svg xmlns="http://www.w3.org/2000/svg" width="1024" height="1024" viewBox="0 0 1024 1024"><path fill="#2e5f8a" d="M494.958 122.016c27.512-.666 114.892.457 131.692 28.67 6.272 10.533-17.368 56.698-21.422 69.334l-.188.606 2.1-.04c70.202-1.16 70.52 93.31-.358 92.762.348 60.936 3.284 49.272 51.388 72.98 77.432 38.164 135.808 109.52 136.426 199.25.038 78.982-44.298 161.48-87.23 225.912-20.428 30.656-42.3 64.746-75.878 81.416-22.866 11.35-38.676 10.634-63.172 10.636l-39.066-.022-84.444.014c-30.314-.104-56.58-6.976-77.946-29.356-66.124-70.028-136.18-198.218-137.36-292.6-1.062-84.91 57.908-152.556 128.89-190.954 32.204-20.346 59.73-9.33 59.204-59.082l-.078-18.194c-4.324-.116-9.142-.046-13.4-.642-52.668-7.386-59.146-92.986 15.43-92.08-6.594-20.248-19.024-45.55-23.244-65.591 7.87-26.897 74.712-31.221 98.656-33.02"/><path fill="#d6e8f7" d="M468.826 313.348h121.082l-.104 24.81c.246 47.18 35.19 50.676 68.034 67.172 69.082 34.696 119.424 101.99 119.75 180.964-.266 81.492-59.426 189.544-112.026 254.002-35.884 45.514-53.522 46.28-109.766 46.176l-114.844.034c-26.842-.118-49.974-9.98-67.51-30.394-56.934-66.278-128.102-182.954-126.874-274.87 1.998-83.59 62.954-154.61 138.822-184.09 48.878-20.106 49.88-30.138 49.752-83.804z"/><path fill="#2e5f8a" d="M668.594 516.456c16.59-.906 69.324 1.944 77.082 17.212 9.01 17.73 8.84 56.55 6.08 75.196-8.882 60.004-36.124 114.958-67.214 166.178-12.98 21.384-39.77 60.166-57.65 74.39-20.036 15.938-42.458 13.798-66.246 13.776l-99.988-.008c-49.752.212-57.946-3.298-89.616-46.568-45.238-65.898-93.124-131.412-100.646-214.614-3.656-34.756 5.416-40.418 36.546-53.384 64.072-26.692 132.974-6.096 193.784 20.24 58.084-18.864 105.242-45.656 167.868-52.418"/><path fill="#a8c8e8" d="M359.888 552.964c74.282-1.822 114.724 26.392 177.824 50.974 77.102 30.036 122.526 32.656 197.294 4.842-10.61 65.364-53.23 145.228-92.9 197.786-30.704 39.576-35.458 39.832-81.972 39.742l-99.542.036c-51.15.044-54.232-9.096-82.668-49.066-40.108-56.376-79.492-120.11-89.81-189.644-.928-6.51-2.944-26.2 1.628-30.212 14.894-13.07 51.75-22.55 70.146-24.458"/><path fill="#2e5f8a" d="M377.062 602.858c12.716-2.652 25.156 5.57 27.698 18.308s-5.788 25.106-18.548 27.538c-12.604 2.404-24.79-5.804-27.302-18.388-2.51-12.582 5.59-24.838 18.152-27.458"/><path fill="#2e5f8a" d="M417.182 697.622c9.856-.464 18.25 7.092 18.82 16.944s-6.898 18.324-16.744 18.998a18.002 18.002 0 1 1-2.076-35.942"/><path fill="#2e5f8a" d="M589 673.26c9.66-1.154 18.458 5.658 19.76 15.3 1.3 9.642-5.38 18.544-15.002 19.99a17.81 17.81 0 0 1-19.084-24.456A17.8 17.8 0 0 1 589 673.26"/><path fill="#2e5f8a" d="M529.088 739.998c9.506-1.988 18.82 4.13 20.772 13.644 1.952 9.516-4.202 18.804-13.724 20.72-9.47 1.904-18.698-4.208-20.64-13.67-1.942-9.464 4.136-18.716 13.592-20.694"/><path fill="#a8c8e8" d="M676.326 533.34c20.758-1.204 36.196 1.658 55.042 9.828 3.686 12.212 5.17 33.604 4.978 46.508-9.616 3.094-19.322 8.112-29.524 11.43-40.138 13.056-75.16 12.616-115.606 2.458-16.66-3.586-52.446-15.722-67.492-24.05 44.75-19.024 106.052-44.998 152.602-46.174"/><path fill="#fff" d="M369.484 441.648c47.06-3.376 2.242 68.476-36.716 74.808-4.394 1.018-8.358 1.382-12.27-1.24-28.35-19.01 21.47-68.784 48.986-73.568"/><path fill="#fff" d="M414.752 425.53c18.704-.89 13.654 18.768 0 24.256-18.978.398-16.946-17.674 0-24.256"/><path fill="#fff" d="m405.528 237.532 182.018-.006c11.122.004 31.992-1.364 41.152 4.586 23.528 15.278 15.428 47.776-11.264 54.294l-183.166.014c-20.994.002-44.888 3.6-51.952-22.212-4.602-16.814 6.876-32.984 23.212-36.676"/><path fill="#a8a7a8" d="M422.386 179.81c8.074.99 18.584 4.835 28.826 6.161 47.314 6.129 105.644 8.069 151.428-6.161-2.668 7.588-6.028 13.739-8.588 21.906-2.952 6.126-5.318 12.566-7.78 18.91H436.994c-3.524-12.016-10.13-28.753-14.608-40.816"/><path fill="#dcc4ba" d="M602.64 161.893c-20.892 14.769-120.45 11.075-145.866 7.728-12.592-1.658-65.28-10.215-26.194-20.311 38.216-9.871 135.43-16.334 172.06 3.522 3.096 1.34 5.362 2.93 8.182 4.765-3.214 2.08-4.65 2.742-8.182 4.296"/><path fill="#f5ceb4" d="M602.64 152.832c3.096 1.34 5.362 2.93 8.182 4.765-3.214 2.08-4.65 2.742-8.182 4.296-.426-.378-.362-6.843 0-9.06"/></svg>