<svg xmlns="http://www.w3.org/2000/svg" width="1024" height="1024" viewBox="0 0 1024 1024"><path fill="#2e5f8a" d="M608.284 130.503c47.618-4.055 82.62 54.779 54.142 87.597-21.01 24.216-22.748 19.752-33.288 55.452 45.682-32.896 100.68-85.804 160.286-41.304 53.64 40.048 52.49 125.348-19.978 135.712 2.024 26.772 28.63 54.392 52.82 63.858 22.718 21.6-55.288 8.516-65.436-65.17-43.634-12.894-57.824-42.974-107.626-42.158-1.802 10.9-4.708 14.53-12.528 21.484 7.408 13.628 17.47 27.546 26.352 40.258 29.57 42.316 70.804 91.5 94.508 136.46 50.51 104.528 21.432 249.204-73.792 318.644-103.278 72.22-321.948 67.088-412.25-22.876-80.87-79.898-100.542-219.47-37.05-315.614 30.846-46.708 65.32-92.2 95.71-139.416 4.376-6.802 11.256-16.378 16.724-22.066-10.038-19.04-4.93-36.138 16.682-43.864-5.96-21.58-5.918-50.314-24.276-67.84-11.14-10.636-22.018-19.674-22.148-36.367-1.72-44.242 51.052-83.347 95.694-49.378 10.476 7.989 19.18 17.108 30.578 23.968 37.166 22.37 80.616 18.366 114.258-8.694 16.596-13.348 27.738-27.992 50.618-28.686M644.806 297.5c31.562-.198 56.192 4.642 82.64 23.802 14.456 9.436 27.64 22.034 46.304 17.742 55.674-12.804 11.732-104.798-36.448-94.848-31.17 3.266-71.082 29.6-92.496 53.304m-278.704 58.704-10.158-7.766-75.762 111c-11.264 16.488-23.762 31.652-34.418 48.544-33.146 52.546-43.582 112.464-31.6 173.414 13.482 68.588 56.762 140.48 124.304 166.934.204-1.302.102-1.39 0-2.746-14.15-5.772-32.336-22.348-42.72-33.224-76.636-80.268-93.66-206.446-33.488-301.332 16.374-25.82 34.856-50.538 51.53-76.166 10.68-16.416 39.498-66.772 52.312-78.658m25.242-44.828c.696-1.834-1.038-12.422-1.352-15.14-2.698-25.85-6.04-50.47-19.298-73.342-8.976-15.482-29.984-21.876-20.374-41.153 7.974-18.483 29.992-35.57 30.994-37.904l-.806-.866c-14.028-.296-20.616.714-31.778 11.049-14.13 14.175-29.262 41.322-10.004 57.854 28.01 24.046 33.032 54.478 35.088 89.828 6.092 2.928 11.844 6.932 17.53 9.674"/><path fill="#a8c8e8" d="M612.122 360.724c4.654-2.11 9.826-4.61 14.7-5.974 35.526 55.856 84.954 112.426 116.494 168.432 54.142 96.146 20.168 255.906-74.864 313.03-76.924 46.238-187.474 49.2-273.394 30.76-7.12-1.598-33.514-8.58-39.114-11.67-3.842-1.252-8.356-2.586-11.842-4.522-2.044-.784-3.648-1.52-5.634-2.45.204-1.302.102-1.39 0-2.746-14.15-5.772-32.336-22.348-42.72-33.224-76.636-80.268-93.66-206.446-33.488-301.332 16.374-25.82 34.856-50.538 51.53-76.166 10.68-16.416 39.498-66.772 52.312-78.658 6.986 3.954 12.762 7.15 20.14 10.444-3.952 5.638-27.202 31.308-7.54 29.624 3.154-.27 16.746-21.452 19.938-25.248 7.652 1.264 14.62 3.562 22.166 5.104 36.534 7.46 61.794 5.664 97.22 7.246-36.956 47.79-73.034 105.662-68.586 168.628-10.076 2.736-16.164 9.008-17.974 19.222-2.948 16.644-4.632 49.758 17.95 53.464 13.502 2.216 38.916 3.558 46.218-11.288 3.968-8.07 3.82-37.43.632-46.182-3.11-8.536-8.916-13.018-17.316-15.216 4.794-69.262 33.724-127.432 85.674-174.692 5.348-4.864 13.532-6.246 20.528-6.286l.528.566c4.9 5.326 24.254 38.974 28.178 18.672.532-2.744-12.964-18.938-15.374-23.614 4.71-2.328 8.788-3.976 13.638-5.924"/><path fill="#8db3d4" d="M612.122 360.724c4.654-2.11 9.826-4.61 14.7-5.974 35.526 55.856 84.954 112.426 116.494 168.432 54.142 96.146 20.168 255.906-74.864 313.03-76.924 46.238-187.474 49.2-273.394 30.76-7.12-1.598-33.514-8.58-39.114-11.67l.712-.482-2.852-1.31c4.676-.616 26.444 4.164 32.992 5.136 96.1 14.308 247.484-10.162 300.988-99.682.852-1.426.522-1.302.074-2.766 2.598-3.678 6.508-7.918 9.392-11.754l.306-.32c4.688.118 17.104-32.674 19.344-37.78 11.674-2.38 16.538-50.756 14.086-58.634.322-4.392.65-27.806 0-32.61 2.034-16.924-9.764-38.334-11.558-53.068.38-4.026-12.056-21.998-13.516-28.562.718-5.726-4.786-13.294-7.742-18.142l-14.142-22.882c-1.608-2.546-4.598-6.644-5.878-8.902l-.334-.596c-.97-2.806-17.358-27.176-19.436-28.428l-.52 1.086c-1.88-7.858-11.094-18.436-15.554-25.584 2.09-4.774-25.496-56.078-30.184-69.298"/><path fill="#2e5f8a" d="M687.858 756.198c-8.594 9.152-18.028 17.916-28.644 24.678-5.314 3.384-13.188-3.456-9.47-7.906 6.698-8.012 20.816-16.162 29.762-26.466 4.154-4.52 16.08-19.46 17.744-2.06-2.884 3.836-6.794 8.076-9.392 11.754"/><path fill="#2e5f8a" d="M716.9 706.344c-8.744-3.508-6.252-8.142-3.758-15.652 3.696-11.132 5.418-22.54 6.284-34.222.564-7.584 2.31-13.648 11.56-8.76 2.452 7.878-2.412 56.254-14.086 58.634"/><path fill="#2e5f8a" d="M705.912 533.47c-3.668 3.736-7.488 5.014-10.924.038-3.136-4.54-42.084-56.518-17.172-50.56l.334.596c1.28 2.258 4.27 6.356 5.878 8.902l14.142 22.882c2.956 4.848 8.46 12.416 7.742 18.142"/><path fill="#2e5f8a" d="M730.986 615.1c-10.624 5.948-12.808-.154-13.902-9.934-1.464-11.928-18.876-52.568 2.344-43.134 1.794 14.734 13.592 36.144 11.558 53.068"/><path fill="#2e5f8a" d="M657.86 455.606c-5.986 16.984-17.022-5.904-20.446-11.408-4.736-7.614-13.468-15.566-14.848-24.384-.474-3.494 4.926-6.298 7.472-5.33 4.528 1.72 9.31 11.304 12.268 15.538 4.46 7.148 13.674 17.726 15.554 25.584"/><path fill="#fff" d="M338.468 845.584c1.404.868 6.566 3.304 5.634 5.196-2.044-.784-3.648-1.52-5.634-2.45.204-1.302.102-1.39 0-2.746"/><path fill="#2e5f8a" d="M296.18 733.474c3.172.212 5.112 1.096 7.056 3.606 10.552 13.616 22.718 23.7 37.19 32.916 6.268 3.99 11.462 9.86 2.074 14.69-7.292-1.018-67.304-40.532-46.32-51.212"/><path fill="#2e5f8a" d="M266.676 562.032c15.094-1.012 2.91 25.256 1.184 36.512-1.234 8.054.728 24.09-6.562 28.828-20.974 2.076.498-61.7 5.378-65.34"/><path fill="#2e5f8a" d="M378.974 792.464c4.95-.466 30.844 8.902 39.698 10.678 7.558 1.516 26.522 4.198 14.102 15.366-7.582.188-73.572-10.598-53.8-26.044"/><path fill="#2e5f8a" d="M612.122 790.526c6.134-.21 10.18 5.858 7.032 8.68-10.188 9.132-39.368 14.988-51.542 17.29-8.646.438-11.228-9.152-4.252-11.284z"/><path fill="#2e5f8a" d="M259.69 652.984c11.702.852 10.632 26.5 16.796 39.888 2.46 7.412 7.47 12.35-1.868 16.326-12.428-.974-20.464-43.282-19.966-52.88.072-1.382 3.916-2.876 5.038-3.334"/><path fill="#2e5f8a" d="M303.514 486c3.562-.098 10.408 3.246 8.868 6.67-2.882 6.402-20.794 41.776-24.582 45.566-23.506 5.056 11.574-48.95 15.714-52.236"/><path fill="#2e5f8a" d="M518.026 811.524c2.76-.658 6.338-1.706 8.336.684 13.508 16.184-37.618 11.73-44.238 11.724-3.928-.26-18.258-.012-10.92-11.62 1.254-1.984 43.132-.924 46.822-.788"/><path fill="#2e5f8a" d="M351.732 413.984c21.962-4.008-8.072 32.942-10.596 36.686-3.012 4.492-3.854 9.75-8.916 12.666-4.312.274-11.124-2.286-9.138-6.072 4.736-9.024 22.27-37.722 28.65-43.28"/><path fill="#a8c8e8" d="M596.596 145.955c36.12-13.484 74.722 23.622 59.672 58.387-3.168 7.322-10.398 11.896-15.858 17.344-17.176 17.822-20.966 40.896-24.638 64.04-10.272 11.172-29.124 32.612-42.77 35.576-60.694 16.06-123.422 12.514-181.658-9.926.696-1.834-1.038-12.422-1.352-15.14-2.698-25.85-6.04-50.47-19.298-73.342-8.976-15.482-29.984-21.876-20.374-41.153 7.974-18.483 29.992-35.57 30.994-37.904l-.806-.866c24.364 4.697 30.532 18.743 49.244 31.32 39.894 26.813 87.556 27.987 127.598.618 12.064-8.248 27.924-23.893 39.246-28.954"/><path fill="#8db3d4" d="M596.596 145.955c36.12-13.484 74.722 23.622 59.672 58.387-3.168 7.322-10.398 11.896-15.858 17.344-17.176 17.822-20.966 40.896-24.638 64.04-10.272 11.172-29.124 32.612-42.77 35.576-.482-22.626 13.9-63.422 24.884-83.326 8.354-15.136 23.794-28.414 24.272-48.044.256-25.713-12.636-29.855-25.562-43.977"/><path fill="#2e5f8a" d="M598.484 207.426c15.634 1.304 1.348 16.982-3.446 22.026-4.728 4.972-12.454 20.958-17.318 22.96-22.724-.984 15.74-42.232 20.764-44.986"/><path fill="#2e5f8a" d="M386.242 209.45c7.83-.222 32.838 31.122 31.158 38.392-.424 1.834-3.082 3.584-4.534 4.57-7.726.582-9.994-9.286-13.96-14.6-7.348-9.85-24.62-19.748-12.664-28.362"/><path fill="#2e5f8a" d="M427.408 271.052c1.964-.28 4.868-.804 6.304 1.148 5.26 7.256 20.076 35.682 10.24 43.406-10.718-.45-14.982-26.618-20.394-38.834-1.27-2.866 1.534-4.658 3.85-5.72"/><path fill="#2e5f8a" d="M558.478 271.052c16.102-.972 5.004 14.842 2.192 22.048-1.796 4.602-2.11 12.986-5.896 15.884-20.162 3.134-2.422-33.34 3.704-37.932"/><path fill="#5b8fc9" d="M363.56 308.984c2.558 1.236 6.752 4.042 9.224 5.602 43.548 27.632 108.766 31.622 158.77 26.726 12.186-1.192 23.982-4.292 36.058-6.258-7.104 5.808-14.634 13.3-21.24 19.696-15.292 15.132-15.178 15.488-37.394 16.098-37.578 1.03-75.832-1.726-111.674-13.768-18.396-6.18-64.084-25.54-33.744-48.096"/><path fill="#ac6124" d="m702.618 236.646.314.792-.284.322c-1.418 1.648-3.342 3.804-2.008 5.932l1.978.504c-10.29 3.218-20.328 9.55-28.946 16.034-43.614 32.406-82.86 77.674-122.766 115.156-46.982 44.126-82.158 111.164-83.002 176.616h-7.548c.76-106.606 64.536-158.966 131.258-226.534 15.248-15.442 52.408-54.544 70.656-65.238 9.896-8.638 28.082-19.256 40.348-23.584"/><path fill="#b46726" d="m702.618 236.646.314.792-.284.322c-1.418 1.648-3.342 3.804-2.008 5.932l1.978.504c-10.29 3.218-20.328 9.55-28.946 16.034.53-2.832 7.55-6.324 10.048-7.7-7.594-2.186-12.86 10.336-21.45 7.7 9.896-8.638 28.082-19.256 40.348-23.584"/><path fill="#5b8fc9" d="M454.176 564.614c7.682-.264 18.016-.062 25.976 0 6.9 7.142 11.728 44.024-3.708 47.876-26.32-.108-34.692 5.018-32.596-28.112.628-9.942-1.78-18.74 10.328-19.764"/><path fill="#ac6124" d="M702.618 236.646c6.438-6.166 32.64-10.12 41.558-10.064 56.91.36 100.72 81.976 51.404 121.856-1.44-4.556 2.828-3.676 3.76-7.234l-.78-1.252c1.078-.854 2.792-.924 4.234-1.158l-.264-.654c-5.842-.332-7.784 6.002-11.554 4.702 53.978-34.536-12.928-145.419-88.358-98.646l-1.978-.504c-1.334-2.128.59-4.284 2.008-5.932l.284-.322z"/><path fill="#b46726" d="M644.806 308.984c63.128-13.77 101.618 64.494 146.17 33.858 3.77 1.3 5.712-5.034 11.554-4.702l.264.654c-1.442.234-3.156.304-4.234 1.158l.78 1.252c-.932 3.558-5.2 2.678-3.76 7.234-31.366 18.514-58.116 3.37-83.792-16.61-11.024-6.382-18.244-9.912-30.32-13.572-11.566-2.616-30.162-.984-36.662-9.272"/><path fill="#5b8fc9" d="M632.088 311.376c1.662.672 3.118 4.482 3.738 6.048 8.204 20.722-32.64 34.252-46.208 38.78l-4.466 1.674c11.268-11.782 34.13-37.536 46.936-46.502"/></svg>