<svg xmlns="http://www.w3.org/2000/svg" width="1024" height="1024" viewBox="0 0 1024 1024"><path fill="#2e5f8a" d="m751.582 116.005 4.876-.198c37.476-1.164 62.548 27.1 62.912 63.593.166 16.648 4.548 70.602-6.686 82.098-9.498 9.72-33.746 6.05-47.942 6.072-59.662 60.586-26.578 113.92-5.332 183.2 15.604 50.884 16.682 109.674-2.806 159.812-19.186 49.366-33.62 70.032-6.306 120.906 4.38 8.156 7.086 14.652 13.186 22.01 6.032.024 14.626.398 20.566-.096 46.836-3.902 36.236 29.492 36.6 62.918.612 56.236-10.664 87.532-73.13 87.35l-481.506-.034c-41.034.1-65.64-32.938-61.668-72.83 1.784-17.918-5.58-58.504 6.314-69.532 9.198-9.252 19.708-7.874 31.798-7.846l20.264.07c10.138-22.09 24.82-31.2 32.88-57.664 16.364-53.726-13.14-94.758-28.778-143.744-9.216-26.648-12.884-50.686-12.268-78.788 1.73-79.11 77.478-121.806 8.166-205.732-22.236-.622-58.242 7.734-58.314-25.818l.04-41.502c-.028-26.414-2.404-44.321 17.868-65.368 23.372-24.266 56.646-18.885 87.242-18.87zm-460.07 646.097c1.778-2.908 2.782-4.452 5.532-6.458 2.244-1.436 17.464-25.552 19.81-29.404 34.35-56.412 4.766-114.756-17.25-167.842-27.482-69.922-11.154-108.288 16.464-172.854 11.482-26.844 10.148-62.772-4.676-88.364-2.858-6.944-30.514-40.752-36.82-38.808 2.71 5.858 11.104 15.482 14.868 22.036 41.436 72.126-4.744 109.114-18.324 172.966-22.574 106.134 87.354 176.806 22.512 278.754-7.708 12.118-17.402 18.736-19.056 33.002l.606 1.18c3.564.912 13.754 1.258 16.664-.942zm449.716-16.6c-4.214 3.516-.99 8.248-2.644 10.25-4.578.854-7.474-1.862-10.524 1.348 10.336 12.078-13.838 30.754-17.172 53.636 30.59-.43 32.354 4.084 36.276-30.878 2.18-19.434 4.526-16.536-5.936-34.356m-482.092 22.104c-17.246-.006-44.644-5.254-41.99 17.762 3.228 27.974-9.114 67.566 14.28 89.492 8.276 7.756 20.268 13.41 31.296 14.584-38.404-36.088-25.182-37.082-27.606-87.832-.822-17.218 8.534-20.096 24.02-19.058.042-5.006.078-9.94 0-14.948m-26.234-513.804c3.774-.608 3.566-.352 3.526-3.838l-.178-46.456c-.018-35.829-.106-60.994 44.36-69.444-13.084-3.84-24.404-4.457-36.702 2.33-30.786 16.987-25.306 48.38-25.214 77.962.054 17.042-6.338 38.134 14.208 39.446m72.586-123.498c5.858 5.695 9.312 9.963 14.614 16.19 2.756-.365 9.59-.094 12.638-.071l285.51.073c28.054-.001 59.25-.692 87.092-.002 4.554-7.218 7.482-10.498 13.838-16.19-6.936.387-15.224.033-22.336.012l-366.75-.003c-7.882.002-16.9.322-24.606-.01"/><path fill="#d6e8f7" d="M710.888 211.51c5.968-.036 31.384-1.596 35.054 1.87 5.806 5.482 2.936 39.87 3.246 48.776-48.844 61.248-35.286 104.15-9.066 174.506 16.548 48.624 23.84 112.128 5.69 161.54-12.7 34.582-31.826 65.912-22.736 104.796 3.486 14.916 11.93 28.334 18.152 42.504-4.214 3.516-.99 8.248-2.644 10.25-4.578.854-7.474-1.862-10.524 1.348-4.836-2.476-14.426-1.488-20.044-1.47l-410.972.014c2.244-1.436 17.464-25.552 19.81-29.404 34.35-56.412 4.766-114.756-17.25-167.842-27.482-69.922-11.154-108.288 16.464-172.854 11.482-26.844 10.148-62.772-4.676-88.364-2.858-6.944-30.514-40.752-36.82-38.808 4.496-43.134-14.584-47.918 39.896-46.862-3.558 8.458-6.272 16.48-10.358 24.914-1.996 4.124-18.876 25.9-5.692 28.84 11.436 1.254 25.472.72 36.872.718l375.958-.028c3.984-.04 13.766.142 17.166-1.21 3.94-1.566 5.734-8.786 2.576-11.972-9.094-11.784-15.96-26.914-20.102-41.262"/><path fill="#2e5f8a" d="M364.92 400.92c21.182-.584 45.438-.004 66.832-.002H630.33c8.132.002 17.75-.372 25.692.23 6.76.514 8.13 10.024 1.364 14.13-3.668.376-9.804.074-13.674.05l-258.006-.046c-6.818-.002-27.058 2.914-25.17-8.242.498-2.948 2.036-4.466 4.384-6.12"/><path fill="#2e5f8a" d="m368.984 339.636 283.386.002c11.452-.19 13.106 12.332 1.76 14.366l-251.548.022c-10.772.008-21.612.086-32.38-.05-14.122-.212-12.132-13.222-1.218-14.34"/><path fill="#2e5f8a" d="m409.328 587.186 219.328.006c7.77-.004 15.922-.04 23.716-.124 11.162-.118 19.844 14.482-12.116 14.422l-26.006-.056-215.76.032c-8.638.006-26.666 1.012-35.376-1.434-3.882-1.09-3.806-12.116 3.006-12.56 4.456-.29 9.814-.26 14.692-.268z"/><path fill="#2e5f8a" d="m372.326 524.962 247.038-.012c6.748-.002 34.978-1.824 40 1.696 7.65 5.36 1.238 12.57-7.784 12.408l-258.422.01c-6.492-.002-23.138.362-28.888-.616-10.454-7.884-1.228-13.65 8.056-13.486"/><path fill="#2e5f8a" d="M364.92 463.976c6.502-.316 15.41-.016 22.12-.014l244.984.014c7.768.002 16.94-.212 24.72.276 7.244 1.422 6.46 10.574.642 13.71-3.584.366-11.626.062-15.61.048l-260.454-.016c-6.114.002-23.29 2.522-21.062-8.62.568-2.842 2.25-4.04 4.66-5.398"/><path fill="#2e5f8a" d="M449.504 659.506c21.994-1.268 40.914 28.106 64.05 26.724 22.922-1.37 37.342-27.106 60.35-26.744 6.776 1.5 8.242 9.678 1.024 14.006-23.63 8.172-39.454 27.306-63.298 27.154-20.744-.134-30.652-12.024-47.226-21.698-6.888-4.012-29.848-7.692-14.9-19.442"/><path fill="#a8c8e8" d="M687.804 770.316h24.634c-23.564 39.612-29.964 86.414 6.742 119.128H305.488c34.798-37.786 26.51-74.328 5.9-119.128z"/><path fill="#a8c8e8" d="M320.102 146.494c2.756-.365 9.59-.094 12.638-.071l285.51.073c28.054-.001 59.25-.692 87.092-.002-21.408 32.993-9.812 73.182 7.096 105.036h-401.05c23.034-34.722 25.032-68.321 8.714-105.036"/><path fill="#a8c8e8" d="M763.484 767.606c11.8.026 26.106-.504 37.614 0 9.366 7.352 5.896 35.14 5.826 46.958-.238 40.192-3.544 77.08-55.342 74.88-32.486-11.022-45.858-29.828-43.534-65.52 55.516 6.364 46.57-13.722 55.436-56.318"/><path fill="#a8c8e8" d="M756.394 130.304c37.082-2.442 49.314 26.621 48.894 58.768-.128 16.628.092 33.202.07 49.834.078 10.44-2.106 15.846-13.798 14.944-9.344-.722-27.748 4.104-28.076-3.938.052-17.078 3.962-55.19-23.22-52.636-10.718 1.007-21.522.251-32.216.683-1.154-32.515 11.768-65.474 48.346-67.655"/><path fill="#a8c8e8" d="M280.61 134.064c29.302 9.498 37.24 35.9 35.776 63.895l-18.036-.01c-31.498.03-37.574 6.505-37.594 37.879l.016 17.974h-27.87c3.774-.608 3.566-.352 3.526-3.838l-.178-46.456c-.018-35.829-.106-60.994 44.36-69.444"/><path fill="#a8c8e8" d="M262.722 889.444c-38.404-36.088-25.182-37.082-27.606-87.832-.822-17.218 8.534-20.096 24.02-19.058-.288 47.642 16.74 41.346 55.332 41.37-.642 20.632-.114 36.454-16.386 52.188-8.906 8.612-22.816 14.276-35.36 13.332"/><path fill="#d6e8f7" d="m274.572 765.13.606 1.18c3.564.912 13.754 1.258 16.664-.942l-.33-3.266c4.088 12.126 11.81 25.084 16.516 38.65a217 217 0 0 0 3.36 8.37h-9.132c-28.666.006-28.826 3.154-27.668-26.936.208-5.432-.394-11.512-.016-17.056"/><path fill="#fff" d="M302.256 809.122c.93-4.56.846-6.91 5.772-8.37a217 217 0 0 0 3.36 8.37z"/></svg>