<svg xmlns="http://www.w3.org/2000/svg" width="1024" height="1024" viewBox="0 0 1024 1024"><path fill="#2e5f8a" d="M915.39 97.608c16.912-2.376 5.34 22.025 3.15 29.069l-17.796 55.503c-5.534 17.454-10.478 35.6-15.84 53.21l-27.302 88.454c-5.736 19.012-11.834 39.676-18.02 58.608-.944 2.888-18.818 17.66-22.79 21.132L525.954 655.682c8.738 8.468 16.53 15.092 24.788 24.328l43.5-.062c13.562-.04 35.938-4.262 37.846 14.734.922 9.182-10.232 17.558-16.488 23.756l-38.864 38.692c-56.25 57.158-78.368-1.618-118.978-34.668h-80.884c-6.774 4.994-15.218 14.14-21.358 20.38l-28.218 28.562c-18.5 18.792-38.858 36.848-55.792 57.088 37.882 45.866-14.49 117.51-71.436 87.322-8.864-4.698-16.557-13.82-23.581-20.934l-23.382-23.57c-20.573-19.984-53.992-47.21-56.06-75.724-3.896-53.748 58.377-79.986 99.023-43.364 21.338-24.118 46.962-49.536 70.06-72.668l22.89-23.134c5.09-5.238 11.048-10.984 15.07-16.964.32-23.528-.004-47.802 0-71.398-3.61-4.272-9.448-9.244-13.542-13.366l-27.222-27.534c-5.076-5.1-12.46-11.86-16.002-17.896-14.738-25.108-.248-44.498 16.808-60.954l18.718-18.396c7.232-7.208 30.86-35.204 40.584-34.888 19.906.648 16.78 17.954 16.88 30.998.114 15.138-.454 29.118-.056 43.452 5.92 6.982 20.706 21.686 27.62 27.666 5.982-5.566 14.834-16.746 20.344-23.2l201.95-232.198c5.704-6.638 49.67-57.932 51.246-58.49 25.278-8.968 96.244-29.917 121.572-37.642l118.918-37.387c10.71-3.278 22.996-7.822 33.482-10.615M244.436 722.462c6.736 6.454 13.078 13.262 19.646 19.886l35.868 35.912c8.232-8.032 20.502-21.384 28.812-28.082-15.302-18.56-38.468-39.07-55.442-56.814-9.346 9.496-19.934 19.494-28.884 29.098"/><path fill="#a8c8e8" d="m649.434 195.383 162.464-49.999c25.912-8.124 55.06-19.236 81.082-25.573-18.888 19.9-45.448 48.738-66.324 66.336-9.3 11.517-22.196 22.731-32.788 33.377l-66.296 67.06c-93.74 95.782-190.278 189.586-283.334 285.924-11.112-10.476-22.232-21.558-32.88-32.524-8.168-7.362-25.304-24.87-32.548-32.942 6.522-7.224 13.642-15.994 20.14-23.476z"/><path fill="#d6e8f7" d="m649.434 195.383 162.464-49.999c25.912-8.124 55.06-19.236 81.082-25.573-18.888 19.9-45.448 48.738-66.324 66.336-8.988.08-64.532 20.175-77.828 24.275l-44.538 13.996c-34.286 10.772-28.402 13.178-53.342 42.028l-184.296 210.71c-11.228 12.908-42.91 53.61-55.294 62.828-8.168-7.362-25.304-24.87-32.548-32.942 6.522-7.224 13.642-15.994 20.14-23.476z"/><path fill="#d6e8f7" d="M901.948 130.877 849.084 301.47c-7.502 24.282-14.512 49.936-22.668 73.8-1.038 3.038-33.142 29.43-38.392 34.012L527.296 635.538c-3.626 3.18-7.722 7.226-11.338 10.17-11.024-11.7-21.292-22.312-32.87-33.474l-29.506-29.26c13.274-15.614 28.968-29.84 43.388-44.388l333.668-335.832c7.03-7.758 15.048-14.995 22.436-22.482z"/><path fill="#a8c8e8" d="M830.638 202.754c.984 4.506-6.526 23.656-8.32 29.168l-22.082 67.962c-10.122 32.11-5.012 41.65-32.692 65.51l-39.802 33.716-234.096 203.55c-2.97 2.594-8.022 6.806-10.558 9.574l-29.506-29.26c13.274-15.614 28.968-29.84 43.388-44.388z"/><path fill="#d6e8f7" d="M323.816 409.804c3.458.53 2.634 7.394 2.612 10.792l-.07 30.144c-.026 20.604-2.186 24.358 13.392 39.52 58.666 57.09 116.222 115.36 173.89 173.456 10.232 10.31 20.712 19.152 29.958 30.536h74.688c-3.854 5.294-8.194 9.186-12.836 13.75l-17.488 17.206c-10.052 9.902-28.796 31.5-40.382 38.088-22.142 10.076-34.774-6.634-48.7-20.578L279.268 521.88c-28.936-29.62-32.708-35.594-4.366-63.46l22.164-21.946c6.3-6.3 20.942-22.364 26.75-26.67"/><path fill="#a8c8e8" d="M147.844 750.178c29.136-4.978 47.087 21.584 65.236 39.466l27.79 27.432c10.022 10.006 24.008 22.596 27.44 36.638 6.462 26.446-8.244 47.292-33.766 54.088-28.624 4.092-44.527-19.254-62.64-38.204-16.609-17.374-38.752-36.198-53.081-55.258-18.169-24.166-1.749-60.03 29.02-64.162"/><path fill="#a8c8e8" d="M318.606 582.974c3.106 1.804 16.828 17.032 20.808 20.984l91.602 91.028c4.508 4.48 8.082 8.6 13.222 12.384-22.126.008-45.368-.406-67.364 0-13.132 3.058-28.028 22.126-37.77 31.936-18.298-16.938-38.384-37.54-55.4-56.178 6.67-7.058 30.592-28.766 33.77-36.548 2.418-5.928 1.12-52.906 1.132-63.606"/><path fill="#d6e8f7" d="M234.544 732.956c6.376 5.726 13.928 13.79 20.094 19.978l35.288 35.296c-8.226 9.592-19.618 20.368-28.64 30.272-15.146-16.71-38.172-40.776-55.942-55.206 7.09-8.954 20.67-22.01 29.2-30.34"/></svg>