<svg xmlns="http://www.w3.org/2000/svg" width="1024" height="1024" viewBox="0 0 1024 1024"><path fill="#fdfdfe" fill-opacity=".008" d="M0 0h1024v690.302c-.39-.209-.6-.304-.98-.587-5.16-3.873-24.234-60.989-26.538-69.61-3.759-14.065-6.549-28.331-9.324-42.614 5.804-5.537 20.592-19.838 20.652-27.518.02-3.499-16.599-11.443-20.424-14.445a142 142 0 0 0 3.001-36.486c-1.26-28.214-14.33-53.249-34.971-72.188.359-15.723 3.27-13.701-12.007-20.856-10.293-4.82-23.86-9.238-33.167-15.098-5.644-3.553-9.785-12.393-17.841-16.655-9.103-.212-10.76 1.216-18.613 5.413-25.269-8.103-14.902-6.658-31.563-23.468-8.481-2.366-29.201-4.868-38.906-6.292-13.046-21.106-11.513-20.891-36.699-27.575 4.042-5.802 15.311-20.116 12.735-26.834-7.03-18.329-20.449-35.51-29.528-53.104-1.799-3.487-4.346-7.405-4.534-11.333-.35-7.331 1.472-14.811-.936-21.945-2.326-7.762-6.312-14.376-9.857-21.612-2.988-6.218-6.331-14.64-8.589-21.151a247 247 0 0 1-6.995-24.03c-1.147-5.042-3.474-18.438-5.368-22.113-14.152-27.461-64.315-61.021-91.472-72.194a155.5 155.5 0 0 0-26.007 10.356c-23.319 11.878-59.151 37.725-70.693 62.635-1.972 5.478-2.133 11.683-3.74 17.245-5.117 17.705-10.765 35.71-18.978 52.236-2.832 5.698-6.299 9.762-8.263 16.057-3.279 10.508 1.364 20.809-2.669 30.935-2.387 5.751-6.96 12.575-10.32 17.908a1150 1150 0 0 0-15.134 24.337c-3.413 5.66-10.261 15.87-7.231 22.088 4.782 9.814 14.051 17.825 19.581 27.738l.373.676c-5.558 6.342-7.086 10.093-11.387 17.345-17.001-8.591-21.487 9.989-28.533 19.991-4.774 2.521-11.218 2.55-16.714 3.946-9.776 2.483-16.084 10.984-20.852 19.437-22.376-7.471-24.882.807-43.522 10.707-6.116 3.247-18.368 2.217-22.924 8.841-2.551 3.71-.719 11.322.084 15.349-24.437 17.18-41.287 45.938-41.035 76.121.066 7.998 1.508 14.853 3.152 22.592-6.296 4.185-14.528 8.548-21.239 12.313 3.279 6.226 5.956 13.41 9.106 19.968-9.722 4.884-31.52 12.005-42.461 15.671a1691 1691 0 0 1-71.901 22.687c-11.555 3.373-23.367 6.244-34.767 9.64 10.175-.03 20.895.173 31-.157 29.537-.963 55.205-5.255 83.74-12.634l.913.217c-1.463 3.407-32.719 16.971-37.924 19.117-72.911 30.074-133.204 36.823-207.416 7.597 5.063 4.058 9.559 8.613 14.716 12.767 18.104 14.585 33.853 21.886 54.984 30.536-1.826 1.135-2.473.651-4.665.786-3.317-.058-12.905-1.407-16.763-1.787-2.359-.517-4.566-.978-6.943-1.552 1.952 1.048 3.852 2.054 5.776 3.156l.502.282c36.634 20.048 70.196 27.738 111.892 26.97 11.752-.217 28.551-1.224 39.833-4.143l.958-.239c-6.541 3.864-13.903 8.096-20.896 11.049-47.12 19.896-98.79 35.298-150.378 27.104-8.483-1.348-17.312-3.493-25.681-5.523 7.27 7.386 18.634 15.337 27.192 21.062a260.1 260.1 0 0 0 143.031 45.017c9.904.076 25.027-1.421 33.495-1.003 1.63.185 3.213.283 4.838.455-15.046 9.074-28.27 13.608-44.737 18.824 48.362 7.048 115.06-10.616 159.198-29.666-58.33 46.289-133.831 81.348-209.713 63.824 54.931 45.346 147.771 49.611 215.438 43.153a490.7 490.7 0 0 0 92.798-17.163c3.19-.927 14.925-4.387 17.693-5.786l.593 1.426c-31.348 26.753-64.388 54.052-101.691 72.039-8.121 3.916-16.954 7.068-25.431 10.226 13.139 1.784 41.996.733 55.33-.252 95.594-7.062 199.06-43.841 278.858-97.107l1.003 1.113c-37.114 42.223-105.866 110.109-160.02 129.135-.616.202-3.644.847-3.747 1.561.289.469 2.656.292 3.205.301 99.884-.535 185.764-25.192 270.519-77.964a821 821 0 0 0 41.618-28.201c3.137-2.286 20.123-15.904 22.158-16.741-.757 1.48-5.762 6.739-7.191 8.272-18.071 19.392-37.688 37.822-57.419 55.536-15.63 14.033-32.335 29.929-48.609 43.085 17.107-5.79 35.183-13.223 52.317-19.537 11.384-4.195 29.011-10.612 39.535-16.55 9.496-5.358 69.15-60.357 74.462-62.117l.121.935c-7.092 10.521-19.733 27.52-27.95 36.894 33.796-24.723 67.835-49.993 91.431-85.378 16.417-24.62 55.015-83.161 44.151-113.539-6.629 9.002-12.492 19.403-18.851 28.712-8.378 12.265-17.315 24.507-26.252 36.366-4.879 6.474-14.015 18.111-20.086 23.172a170.74 170.74 0 0 0 29.828-85.528c-3.746 4.027-15.872 18.238-19.094 20.774-10.978 8.639-27.667 20.409-35.96 31.895l-.96-.743c2.494-3.287 8.289-13.52 10.382-17.469 3.904-7.37 11.018-17.751 14.194-24.922 3.592-8.113 7.658-18.999 11.003-27.424 6.125-15.425 11.563-24.987 19.665-39.028-14.205 5.782-26.447 19.066-36.319 30.486-2.91 3.367-7.543 9.306-10.961 11.835l-.367-1.143c14.066-20.042 15.892-36.025 11.653-59.803-3.875-21.74-16.414-34.343-29.639-50.626 15.124 10.555 30.484 25.805 43.885 38.54 5.461 5.191 15.322 14.526 19.923 20.181-3.244-12.123-10.026-29.306-14.186-41.934 7.307 8.257 14.287 17.172 21.723 25.526 3.807 4.277 15.412 16.619 18.014 20.538-3.178-12.683-5.258-23.494-11.611-35.192-.581-1.07-3.286-6.034-2.798-6.933 10.796 15.559 18.448 28.963 25.004 46.875 9.285 25.367 8.237 37.456 25.884 59.263-2.74 9.503-4.76 18.551-6.78 28.239 4.56-6.917 9.49-13.363 14.58-19.893V1024H0z"/><path fill="#404040" d="m478.995 330.218-.373-.676c-5.53-9.913-14.799-17.924-19.581-27.738-3.03-6.218 3.818-16.428 7.231-22.088a1150 1150 0 0 1 15.134-24.337c3.36-5.333 7.933-12.157 10.32-17.908 4.033-10.126-.61-20.427 2.669-30.935 1.964-6.295 5.431-10.359 8.263-16.057 8.213-16.526 13.861-34.531 18.978-52.236 1.607-5.562 1.768-11.767 3.74-17.245 11.542-24.91 47.374-50.757 70.693-62.635a155.5 155.5 0 0 1 26.007-10.356c27.157 11.173 77.32 44.733 91.472 72.194 1.894 3.675 4.221 17.071 5.368 22.113a247 247 0 0 0 6.995 24.03c2.258 6.511 5.601 14.933 8.589 21.151 3.545 7.236 7.531 13.85 9.857 21.612 2.408 7.134.586 14.614.936 21.945.188 3.928 2.735 7.846 4.534 11.333 9.079 17.594 22.498 34.775 29.528 53.104 2.576 6.718-8.693 21.032-12.735 26.834 25.186 6.684 23.653 6.469 36.699 27.575 9.705 1.424 30.425 3.926 38.906 6.292 16.661 16.81 6.294 15.365 31.563 23.468 7.853-4.197 9.51-5.625 18.613-5.413 8.056 4.262 12.197 13.102 17.841 16.655 9.307 5.86 22.874 10.278 33.167 15.098 15.277 7.155 12.366 5.133 12.007 20.856 20.641 18.939 33.711 43.974 34.971 72.188a142 142 0 0 1-3.001 36.486c3.825 3.002 20.444 10.946 20.424 14.445-.06 7.68-14.848 21.981-20.652 27.518 2.775 14.283 5.565 28.549 9.324 42.614 2.304 8.621 21.378 65.737 26.538 69.61.38.283.59.378.98.587v21.688c-5.09 6.53-10.02 12.976-14.58 19.893 2.02-9.688 4.04-18.736 6.78-28.239-17.647-21.807-16.599-33.896-25.884-59.263-6.556-17.912-14.208-31.316-25.004-46.875-.488.899 2.217 5.863 2.798 6.933 6.353 11.698 8.433 22.509 11.611 35.192-2.602-3.919-14.207-16.261-18.014-20.538-7.436-8.354-14.416-17.269-21.723-25.526 4.16 12.628 10.942 29.811 14.186 41.934-4.601-5.655-14.462-14.99-19.923-20.181-13.401-12.735-28.761-27.985-43.885-38.54 13.225 16.283 25.764 28.886 29.639 50.626 4.239 23.778 2.413 39.761-11.653 59.803l.367 1.143c3.418-2.529 8.051-8.468 10.961-11.835 9.872-11.42 22.114-24.704 36.319-30.486-8.102 14.041-13.54 23.603-19.665 39.028-3.345 8.425-7.411 19.311-11.003 27.424-3.176 7.171-10.29 17.552-14.194 24.922-2.093 3.949-7.888 14.182-10.382 17.469l.96.743c8.293-11.486 24.982-23.256 35.96-31.895 3.222-2.536 15.348-16.747 19.094-20.774a170.74 170.74 0 0 1-29.828 85.528c6.071-5.061 15.207-16.698 20.086-23.172 8.937-11.859 17.874-24.101 26.252-36.366 6.359-9.309 12.222-19.71 18.851-28.712 10.864 30.378-27.734 88.919-44.151 113.539-23.596 35.385-57.635 60.655-91.431 85.378 8.217-9.374 20.858-26.373 27.95-36.894l-.121-.935c-5.312 1.76-64.966 56.759-74.462 62.117-10.524 5.938-28.151 12.355-39.535 16.55-17.134 6.314-35.21 13.747-52.317 19.537 16.274-13.156 32.979-29.052 48.609-43.085 19.731-17.714 39.348-36.144 57.419-55.536 1.429-1.533 6.434-6.792 7.191-8.272-2.035.837-19.021 14.455-22.158 16.741a821 821 0 0 1-41.618 28.201c-84.755 52.772-170.635 77.429-270.519 77.964l.542-1.862c54.154-19.026 122.906-86.912 160.02-129.135 3.56-3.914 3.92-5.092-1.003-1.113-79.798 53.266-183.264 90.045-278.858 97.107-13.334.985-42.191 2.036-55.33.252 8.477-3.158 17.31-6.31 25.431-10.226 37.303-17.987 70.343-45.286 101.691-72.039.418-.331 2.19-1.52 2.139-2.17-.411-.325-1.514.279-1.932.456l-.8.288c-2.768 1.399-14.503 4.859-17.693 5.786a490.7 490.7 0 0 1-92.798 17.163c-67.667 6.458-160.507 2.193-215.438-43.153 75.882 17.524 151.383-17.535 209.713-63.824-44.138 19.05-110.836 36.714-159.198 29.666 16.467-5.216 29.691-9.75 44.737-18.824.184-.079 2.026-.674 1.856-1.091-.524-.247-5.953.507-6.694.636-8.468-.418-23.591 1.079-33.495 1.003a260.1 260.1 0 0 1-143.03-45.017c-8.559-5.725-19.923-13.676-27.193-21.062 8.369 2.03 17.198 4.175 25.681 5.523 51.588 8.194 103.258-7.208 150.378-27.104 6.993-2.953 14.355-7.185 20.896-11.049l-.958.239c-11.282 2.919-28.081 3.926-39.833 4.143-41.696.768-75.258-6.922-111.892-26.97l.665-1.886c3.858.38 13.446 1.729 16.763 1.787 1.516.33 2.71.481 4.232.707l3.05-.534c-.946-.379-1.636-.666-2.617-.959-21.131-8.65-36.88-15.951-54.984-30.536-5.157-4.154-9.653-8.709-14.716-12.767 74.212 29.226 134.505 22.477 207.416-7.597 5.205-2.146 36.461-15.71 37.924-19.117l-.913-.217c-28.535 7.379-54.203 11.671-83.74 12.634-10.105.33-20.825.127-31 .157 11.4-3.396 23.212-6.267 34.767-9.64a1691 1691 0 0 0 71.901-22.687c10.941-3.666 32.739-10.787 42.461-15.671-3.15-6.558-5.827-13.742-9.106-19.968 6.711-3.765 14.943-8.128 21.239-12.313-1.644-7.739-3.086-14.594-3.152-22.592-.252-30.183 16.598-58.941 41.035-76.121-.803-4.027-2.635-11.639-.084-15.349 4.556-6.624 16.808-5.594 22.924-8.841 18.64-9.9 21.146-18.178 43.522-10.707 4.768-8.453 11.076-16.954 20.852-19.437 5.496-1.396 11.94-1.425 16.714-3.946 7.046-10.002 11.532-28.582 28.533-19.991 4.301-7.252 5.829-11.003 11.387-17.345m301.498 22.466a934 934 0 0 0-21.039 21.226c-5.045 5.346-13.144 14.946-18.752 18.987-14.08 10.145-32.087 18.536-47.925 26.014-20.957 9.895-42.864 20.759-64.808 28.117-7.107 2.383-12.235 2.946-19.474 3.2-18.214.641-27.262-8.457-43.08-14.982-3.066-2.018-6.058-3.246-9.373-4.728 3.255 2.648 5.013 3.732 8.733 5.674 11.819 7.697 26.519 16.141 39.449 21.577 5.065 2.128 11.194 3.621 16.441 5.381a198 198 0 0 0-9.558 5.949c3.106.687 6.534 1.368 9.592 2.136 19.853-11.471 40.781-22.225 60.973-33.065 19.247-10.332 38.192-19.188 55.135-33.431 11.642-9.786 14.079-15.954 30.604-16.558-2.423 8.883-3.779 14.828-5.191 23.985-5.163 4.707-11.166 8.437-16.663 12.693-9.97 7.719-21.305 14.751-31.023 22.691-2.074.7-5.481 3.327-7.176 4.771 2.644-1.272 5.424-2.228 7.39-4.247 5.46-1.71 12.699-5.272 18.12-7.626 13.508-5.868 26.934-12.017 40.339-18.104 5.024-2.281 14.234-4.332 19.885-6.183 15.419-5.051 38.339-15.778 50.73-25.995-.418 12.245-9.404 19.219-18.245 27.32-40.82 37.4-96.251 56.099-143.84 83.449-8.465 4.865-18.422 9.218-26.343 14.091-1.253.209-7.9 3.331-8.098 4.235.89.19 7.791-2.977 8.89-3.692 21.869-8.312 44.135-16.017 66.082-24.27l1.039.681c-5.306 4.44-12.104 9.291-17.724 13.563l-28.865 21.928c-4.404 3.299-14.492 10.137-17.91 13.439 10.388-4.671 21.41-11.261 31.697-16.491 31.167-15.847 61.851-32.364 94.035-46.13 2.784-1.338 4.837-2.323 1.44.79-7.069 7.178-14.522 14.204-21.673 21.337-1.728 1.723-9.881 9.988-11.303 10.995l.286 1.021c10.413-5.293 20.577-12.706 30.532-18.714 23.496-14.182 45.25-29.79 67.304-45.963 19.069-13.983 50.104-31.183 73.993-33.432 2.894.197 4.758-.23 7.967.365 1.014.199 5.214 1.131 5.9.982l.026-.043c-.078-.862-2.941-1.432-3.532-1.507l-1.305-.458c-6.532-2.502-13.246-4.985-19.73-7.569-33.225 13.626-64.98 28.728-94.494 49.288-3.719 2.591-13.412 8.696-16.35 11.234l-.882-.476c8.152-8.265 16.236-18.794 24.442-27.052 4.316-4.343 12.58-11.493 17.279-15.541 10.349-8.914 34.05-30.79 45.987-36.123.287-.26 1.426-1.039 1.399-1.343-.257-.371-1.902-.557-2.251-.621-7.459 2.232-10.287 4.378-17.016 8.382-23.607-6.189-27.719-11.623-52.242-5.54 3.018-4.982 13.114-11.656 18.967-20.189-16.784-2.004-33.638-.749-50.485-1.204 1.457-3.139 3.191-5.626 5.082-8.513-2.772-9.574-9.373-17.307-17.043-23.451 2.009 6.549 3.779 10.798 3.655 17.74M619.939 169.222c15.075 3.864 32.562 20.92 44.323 31.437.257 1.807.509 4.035.923 5.781 3.028 3.433 6.315 6.502 9.612 9.67 17.415 16.73 29.752 37.039 40.917 58.306-1.847-11.053-7.245-21.931-11.14-32.442-10.165-27.432-16.9-55.782-22.453-84.475l-.304-1.26.662-1.189c.35.732.696 1.408 1.067 2.129 19.815 40.613 40.264 80.767 57.705 122.506 6.101 14.602 8.422 26.784-3.118 39.865-21.572 24.453-46.078 46.715-62.487 75.32-1.706 2.954-6.218 10.781-6.749 13.95l.463.154c7.615-13.008 16.052-25.666 26.297-36.795 9.899-10.755 22.502-19.905 32.176-30.861a6301 6301 0 0 0 29.111-33.189c8.317-9.554 4.612-16.63-1.229-26.099-7.548-12.216-13.321-25.375-19.491-38.314-7.382-14.467-12.903-29.497-19.867-44.081l.545-1.093c2.981 5.433 6.115 11.707 9.177 16.942 1.066 3.224 2.218 5.112 3.773 8.036-.441-1.931-1.242-6.356-2.006-8.015-.146-8.229-3.852-18.247-6.733-25.929-6.236-16.631-13.122-33.203-17.072-50.59-2.163-10.835-2.662-18.491-9.882-27.293-15.166-18.49-35.032-30.706-56.544-40.496-5.271-2.4-10.521-5.264-16.139-7.265-3.991 9.72-9.292 15.766-16.408 23.332-1.394 1.404-2.48 2.395-3.96 3.69-1.586.618-3.539 2.689-4.848 3.895-1.382.946-3.385 2.764-4.663 3.902l1.634.51q2.016-1.492 4.074-2.926c1.182-.92 5.14-3.614 5.754-4.478 1.234-1.144 2.446-2.097 3.698-3.193a125 125 0 0 0 13.207-9.195c.665 4.618.668 74.241-.232 77.254-3.471-.486-4.615-.384-7.297 2.091-14.678 13.543-29.2 29.98-41.037 46.064 3.956-2.864 8.439-7.849 12.138-11.253 8.8-8.098 25.211-20.834 36.403-24.403m122.199 181.775c-.959.405-2.031 1.466-2.91 2.186l-.693.579c-6.096 4.068-12.597 9.282-18.721 13.608 5.12-2.151 15.033-8.267 19.617-11.728 1.017-.602 2.947-1.851 3.715-2.741 1.177-.995 14.142-13.153 11.233-4.886-2.049 5.821-6.833 13.17-10.398 18.269l.178 1.519c2.44.725 7.405-5.883 8.93-7.756l3.546-4.435c1.722-2.185 6.757-8.705 6.11-11.334-1.613-6.546-7.301-12.015-12.252-15.844-.606 7.219-3.093 17.292-8.355 22.563m216.933 139.214c7.463 13.188 8.8 18.793 11.38 33.585 8.73-35.463-.817-67.241-31.518-87.909-1.622-1.093-3.234-2.421-5.167-2.666-18.378 1.887-36.184 8.461-48.946 22.244 7.07.233 14.214.002 21.205.774a70.48 70.48 0 0 1 43.652 21.601c3.903 4.16 6.293 7.62 9.394 12.371m31.216 61.411c-2.925-1.823-5.73-3.542-8.54-5.545-1.237 1.167-2.554 2.722-4.125 3.042-6.571-1.096-25.301-7.957-32.809-10.333a3000 3000 0 0 0-64.365-19.375c-4.834-1.406-18.145-5.958-22.205-6.437 3.566 1.998 12.331 5.107 16.415 6.692a2979 2979 0 0 0 35.477 13.556l45.008 17.328c8.017 3.093 17.57 7.034 25.638 9.616 1.745-1.822 4.074-4.385 5.868-6.038z"/><path fill="#b2b4b7" d="M891.491 768.346a249 249 0 0 1 4.436-6.837c1.009-1.498 3.666-5.743 4.824-6.635l.96.743c-1.639 2.818-7.894 10.121-10.22 12.729"/><path fill="#b2b4b7" d="M900.258 698.568c1.742-2.745 5.959-9.254 8.09-11.359l.367 1.143c.268 1.894-6.775 8.501-8.457 10.216"/><path fill="#b2b4b7" d="m250.742 592.035.721-.457c.735-.477 10.206-4.178 10.978-4.256l.087.048c.05.688-1.243 1.415-1.747 1.446-2.345.147-7.629 5.28-9.126 3.436z"/><path fill="#b2b4b7" d="M884.373 861.314c-.179-.122-.595-.349-.716-.587.554-.971 5.743-5.391 6.875-6.342-1.899 2.84-3.524 5.512-6.038 7.864z"/><path fill="#8d8e92" d="M78.632 663.228c1.054.038 2.25.136 2.944 1.02-.09.667-5.447-.39-5.994-.486z"/><path fill="#404040" d="M805.296 370.632c5.91-.639 5.84-.187 10.836 2.885l-38.351 28.667a255 255 0 0 0-6.649 5.014c8.777-14.7 16.297-31.111 34.164-36.566"/><path fill="#fdfdfe" d="M744.159 367.803c.322.37.761.663.941 1.025-.394 1.17-14.623 15.535-15.331 15.399 4.732-5.264 9.602-13.167 14.212-17.943z"/><path fill="#fdfdfe" fill-opacity=".988" d="m738.535 353.762.896 1.88c-4.584 3.461-14.497 9.577-19.617 11.728 6.124-4.326 12.625-9.54 18.721-13.608"/><path fill="#b2b4b7" d="M572.221 203.292c2.003 1.79-1.619 4.121-3.388 6.412l-1.386 1.802c-2.89 3.809-5.972 9.199-8.84 12.592-.972-.253.995-2.999 1.37-3.583 3.712-5.79 7.776-11.984 12.244-17.223"/><path fill="#fefefe" fill-opacity=".525" d="M596.26 94.85c1.309-1.207 3.262-3.278 4.848-3.896.705.91.762.798 1.951.903-.614.864-4.572 3.557-5.754 4.478z"/><path fill="#b2b4b7" d="m591.597 98.75 1.634.511a244 244 0 0 1-12.404 8.72c3.016-3.034 7.293-6.749 10.77-9.23"/><path fill="#58565a" d="M753.29 512.432c-.482.715-1.282 1.728-2.089 2.124-1.691.832-2.743 2.545-4.475 3.163-.26.093-.851.057-.68-.341.484-1.122 2.202-1.902 3.048-2.773 1.433-1.06 2.466-2.17 3.91-3.194z"/><path fill="#fefefe" fill-opacity=".11" d="m605.068 87.264 1.689 1.4c-1.252 1.096-2.464 2.049-3.698 3.193-1.189-.105-1.246.007-1.951-.903 1.48-1.295 2.566-2.286 3.96-3.69"/><path fill="#fefefe" fill-opacity=".392" d="m738.535 353.762.693-.579c.879-.72 1.951-1.781 2.91-2.186.348.706.622 1.221 1.008 1.904-.768.89-2.698 2.139-3.715 2.741z"/><path fill="#fdfdfe" fill-opacity=".024" d="M564.775 436.192c-3.72-1.942-5.478-3.026-8.733-5.674 3.315 1.482 6.307 2.71 9.373 4.728z"/><path fill="#8d8e92" fill-opacity=".984" d="M656.186 515.569c-1.099.715-8 3.882-8.89 3.692.198-.904 6.845-4.026 8.098-4.235z"/><path fill="#fdfdfe" fill-opacity=".988" d="M727.846 215.505c.764 1.659 1.565 6.084 2.006 8.015-1.555-2.924-2.707-4.812-3.773-8.036z"/><path fill="#fefefe" fill-opacity=".627" d="M591.597 98.75c1.278-1.137 3.281-2.955 4.663-3.9l1.045 1.485q-2.058 1.435-4.074 2.926z"/><path fill="#b2b4b7" d="m668.897 408.82.463.154c-.349 1.243-2.475 6.254-3.531 6.595-.789-.877 2.064-5.788 3.068-6.749"/><path fill="#b2b4b7" fill-opacity=".933" d="M707.358 452.321c1.695-1.444 5.102-4.071 7.176-4.771l.214.524c-1.966 2.019-4.746 2.975-7.39 4.247"/><path fill="#fefefe" fill-opacity=".267" d="m934.175 413.662 1.305.458-2.394.568c-3.209-.595-5.073-.168-7.967-.365 1.29-.81 6.355-.296 9.056-.661"/><path fill="#8d8e92" fill-opacity=".988" d="M935.48 414.12c.591.075 3.454.645 3.532 1.507l-.026.043c-.686.149-4.886-.783-5.9-.982z"/><path fill="#404040" fill-opacity=".847" d="M722.268 491.299c.896-.403 4.13-2.191 4.807-2.14l.134.152c-.005.225-.037.209-.22.401l-.118-.182-.185.062-.129.43c-.69.384-1.34.777-2.011 1.192l-1.239.766z"/><path fill="#58565a" fill-opacity=".694" d="M716.357 199.635c-.226-.437-2.279-4.092-1.649-4.241.282.105.4.308.588.542l-.085-.097c.617.868 1.138 1.795 1.691 2.703z"/><path fill="#404040" d="M784.54 478.289c2.784-1.338 4.837-2.323 1.44.79z"/><path fill="#58565a" fill-opacity=".651" d="M803.601 466.615c-.404.356-2.17 1.971-2.741 1.935-.31-.707 1.468-2.064 1.859-2.411z"/><path fill="#58565a" fill-opacity=".859" d="M681.817 156.239c-.144-.512-.998-2.933-.546-3.361.465.055.69.892.825 1.237l.383.935z"/><path fill="#fefefe" fill-opacity=".016" d="M889.575 385.459c.349.064 1.994.25 2.251.621.027.304-1.112 1.083-1.399 1.343z"/><path fill="#404040" d="m681.817 156.239.662-1.189c.35.732.696 1.408 1.067 2.129l-1.425.32z"/><path fill="#58565a" fill-opacity=".98" d="M47.644 659.716c2.377.574 4.584 1.035 6.943 1.552l-.665 1.886-.502-.282c-1.924-1.102-3.824-2.108-5.776-3.156"/><path fill="#fdfdfe" fill-opacity=".043" d="M656.542 843.421c4.923-3.979 4.563-2.801 1.003 1.113z"/><path fill="#fefefe" fill-opacity=".039" d="M76.015 662.269c.98.293 1.671.58 2.617.959l-3.05.534c-1.522-.226-2.716-.377-4.232-.707 2.192-.135 2.839.349 4.665-.786"/><path fill="#fefefe" fill-opacity=".024" d="M213.368 783.448c.741-.129 6.17-.883 6.694-.636.17.417-1.672 1.012-1.856 1.091-1.625-.172-3.208-.27-4.838-.455"/><path fill="#58565a" fill-opacity=".961" d="M496.983 975.531c-.549-.009-2.916.168-3.205-.301.103-.714 3.131-1.359 3.747-1.561z"/><path fill="#fdfdfe" fill-opacity=".059" d="m448.883 857.089.8-.288c.418-.177 1.521-.781 1.932-.456.051.65-1.721 1.839-2.139 2.17z"/></svg>